<?xml version="1.0" standalone="no"?>
<!DOCTYPE svg PUBLIC "-//W3C//DTD SVG 1.1//EN" "http://www.w3.org/Graphics/SVG/1.1/DTD/svg11.dtd" >
<svg xmlns="http://www.w3.org/2000/svg" xmlns:xlink="http://www.w3.org/1999/xlink" version="1.1">
<metadata>
Created by FontForge 20170731 at Wed Nov 17 10:30:27 2021
 By Aleksey,,,
Copyright (c) 1985, 1987, 1997, 1998, 2001 Adobe Systems Incorporated.  All Rights Reserved.
</metadata>
<defs>
<font id="LubalinGraphStd-Demi" horiz-adv-x="1187" >
  <font-face 
    font-family="ITC Lubalin Graph Std Book"
    font-weight="600"
    font-stretch="normal"
    units-per-em="2048"
    panose-1="2 6 7 3 2 2 5 2 4 4"
    ascent="1473"
    descent="-575"
    x-height="1094"
    cap-height="1462"
    bbox="-346 -573 2540 2083"
    underline-thickness="102"
    underline-position="-307"
    unicode-range="U+0020-FB02"
  />
<missing-glyph horiz-adv-x="1024" 
d="M0 0v1434h1024v-1434h-1024zM512 809l348 522h-696zM573 717l349 -522v1044zM164 102h696l-348 523zM102 1239v-1044l349 522z" />
    <glyph glyph-name="fi" unicode="fi" horiz-adv-x="1105" 
d="M958 233h142v-233h-1065v233h141v627h-141v234h141q-3 207 105 308t319 99v-219q-95 3 -137.5 -46t-36.5 -142h532v-861zM958 1462v-264h-249v264h249zM709 233v627h-283v-627h283z" />
    <glyph glyph-name="fl" unicode="fl" horiz-adv-x="1105" 
d="M956 1501v-1268h142v-233h-1063v233h141v627h-141v234h141q1 223 111.5 315t337.5 92h331zM426 860v-627h281v1049h-54q-63 0 -99 -5t-69.5 -23.5t-47 -57.5t-11.5 -102h143v-234h-143z" />
    <glyph glyph-name=".notdef" horiz-adv-x="1024" 
d="M0 0v1434h1024v-1434h-1024zM512 809l348 522h-696zM573 717l349 -522v1044zM164 102h696l-348 523zM102 1239v-1044l349 522z" />
    <glyph glyph-name=".null" horiz-adv-x="0" 
 />
    <glyph glyph-name="nonmarkingreturn" horiz-adv-x="682" 
 />
    <glyph glyph-name="space" unicode=" " horiz-adv-x="614" 
 />
    <glyph glyph-name="exclam" unicode="!" horiz-adv-x="409" 
d="M334 289v-289h-258v289h258zM334 1462v-1024h-258v1024h258z" />
    <glyph glyph-name="quotedbl" unicode="&#x22;" horiz-adv-x="819" 
d="M674 874h-150l-53 588h258zM276 874h-149l-53 588h258z" />
    <glyph glyph-name="numbersign" unicode="#" 
d="M827 489l-71 -489h-156l70 489h-211l-70 -489h-156l70 489h-248v154h273l30 209h-243v154h266l65 456h154l-63 -456h211l65 456h156l-66 -456h232v-154h-254l-29 -209h223v-154h-248zM723 852h-211l-29 -209h209z" />
    <glyph glyph-name="dollar" unicode="$" 
d="M129 434h244q-5 -97 59.5 -165t161.5 -68q88 0 147.5 54.5t59.5 141.5q0 49 -18.5 86.5t-54.5 62t-70 39t-83 29.5q-76 23 -108.5 33t-93 36t-99.5 54q-77 55 -120 142.5t-43 185.5q0 155 104 272.5t258 137.5v215h213v-238q73 -11 121 -78v88h192v-401h-227
q-5 82 -59.5 134t-137.5 52q-80 0 -136 -48.5t-56 -127.5q0 -45 16 -78.5t46.5 -55.5t63 -35t77.5 -25q223 -58 317 -125q85 -60 130.5 -147t45.5 -191q0 -173 -110 -297t-283 -152v-211h-213v246l-16 2q-47 16 -70 31t-51 51v-84h-207v434z" />
    <glyph glyph-name="percent" unicode="%" horiz-adv-x="1761" 
d="M1333 -23q-153 0 -258.5 108t-105.5 261q0 149 106 254t254 105q151 0 259 -105.5t108 -255.5q0 -151 -106.5 -259t-256.5 -108zM1335 190q61 0 104.5 45t43.5 107t-44.5 107t-105.5 45q-62 0 -106.5 -43.5t-44.5 -106.5t44.5 -108.5t108.5 -45.5zM430 766
q-153 0 -258.5 108t-105.5 261q0 147 106.5 252.5t253.5 105.5q151 0 259 -106.5t108 -256.5q0 -151 -105.5 -257.5t-257.5 -106.5zM430 979q62 0 106 44t44 105q0 63 -44.5 107.5t-107.5 44.5q-62 0 -105.5 -43t-43.5 -104q0 -65 43.5 -109.5t107.5 -44.5zM651 0h-202
l659 1462h201z" />
    <glyph glyph-name="ampersand" unicode="&#x26;" horiz-adv-x="1474" 
d="M1382 150l-172 -170l-231 229q-174 -238 -440 -238q-120 0 -226 53t-172.5 151.5t-66.5 219.5q0 72 23 134.5t68.5 113.5t93 89t114.5 79l-15 14q-74 77 -109.5 148t-35.5 166q0 156 110 259t267 103q151 0 258.5 -98t107.5 -246q0 -110 -64.5 -200t-168.5 -150l235 -232
l144 312h303v-228h-145l-127 -258zM803 383l-273 268q-86 -44 -137 -99t-51 -138q0 -86 63.5 -145.5t149.5 -59.5q87 0 144.5 45t103.5 129zM559 963l19 -17q149 94 149 195q0 60 -38 102.5t-97 42.5q-60 0 -97.5 -41t-37.5 -102q0 -55 26 -95.5t76 -84.5z" />
    <glyph glyph-name="quotesingle" unicode="'" horiz-adv-x="409" 
d="M276 874h-149l-53 588h258z" />
    <glyph glyph-name="parenleft" unicode="(" horiz-adv-x="737" 
d="M680 39v-311q-273 98 -439.5 337.5t-166.5 530.5q0 190 74.5 365.5t213.5 308.5t318 192v-305q-150 -86 -237 -236t-87 -323q0 -171 87.5 -324.5t236.5 -234.5z" />
    <glyph glyph-name="parenright" unicode=")" horiz-adv-x="737" 
d="M74 1157v305q179 -59 318 -192t213.5 -308.5t74.5 -365.5q0 -192 -75 -367t-213 -306t-318 -195v311q149 81 236 234.5t87 324.5q0 173 -86.5 322t-236.5 237z" />
    <glyph glyph-name="asterisk" unicode="*" horiz-adv-x="737" 
d="M668 1245v-129l-187 4l105 -153l-111 -74l-100 174l-90 -174l-113 63l98 160l-200 -12v131l192 -6l-112 160l112 73l107 -176l96 176l117 -69l-103 -158z" />
    <glyph glyph-name="plus" unicode="+" horiz-adv-x="1351" 
d="M156 827h426v426h188v-426h426v-188h-426v-426h-188v426h-426v188z" />
    <glyph glyph-name="comma" unicode="," horiz-adv-x="614" 
d="M289 0h-111v289h258v-328q0 -68 -8.5 -110.5t-40.5 -81.5q-34 -41 -71.5 -52.5t-98.5 -11.5h-39v139h27q24 0 40.5 8t25 18.5t12.5 30.5t5 34t1 38v27z" />
    <glyph glyph-name="hyphen" unicode="-" horiz-adv-x="655" 
d="M590 414h-524v248h524v-248z" />
    <glyph glyph-name="period" unicode="." horiz-adv-x="614" 
d="M436 289v-289h-258v289h258z" />
    <glyph glyph-name="slash" unicode="/" 
d="M254 -399h-180l915 1861h182z" />
    <glyph glyph-name="zero" unicode="0" 
d="M1122 942v-410q0 -128 -28.5 -217t-108.5 -172q-80 -81 -181.5 -126.5t-211.5 -45.5q-101 0 -198 40t-173 112q-90 85 -122.5 178.5t-32.5 230.5v410q0 129 27.5 217.5t107.5 171.5q77 80 179.5 125t211.5 45q104 0 200.5 -39t172.5 -110q91 -85 124 -179.5t33 -230.5z
M340 942v-414q0 -71 8.5 -117.5t38.5 -91.5q68 -98 207 -98q67 0 124.5 29t90.5 84q25 41 32 85t7 109v414q0 71 -8.5 117.5t-40.5 91.5q-33 49 -87.5 74.5t-117.5 25.5q-67 0 -124.5 -29.5t-90.5 -84.5q-18 -29 -27 -64.5t-10.5 -60t-1.5 -70.5z" />
    <glyph glyph-name="one" unicode="1" 
d="M760 1462v-1229h172v-233h-615v233h172v996h-215v233h486z" />
    <glyph glyph-name="two" unicode="2" 
d="M831 389h240v-389h-960v233l526 510q4 4 26 25.5t28 27.5t25.5 26t26.5 30t21.5 29t20.5 32.5t14 32.5t11 37t3 37q0 91 -65 151t-156 60q-101 0 -164.5 -72t-58.5 -174h-265q-1 145 63 263t179.5 185.5t259.5 67.5q130 0 239.5 -64t172.5 -174t63 -241q0 -62 -16.5 -120
t-37.5 -98.5t-64.5 -91.5t-72.5 -79.5t-87 -81.5l-346 -318h374v156z" />
    <glyph glyph-name="three" unicode="3" 
d="M86 422h276q14 -89 78.5 -148t153.5 -59q97 0 166 68.5t69 165.5q0 111 -73.5 177t-184.5 66h-55l-12 -2v213h57q99 0 163 46t64 143q0 81 -52 131.5t-132 50.5q-74 0 -124.5 -47.5t-53.5 -122.5h-252q1 116 63 208t161 140.5t212 48.5q112 0 208 -45.5t157 -134.5
t61 -203q0 -93 -45.5 -177t-124.5 -124q113 -41 181.5 -146.5t68.5 -230.5q0 -93 -40 -179t-111 -152q-144 -138 -355 -138q-100 0 -192 31t-164.5 87t-117.5 142.5t-50 190.5z" />
    <glyph glyph-name="four" unicode="4" 
d="M1184 602v-213h-219v-156h170v-233h-611v233h170v156h-674v213l631 860h314v-860h219zM694 602v531l-377 -531h377z" />
    <glyph glyph-name="five" unicode="5" 
d="M57 391h287q31 -79 95.5 -123.5t150.5 -44.5q116 0 195 79t79 194t-81 191.5t-195 76.5q-77 0 -139.5 -38t-96.5 -105l-229 59l131 782h778v-233h-563l-57 -309q110 77 256 77q135 0 245.5 -69t172 -183.5t61.5 -248.5q0 -151 -77 -272.5t-204.5 -187t-277.5 -65.5
q-199 0 -344.5 114t-186.5 306z" />
    <glyph glyph-name="six" unicode="6" 
d="M584 1462h305l-340 -485q57 33 129 33q130 0 237.5 -71t166.5 -185t59 -242q0 -148 -71 -272.5t-195.5 -196.5t-274.5 -72q-100 0 -203 43t-176 113q-77 77 -118.5 182.5t-41.5 214.5q0 97 33 182t96 179zM602 236q111 0 193 78.5t82 187.5q0 115 -79 195.5t-194 80.5
q-113 0 -193.5 -77.5t-80.5 -190.5t78.5 -193.5t193.5 -80.5z" />
    <glyph glyph-name="seven" unicode="7" 
d="M117 1462h970v-235l-544 -1227h-301l565 1229h-426v-236h-264v469z" />
    <glyph glyph-name="eight" unicode="8" 
d="M848 815q115 -38 185.5 -143.5t70.5 -229.5q0 -137 -73.5 -246.5t-190 -167t-250.5 -57.5q-99 0 -190.5 31.5t-161.5 88.5t-112 144t-42 191q0 122 70.5 226.5t183.5 148.5q-85 38 -133.5 118t-48.5 175q0 91 36.5 168.5t98 129t142 80.5t167.5 29q107 0 201.5 -48.5
t153.5 -138t59 -198.5q0 -197 -166 -301zM592 209q94 0 160.5 69.5t66.5 163.5q0 97 -69 165.5t-166 68.5t-164.5 -68.5t-67.5 -165.5q0 -99 70.5 -166t169.5 -67zM586 897q76 0 130 54.5t54 129.5q0 76 -54 132.5t-128 56.5q-77 0 -133 -54.5t-56 -130.5q0 -78 54 -133
t133 -55z" />
    <glyph glyph-name="nine" unicode="9" 
d="M637 0h-338l365 485q-70 -34 -129 -34q-136 0 -247 73t-171 190.5t-60 250.5q0 107 45 206t119 171.5t175 115.5t208 43q102 0 201.5 -39.5t175.5 -109.5q168 -158 168 -402q0 -105 -28.5 -184t-92.5 -176zM604 686q116 0 195.5 81.5t79.5 197.5q0 110 -82 189t-193 79
q-113 0 -194.5 -79t-81.5 -189q0 -116 80 -197.5t196 -81.5z" />
    <glyph glyph-name="colon" unicode=":" horiz-adv-x="614" 
d="M436 289v-289h-258v289h258zM436 1053v-289h-258v289h258z" />
    <glyph glyph-name="semicolon" unicode=";" horiz-adv-x="614" 
d="M436 289v-328q0 -68 -8.5 -110.5t-40.5 -81.5q-34 -41 -71.5 -52.5t-98.5 -11.5h-39v139h27q24 0 40.5 8t25 18.5t12.5 30.5t5 34t1 38v27h-111v289h258zM436 1053v-289h-258v289h258z" />
    <glyph glyph-name="less" unicode="&#x3c;" horiz-adv-x="1351" 
d="M1219 324v-187l-1106 506v180l1106 510v-188l-922 -414z" />
    <glyph glyph-name="equal" unicode="=" horiz-adv-x="1351" 
d="M156 987h1040v-190h-1040v190zM156 668h1040v-191h-1040v191z" />
    <glyph glyph-name="greater" unicode="&#x3e;" horiz-adv-x="1351" 
d="M113 324l921 407l-921 414v188l1106 -510v-180l-1106 -506v187z" />
    <glyph glyph-name="question" unicode="?" horiz-adv-x="1105" 
d="M692 289v-289h-258v289h258zM692 410h-258q0 83 28.5 154t68 119t108.5 112q32 29 42.5 38.5t34.5 36t33 44t18 45.5t9 57q0 88 -63 153.5t-150 65.5q-99 0 -161 -67.5t-64 -168.5h-264q-2 136 61.5 251.5t177.5 183t252 67.5q127 0 237.5 -65t176 -175.5t65.5 -238.5
q0 -69 -17 -125.5t-45.5 -95t-62.5 -72t-70.5 -65.5t-68 -66t-55.5 -82t-33 -106z" />
    <glyph glyph-name="at" unicode="@" horiz-adv-x="1802" 
d="M1505 307l43 -92q-115 -127 -255.5 -185.5t-317.5 -58.5q-152 0 -301.5 51.5t-259.5 147.5q-114 99 -180 248t-66 303q0 157 64.5 302t172 249.5t253.5 166.5t303 62q135 0 257.5 -45t215 -124.5t147.5 -197.5t55 -255q0 -214 -106 -359q-60 -83 -151 -137.5t-185 -54.5
q-66 0 -101 31.5t-44 97.5q-94 -121 -236 -121q-131 0 -208 96t-77 232q0 85 36 172.5t95 157t142.5 113.5t171.5 44q65 0 121 -34.5t80 -92.5l22 63h147l-151 -491q-18 -61 -18 -90q0 -62 61 -62q47 0 100.5 36t87.5 79q99 122 99 301q0 120 -44.5 219t-121.5 164.5
t-179.5 101t-220.5 35.5q-271 0 -460 -186q-197 -194 -197 -463q0 -187 89.5 -334.5t242 -227t338.5 -79.5q162 0 292.5 52t243.5 165zM840 477q150 0 225 203q41 113 41 192q0 63 -35 102.5t-98 39.5q-61 0 -115.5 -34.5t-90 -88t-56.5 -115.5t-21 -119q0 -75 39.5 -127.5
t110.5 -52.5z" />
    <glyph glyph-name="A" unicode="A" horiz-adv-x="1597" 
d="M975 0v205h162l-86 219h-514l-84 -219h157v-205h-596v233h156l426 996h-162v233h490l512 -1229h155v-233h-616zM981 639l-184 502h-2l-187 -502h373z" />
    <glyph glyph-name="B" unicode="B" horiz-adv-x="1228" 
d="M45 0v233h158v996h-158v233h649q96 0 169.5 -15.5t133.5 -60.5q138 -106 138 -290q0 -102 -50 -186t-141 -126q122 -50 188 -148t66 -228q0 -89 -36 -171.5t-101 -138.5q-67 -59 -146.5 -78.5t-189.5 -19.5h-680zM483 1229v-350h142h24.5h26t23.5 0.5t25 2t22 4t23.5 6.5
t21.5 9.5t22 13.5q66 48 66 140q0 96 -76 145q-11 7 -22 12t-26 8t-23 5t-28 3t-24.5 1h-28h-24.5h-144zM481 649v-405h154q50 0 73 1t63.5 9.5t66.5 26.5q39 26 60.5 69t21.5 90q0 106 -80 166q-28 20 -65.5 30t-63.5 11.5t-74 1.5h-156z" />
    <glyph glyph-name="C" unicode="C" horiz-adv-x="1556" 
d="M1470 1001h-266q-61 103 -172 163.5t-231 60.5q-206 0 -342.5 -139t-136.5 -345q0 -197 139 -339t336 -142q127 0 235.5 58t175.5 163h301q-72 -223 -273 -366.5t-437 -143.5q-147 0 -289.5 60.5t-247.5 165.5q-107 108 -164 250t-57 296q0 151 59 291t158 242.5
t238 163.5t292 61q131 0 248.5 -45t204.5 -135v147h229v-467z" />
    <glyph glyph-name="D" unicode="D" horiz-adv-x="1515" 
d="M45 0v233h160v996h-160v233h694q163 0 284 -42.5t226 -149.5q103 -105 155 -245.5t52 -297.5q0 -142 -48 -275t-140 -235q-104 -118 -233.5 -167.5t-299.5 -49.5h-690zM483 1214v-962h219q120 0 205.5 26t151.5 103q58 67 88.5 160t30.5 186q0 105 -31.5 204t-95.5 167
q-69 70 -148.5 93t-195.5 23h-224z" />
    <glyph glyph-name="E" unicode="E" 
d="M45 0v233h160v996h-160v233h1083v-440h-278v190h-367v-364h426v-217h-426v-387h367v198h278v-442h-1083z" />
    <glyph glyph-name="F" unicode="F" 
d="M205 233v996h-160v233h1092v-440h-279v190h-375v-374h424v-215h-424v-390h160v-233h-598v233h160z" />
    <glyph glyph-name="G" unicode="G" horiz-adv-x="1597" 
d="M1540 772v-772h-231v225q-83 -123 -218 -188.5t-290 -65.5t-296 60.5t-242.5 163t-161.5 243.5t-60 297q0 310 207 529q106 111 251.5 174t297.5 63q259 0 460 -174v135h230v-430h-303q-71 95 -166 142q-94 49 -215 49q-203 0 -342 -140.5t-139 -343.5q0 -202 139 -345.5
t340 -143.5q147 0 261.5 76t168.5 211h-541v235h850z" />
    <glyph glyph-name="H" unicode="H" horiz-adv-x="1515" 
d="M1047 877v352h-158v233h594v-233h-158v-996h158v-233h-594v233h158v365h-564v-365h158v-233h-596v233h160v996h-160v233h596v-233h-158v-352h564z" />
    <glyph glyph-name="I" unicode="I" horiz-adv-x="696" 
d="M483 1229v-996h158v-233h-596v233h160v996h-160v233h596v-233h-158z" />
    <glyph glyph-name="J" unicode="J" horiz-adv-x="1105" 
d="M25 412h290q2 -73 45 -128t115 -55q88 0 137 80q29 51 29 185v735h-160v233h596v-233h-157v-770q0 -115 -19 -191t-82 -149q-61 -69 -153 -108.5t-189 -39.5q-200 0 -329.5 122.5t-122.5 318.5z" />
    <glyph glyph-name="K" unicode="K" horiz-adv-x="1474" 
d="M1438 233v-233h-623v233h143l-475 453v-453h158v-233h-596v233h160v996h-160v233h596v-233h-158v-428l453 428h-131v233h602v-233h-125l-520 -479l547 -517h129z" />
    <glyph glyph-name="L" unicode="L" horiz-adv-x="1146" 
d="M45 0v233h160v996h-160v233h596v-233h-158v-979h351v192h278v-442h-1067z" />
    <glyph glyph-name="M" unicode="M" horiz-adv-x="1966" 
d="M1769 1229v-996h160v-233h-596v233h158v850l-404 -1083h-196l-416 1083v-850h170v-233h-608v233h160v996h-160v233h549l397 -1032l397 1032h549v-233h-160z" />
    <glyph glyph-name="N" unicode="N" horiz-adv-x="1638" 
d="M1430 1229v-1229h-261l-688 963v-730h160v-233h-596v233h158v996h-158v233h410l696 -979v746h-160v233h596v-233h-157z" />
    <glyph glyph-name="O" unicode="O" horiz-adv-x="1597" 
d="M807 -31q-156 0 -297.5 60t-244 162t-163.5 243.5t-61 296.5q0 127 39 244.5t110.5 212t166.5 165t212.5 108.5t243.5 38q153 0 294 -60t243.5 -161.5t163.5 -241.5t61 -293q0 -158 -60.5 -301t-162.5 -247t-244.5 -165t-300.5 -61zM807 248q133 0 244 66.5t174 180
t63 246.5q0 129 -64 239.5t-174 175.5t-239 65q-131 0 -242 -64t-176 -175t-65 -243q0 -204 139 -347.5t340 -143.5z" />
    <glyph glyph-name="P" unicode="P" horiz-adv-x="1228" 
d="M47 1462h582q258 0 389 -96q90 -66 135 -165t45 -216q0 -98 -36.5 -187.5t-104.5 -156.5q-75 -77 -164 -106t-209 -29h-201v-273h160v-233h-596v233h158v996h-158v233zM483 758h166q44 0 70 2t59.5 13.5t59.5 33.5q80 68 80 178q0 54 -25 101.5t-68 76.5q-40 29 -82 37
t-106 8h-154v-450z" />
    <glyph glyph-name="Q" unicode="Q" horiz-adv-x="1761" 
d="M1563 332h204v-371l-86 -6q-261 0 -450 147q-200 -131 -428 -131q-158 0 -300 61t-243 164.5t-160 246t-59 300.5q0 153 60.5 293.5t162 242t242 162t293.5 60.5q156 0 298.5 -60t246 -161.5t164.5 -243t61 -297.5q0 -132 -44.5 -257t-129.5 -220q83 -59 168 -65v135z
M328 782l6 -75q119 49 256 49q171 0 314 -80.5t276 -224.5q102 120 102 278q0 205 -139.5 349.5t-343.5 144.5q-98 0 -188 -38.5t-156 -109.5q-57 -61 -92 -138.5t-35 -154.5zM809 250q117 0 203 55q-103 107 -208 166t-231 59q-104 0 -184 -45q63 -112 175.5 -173.5
t244.5 -61.5z" />
    <glyph glyph-name="R" unicode="R" horiz-adv-x="1310" 
d="M203 233v996h-158v233h653q124 0 214 -22t169 -90q85 -73 129.5 -172t44.5 -213q0 -107 -43.5 -203.5t-127.5 -162.5t-191 -75l227 -291h166v-233h-342l-463 657v-424h125v-233h-561v233h158zM481 684h152q80 0 137 11t107 48q100 77 100 211q0 60 -25 115.5t-71 91.5
q-29 24 -66 36t-63.5 13.5t-77.5 1.5h-193v-528z" />
    <glyph glyph-name="S" unicode="S" horiz-adv-x="1064" 
d="M51 434h254q0 -94 59.5 -158.5t157.5 -64.5q93 0 154 54.5t61 146.5q0 30 -9 56t-20 44t-35 35.5t-39.5 26.5t-48.5 21.5t-47.5 16.5t-50.5 15q-70 20 -105 32t-87 36.5t-94 56.5q-160 120 -160 319q0 118 61 215.5t162.5 152t218.5 54.5q174 0 260 -113v82h213v-393
h-249q-2 82 -56 136.5t-135 54.5q-85 0 -142 -49.5t-57 -133.5q0 -49 17 -84t58 -58.5t67.5 -33.5t84.5 -27q9 -3 13 -4q73 -20 114 -33t98 -39.5t101 -60.5q146 -118 146 -307q0 -198 -131.5 -328.5t-331.5 -130.5q-179 0 -281 125v-96h-221v434z" />
    <glyph glyph-name="T" unicode="T" horiz-adv-x="1228" 
d="M756 1214v-981h159v-233h-598v233h160v981h-215v-213h-221v461h1151v-461h-221v213h-215z" />
    <glyph glyph-name="U" unicode="U" horiz-adv-x="1433" 
d="M836 1462h569v-233h-158v-725q0 -125 -28 -215t-105 -170q-141 -148 -387 -148q-239 0 -377 135q-84 82 -114.5 178t-30.5 228v717h-158v233h569v-233h-133v-688q0 -44 2 -72.5t12 -66t29 -66.5q33 -50 86.5 -76.5t114.5 -26.5q117 0 188 89q54 69 54 219v688h-133v233z
" />
    <glyph glyph-name="V" unicode="V" horiz-adv-x="1515" 
d="M1343 1229l-446 -1229h-305l-420 1229h-158v233h592v-233h-139l289 -844l309 844h-141v233h575v-233h-156z" />
    <glyph glyph-name="W" unicode="W" horiz-adv-x="2088" 
d="M1901 1229l-326 -1229h-264l-271 965l-270 -965h-260l-350 1229h-146v233h594v-233h-159l206 -768l265 1001h235l281 -993l196 760h-164v233h594v-233h-161z" />
    <glyph glyph-name="X" unicode="X" horiz-adv-x="1515" 
d="M1477 233v-233h-600v215h143l-262 334l-264 -334h145v-215h-600v233h143l408 508l-385 488h-150v233h602v-215h-135l236 -311l235 311h-135v215h604v-233h-147l-393 -488l405 -508h150z" />
    <glyph glyph-name="Y" unicode="Y" horiz-adv-x="1392" 
d="M827 510v-277h160v-233h-596v233h158v277l-387 719h-148v233h566v-233h-136l246 -484l244 484h-139v233h563v-233h-146z" />
    <glyph glyph-name="Z" unicode="Z" horiz-adv-x="1146" 
d="M1104 444v-444h-1063v219l696 1000h-413v-201h-248v444h997v-211l-700 -1007h475v200h256z" />
    <glyph glyph-name="bracketleft" unicode="[" horiz-adv-x="778" 
d="M694 -29v-235h-610v1726h610v-235h-329v-1256h329z" />
    <glyph glyph-name="backslash" unicode="\" horiz-adv-x="1269" 
d="M846 0l-625 1462h207l623 -1462h-205z" />
    <glyph glyph-name="bracketright" unicode="]" horiz-adv-x="778" 
d="M84 -29h330v1256h-330v235h610v-1726h-610v235z" />
    <glyph glyph-name="asciicircum" unicode="^" horiz-adv-x="1351" 
d="M264 356h-186l506 1106h180l510 -1106h-187l-415 908z" />
    <glyph glyph-name="underscore" unicode="_" horiz-adv-x="1024" 
d="M0 -154h1024v-102h-1024v102z" />
    <glyph glyph-name="grave" unicode="`" horiz-adv-x="942" 
d="M795 1411l-84 -182l-566 256l101 221z" />
    <glyph glyph-name="a" unicode="a" horiz-adv-x="1351" 
d="M938 0v147q-58 -88 -149.5 -132t-202.5 -44q-153 0 -282.5 77.5t-204 208.5t-74.5 284q0 156 76 290t208.5 212.5t288.5 78.5q106 0 194.5 -47.5t145.5 -136.5v156h391v-234h-137v-627h137v-233h-391zM608 215q140 0 237 99t97 239q0 135 -97.5 230.5t-232.5 95.5
q-138 0 -233.5 -99.5t-95.5 -238.5q0 -133 96.5 -229.5t228.5 -96.5z" />
    <glyph glyph-name="b" unicode="b" horiz-adv-x="1351" 
d="M426 1462v-526q58 85 145.5 129.5t192.5 44.5q114 0 218 -45t179.5 -120.5t120.5 -179.5t45 -218q0 -107 -38 -207.5t-109 -177.5q-73 -81 -177 -129.5t-210 -48.5q-111 0 -208 46.5t-159 133.5v-164h-391v233h141v996h-141v233h391zM748 883q-137 0 -234.5 -97
t-97.5 -233q0 -142 98.5 -240t239.5 -98q136 0 230.5 100t94.5 236q0 137 -97.5 234.5t-233.5 97.5z" />
    <glyph glyph-name="c" unicode="c" 
d="M866 369h279q-51 -172 -206.5 -285t-336.5 -113q-156 0 -289 77t-210.5 209.5t-77.5 289.5q0 150 71.5 283t199.5 214.5t279 81.5q186 0 314 -137v105h215v-365h-234q-46 67 -116 109q-71 41 -156 41q-138 0 -231 -97t-93 -235q0 -139 96.5 -234.5t233.5 -95.5
q82 0 155 41t107 111z" />
    <glyph glyph-name="d" unicode="d" horiz-adv-x="1351" 
d="M940 0v164q-60 -90 -153 -135t-205 -45q-150 0 -278.5 77t-203.5 207t-75 279q0 113 43.5 217t117.5 180.5t177.5 122t216.5 45.5q105 0 200.5 -47t159.5 -131v295h-143v233h393v-1229h141v-233h-391zM614 213q139 0 235.5 99.5t96.5 238.5q0 135 -97 231.5t-231 96.5
q-139 0 -236 -98t-97 -238q0 -135 96.5 -232.5t232.5 -97.5z" />
    <glyph glyph-name="e" unicode="e" 
d="M858 322h260q-65 -158 -206 -254.5t-310 -96.5q-157 0 -289 75t-209 207t-77 290q0 160 73.5 293.5t204.5 211.5t291 78q113 0 221.5 -47t188.5 -129q153 -161 153 -409l-8 -88h-885q25 -114 118 -188.5t210 -74.5q175 0 264 132zM264 645h664q-32 118 -126.5 188
t-217.5 70q-110 0 -203.5 -75.5t-116.5 -182.5z" />
    <glyph glyph-name="f" unicode="f" horiz-adv-x="655" 
d="M426 860v-627h143v-233h-534v233h141v627h-141v234h141q-1 203 107.5 305t316.5 102v-223q-93 1 -136 -46.5t-38 -137.5h143v-234h-143z" />
    <glyph glyph-name="g" unicode="g" horiz-adv-x="1351" 
d="M86 -94h289q31 -65 100 -100t146 -35q65 0 127.5 26.5t103.5 73.5q48 57 62 111.5t14 142.5v41q-112 -182 -350 -182q-152 0 -280 77.5t-200.5 207t-72.5 280.5q0 148 75 278t203.5 207.5t276.5 77.5q249 0 364 -178v160h371v-234h-141v-715q0 -147 -26 -242.5
t-112 -181.5q-168 -165 -428 -165q-87 0 -169.5 21.5t-154.5 63.5t-124.5 110.5t-73.5 154.5zM281 551q0 -140 97 -238t236 -98q140 0 236 99.5t96 238.5q0 136 -98.5 233t-235.5 97q-136 0 -233.5 -97.5t-97.5 -234.5z" />
    <glyph glyph-name="h" unicode="h" horiz-adv-x="1310" 
d="M426 1462v-532q52 92 137 140t191 48q94 0 173.5 -42t135.5 -118t73 -154.5t17 -193.5v-377h141v-233h-532v233h141v310v33v36t-1 31.5t-3.5 35t-6.5 30.5t-10.5 33t-15.5 30q-64 100 -198 100q-56 0 -106 -23t-83 -65q-26 -32 -38 -72t-13.5 -65.5t-1.5 -81.5v-332h141
v-233h-532v233h141v996h-141v233h391z" />
    <glyph glyph-name="i" unicode="i" horiz-adv-x="614" 
d="M432 1094v-861h141v-233h-534v233h143v627h-141v234h391zM432 1462v-264h-250v264h250z" />
    <glyph glyph-name="j" unicode="j" horiz-adv-x="573" 
d="M451 1094v-1078q0 -213 -105 -314.5t-321 -113.5v232q26 1 48 6.5t38.5 13.5t30 19t22.5 24.5t16 29t10.5 32.5t6 35.5t3 38t1.5 39.5t0 40v21v741h-142v234h392zM451 1462v-264h-250v264h250z" />
    <glyph glyph-name="k" unicode="k" horiz-adv-x="1228" 
d="M428 604l281 281h-113v209h539v-234h-134l-301 -291l320 -336h172v-233h-596v233h92l-260 287v-287h98v-233h-491v233h143v996h-143v233h393v-858z" />
    <glyph glyph-name="l" unicode="l" horiz-adv-x="614" 
d="M436 1462v-1229h142v-233h-543v233h151v996h-141v233h391z" />
    <glyph glyph-name="m" unicode="m" horiz-adv-x="2007" 
d="M182 233v627h-141v234h369v-164q116 190 315 190q112 0 202.5 -62.5t137.5 -166.5q44 103 143.5 166t214.5 63q90 0 173.5 -36t142.5 -103q31 -36 49.5 -74t26 -86t9 -80.5t1.5 -93.5v-414h141v-233h-532v233h141v353q0 47 -1 71.5t-9 60.5t-23 66q-63 90 -178 90
q-53 0 -103 -21t-81 -60q-24 -31 -36 -67.5t-14 -63t-2 -76.5v-353h142v-233h-533v233h142v336q0 148 -33 205q-26 48 -74.5 74t-105.5 26q-109 0 -174 -79q-38 -46 -49 -97.5t-11 -126.5v-338h141v-233h-532v233h141z" />
    <glyph glyph-name="n" unicode="n" horiz-adv-x="1310" 
d="M176 233v627h-141v234h391v-156q48 88 134 134t190 46q90 0 172.5 -35.5t142.5 -99.5q43 -47 64 -103t24.5 -98t3.5 -120v-429h141v-233h-532v233h141v355q0 45 -1.5 70t-11.5 61.5t-30 64.5q-33 43 -84 65.5t-108 22.5q-59 0 -112.5 -24t-86.5 -68q-22 -28 -33 -72.5
t-12.5 -74.5t-1.5 -82v-318h141v-233h-532v233h141z" />
    <glyph glyph-name="o" unicode="o" 
d="M596 -29q-156 0 -288 79t-207.5 212.5t-75.5 288.5q0 117 46 224t123.5 183.5t184 122t223.5 45.5q154 0 285.5 -78t207.5 -210t76 -285q0 -157 -76 -291t-208.5 -212.5t-290.5 -78.5zM596 217q136 0 233 96.5t97 233.5q0 135 -94.5 234.5t-229.5 99.5q-136 0 -234 -96
t-98 -232q0 -137 94 -236.5t232 -99.5z" />
    <glyph glyph-name="p" unicode="p" horiz-adv-x="1351" 
d="M174 -166v1026h-139v234h391v-172q59 92 152 138t206 46q152 0 280.5 -76t202.5 -205.5t74 -281.5q0 -148 -72 -276.5t-198 -205.5t-274 -77q-111 0 -209 43t-162 127v-320h141v-233h-532v233h139zM754 215q135 0 232 96.5t97 231.5t-94 234.5t-229 99.5
q-139 0 -237.5 -96t-98.5 -236q0 -137 97 -233.5t233 -96.5z" />
    <glyph glyph-name="q" unicode="q" horiz-adv-x="1351" 
d="M940 -166v320q-64 -84 -162 -127t-209 -43q-148 0 -274 77t-198 205.5t-72 276.5q0 152 74.5 281.5t203.5 205.5t281 76q113 0 205 -46t151 -138v172h391v-234h-139v-1026h139v-233h-532v233h141zM612 215q138 0 234 96.5t96 233.5q0 140 -98 236t-238 96
q-135 0 -228 -99.5t-93 -234.5t96.5 -231.5t230.5 -96.5z" />
    <glyph glyph-name="r" unicode="r" horiz-adv-x="778" 
d="M408 1094v-187q46 94 132 144t195 55v-256q-134 -7 -215 -80q-56 -48 -75 -109.5t-19 -150.5v-277h141v-233h-532v233h141v627h-141v234h373z" />
    <glyph glyph-name="s" unicode="s" horiz-adv-x="942" 
d="M51 317h256q6 -74 53 -118.5t123 -44.5q60 0 105 38t45 97q0 18 -3 33t-11.5 27.5t-15 21.5t-21.5 17.5t-23 13.5t-28 11.5t-27 9t-30 8.5t-28 7q-51 13 -82.5 22t-79 26t-76.5 34t-63 43.5t-53 57t-32 73t-13 92.5q0 101 52.5 177.5t136 114.5t182.5 38q171 0 248 -98
v76h184v-297h-242q-3 58 -42.5 93.5t-98.5 35.5q-55 0 -97 -30.5t-42 -84.5q0 -29 12 -52.5t27.5 -37t44 -25t46.5 -16.5t50 -12q50 -11 85 -20.5t81 -26t77.5 -34t64.5 -44.5t53 -58.5t33 -75t13 -94.5q0 -106 -55.5 -186t-143 -119t-192.5 -39q-180 0 -282 119v-90h-191
v317z" />
    <glyph glyph-name="t" unicode="t" horiz-adv-x="696" 
d="M446 860v-627h199v-233h-448v860h-172v234h172v368h249v-368h187v-234h-187z" />
    <glyph glyph-name="u" unicode="u" horiz-adv-x="1310" 
d="M1126 1094v-861h142v-233h-371v135q-53 -78 -142.5 -121t-187.5 -43q-88 0 -167 36.5t-136 103.5q-56 66 -76 141.5t-20 175.5v432h-141v234h391v-592q0 -44 2 -72.5t12 -66.5t29 -66q61 -94 184 -94q52 0 102 24.5t82 65.5q22 31 33 70.5t13 67.5t2 77v352h-142v234h391
z" />
    <glyph glyph-name="v" unicode="v" horiz-adv-x="1228" 
d="M1090 860l-345 -860h-262l-336 860h-133v234h510v-234h-110l200 -553h2l215 553h-116v234h504v-234h-129z" />
    <glyph glyph-name="w" unicode="w" horiz-adv-x="1802" 
d="M1622 860l-299 -860h-242l-198 643l-236 -643h-233l-262 860h-138v234h506v-234h-121l158 -514h2l229 707h205l213 -707h2l168 514h-125v234h516v-234h-145z" />
    <glyph glyph-name="x" unicode="x" horiz-adv-x="1269" 
d="M1075 860l-278 -307l293 -320h127v-233h-517v205h86l-159 194l-162 -194h86v-205h-516v233h129l289 320l-283 307h-123v234h504v-193h-92l168 -190l166 190h-93v193h498v-234h-123z" />
    <glyph glyph-name="y" unicode="y" horiz-adv-x="1228" 
d="M1092 860l-424 -1026h143v-233h-532v233h137l73 180l-331 846h-144v234h516v-234h-106l194 -534l207 534h-106v234h510v-234h-137z" />
    <glyph glyph-name="z" unicode="z" horiz-adv-x="942" 
d="M49 1094h840v-226l-527 -635h336v121h220v-354h-893v201l555 659h-312v-129h-219v363z" />
    <glyph glyph-name="braceleft" unicode="{" horiz-adv-x="655" 
d="M440 346v-379q0 -99 34 -151t126 -80q-8 0 -42.5 -0.5t-44.5 0t-38 2t-41.5 5t-36 9t-41 14.5t-37.5 21q-37 24 -56 62t-23 70.5t-4 84.5v379q0 38 -1.5 57t-11.5 45t-30 50q-44 50 -119 69q55 9 104 45q28 22 41.5 53.5t15 53.5t1.5 67v336q0 52 2.5 85t17 77.5
t41.5 71.5q13 12 27 22t32 17t31 12.5t36.5 8.5t33.5 5t38 3t34.5 1h37.5h33q-88 -27 -124 -81.5t-36 -149.5v-354q0 -47 -3.5 -80t-14.5 -67t-30 -57t-51.5 -41t-78.5 -28q104 -25 141 -85t37 -173z" />
    <glyph glyph-name="bar" unicode="|" horiz-adv-x="1351" 
d="M582 1536h188v-2048h-188v2048z" />
    <glyph glyph-name="braceright" unicode="}" horiz-adv-x="655" 
d="M233 877v354q0 96 -34.5 150t-122.5 79q53 0 104 0.5t106 -16t91 -51.5q27 -27 41.5 -71.5t17 -77.5t2.5 -85v-336q0 -45 1.5 -67t15 -53.5t41.5 -53.5q49 -36 104 -45q-75 -19 -119 -69q-20 -24 -30 -50t-11.5 -45t-1.5 -57v-379q0 -51 -4 -84t-23.5 -71t-56.5 -62
q-19 -12 -37.5 -21t-40.5 -14.5l-36 -9t-41.5 -5t-37.5 -2t-43.5 0t-41.5 0.5q91 28 124 80t33 151v379q0 112 37.5 172.5t141.5 85.5q-107 23 -143 88.5t-36 184.5z" />
    <glyph glyph-name="asciitilde" unicode="~" horiz-adv-x="1351" 
d="M1104 918l147 -95q-79 -111 -119 -150q-94 -93 -214 -93q-37 0 -76.5 8t-64 16.5t-72.5 26.5l-99 39q-12 4 -40.5 15t-46.5 17t-43 11.5t-44 5.5q-22 0 -41 -4.5t-37 -17t-29 -20.5t-28 -31t-22.5 -30t-24.5 -36t-21 -33l-147 96q28 44 51 76t56.5 68.5t67 59t78 37.5
t93.5 15q74 0 171.5 -34.5t184 -68.5t134.5 -34q22 0 43 8t35 17t33 30.5t26.5 31t26 37t22.5 32.5z" />
    <glyph glyph-name="uni00A0" unicode="&#xa0;" horiz-adv-x="614" 
 />
    <glyph glyph-name="exclamdown" unicode="&#xa1;" horiz-adv-x="409" 
d="M76 805v289h258v-289h-258zM76 -371v1024h258v-1024h-258z" />
    <glyph glyph-name="cent" unicode="&#xa2;" 
d="M709 1407v-199q103 -25 172 -100v80h157v-332h-237q-25 51 -78 79t-113 28q-97 0 -164 -67t-67 -165q0 -99 69 -164t168 -65q103 0 177 90h274q-37 -128 -131 -213t-227 -121v-199h-205v207q-164 29 -273.5 162t-109.5 299q0 169 109 306t274 171v203h205z" />
    <glyph glyph-name="sterling" unicode="&#xa3;" 
d="M438 819h375v-205h-252q46 -57 70 -104.5t24 -106.5q0 -120 -92 -188h127q39 0 64 2t58 12t56 29q34 27 53 72t19 94q0 36 -12 76h215q20 -53 20 -109q0 -183 -139 -297q-111 -94 -319 -94h-590v215h151q60 9 95.5 52.5t35.5 109.5q0 45 -17 88t-35 68.5t-54 68.5
q-7 8 -10 12h-254v205h137q-62 98 -62 215q0 96 39.5 182.5t103.5 146.5t147 95t169 35q74 0 131 -28t111 -87v84h229v-405h-229q-4 91 -65.5 147t-147.5 56q-96 0 -162 -70t-66 -174q0 -109 76 -197z" />
    <glyph glyph-name="currency" unicode="&#xa4;" 
d="M76 319l112 111q-40 54 -62 127.5t-22 144.5q0 70 22 144.5t62 128.5l-110 108l141 142l107 -109q121 84 276 84q144 0 277 -82l106 107l141 -142l-108 -106q82 -118 82 -277q0 -78 -19 -138.5t-63 -133.5l108 -109l-141 -137l-106 107q-133 -86 -273 -86q-151 0 -278 86
l-109 -107zM602 975q-114 0 -193 -80t-79 -193t78.5 -193.5t191.5 -80.5t193.5 78.5t80.5 191.5q0 116 -79 196.5t-193 80.5z" />
    <glyph glyph-name="yen" unicode="&#xa5;" 
d="M860 0h-524v233h139v275l-16 31h-400v116h342l-39 88h-303v117h246l-174 371h-131v231h498v-231h-117l217 -488l215 488h-117v231h492v-231h-129l-170 -371h237v-117h-295l-43 -88h338v-116h-395l-12 -31v-275h141v-233z" />
    <glyph glyph-name="brokenbar" unicode="&#xa6;" horiz-adv-x="1351" 
d="M582 1382h188v-716h-188v716zM582 358h188v-716h-188v716z" />
    <glyph glyph-name="section" unicode="&#xa7;" horiz-adv-x="942" 
d="M76 115h219q-7 -84 42.5 -131t135.5 -47q75 0 128.5 41t53.5 114q0 26 -7.5 47.5t-16.5 36t-29 28t-32.5 20.5t-41 16t-40 12t-42.5 10q-348 80 -348 354q0 101 57.5 179t153.5 110q-200 76 -200 246q0 137 106 224t246 87q152 0 261.5 -86t108.5 -235h-208
q7 56 -39 92.5t-105 36.5q-64 0 -108.5 -38.5t-44.5 -101.5q0 -21 6.5 -40t14.5 -32t25.5 -26t28.5 -20t35.5 -16.5t35 -13t37.5 -11.5t34 -10q66 -18 111.5 -38.5t84.5 -56.5q53 -45 82 -109.5t29 -135.5q0 -93 -49 -167t-133 -118q95 -33 146.5 -100t51.5 -166
q0 -100 -56 -179t-142.5 -119t-184.5 -40q-171 0 -282 94q-58 48 -91.5 116.5t-33.5 141.5v31zM473 461q64 0 113 44t49 107q0 66 -49 110t-115 44q-68 0 -117 -44t-49 -110q0 -67 50.5 -109t117.5 -42z" />
    <glyph glyph-name="dieresis" unicode="&#xa8;" horiz-adv-x="942" 
d="M786 1462v-264h-249v264h249zM406 1462v-264h-250v264h250z" />
    <glyph glyph-name="copyright" unicode="&#xa9;" horiz-adv-x="1679" 
d="M1604 743q0 -159 -60 -302.5t-162.5 -246t-245.5 -163t-302 -60.5q-154 0 -294 61.5t-241 164.5t-161 244.5t-60 295.5q0 208 102 383.5t278 278t384 102.5q123 0 239 -38.5t210 -108.5t165 -163t109.5 -209t38.5 -239zM842 78q133 0 254.5 52t209.5 139.5t140.5 208
t52.5 253.5q0 137 -52 260.5t-140 212t-210.5 140t-258.5 51.5q-133 0 -254.5 -52.5t-210 -140.5t-141 -209t-52.5 -254q0 -180 89 -332.5t241 -240.5t332 -88zM1133 582l122 -39q-41 -125 -157 -191.5t-256 -66.5q-196 0 -315 124t-119 320q0 205 129 337t331 132
q84 0 163 -26t142.5 -84.5t81.5 -139.5l-139 -33q-17 95 -84.5 146t-169.5 51q-101 0 -175 -54.5t-108 -137.5t-34 -183q0 -155 81 -258.5t232 -103.5q101 0 171.5 54.5t103.5 152.5z" />
    <glyph glyph-name="ordfeminine" unicode="&#xaa;" horiz-adv-x="860" 
d="M565 825v72q-72 -90 -200 -90q-140 0 -239 102t-99 242t98 245t237 105q132 0 203 -92v74h246v-152h-84v-354h84v-152h-246zM377 967q79 0 133.5 55t54.5 135q0 76 -54.5 130t-129.5 54q-79 0 -133.5 -55.5t-54.5 -134.5q0 -75 54.5 -129.5t129.5 -54.5z" />
    <glyph glyph-name="guillemotleft" unicode="&#xab;" horiz-adv-x="737" 
d="M326 158l-252 293v194l252 291l12 -236l-131 -161l131 -160zM653 168l-250 283v186l250 295l13 -244l-127 -151l127 -152z" />
    <glyph glyph-name="logicalnot" unicode="&#xac;" horiz-adv-x="1351" 
d="M1081 356v441h-1001v190h1192v-631h-191z" />
    <glyph glyph-name="uni00AD" unicode="&#xad;" horiz-adv-x="655" 
d="M590 414h-524v248h524v-248z" />
    <glyph glyph-name="registered" unicode="&#xae;" horiz-adv-x="1679" 
d="M1604 735q0 -156 -61 -297.5t-164 -244t-245 -162.5t-298 -60q-155 0 -296 61.5t-242.5 164.5t-161.5 245t-60 297q0 156 61 297.5t164 243t244.5 161.5t296.5 60t296.5 -61t243.5 -163.5t162 -244t60 -297.5zM846 78q177 0 328 90t238 242t87 329q0 135 -52.5 257
t-141.5 210t-211.5 139.5t-257.5 51.5q-132 0 -253.5 -52.5t-209 -141t-139.5 -210t-52 -254.5q0 -137 52 -259.5t140.5 -210.5t211.5 -139.5t260 -51.5zM989 702l260 -411h-149l-246 411h-199v-411h-129v909h416q146 0 217 -41q107 -61 107 -207q0 -124 -74.5 -185.5
t-202.5 -64.5zM655 801h238q40 0 70 2.5t65 12t57 26t37 47t15 72.5q0 38 -14.5 66t-36 43.5t-54 24t-60 11t-63.5 2.5h-254v-307z" />
    <glyph glyph-name="macron" unicode="&#xaf;" horiz-adv-x="1064" 
d="M932 1505v-200h-787v200h787z" />
    <glyph glyph-name="degree" unicode="&#xb0;" horiz-adv-x="819" 
d="M717 1194q0 -127 -90.5 -217t-216.5 -90q-128 0 -218 90t-90 217q0 126 90.5 216.5t217.5 90.5q126 0 216.5 -90.5t90.5 -216.5zM573 1194q0 69 -47 116.5t-116 47.5t-116.5 -47.5t-47.5 -116.5q0 -68 47 -114.5t117 -49.5q69 0 116 47.5t47 116.5z" />
    <glyph glyph-name="plusminus" unicode="&#xb1;" horiz-adv-x="1351" 
d="M156 1016h426v237h188v-237h426v-189h-426v-241h-188v241h-426v189zM156 209v188h1040v-188h-1040z" />
    <glyph glyph-name="twosuperior" unicode="&#xb2;" horiz-adv-x="712" 
d="M668 600h-625v141l342 306q1 1 24 22t28.5 26t22.5 24t22.5 30t11.5 28.5t6 34.5q0 54 -43 90.5t-103 36.5q-65 0 -105.5 -43t-37.5 -104h-172q-2 132 91 220.5t235 88.5q129 0 219 -83.5t90 -203.5q0 -37 -10.5 -71.5t-24.5 -59.5t-42.5 -55t-48 -47.5t-56.5 -48.5
l-224 -191h244v93h156v-234z" />
    <glyph glyph-name="threesuperior" unicode="&#xb3;" horiz-adv-x="712" 
d="M287 1016v127h37q66 0 107.5 27t41.5 85q0 49 -34 79t-87 30q-48 0 -80.5 -28t-33.5 -72h-164q0 104 84.5 170.5t197.5 66.5q112 0 194.5 -63.5t82.5 -165.5q0 -56 -29.5 -106t-81.5 -74q74 -26 119 -89.5t45 -138.5q0 -118 -100 -199t-230 -81q-136 0 -235 73t-105 197
h179q9 -54 50.5 -89.5t100.5 -35.5q63 0 108.5 41.5t45.5 99.5q0 66 -48.5 106t-119.5 40h-45z" />
    <glyph glyph-name="acute" unicode="&#xb4;" horiz-adv-x="942" 
d="M231 1229l-86 178l543 307l109 -219z" />
    <glyph glyph-name="mu" unicode="&#xb5;" horiz-adv-x="1310" 
d="M1135 1094v-861h141v-233h-371v135q-53 -78 -142.5 -121t-187.5 -43q-81 0 -149 29v-399h-250v1259h-141v234h391v-592q0 -51 6 -92.5t21.5 -81t40 -66t65 -43t94.5 -16.5q15 0 35 3t57.5 19.5t66.5 44.5t51 84.5t22 132.5v373h-142v234h392z" />
    <glyph glyph-name="paragraph" unicode="&#xb6;" horiz-adv-x="1105" 
d="M453 1462h655v-233h-141v-1493h-185v1493h-200v-1493h-185v995q-154 5 -259 108t-105 257q0 80 32.5 152t92.5 124q61 54 129 72t166 18z" />
    <glyph glyph-name="periodcentered" unicode="&#xb7;" horiz-adv-x="614" 
d="M436 879v-289h-258v289h258z" />
    <glyph glyph-name="cedilla" unicode="&#xb8;" horiz-adv-x="737" 
d="M432 0l-57 -141l26 2q83 0 139 -61t56 -144q0 -100 -65.5 -164.5t-165.5 -64.5q-91 0 -154.5 60.5t-69.5 150.5h152q18 -62 74 -62q34 0 54.5 21t20.5 55q0 33 -21 56.5t-54 23.5q-40 0 -70 -33l-123 51l98 250h160z" />
    <glyph glyph-name="onesuperior" unicode="&#xb9;" horiz-adv-x="712" 
d="M453 1462v-737h112v-139h-399v139h110v598h-139v139h316z" />
    <glyph glyph-name="ordmasculine" unicode="&#xba;" horiz-adv-x="737" 
d="M373 817q-141 0 -240.5 101.5t-99.5 242.5q0 142 100.5 241t243.5 99q140 0 240 -99t100 -237q0 -143 -100 -245.5t-244 -102.5zM195 1161q0 -76 52 -130t126 -54q75 0 128.5 53.5t53.5 128.5q0 74 -52.5 128t-125.5 54q-75 0 -128.5 -53t-53.5 -127z" />
    <glyph glyph-name="guillemotright" unicode="&#xbb;" horiz-adv-x="737" 
d="M412 158l-11 221l129 160l-129 161l11 236l254 -291v-194zM86 168l-12 217l125 152l-125 151l12 244l248 -295v-186z" />
    <glyph glyph-name="onequarter" unicode="&#xbc;" horiz-adv-x="1781" 
d="M1700 360v-127h-144v-94h111v-139h-395v139h110v94h-438v127l410 517h202v-517h144zM596 0h-205l660 1462h200zM1382 360v318l-245 -318h245zM430 1462v-737h113v-139h-400v139h111v598h-139v139h315z" />
    <glyph glyph-name="onehalf" unicode="&#xbd;" horiz-adv-x="1781" 
d="M616 0h-204l659 1462h201zM453 1462v-737h112v-139h-399v139h110v598h-139v139h316zM1696 0h-625v141l342 305q3 3 21 19t24 22t20.5 21t20.5 24.5t14.5 23.5t11.5 27.5t3 28.5q0 54 -43 90.5t-103 36.5q-65 0 -105.5 -43t-37.5 -104h-172q-2 132 91 220.5t235 88.5
q129 0 219 -83.5t90 -203.5q0 -37 -10.5 -71.5t-24.5 -59.5t-42.5 -55t-48 -47.5t-56.5 -48.5l-224 -191h244v92h156v-233z" />
    <glyph glyph-name="threequarters" unicode="&#xbe;" horiz-adv-x="1781" 
d="M1741 360v-127h-144v-94h111v-139h-395v139h110v94h-438v127l410 517h202v-517h144zM668 0h-205l659 1462h201zM1423 360v318l-245 -318h245zM291 1016v127h37q66 0 107.5 27t41.5 85q0 49 -34 79t-87 30q-48 0 -80.5 -28t-33.5 -72h-164q0 104 84.5 170.5t197.5 66.5
q112 0 194.5 -63.5t82.5 -165.5q0 -56 -29.5 -106t-81.5 -74q74 -26 119 -89.5t45 -138.5q0 -118 -100 -199t-230 -81q-136 0 -235 73t-105 197h179q9 -54 50.5 -89.5t100.5 -35.5q63 0 108.5 41.5t45.5 99.5q0 66 -48.5 106t-119.5 40h-45z" />
    <glyph glyph-name="questiondown" unicode="&#xbf;" horiz-adv-x="1105" 
d="M428 805v289h258v-289h-258zM428 682h258q0 -82 -28.5 -152.5t-68.5 -118.5t-108 -112q-38 -35 -53 -49t-40 -45t-34.5 -61.5t-9.5 -67.5q0 -87 62.5 -151t150.5 -64q99 0 161 66.5t64 166.5h262q2 -138 -61.5 -252.5t-177 -181t-250.5 -66.5q-96 0 -184.5 38.5
t-153.5 102.5t-104 152.5t-39 184.5q0 69 17 125.5t45.5 95t62.5 72t70.5 65.5t68.5 65.5t56.5 81.5t33.5 105z" />
    <glyph glyph-name="Agrave" unicode="&#xc0;" horiz-adv-x="1597" 
d="M975 0v205h162l-86 219h-514l-84 -219h157v-205h-596v233h156l426 996h-162v233h490l512 -1229h155v-233h-616zM981 639l-184 502h-2l-187 -502h373zM1081 1780l-84 -183l-565 256l100 222z" />
    <glyph glyph-name="Aacute" unicode="&#xc1;" horiz-adv-x="1597" 
d="M975 0v205h162l-86 219h-514l-84 -219h157v-205h-596v233h156l426 996h-162v233h490l512 -1229h155v-233h-616zM981 639l-184 502h-2l-187 -502h373zM518 1597l-86 179l543 307l108 -219z" />
    <glyph glyph-name="Acircumflex" unicode="&#xc2;" horiz-adv-x="1597" 
d="M975 0v205h162l-86 219h-514l-84 -219h157v-205h-596v233h156l426 996h-162v233h490l512 -1229h155v-233h-616zM981 639l-184 502h-2l-187 -502h373zM1210 1661h-282l-158 154l-158 -154h-282l354 344h172z" />
    <glyph glyph-name="Atilde" unicode="&#xc3;" horiz-adv-x="1597" 
d="M975 0v205h162l-86 219h-514l-84 -219h157v-205h-596v233h156l426 996h-162v233h490l512 -1229h155v-233h-616zM981 639l-184 502h-2l-187 -502h373zM1036 1923l121 -166q-107 -92 -229 -92q-60 0 -153.5 30.5t-133.5 30.5q-72 0 -137 -59l-131 184q41 33 98.5 54.5
t108.5 21.5q54 0 151 -29q88 -30 148 -30q97 0 157 55z" />
    <glyph glyph-name="Adieresis" unicode="&#xc4;" horiz-adv-x="1597" 
d="M975 0v205h162l-86 219h-514l-84 -219h157v-205h-596v233h156l426 996h-162v233h490l512 -1229h155v-233h-616zM981 639l-184 502h-2l-187 -502h373zM692 1831v-264h-250v264h250zM1073 1831v-264h-250v264h250z" />
    <glyph glyph-name="Aring" unicode="&#xc5;" horiz-adv-x="1597" 
d="M975 0v205h162l-86 219h-514l-84 -219h157v-205h-596v233h156l426 996h-162v233h490l512 -1229h155v-233h-616zM981 639l-184 502h-2l-187 -502h373zM778 1593q-101 0 -171 71t-70 173q0 99 71 168.5t170 69.5t168.5 -71.5t69.5 -170.5q0 -98 -70 -169t-168 -71z
M776 1737q41 0 68.5 29t27.5 71q0 38 -29 66t-67 28q-41 0 -68.5 -29t-27.5 -71q0 -39 28.5 -66.5t67.5 -27.5z" />
    <glyph glyph-name="AE" unicode="&#xc6;" horiz-adv-x="2007" 
d="M874 0v197h158v233h-432l-154 -233h160v-197h-592v233h162l680 996h-154v233h1258v-440h-279v192h-370v-368h428v-211h-428v-389h370v196h279v-442h-1086zM1032 635v475h-2l-305 -475h307z" />
    <glyph glyph-name="Ccedilla" unicode="&#xc7;" horiz-adv-x="1556" 
d="M1470 1001h-266q-61 103 -172 163.5t-231 60.5q-206 0 -342.5 -139t-136.5 -345q0 -197 139 -339t336 -142q127 0 235.5 58t175.5 163h301q-67 -211 -250.5 -351t-406.5 -155l-47 -116l26 2q83 0 139 -61t56 -144q0 -100 -65.5 -164.5t-165.5 -64.5q-91 0 -154.5 60.5
t-69.5 150.5h152q18 -62 74 -62q34 0 54.5 21t20.5 55q0 33 -21 56.5t-54 23.5q-40 0 -70 -33l-123 51l90 230q-122 19 -234 75t-198 142q-107 108 -164 250t-57 296q0 151 59 291t158 242.5t238 163.5t292 61q131 0 248.5 -45t204.5 -135v147h229v-467z" />
    <glyph glyph-name="Egrave" unicode="&#xc8;" 
d="M45 0v233h160v996h-160v233h1083v-440h-278v190h-367v-364h426v-217h-426v-387h367v198h278v-442h-1083zM918 1780l-84 -183l-566 256l101 222z" />
    <glyph glyph-name="Eacute" unicode="&#xc9;" 
d="M45 0v233h160v996h-160v233h1083v-440h-278v190h-367v-364h426v-217h-426v-387h367v198h278v-442h-1083zM354 1597l-86 179l543 307l109 -219z" />
    <glyph glyph-name="Ecircumflex" unicode="&#xca;" 
d="M45 0v233h160v996h-160v233h1083v-440h-278v190h-367v-364h426v-217h-426v-387h367v198h278v-442h-1083zM1026 1661h-283l-157 154l-158 -154h-283l355 344h172z" />
    <glyph glyph-name="Edieresis" unicode="&#xcb;" 
d="M45 0v233h160v996h-160v233h1083v-440h-278v190h-367v-364h426v-217h-426v-387h367v198h278v-442h-1083zM909 1831v-264h-250v264h250zM528 1831v-264h-249v264h249z" />
    <glyph glyph-name="Igrave" unicode="&#xcc;" horiz-adv-x="696" 
d="M483 1229v-996h158v-233h-596v233h160v996h-160v233h596v-233h-158zM672 1780l-84 -183l-565 256l100 222z" />
    <glyph glyph-name="Iacute" unicode="&#xcd;" horiz-adv-x="696" 
d="M483 1229v-996h158v-233h-596v233h160v996h-160v233h596v-233h-158zM109 1597l-86 179l542 307l109 -219z" />
    <glyph glyph-name="Icircumflex" unicode="&#xce;" horiz-adv-x="696" 
d="M483 1229v-996h158v-233h-596v233h160v996h-160v233h596v-233h-158zM801 1661h-283l-158 154l-157 -154h-283l354 344h172z" />
    <glyph glyph-name="Idieresis" unicode="&#xcf;" horiz-adv-x="696" 
d="M483 1229v-996h158v-233h-596v233h160v996h-160v233h596v-233h-158zM664 1831v-264h-250v264h250zM283 1831v-264h-250v264h250z" />
    <glyph glyph-name="Eth" unicode="&#xd0;" horiz-adv-x="1515" 
d="M762 848v-217h-279v-379h219q120 0 205.5 26t151.5 103q58 67 88.5 160t30.5 186q0 105 -31.5 204t-95.5 167q-69 70 -148.5 93t-195.5 23h-224v-366h279zM45 0v233h160v398h-160v217h160v381h-160v233h694q163 0 284 -42.5t226 -149.5q103 -105 155 -245.5t52 -297.5
q0 -142 -48 -275t-140 -235q-104 -118 -233.5 -167.5t-299.5 -49.5h-690z" />
    <glyph glyph-name="Ntilde" unicode="&#xd1;" horiz-adv-x="1638" 
d="M1430 1229v-1229h-261l-688 963v-730h160v-233h-596v233h158v996h-158v233h410l696 -979v746h-160v233h596v-233h-157zM1098 1923l121 -166q-107 -92 -230 -92q-60 0 -153.5 30.5t-133.5 30.5q-72 0 -137 -59l-131 184q41 33 98.5 54.5t108.5 21.5q55 0 152 -29
q88 -30 147 -30q98 0 158 55z" />
    <glyph glyph-name="Ograve" unicode="&#xd2;" horiz-adv-x="1597" 
d="M807 -31q-156 0 -297.5 60t-244 162t-163.5 243.5t-61 296.5q0 127 39 244.5t110.5 212t166.5 165t212.5 108.5t243.5 38q153 0 294 -60t243.5 -161.5t163.5 -241.5t61 -293q0 -158 -60.5 -301t-162.5 -247t-244.5 -165t-300.5 -61zM807 248q133 0 244 66.5t174 180
t63 246.5q0 129 -64 239.5t-174 175.5t-239 65q-131 0 -242 -64t-176 -175t-65 -243q0 -204 139 -347.5t340 -143.5zM1122 1780l-84 -183l-565 256l100 222z" />
    <glyph glyph-name="Oacute" unicode="&#xd3;" horiz-adv-x="1597" 
d="M807 -31q-156 0 -297.5 60t-244 162t-163.5 243.5t-61 296.5q0 127 39 244.5t110.5 212t166.5 165t212.5 108.5t243.5 38q153 0 294 -60t243.5 -161.5t163.5 -241.5t61 -293q0 -158 -60.5 -301t-162.5 -247t-244.5 -165t-300.5 -61zM807 248q133 0 244 66.5t174 180
t63 246.5q0 129 -64 239.5t-174 175.5t-239 65q-131 0 -242 -64t-176 -175t-65 -243q0 -204 139 -347.5t340 -143.5zM559 1597l-86 179l543 307l108 -219z" />
    <glyph glyph-name="Ocircumflex" unicode="&#xd4;" horiz-adv-x="1597" 
d="M807 -31q-156 0 -297.5 60t-244 162t-163.5 243.5t-61 296.5q0 127 39 244.5t110.5 212t166.5 165t212.5 108.5t243.5 38q153 0 294 -60t243.5 -161.5t163.5 -241.5t61 -293q0 -158 -60.5 -301t-162.5 -247t-244.5 -165t-300.5 -61zM807 248q133 0 244 66.5t174 180
t63 246.5q0 129 -64 239.5t-174 175.5t-239 65q-131 0 -242 -64t-176 -175t-65 -243q0 -204 139 -347.5t340 -143.5zM1231 1661h-283l-157 154l-158 -154h-283l355 344h172z" />
    <glyph glyph-name="Otilde" unicode="&#xd5;" horiz-adv-x="1597" 
d="M807 -31q-156 0 -297.5 60t-244 162t-163.5 243.5t-61 296.5q0 127 39 244.5t110.5 212t166.5 165t212.5 108.5t243.5 38q153 0 294 -60t243.5 -161.5t163.5 -241.5t61 -293q0 -158 -60.5 -301t-162.5 -247t-244.5 -165t-300.5 -61zM807 248q133 0 244 66.5t174 180
t63 246.5q0 129 -64 239.5t-174 175.5t-239 65q-131 0 -242 -64t-176 -175t-65 -243q0 -204 139 -347.5t340 -143.5zM1077 1923l121 -166q-107 -92 -229 -92q-60 0 -153.5 30.5t-133.5 30.5q-72 0 -137 -59l-131 184q41 33 98.5 54.5t108.5 21.5q54 0 151 -29
q88 -30 148 -30q97 0 157 55z" />
    <glyph glyph-name="Odieresis" unicode="&#xd6;" horiz-adv-x="1597" 
d="M807 -31q-156 0 -297.5 60t-244 162t-163.5 243.5t-61 296.5q0 127 39 244.5t110.5 212t166.5 165t212.5 108.5t243.5 38q153 0 294 -60t243.5 -161.5t163.5 -241.5t61 -293q0 -158 -60.5 -301t-162.5 -247t-244.5 -165t-300.5 -61zM807 248q133 0 244 66.5t174 180
t63 246.5q0 129 -64 239.5t-174 175.5t-239 65q-131 0 -242 -64t-176 -175t-65 -243q0 -204 139 -347.5t340 -143.5zM1114 1831v-264h-250v264h250zM733 1831v-264h-250v264h250z" />
    <glyph glyph-name="multiply" unicode="&#xd7;" horiz-adv-x="1351" 
d="M186 377l357 356l-357 357l133 133l357 -357l356 357l133 -133l-356 -357l356 -356l-133 -133l-356 356l-357 -356z" />
    <glyph glyph-name="Oslash" unicode="&#xd8;" horiz-adv-x="1597" 
d="M399 80l-147 -184l-154 122l152 187q-207 223 -207 528q0 158 60.5 300.5t163.5 244.5t245 162.5t299 60.5q105 0 185.5 -22.5t179.5 -75.5l28 -17l146 179l155 -123l-145 -178q207 -226 207 -537q0 -157 -62 -298t-166.5 -241t-247 -158.5t-298.5 -58.5q-181 0 -322 72z
M1178 1036l-594 -729q50 -22 74.5 -32t64 -18.5t82.5 -8.5q133 0 243.5 65t173 176.5t62.5 243.5q0 93 -24.5 158t-81.5 145zM436 436l590 725q-52 25 -77 35.5t-65.5 19.5t-86.5 9q-129 0 -238 -68.5t-171 -182t-62 -243.5q0 -87 26.5 -152.5t83.5 -142.5z" />
    <glyph glyph-name="Ugrave" unicode="&#xd9;" horiz-adv-x="1433" 
d="M836 1462h569v-233h-158v-725q0 -125 -28 -215t-105 -170q-141 -148 -387 -148q-239 0 -377 135q-84 82 -114.5 178t-30.5 228v717h-158v233h569v-233h-133v-688q0 -44 2 -72.5t12 -66t29 -66.5q33 -50 86.5 -76.5t114.5 -26.5q117 0 188 89q54 69 54 219v688h-133v233z
M1040 1780l-84 -183l-565 256l101 222z" />
    <glyph glyph-name="Uacute" unicode="&#xda;" horiz-adv-x="1433" 
d="M836 1462h569v-233h-158v-725q0 -125 -28 -215t-105 -170q-141 -148 -387 -148q-239 0 -377 135q-84 82 -114.5 178t-30.5 228v717h-158v233h569v-233h-133v-688q0 -44 2 -72.5t12 -66t29 -66.5q33 -50 86.5 -76.5t114.5 -26.5q117 0 188 89q54 69 54 219v688h-133v233z
M477 1597l-86 179l543 307l108 -219z" />
    <glyph glyph-name="Ucircumflex" unicode="&#xdb;" horiz-adv-x="1433" 
d="M836 1462h569v-233h-158v-725q0 -125 -28 -215t-105 -170q-141 -148 -387 -148q-239 0 -377 135q-84 82 -114.5 178t-30.5 228v717h-158v233h569v-233h-133v-688q0 -44 2 -72.5t12 -66t29 -66.5q33 -50 86.5 -76.5t114.5 -26.5q117 0 188 89q54 69 54 219v688h-133v233z
M1169 1661h-282l-158 154l-158 -154h-282l354 344h172z" />
    <glyph glyph-name="Udieresis" unicode="&#xdc;" horiz-adv-x="1433" 
d="M836 1462h569v-233h-158v-725q0 -125 -28 -215t-105 -170q-141 -148 -387 -148q-239 0 -377 135q-84 82 -114.5 178t-30.5 228v717h-158v233h569v-233h-133v-688q0 -44 2 -72.5t12 -66t29 -66.5q33 -50 86.5 -76.5t114.5 -26.5q117 0 188 89q54 69 54 219v688h-133v233z
M1053 1831v-264h-250v264h250zM672 1831v-264h-250v264h250z" />
    <glyph glyph-name="Yacute" unicode="&#xdd;" horiz-adv-x="1392" 
d="M827 510v-277h160v-233h-596v233h158v277l-387 719h-148v233h566v-233h-136l246 -484l244 484h-139v233h563v-233h-146zM457 1597l-86 179l542 307l109 -219z" />
    <glyph glyph-name="Thorn" unicode="&#xde;" horiz-adv-x="1228" 
d="M47 1229v233h596v-233h-160v-80h146q104 0 183.5 -9.5t155 -36.5t124 -72t77.5 -120.5t29 -177.5q0 -110 -38.5 -190.5t-109.5 -127.5t-161.5 -69t-204.5 -22h-201v-91h160v-233h-596v233h158v996h-158zM483 547h166q66 0 110.5 7t83 26.5t57 57t18.5 95.5
q0 59 -21.5 98.5t-62.5 59.5t-87.5 27.5t-109.5 7.5h-154v-379z" />
    <glyph glyph-name="germandbls" unicode="&#xdf;" horiz-adv-x="1228" 
d="M168 233v732q0 116 23.5 201t89.5 163q68 81 161 126.5t176 45.5q183 0 310 -120t127 -302q0 -95 -45 -172.5t-129 -111.5q145 -23 227 -131.5t82 -260.5q0 -193 -122 -314.5t-302 -121.5q-106 0 -209 39v234q76 -43 160 -43q93 0 158 62t65 155q0 63 -27.5 110.5
t-74.5 73.5t-99.5 38.5t-111.5 12.5h-56v221h33q86 0 141.5 54t55.5 139q0 82 -51.5 135t-126.5 53q-47 0 -89.5 -25.5t-72.5 -66.5q-21 -29 -31 -68t-11 -62t-1 -75v-954h-393v233h143z" />
    <glyph glyph-name="agrave" unicode="&#xe0;" horiz-adv-x="1351" 
d="M938 0v147q-58 -88 -149.5 -132t-202.5 -44q-153 0 -282.5 77.5t-204 208.5t-74.5 284q0 156 76 290t208.5 212.5t288.5 78.5q106 0 194.5 -47.5t145.5 -136.5v156h391v-234h-137v-627h137v-233h-391zM608 215q140 0 237 99t97 239q0 135 -97.5 230.5t-232.5 95.5
q-138 0 -233.5 -99.5t-95.5 -238.5q0 -133 96.5 -229.5t228.5 -96.5zM999 1411l-84 -182l-565 256l101 221z" />
    <glyph glyph-name="aacute" unicode="&#xe1;" horiz-adv-x="1351" 
d="M938 0v147q-58 -88 -149.5 -132t-202.5 -44q-153 0 -282.5 77.5t-204 208.5t-74.5 284q0 156 76 290t208.5 212.5t288.5 78.5q106 0 194.5 -47.5t145.5 -136.5v156h391v-234h-137v-627h137v-233h-391zM608 215q140 0 237 99t97 239q0 135 -97.5 230.5t-232.5 95.5
q-138 0 -233.5 -99.5t-95.5 -238.5q0 -133 96.5 -229.5t228.5 -96.5zM436 1229l-86 178l543 307l108 -219z" />
    <glyph glyph-name="acircumflex" unicode="&#xe2;" horiz-adv-x="1351" 
d="M938 0v147q-58 -88 -149.5 -132t-202.5 -44q-153 0 -282.5 77.5t-204 208.5t-74.5 284q0 156 76 290t208.5 212.5t288.5 78.5q106 0 194.5 -47.5t145.5 -136.5v156h391v-234h-137v-627h137v-233h-391zM608 215q140 0 237 99t97 239q0 135 -97.5 230.5t-232.5 95.5
q-138 0 -233.5 -99.5t-95.5 -238.5q0 -133 96.5 -229.5t228.5 -96.5zM1108 1272h-283l-157 153l-158 -153h-283l355 344h172z" />
    <glyph glyph-name="atilde" unicode="&#xe3;" horiz-adv-x="1351" 
d="M938 0v147q-58 -88 -149.5 -132t-202.5 -44q-153 0 -282.5 77.5t-204 208.5t-74.5 284q0 156 76 290t208.5 212.5t288.5 78.5q106 0 194.5 -47.5t145.5 -136.5v156h391v-234h-137v-627h137v-233h-391zM608 215q140 0 237 99t97 239q0 135 -97.5 230.5t-232.5 95.5
q-138 0 -233.5 -99.5t-95.5 -238.5q0 -133 96.5 -229.5t228.5 -96.5zM934 1554l121 -165q-108 -93 -230 -93q-60 0 -153 31t-133 31q-72 0 -138 -60l-131 185q41 33 98.5 54.5t108.5 21.5q55 0 152 -29q91 -31 147 -31q98 0 158 55z" />
    <glyph glyph-name="adieresis" unicode="&#xe4;" horiz-adv-x="1351" 
d="M938 0v147q-58 -88 -149.5 -132t-202.5 -44q-153 0 -282.5 77.5t-204 208.5t-74.5 284q0 156 76 290t208.5 212.5t288.5 78.5q106 0 194.5 -47.5t145.5 -136.5v156h391v-234h-137v-627h137v-233h-391zM608 215q140 0 237 99t97 239q0 135 -97.5 230.5t-232.5 95.5
q-138 0 -233.5 -99.5t-95.5 -238.5q0 -133 96.5 -229.5t228.5 -96.5zM971 1462v-264h-250v264h250zM590 1462v-264h-250v264h250z" />
    <glyph glyph-name="aring" unicode="&#xe5;" horiz-adv-x="1351" 
d="M938 0v147q-58 -88 -149.5 -132t-202.5 -44q-153 0 -282.5 77.5t-204 208.5t-74.5 284q0 156 76 290t208.5 212.5t288.5 78.5q106 0 194.5 -47.5t145.5 -136.5v156h391v-234h-137v-627h137v-233h-391zM608 215q140 0 237 99t97 239q0 135 -97.5 230.5t-232.5 95.5
q-138 0 -233.5 -99.5t-95.5 -238.5q0 -133 96.5 -229.5t228.5 -96.5zM635 1225q-101 0 -171.5 71t-70.5 172q0 99 71.5 168.5t170.5 69.5t168 -71.5t69 -170.5q0 -98 -69.5 -168.5t-167.5 -70.5zM633 1368q41 0 68.5 29t27.5 71q0 38 -29 66.5t-67 28.5q-41 0 -68.5 -29.5
t-27.5 -71.5q0 -39 28.5 -66.5t67.5 -27.5z" />
    <glyph glyph-name="ae" unicode="&#xe6;" horiz-adv-x="2129" 
d="M936 0v168q-52 -92 -138.5 -144.5t-189.5 -52.5q-159 0 -293 78.5t-211 213.5t-77 296q0 148 76.5 279t206.5 209.5t278 78.5q104 0 194.5 -45t153.5 -127v140h250v-154q127 186 352 186q113 0 217.5 -46.5t179.5 -123.5t119.5 -182t44.5 -217q0 -94 -6 -94h-889
q21 -108 114 -178t204 -70q77 0 134 27t113 86h289q-68 -162 -213 -259.5t-319 -97.5q-103 0 -194.5 52t-145.5 141v-164h-250zM612 215q147 0 248 98t101 246q0 136 -105.5 235t-239.5 99q-132 0 -236 -99.5t-104 -232.5q0 -142 97.5 -244t238.5 -102zM1202 653h641
q-33 104 -121 172t-196 68q-116 0 -200.5 -64.5t-123.5 -175.5z" />
    <glyph glyph-name="ccedilla" unicode="&#xe7;" 
d="M866 369h279q-45 -156 -179 -264.5t-296 -127.5l-49 -118l26 2q83 0 139 -61t56 -144q0 -99 -66 -164t-166 -65q-91 0 -154 60.5t-69 150.5h152q18 -62 73 -62q34 0 55 21t21 55q0 33 -21.5 56.5t-54.5 23.5q-39 0 -69 -33l-123 51l90 232q-208 32 -346.5 191.5
t-138.5 373.5q0 150 71.5 283t199.5 214.5t279 81.5q186 0 314 -137v105h215v-365h-234q-46 67 -116 109q-71 41 -156 41q-138 0 -231 -97t-93 -235q0 -139 96.5 -234.5t233.5 -95.5q82 0 155 41t107 111z" />
    <glyph glyph-name="egrave" unicode="&#xe8;" 
d="M858 322h260q-65 -158 -206 -254.5t-310 -96.5q-157 0 -289 75t-209 207t-77 290q0 160 73.5 293.5t204.5 211.5t291 78q113 0 221.5 -47t188.5 -129q153 -161 153 -409l-8 -88h-885q25 -114 118 -188.5t210 -74.5q175 0 264 132zM264 645h664q-32 118 -126.5 188
t-217.5 70q-110 0 -203.5 -75.5t-116.5 -182.5zM897 1411l-84 -182l-565 256l100 221z" />
    <glyph glyph-name="eacute" unicode="&#xe9;" 
d="M858 322h260q-65 -158 -206 -254.5t-310 -96.5q-157 0 -289 75t-209 207t-77 290q0 160 73.5 293.5t204.5 211.5t291 78q113 0 221.5 -47t188.5 -129q153 -161 153 -409l-8 -88h-885q25 -114 118 -188.5t210 -74.5q175 0 264 132zM264 645h664q-32 118 -126.5 188
t-217.5 70q-110 0 -203.5 -75.5t-116.5 -182.5zM354 1229l-86 178l543 307l109 -219z" />
    <glyph glyph-name="ecircumflex" unicode="&#xea;" 
d="M858 322h260q-65 -158 -206 -254.5t-310 -96.5q-157 0 -289 75t-209 207t-77 290q0 160 73.5 293.5t204.5 211.5t291 78q113 0 221.5 -47t188.5 -129q153 -161 153 -409l-8 -88h-885q25 -114 118 -188.5t210 -74.5q175 0 264 132zM264 645h664q-32 118 -126.5 188
t-217.5 70q-110 0 -203.5 -75.5t-116.5 -182.5zM1026 1272h-283l-157 153l-158 -153h-283l355 344h172z" />
    <glyph glyph-name="edieresis" unicode="&#xeb;" 
d="M858 322h260q-65 -158 -206 -254.5t-310 -96.5q-157 0 -289 75t-209 207t-77 290q0 160 73.5 293.5t204.5 211.5t291 78q113 0 221.5 -47t188.5 -129q153 -161 153 -409l-8 -88h-885q25 -114 118 -188.5t210 -74.5q175 0 264 132zM264 645h664q-32 118 -126.5 188
t-217.5 70q-110 0 -203.5 -75.5t-116.5 -182.5zM889 1462v-264h-250v264h250zM508 1462v-264h-250v264h250z" />
    <glyph glyph-name="igrave" unicode="&#xec;" horiz-adv-x="614" 
d="M432 1094v-861h141v-233h-534v233h143v627h-141v234h391zM631 1411l-84 -182l-565 256l100 221z" />
    <glyph glyph-name="iacute" unicode="&#xed;" horiz-adv-x="614" 
d="M432 1094v-861h141v-233h-534v233h143v627h-141v234h391zM68 1229l-86 178l542 307l109 -219z" />
    <glyph glyph-name="icircumflex" unicode="&#xee;" horiz-adv-x="614" 
d="M432 1094v-861h141v-233h-534v233h143v627h-141v234h391zM739 1272h-282l-158 153l-158 -153h-282l354 344h172z" />
    <glyph glyph-name="idieresis" unicode="&#xef;" horiz-adv-x="614" 
d="M432 1094v-861h141v-233h-534v233h143v627h-141v234h391zM623 1462v-264h-250v264h250zM242 1462v-264h-250v264h250z" />
    <glyph glyph-name="eth" unicode="&#xf0;" 
d="M578 1208l-295 -88l-168 109l280 86q-92 45 -207 80l293 80q78 -22 178 -78l254 78l168 -117l-258 -76q348 -291 348 -729q0 -157 -76 -291t-208.5 -212.5t-290.5 -78.5q-156 0 -288 79t-207.5 212.5t-75.5 288.5q0 117 46 224t123.5 183.5t184 122t223.5 45.5
q49 0 88 -8q-54 51 -112 90zM596 217q136 0 233 96.5t97 233.5q0 135 -94.5 234.5t-229.5 99.5q-136 0 -234 -96t-98 -232q0 -137 94 -236.5t232 -99.5z" />
    <glyph glyph-name="ntilde" unicode="&#xf1;" horiz-adv-x="1310" 
d="M176 233v627h-141v234h391v-156q48 88 134 134t190 46q90 0 172.5 -35.5t142.5 -99.5q43 -47 64 -103t24.5 -98t3.5 -120v-429h141v-233h-532v233h141v355q0 45 -1.5 70t-11.5 61.5t-30 64.5q-33 43 -84 65.5t-108 22.5q-59 0 -112.5 -24t-86.5 -68q-22 -28 -33 -72.5
t-12.5 -74.5t-1.5 -82v-318h141v-233h-532v233h141zM934 1554l121 -165q-108 -93 -230 -93q-60 0 -153 31t-133 31q-72 0 -138 -60l-131 185q41 33 98.5 54.5t108.5 21.5q55 0 152 -29q91 -31 147 -31q98 0 158 55z" />
    <glyph glyph-name="ograve" unicode="&#xf2;" 
d="M596 -29q-156 0 -288 79t-207.5 212.5t-75.5 288.5q0 117 46 224t123.5 183.5t184 122t223.5 45.5q154 0 285.5 -78t207.5 -210t76 -285q0 -157 -76 -291t-208.5 -212.5t-290.5 -78.5zM596 217q136 0 233 96.5t97 233.5q0 135 -94.5 234.5t-229.5 99.5q-136 0 -234 -96
t-98 -232q0 -137 94 -236.5t232 -99.5zM918 1411l-84 -182l-566 256l101 221z" />
    <glyph glyph-name="oacute" unicode="&#xf3;" 
d="M596 -29q-156 0 -288 79t-207.5 212.5t-75.5 288.5q0 117 46 224t123.5 183.5t184 122t223.5 45.5q154 0 285.5 -78t207.5 -210t76 -285q0 -157 -76 -291t-208.5 -212.5t-290.5 -78.5zM596 217q136 0 233 96.5t97 233.5q0 135 -94.5 234.5t-229.5 99.5q-136 0 -234 -96
t-98 -232q0 -137 94 -236.5t232 -99.5zM354 1229l-86 178l543 307l109 -219z" />
    <glyph glyph-name="ocircumflex" unicode="&#xf4;" 
d="M596 -29q-156 0 -288 79t-207.5 212.5t-75.5 288.5q0 117 46 224t123.5 183.5t184 122t223.5 45.5q154 0 285.5 -78t207.5 -210t76 -285q0 -157 -76 -291t-208.5 -212.5t-290.5 -78.5zM596 217q136 0 233 96.5t97 233.5q0 135 -94.5 234.5t-229.5 99.5q-136 0 -234 -96
t-98 -232q0 -137 94 -236.5t232 -99.5zM1047 1272h-283l-158 153l-157 -153h-283l354 344h172z" />
    <glyph glyph-name="otilde" unicode="&#xf5;" 
d="M596 -29q-156 0 -288 79t-207.5 212.5t-75.5 288.5q0 117 46 224t123.5 183.5t184 122t223.5 45.5q154 0 285.5 -78t207.5 -210t76 -285q0 -157 -76 -291t-208.5 -212.5t-290.5 -78.5zM596 217q136 0 233 96.5t97 233.5q0 135 -94.5 234.5t-229.5 99.5q-136 0 -234 -96
t-98 -232q0 -137 94 -236.5t232 -99.5zM872 1554l121 -165q-108 -93 -229 -93q-60 0 -153.5 31t-133.5 31q-71 0 -137 -60l-131 185q41 33 98.5 54.5t108.5 21.5q54 0 151 -29q91 -31 148 -31q97 0 157 55z" />
    <glyph glyph-name="odieresis" unicode="&#xf6;" 
d="M596 -29q-156 0 -288 79t-207.5 212.5t-75.5 288.5q0 117 46 224t123.5 183.5t184 122t223.5 45.5q154 0 285.5 -78t207.5 -210t76 -285q0 -157 -76 -291t-208.5 -212.5t-290.5 -78.5zM596 217q136 0 233 96.5t97 233.5q0 135 -94.5 234.5t-229.5 99.5q-136 0 -234 -96
t-98 -232q0 -137 94 -236.5t232 -99.5zM889 1462v-264h-250v264h250zM508 1462v-264h-250v264h250z" />
    <glyph glyph-name="divide" unicode="&#xf7;" horiz-adv-x="1351" 
d="M156 639v188h1040v-188h-1040zM582 1180h188v-224h-188v224zM582 510h188v-223h-188v223z" />
    <glyph glyph-name="oslash" unicode="&#xf8;" horiz-adv-x="1228" 
d="M338 33l-109 -146l-141 109l107 145l-15 15q-77 92 -102 147q-53 119 -53 242q0 119 46.5 227t125 185.5t187 123t228.5 45.5q154 0 269 -63l102 139l145 -110l-102 -136q164 -174 164 -389q0 -163 -74.5 -299t-208 -216.5t-297.5 -80.5q-73 0 -133.5 15t-138.5 47z
M870 743l-374 -505q77 -25 110 -25q143 0 240.5 95t97.5 239q0 101 -74 196zM350 344l379 512q-78 29 -125 29q-140 0 -236 -97t-96 -237q0 -113 78 -207z" />
    <glyph glyph-name="ugrave" unicode="&#xf9;" horiz-adv-x="1310" 
d="M1126 1094v-861h142v-233h-371v135q-53 -78 -142.5 -121t-187.5 -43q-88 0 -167 36.5t-136 103.5q-56 66 -76 141.5t-20 175.5v432h-141v234h391v-592q0 -44 2 -72.5t12 -66.5t29 -66q61 -94 184 -94q52 0 102 24.5t82 65.5q22 31 33 70.5t13 67.5t2 77v352h-142v234h391
zM958 1411l-84 -182l-565 256l101 221z" />
    <glyph glyph-name="uacute" unicode="&#xfa;" horiz-adv-x="1310" 
d="M1126 1094v-861h142v-233h-371v135q-53 -78 -142.5 -121t-187.5 -43q-88 0 -167 36.5t-136 103.5q-56 66 -76 141.5t-20 175.5v432h-141v234h391v-592q0 -44 2 -72.5t12 -66.5t29 -66q61 -94 184 -94q52 0 102 24.5t82 65.5q22 31 33 70.5t13 67.5t2 77v352h-142v234h391
zM395 1229l-86 178l543 307l109 -219z" />
    <glyph glyph-name="ucircumflex" unicode="&#xfb;" horiz-adv-x="1310" 
d="M1126 1094v-861h142v-233h-371v135q-53 -78 -142.5 -121t-187.5 -43q-88 0 -167 36.5t-136 103.5q-56 66 -76 141.5t-20 175.5v432h-141v234h391v-592q0 -44 2 -72.5t12 -66.5t29 -66q61 -94 184 -94q52 0 102 24.5t82 65.5q22 31 33 70.5t13 67.5t2 77v352h-142v234h391
zM1067 1272h-283l-157 153l-158 -153h-283l355 344h172z" />
    <glyph glyph-name="udieresis" unicode="&#xfc;" horiz-adv-x="1310" 
d="M1126 1094v-861h142v-233h-371v135q-53 -78 -142.5 -121t-187.5 -43q-88 0 -167 36.5t-136 103.5q-56 66 -76 141.5t-20 175.5v432h-141v234h391v-592q0 -44 2 -72.5t12 -66.5t29 -66q61 -94 184 -94q52 0 102 24.5t82 65.5q22 31 33 70.5t13 67.5t2 77v352h-142v234h391
zM950 1462v-264h-250v264h250zM569 1462v-264h-250v264h250z" />
    <glyph glyph-name="yacute" unicode="&#xfd;" horiz-adv-x="1228" 
d="M1092 860l-424 -1026h143v-233h-532v233h137l73 180l-331 846h-144v234h516v-234h-106l194 -534l207 534h-106v234h510v-234h-137zM375 1229l-86 178l542 307l109 -219z" />
    <glyph glyph-name="thorn" unicode="&#xfe;" horiz-adv-x="1351" 
d="M174 -166v1395h-139v233h391v-540q59 92 152 138t206 46q152 0 280.5 -76t202.5 -205.5t74 -281.5q0 -148 -72 -276.5t-198 -205.5t-274 -77q-111 0 -209 43t-162 127v-320h141v-233h-532v233h139zM754 215q135 0 232 96.5t97 231.5t-94 234.5t-229 99.5
q-139 0 -237.5 -96t-98.5 -236q0 -137 97 -233.5t233 -96.5z" />
    <glyph glyph-name="ydieresis" unicode="&#xff;" horiz-adv-x="1228" 
d="M1092 860l-424 -1026h143v-233h-532v233h137l73 180l-331 846h-144v234h516v-234h-106l194 -534l207 534h-106v234h510v-234h-137zM930 1462v-264h-250v264h250zM549 1462v-264h-250v264h250z" />
    <glyph glyph-name="dotlessi" unicode="&#x131;" horiz-adv-x="614" 
d="M432 1094v-861h141v-233h-534v233h143v627h-141v234h391z" />
    <glyph glyph-name="Lslash" unicode="&#x141;" 
d="M70 0v233h159v373l-184 -123v189l184 121v436h-159v233h596v-233h-158v-297l272 164v-181l-272 -172v-495h350v194h277v-442h-1065z" />
    <glyph glyph-name="lslash" unicode="&#x142;" horiz-adv-x="655" 
d="M598 0h-532v233h141v412l-176 -139v186l176 137v400h-133v233h383v-465l180 140v-191l-180 -139v-574h141v-233z" />
    <glyph glyph-name="OE" unicode="&#x152;" horiz-adv-x="2252" 
d="M1282 0v217q-171 -246 -483 -246q-158 0 -299 60t-241.5 162t-159 244t-58.5 300q0 204 101 380t274.5 280t376.5 104q306 0 489 -250v211h924v-432h-279v189h-368v-369h415v-219h-415v-385h368v194h279v-440h-924zM319 729q0 -129 64 -239.5t173.5 -175t238.5 -64.5
q195 0 334 142.5t139 338.5q0 129 -60.5 242.5t-169.5 182.5t-239 69q-133 0 -244 -67.5t-173.5 -181t-62.5 -247.5z" />
    <glyph glyph-name="oe" unicode="&#x153;" horiz-adv-x="2129" 
d="M1788 334h285q-68 -166 -216 -264.5t-329 -98.5q-142 0 -262 60t-195 174q-68 -112 -192 -173t-263 -61q-162 0 -297 77t-213.5 210.5t-78.5 292.5q0 158 79 290.5t214 208.5t294 76q156 0 295 -82q55 -31 85 -59.5t67 -81.5l10 -16q71 115 194.5 175t266.5 60
q153 0 286.5 -75t213 -206t79.5 -284l-8 -94h-899q24 -111 113.5 -178.5t206.5 -67.5q159 0 264 117zM1210 649h631q-40 111 -124 172.5t-201 61.5q-105 0 -191.5 -67.5t-114.5 -166.5zM608 215q141 0 241.5 99t100.5 237q0 139 -102 236.5t-242 97.5t-240 -99t-100 -237
t101 -236t241 -98z" />
    <glyph glyph-name="Scaron" unicode="&#x160;" horiz-adv-x="1064" 
d="M51 434h254q0 -94 59.5 -158.5t157.5 -64.5q93 0 154 54.5t61 146.5q0 30 -9 56t-20 44t-35 35.5t-39.5 26.5t-48.5 21.5t-47.5 16.5t-50.5 15q-70 20 -105 32t-87 36.5t-94 56.5q-160 120 -160 319q0 118 61 215.5t162.5 152t218.5 54.5q174 0 260 -113v82h213v-393
h-249q-2 82 -56 136.5t-135 54.5q-85 0 -142 -49.5t-57 -133.5q0 -49 17 -84t58 -58.5t67.5 -33.5t84.5 -27q9 -3 13 -4q73 -20 114 -33t98 -39.5t101 -60.5q146 -118 146 -307q0 -198 -131.5 -328.5t-331.5 -130.5q-179 0 -281 125v-96h-221v434zM977 1985l-356 -345h-187
l-350 345h297l162 -154l151 154h283z" />
    <glyph glyph-name="scaron" unicode="&#x161;" horiz-adv-x="942" 
d="M51 317h256q6 -74 53 -118.5t123 -44.5q60 0 105 38t45 97q0 18 -3 33t-11.5 27.5t-15 21.5t-21.5 17.5t-23 13.5t-28 11.5t-27 9t-30 8.5t-28 7q-51 13 -82.5 22t-79 26t-76.5 34t-63 43.5t-53 57t-32 73t-13 92.5q0 101 52.5 177.5t136 114.5t182.5 38q171 0 248 -98
v76h184v-297h-242q-3 58 -42.5 93.5t-98.5 35.5q-55 0 -97 -30.5t-42 -84.5q0 -29 12 -52.5t27.5 -37t44 -25t46.5 -16.5t50 -12q50 -11 85 -20.5t81 -26t77.5 -34t64.5 -44.5t53 -58.5t33 -75t13 -94.5q0 -106 -55.5 -186t-143 -119t-192.5 -39q-180 0 -282 119v-90h-191
v317zM915 1616l-356 -344h-186l-350 344h296l162 -154l152 154h282z" />
    <glyph glyph-name="Ydieresis" unicode="&#x178;" horiz-adv-x="1392" 
d="M827 510v-277h160v-233h-596v233h158v277l-387 719h-148v233h566v-233h-136l246 -484l244 484h-139v233h563v-233h-146zM991 1831v-264h-250v264h250zM610 1831v-264h-250v264h250z" />
    <glyph glyph-name="Zcaron" unicode="&#x17d;" horiz-adv-x="1146" 
d="M1104 444v-444h-1063v219l696 1000h-413v-201h-248v444h997v-211l-700 -1007h475v200h256zM1018 1985l-356 -345h-187l-350 345h297l162 -154l151 154h283z" />
    <glyph glyph-name="zcaron" unicode="&#x17e;" horiz-adv-x="942" 
d="M49 1094h840v-226l-527 -635h336v121h220v-354h-893v201l555 659h-312v-129h-219v363zM915 1616l-356 -344h-186l-350 344h296l162 -154l152 154h282z" />
    <glyph glyph-name="florin" unicode="&#x192;" 
d="M743 733l-118 -620q-39 -207 -156.5 -305t-343.5 -99l39 205q59 1 96.5 13.5t60 41.5t33 59.5t21.5 84.5l119 620h-144l43 217h142q5 26 15 83t18 91t22 81t36 85.5t52 71.5q132 137 385 137l-39 -203q-55 1 -95 -15t-61 -40t-36 -63t-20 -72.5t-12.5 -81t-15.5 -76.5
h144l-41 -215h-144z" />
    <glyph glyph-name="circumflex" unicode="&#x2c6;" 
d="M1026 1292h-283l-157 154l-158 -154h-283l355 344h172z" />
    <glyph glyph-name="caron" unicode="&#x2c7;" 
d="M1038 1636l-356 -344h-186l-351 344h297l162 -153l152 153h282z" />
    <glyph glyph-name="uni02C9" unicode="&#x2c9;" horiz-adv-x="1064" 
d="M932 1505v-200h-787v200h787z" />
    <glyph glyph-name="breve" unicode="&#x2d8;" horiz-adv-x="1064" 
d="M150 1632h169q7 -71 75.5 -107t148.5 -36q48 0 95 13t85 47t43 83h168q1 -107 -54 -185t-142.5 -114.5t-194.5 -36.5t-194.5 36.5t-143 114.5t-55.5 185z" />
    <glyph glyph-name="dotaccent" unicode="&#x2d9;" horiz-adv-x="532" 
d="M391 1462v-264h-250v264h250z" />
    <glyph glyph-name="ring" unicode="&#x2da;" horiz-adv-x="778" 
d="M389 1225q-101 0 -171.5 71t-70.5 172q0 99 71.5 168.5t170.5 69.5t168.5 -71.5t69.5 -170.5q0 -98 -70 -168.5t-168 -70.5zM387 1368q41 0 68.5 29t27.5 71q0 38 -29 66.5t-67 28.5q-41 0 -68.5 -29.5t-27.5 -71.5q0 -39 28.5 -66.5t67.5 -27.5z" />
    <glyph glyph-name="ogonek" unicode="&#x2db;" horiz-adv-x="696" 
d="M283 0h157q-32 -24 -44.5 -50.5t-12.5 -66.5q0 -56 27 -101.5t79 -45.5q18 0 54 16v-151q-75 -23 -117 -23q-100 0 -157.5 63t-57.5 164q0 118 72 195z" />
    <glyph glyph-name="tilde" unicode="&#x2dc;" horiz-adv-x="1064" 
d="M811 1554l121 -165q-108 -93 -230 -93q-60 0 -153 31t-133 31q-71 0 -137 -60l-132 185q41 33 98.5 54.5t108.5 21.5q55 0 152 -29q91 -31 147 -31q98 0 158 55z" />
    <glyph glyph-name="hungarumlaut" unicode="&#x2dd;" horiz-adv-x="983" 
d="M293 1206l-148 60l193 454l184 -67zM614 1206l-147 58l190 456l185 -67z" />
    <glyph glyph-name="uni03A9" unicode="&#x3a9;" horiz-adv-x="1511" 
d="M379 203v6q-115 104 -190.5 259t-75.5 345q0 188 81.5 344t230.5 248t335 92q119 0 222 -38.5t177.5 -104.5t128 -152.5t79.5 -182.5t26 -194q0 -194 -77.5 -355t-191.5 -261v-6h299v-203h-555v150q117 76 194 232.5t77 389.5q0 136 -42 251t-130 190t-207 75
q-176 0 -283.5 -147.5t-107.5 -376.5q0 -218 78 -381t192 -233v-150h-555v203h295z" />
    <glyph glyph-name="uni03BC" unicode="&#x3bc;" horiz-adv-x="1310" 
d="M1135 1094v-861h141v-233h-371v135q-53 -78 -142.5 -121t-187.5 -43q-81 0 -149 29v-399h-250v1259h-141v234h391v-592q0 -51 6 -92.5t21.5 -81t40 -66t65 -43t94.5 -16.5q15 0 35 3t57.5 19.5t66.5 44.5t51 84.5t22 132.5v373h-142v234h392z" />
    <glyph glyph-name="pi" unicode="&#x3c0;" horiz-adv-x="1267" 
d="M1217 893h-154v-578q0 -201 29 -315h-244q-37 64 -37 301v592h-309q-9 -203 -48 -473.5t-92 -419.5h-243q53 178 92.5 443t42.5 450q-139 0 -213 -23l-31 166q94 70 342 70h885z" />
    <glyph glyph-name="endash" unicode="&#x2013;" horiz-adv-x="1024" 
d="M1036 414h-1048v248h1048v-248z" />
    <glyph glyph-name="emdash" unicode="&#x2014;" horiz-adv-x="2048" 
d="M2060 414h-2072v248h2072v-248z" />
    <glyph glyph-name="quoteleft" unicode="&#x2018;" horiz-adv-x="409" 
d="M74 879v329q0 67 8.5 110t40.5 83q33 40 70 50.5t100 10.5h39v-139l-25 2q-30 0 -48.5 -10.5t-26 -32.5t-9.5 -39t-2 -47v-29h111v-288h-258z" />
    <glyph glyph-name="quoteright" unicode="&#x2019;" horiz-adv-x="409" 
d="M332 1462v-329q0 -65 -9.5 -108.5t-41.5 -82.5q-32 -40 -69 -51.5t-99 -11.5h-39v139l24 -2q30 0 48.5 10.5t26 32.5t9.5 39.5t2 48.5v27h-112v288h260z" />
    <glyph glyph-name="quotesinglbase" unicode="&#x201a;" horiz-adv-x="409" 
d="M332 289v-328q0 -68 -8.5 -110.5t-40.5 -81.5q-34 -41 -71.5 -52.5t-98.5 -11.5h-39v139h26q24 0 40.5 8t25 18.5t12.5 30.5t5 34t1 38v27h-110v289h258z" />
    <glyph glyph-name="quotedblleft" unicode="&#x201c;" horiz-adv-x="778" 
d="M451 879v329q0 65 9.5 109t41.5 84q33 40 69 50.5t101 10.5h39v-139l-27 2q-24 0 -40.5 -8t-24.5 -19t-12.5 -31t-5.5 -34t-1 -37v-29h111v-288h-260zM72 879v329q0 47 1.5 71.5t13.5 59t36 62.5q34 39 71 50t99 11h39v-139l-27 2q-20 0 -34.5 -5t-23.5 -15.5t-14.5 -21
t-8 -28t-3 -29.5t-0.5 -32v-27h111v-288h-260z" />
    <glyph glyph-name="quotedblright" unicode="&#x201d;" horiz-adv-x="778" 
d="M711 1462v-329q0 -64 -10 -108t-42 -83q-32 -40 -68.5 -51.5t-98.5 -11.5h-39v139l24 -2q30 0 48.5 10.5t26 32.5t9.5 39.5t2 48.5v27h-112v288h260zM332 1462v-329q0 -65 -9.5 -108.5t-41.5 -82.5q-32 -40 -69 -51.5t-99 -11.5h-39v139l24 -2q30 0 48.5 10.5t26 32.5
t9.5 39.5t2 48.5v27h-112v288h260z" />
    <glyph glyph-name="quotedblbase" unicode="&#x201e;" horiz-adv-x="778" 
d="M709 289v-328q0 -47 -2 -72t-13.5 -59t-34.5 -61q-32 -41 -69 -52.5t-98 -11.5h-39v139h24q24 0 41 8t25.5 18.5t13 30.5t5.5 34t1 38v27h-112v289h258zM330 289v-330q0 -47 -1.5 -71t-13 -58.5t-34.5 -62.5q-32 -39 -69.5 -50.5t-98.5 -11.5h-39v139l24 -2
q30 0 48.5 10.5t26 32.5t9.5 39.5t2 48.5v27h-112v289h258z" />
    <glyph glyph-name="dagger" unicode="&#x2020;" 
d="M727 844v-1112h-268v1112h-393v194h393v424h268v-424h395v-194h-395z" />
    <glyph glyph-name="daggerdbl" unicode="&#x2021;" 
d="M727 870v-213h393v-194h-393v-731h-270v731h-389v194h389v213h-389v195h389v397h270v-397h393v-195h-393z" />
    <glyph glyph-name="bullet" unicode="&#x2022;" horiz-adv-x="1228" 
d="M940 1098v-731h-651v731h651z" />
    <glyph glyph-name="ellipsis" unicode="&#x2026;" horiz-adv-x="2048" 
d="M471 289v-289h-258v289h258zM1153 289v-289h-258v289h258zM1835 289v-289h-258v289h258z" />
    <glyph glyph-name="perthousand" unicode="&#x2030;" horiz-adv-x="2621" 
d="M1350 -23q-153 0 -259 108t-106 261q0 149 106.5 254t254.5 105q151 0 258.5 -105.5t107.5 -255.5q0 -151 -106 -259t-256 -108zM1350 190q61 0 104 45t43 107t-44 107t-105 45q-62 0 -107 -44t-45 -106q0 -63 45 -108.5t109 -45.5zM446 766q-153 0 -258.5 108
t-105.5 261q0 147 106.5 252.5t253.5 105.5q151 0 259 -106.5t108 -256.5q0 -151 -105.5 -257.5t-257.5 -106.5zM446 979q62 0 106 44t44 105q0 63 -44.5 107.5t-107.5 44.5q-62 0 -105.5 -43t-43.5 -104q0 -65 43.5 -109.5t107.5 -44.5zM2177 -23q-153 0 -259 108t-106 261
q0 149 107.5 254t255.5 105q150 0 257.5 -105.5t107.5 -255.5q0 -151 -105.5 -259t-257.5 -108zM2177 190q62 0 106 45t44 107t-44.5 107t-105.5 45q-62 0 -107 -44t-45 -106q0 -64 44 -109t108 -45zM668 0h-203l659 1462h201z" />
    <glyph glyph-name="guilsinglleft" unicode="&#x2039;" horiz-adv-x="409" 
d="M326 158l-252 293v194l252 291l12 -236l-131 -161l131 -160z" />
    <glyph glyph-name="guilsinglright" unicode="&#x203a;" horiz-adv-x="409" 
d="M84 158l-10 221l129 160l-129 161l10 236l254 -291v-194z" />
    <glyph glyph-name="fraction" unicode="&#x2044;" horiz-adv-x="163" 
d="M-141 0h-205l659 1462h201z" />
    <glyph glyph-name="Euro" unicode="&#x20ac;" 
d="M784 578h-374q33 -357 258 -357q212 0 245 260h236q-63 -510 -483 -510q-109 0 -214 52t-180 161q-104 150 -131 394h-141v116h133v49q0 40 2 60h-135v117h143q22 169 84 297t172 206t256 78q96 0 168.5 -45t108.5 -135v147h188v-475h-235q-37 258 -226 258
q-203 0 -247 -331h372v-117h-381q-2 -20 -2 -62v-47h383v-116z" />
    <glyph glyph-name="afii61289" unicode="&#x2113;" horiz-adv-x="1081" 
d="M938 375l102 -105q-150 -290 -434 -290q-91 0 -161.5 28t-114.5 78t-68.5 112t-32.5 136q0 14 -2 22q-19 -14 -56 -44.5t-54 -43.5l-66 135q20 17 57 46.5t65 53t52 46.5v538q0 137 29.5 241.5t81.5 167t117.5 93.5t142.5 31q145 0 219 -103.5t74 -267.5
q0 -180 -108 -360.5t-314 -378.5v-84q3 -119 58 -182.5t139 -63.5q82 0 152.5 56t121.5 139zM467 1094v-353q262 296 262 516q0 183 -123 183q-58 0 -98.5 -81t-40.5 -265z" />
    <glyph glyph-name="trademark" unicode="&#x2122;" horiz-adv-x="2007" 
d="M1733 1462v-833h-129v717l-289 -717h-78l-283 717v-717h-131v833h213l238 -588l250 588h209zM676 1462v-116h-264v-717h-146v717h-266v116h676z" />
    <glyph glyph-name="Omega" unicode="&#x2126;" horiz-adv-x="1511" 
d="M379 203v6q-115 104 -190.5 259t-75.5 345q0 188 81.5 344t230.5 248t335 92q119 0 222 -38.5t177.5 -104.5t128 -152.5t79.5 -182.5t26 -194q0 -194 -77.5 -355t-191.5 -261v-6h299v-203h-555v150q117 76 194 232.5t77 389.5q0 136 -42 251t-130 190t-207 75
q-176 0 -283.5 -147.5t-107.5 -376.5q0 -218 78 -381t192 -233v-150h-555v203h295z" />
    <glyph glyph-name="estimated" unicode="&#x212e;" horiz-adv-x="1845" 
d="M1772 715h-1377q-12 0 -12 -8v-418q0 -22 18 -47q103 -106 237.5 -166t283.5 -60q162 0 304 67t244 185h121q-116 -136 -292.5 -215.5t-378.5 -79.5q-172 0 -329 60t-270.5 162t-181 243.5t-67.5 296.5q0 208 114 384.5t309 279t425 102.5q232 0 428 -102.5t310 -278.5
t114 -385v-20zM1458 770v418q0 32 -20 49q-103 102 -235.5 159.5t-280.5 57.5q-147 0 -282 -59.5t-237 -163.5q-20 -23 -20 -51v-410q0 -5 4 -9.5t8 -4.5h1055q8 0 8 14z" />
    <glyph glyph-name="partialdiff" unicode="&#x2202;" horiz-adv-x="1210" 
d="M219 1354l-74 184q164 123 385 123q116 0 219 -51.5t184 -149.5t128 -254t47 -350q0 -260 -68.5 -456t-203 -307t-318.5 -111q-86 0 -159 29.5t-123 79t-85.5 114.5t-52 134.5t-16.5 139.5q0 247 132 399t325 152q63 0 120 -19t96 -49t64 -57t39 -51h4v74q0 142 -45 262
t-129 192t-190 72q-157 0 -279 -100zM541 188h2q60 0 113 40t89 106.5t59.5 145t33.5 161.5q-21 66 -89 127t-161 61q-110 0 -184 -106t-74 -252q0 -121 58.5 -202t152.5 -81z" />
    <glyph glyph-name="Delta" unicode="&#x2206;" horiz-adv-x="1392" 
d="M57 0v150l496 1357h297l483 -1355v-152h-1276zM315 203h748l-246 651q-16 57 -63 196t-60 185h-6q-9 -37 -53 -163.5t-60 -184.5z" />
    <glyph glyph-name="product" unicode="&#x220f;" horiz-adv-x="1525" 
d="M1470 1247h-219v-1450h-247v1450h-486v-1450h-246v1450h-221v228h1419v-228z" />
    <glyph glyph-name="summation" unicode="&#x2211;" horiz-adv-x="1183" 
d="M1143 -205h-1094v162l522 678l-501 665v175h1038v-213h-702v-9l448 -577l-494 -641v-8h783v-232z" />
    <glyph glyph-name="minus" unicode="&#x2212;" horiz-adv-x="1351" 
d="M156 639v188h1040v-188h-1040z" />
    <glyph glyph-name="uni2215" unicode="&#x2215;" horiz-adv-x="163" 
d="M-141 0h-205l659 1462h201z" />
    <glyph glyph-name="uni2219" unicode="&#x2219;" horiz-adv-x="614" 
d="M436 879v-289h-258v289h258z" />
    <glyph glyph-name="radical" unicode="&#x221a;" horiz-adv-x="1251" 
d="M1268 1765l-477 -2064h-203l-320 934l-157 -62l-43 140l350 141l229 -694q8 -34 22.5 -94t18.5 -80l2 -2q14 76 33 186l369 1595h176z" />
    <glyph glyph-name="infinity" unicode="&#x221e;" horiz-adv-x="1646" 
d="M1544 610v-2q0 -162 -100.5 -261t-237.5 -99q-97 0 -187.5 55t-193.5 186q-46 -56 -84.5 -94.5t-87 -74.5t-104 -54t-117.5 -18q-134 0 -232 99.5t-98 250.5q0 157 99.5 257.5t249.5 100.5q111 0 201 -60.5t182 -176.5q86 98 126 132q121 105 261 105t231.5 -96
t91.5 -250zM451 385h4q41 0 80 16t77 48.5t63 58.5t63 70q8 9 12 14q-28 37 -38.5 50.5t-36.5 45t-40.5 44.5t-40 34.5t-46.5 30.5t-49 16.5t-57 7.5q-90 0 -143 -63.5t-53 -161.5q0 -88 58.5 -149.5t146.5 -61.5zM1206 821h-4q-31 0 -63 -12t-55.5 -26t-54 -42t-45 -44
t-43.5 -49.5t-36 -41.5q69 -84 115 -129t92.5 -68.5t99.5 -23.5q85 0 137 67t52 146q0 98 -54.5 160.5t-140.5 62.5z" />
    <glyph glyph-name="integral" unicode="&#x222b;" horiz-adv-x="823" 
d="M780 1794l-28 -172q-36 18 -76 18q-70 0 -107 -53q-34 -41 -46.5 -126.5t-12.5 -231.5q0 -166 15.5 -497.5t15.5 -522.5q0 -284 -80 -424q-39 -74 -110 -109.5t-152 -35.5q-94 0 -160 34l33 179q50 -25 94 -25q59 0 92 45q61 80 61 334q0 191 -15 531t-15 515
q0 183 29 292t96 179q42 47 105.5 71t131.5 24q67 0 129 -25z" />
    <glyph glyph-name="approxequal" unicode="&#x2248;" horiz-adv-x="1171" 
d="M995 946l90 -82q-52 -99 -124.5 -157t-159.5 -58q-60 0 -110 19.5t-130 66.5q-44 26 -63.5 36.5t-54.5 22t-68 11.5q-34 0 -62.5 -11.5t-54.5 -37.5t-42 -46t-42 -57l-92 82q49 96 130.5 154.5t176.5 58.5q17 0 32.5 -1.5t31 -5t27.5 -6.5t27 -9.5t23.5 -10t23.5 -12
t20.5 -11.5t21 -12.5t18.5 -11.5q6 -3 26.5 -15t26 -15t22 -11.5t23.5 -11t21 -8t23 -7.5t21.5 -3.5t25.5 -1.5q58 0 101.5 37.5t90.5 113.5zM995 557l90 -82q-115 -215 -286 -215q-58 0 -108 19.5t-130 66.5q-3 2 -19 11.5t-19 11t-17.5 10t-19 10t-17 8t-18.5 8t-17 5
t-19.5 5t-19 2.5t-20.5 1q-34 0 -63 -11.5t-55 -37.5t-41.5 -47t-41.5 -60l-92 84q49 95 130.5 154t174.5 59q25 0 50.5 -4.5t41 -8t41.5 -15.5t32.5 -15.5t33.5 -19.5l28 -15q9 -5 45.5 -26t50 -27t40.5 -14t53 -8q59 0 101 36t91 115z" />
    <glyph glyph-name="notequal" unicode="&#x2260;" horiz-adv-x="1171" 
d="M856 1081l-84 -190h297v-148h-352l-129 -290h481v-146h-539l-106 -244l-115 50l86 194h-293v146h351l127 290h-478v148h533l106 237z" />
    <glyph glyph-name="lessequal" unicode="&#x2264;" horiz-adv-x="1171" 
d="M1063 209l-948 473v158l948 471v-170l-801 -377v-4l801 -381v-170zM1071 -20h-967v149h967v-149z" />
    <glyph glyph-name="greaterequal" unicode="&#x2265;" horiz-adv-x="1171" 
d="M117 1311l950 -473v-158l-948 -471v170l801 379v4l-803 379v170zM1067 -20h-961v149h961v-149z" />
    <glyph glyph-name="lozenge" unicode="&#x25ca;" horiz-adv-x="1251" 
d="M1143 735l-424 -837h-199l-411 837l421 840h199zM922 729l-252 520q-29 71 -41 123h-6q-16 -58 -41 -123l-254 -508l256 -526q27 -73 37 -117h8q21 76 37 113z" />
    </font>
</defs>
</svg>
