<?xml version="1.0" encoding="utf-8"?>
<!-- Generator: Adobe Illustrator 21.0.2, SVG Export Plug-In . SVG Version: 6.00 Build 0)  -->
<svg version="1.1" id="Layer_1" xmlns="http://www.w3.org/2000/svg" xmlns:xlink="http://www.w3.org/1999/xlink" x="0px" y="0px"
	 viewBox="0 0 271.3 313.3" style="enable-background:new 0 0 271.3 313.3;" xml:space="preserve">
<style type="text/css">
	.st0{fill:#9CD7F2;}
	.st1{fill:#FBB800;}
	.st2{fill:#F3A700;stroke:#FBB700;stroke-width:0.5;stroke-miterlimit:10;}
	.st3{fill:#E5579A;}
	.st4{fill:#E94A2D;}
	.st5{opacity:0.24;fill:url(#SVGID_1_);}
	.st6{opacity:0.24;fill:url(#SVGID_2_);}
	.st7{opacity:0.24;fill:url(#SVGID_3_);}
	.st8{fill:#FEFFFF;}
	.st9{fill:none;stroke:#FFFFFF;stroke-width:3.4115;stroke-linecap:round;stroke-miterlimit:10;}
	.st10{fill:#DB0E15;}
	.st11{fill:#F5F5F6;}
	.st12{fill:#2C1D1C;}
	.st13{fill:#FFFFFF;}
	.st14{fill:#F3F2F2;}
	.st15{fill:#78BD71;}
	.st16{fill:none;stroke:#317BBF;stroke-width:0.2437;stroke-miterlimit:10;}
	.st17{fill:#E5579A;stroke:#317BBF;stroke-width:0.2437;stroke-miterlimit:10;}
	.st18{fill:#B8CE29;}
	.st19{fill:#AEC212;}
	.st20{fill:#78BD70;}
	.st21{fill:#9CD7F2;stroke:#F7F7F8;stroke-width:2.1931;stroke-miterlimit:10;}
	.st22{fill:#A2D9ED;stroke:#FFFFFF;stroke-width:1.9495;stroke-miterlimit:10;}
	.st23{opacity:0.24;}
	.st24{fill:url(#SVGID_4_);}
	.st25{fill:url(#SVGID_5_);}
	.st26{opacity:0.24;fill:url(#SVGID_6_);}
	.st27{opacity:0.24;fill:url(#SVGID_7_);}
	.st28{opacity:0.24;fill:url(#SVGID_8_);}
	.st29{opacity:0.24;fill:url(#SVGID_9_);}
	.st30{opacity:0.24;fill:url(#SVGID_10_);}
	.st31{opacity:0.24;fill:url(#SVGID_11_);}
	.st32{opacity:0.24;fill:url(#SVGID_12_);}
	.st33{fill:none;stroke:#FFFFFF;stroke-width:3.4115;stroke-miterlimit:10;}
	.st34{opacity:0.24;fill:url(#SVGID_13_);}
	.st35{fill:#9CD7F2;stroke:#F7F7F8;stroke-width:2.195;stroke-miterlimit:10;}
	.st36{fill:#9CD7F2;stroke:#F7F7F8;stroke-width:2.1869;stroke-miterlimit:10;}
</style>
<g>
	<path class="st0" d="M51.5,230.1c0.9,0,1.5,0.2,1.9,0.7c0.4,0.5,0.6,1.1,0.6,1.8c0,0.7-0.2,1.3-0.6,1.9c-0.4,0.6-0.9,0.9-1.6,0.9
		L40.6,238l8.4,37.2c0.2,0.9,0.1,1.6-0.4,2.1c-0.5,0.5-1,0.8-1.7,0.9c-0.7,0.1-1.3,0.1-1.9-0.2c-0.6-0.2-1-0.7-1.2-1.3l-8.8-37.5
		l-10.6,2.4c-0.9,0.2-1.6,0.1-2.1-0.4c-0.5-0.5-0.8-1-0.9-1.7c-0.1-0.7,0-1.3,0.2-1.9c0.2-0.6,0.6-1,1.2-1.2L51.5,230.1z"/>
	<path class="st0" d="M77,277.4c0.4-4.2,0.6-7.5,0.6-10c-0.1-2.5-0.3-4.4-0.7-5.8c-0.4-1.3-0.9-2.2-1.5-2.7
		c-0.6-0.4-1.2-0.7-1.8-0.7c-1-0.1-1.9,0-2.9,0.3c-0.9,0.3-1.8,0.8-2.5,1.5c-0.7,0.7-1.3,1.4-1.8,2.4c-0.5,0.9-0.8,1.9-0.9,2.9
		l-0.7,10.4c-0.1,0.8-0.4,1.4-1,1.9c-0.6,0.5-1.2,0.7-1.9,0.7c-0.7,0-1.3-0.2-1.9-0.6c-0.6-0.4-0.9-1.2-1-2.2l3.4-40.6
		c0-0.9,0.4-1.6,1-1.9c0.6-0.3,1.3-0.4,1.9-0.3c0.7,0.1,1.3,0.4,1.8,0.8c0.5,0.4,0.8,0.9,0.7,1.5l-1.5,19.7c1.1-0.7,2.3-1.2,3.6-1.6
		c1.3-0.4,2.7-0.5,4.1-0.4c2.5,0.2,4.5,1,5.8,2.3c1.3,1.3,2.2,3.1,2.8,5.3c0.5,2.2,0.7,4.8,0.7,7.8c-0.1,3-0.3,6.2-0.6,9.7
		c-0.1,0.9-0.5,1.5-1.1,1.8c-0.6,0.3-1.3,0.4-1.9,0.3c-0.7-0.1-1.3-0.4-1.8-0.8C77.2,278.5,76.9,278,77,277.4z"/>
	<path class="st0" d="M90.4,252c0.2-0.8,0.7-1.4,1.4-1.6c0.7-0.2,1.4-0.3,2.1-0.1c0.7,0.2,1.3,0.5,1.8,1c0.5,0.5,0.6,1,0.4,1.6
		L94,273.7c-0.1,0.9-0.5,1.5-1.1,1.8c-0.6,0.3-1.3,0.4-1.9,0.3c-0.7-0.1-1.3-0.4-1.8-0.8c-0.5-0.4-0.7-1-0.7-1.5L90.4,252z
		 M91.1,244.5c0.1-0.9,0.5-1.7,1.1-2.2c0.7-0.6,1.5-0.8,2.4-0.6c0.9,0.1,1.7,0.5,2.3,1.1c0.6,0.7,0.8,1.5,0.7,2.4
		c-0.1,1-0.6,1.7-1.3,2.3c-0.7,0.5-1.5,0.8-2.4,0.7c-0.9-0.1-1.7-0.5-2.2-1.2C91.2,246.2,91,245.4,91.1,244.5z"/>
	<path class="st0" d="M120.2,274.7c0.6-4.2,1-7.5,1-10c0-2.5-0.2-4.5-0.5-5.8c-0.3-1.4-0.8-2.3-1.4-2.8c-0.6-0.5-1.2-0.7-1.8-0.8
		c-1-0.1-2-0.1-2.9,0.3c-0.9,0.3-1.8,0.8-2.6,1.4c-0.8,0.6-1.4,1.3-1.9,2.2c-0.5,0.9-0.8,1.8-1,2.8l-1.3,10.4
		c-0.1,0.7-0.5,1.3-1.1,1.8c-0.6,0.4-1.3,0.7-1.9,0.7s-1.3-0.2-1.8-0.7c-0.5-0.5-0.8-1.2-0.9-2.2l2.9-22c0.1-0.9,0.5-1.5,1.1-1.8
		c0.6-0.3,1.3-0.4,1.9-0.3c0.7,0.1,1.3,0.4,1.8,0.8s0.7,1,0.7,1.5l-0.1,1.1c1.1-0.7,2.4-1.2,3.7-1.5s2.7-0.3,4-0.1
		c2.5,0.3,4.5,1.2,5.7,2.6c1.3,1.4,2.1,3.2,2.5,5.4c0.4,2.2,0.5,4.8,0.3,7.7c-0.2,2.9-0.6,6.2-1,9.6c-0.1,0.9-0.5,1.5-1.1,1.8
		c-0.6,0.3-1.3,0.4-1.9,0.2c-0.7-0.1-1.3-0.4-1.8-0.9S120.1,275.2,120.2,274.7z"/>
	<path class="st0" d="M130.4,234.1c0.1-0.9,0.5-1.5,1.1-1.9c0.6-0.4,1.3-0.6,2.1-0.6c0.7,0,1.4,0.2,1.9,0.6c0.5,0.4,0.8,0.8,0.7,1.4
		l2.6,24.6l10.4-10.8c0.8-0.4,1.5-0.5,2.2-0.2c0.7,0.3,1.2,0.7,1.7,1.4c0.4,0.6,0.6,1.3,0.7,1.9c0,0.7-0.2,1.2-0.7,1.5l-6.3,6.2
		l9.6,12.7c0.3,0.4,0.4,1,0.2,1.7c-0.2,0.7-0.6,1.2-1.1,1.7c-0.5,0.5-1.1,0.8-1.8,0.9c-0.7,0.1-1.4-0.2-2-0.8l-9.2-12l-3.1,2.9
		l1,8.4c0.1,0.9-0.1,1.6-0.7,2c-0.5,0.4-1.1,0.6-1.8,0.7c-0.7,0-1.3-0.1-1.9-0.4c-0.6-0.3-0.9-0.7-1-1.3L130.4,234.1z"/>
	<path class="st0" d="M166.1,235.1c0-0.2,0.2-0.5,0.4-1c0.2-0.4,0.6-0.9,1-1.3c0.5-0.4,1.1-0.8,1.8-1.2c0.7-0.3,1.6-0.5,2.5-0.5
		c0.8,0,1.8,0,3.1,0.1c1.3,0.1,2.6,0.3,4,0.7c1.4,0.3,2.9,0.8,4.3,1.5c1.4,0.6,2.7,1.5,3.8,2.5c1.1,1.1,1.9,2.4,2.5,3.9
		c0.6,1.5,0.8,3.4,0.5,5.5c-0.1,1.2-0.5,2.2-1,3.2c-0.5,1-1.1,1.8-1.8,2.5c-0.7,0.7-1.6,1.4-2.5,1.9c-0.9,0.6-1.8,1-2.8,1.4
		c1.1,0.7,2.1,1.6,3,2.6c0.9,1,1.7,2,2.3,3.2c0.6,1.2,1,2.4,1.3,3.7c0.2,1.3,0.2,2.6,0,3.9c-1,4.8-3.4,7.8-7.3,9.2
		c-3.9,1.4-9.3,1.4-16.3-0.1c-0.7-0.1-1.3-0.3-2-0.4c-0.6-0.1-1.2-0.4-1.6-0.7c-0.4-0.3-0.7-0.9-0.9-1.6c-0.2-0.7-0.2-1.8,0-3.2
		L166.1,235.1z M183.2,266.2c0.2-1.7-0.1-3.2-0.9-4.5c-0.8-1.3-1.9-2.4-3.3-3.3c-1.4-0.9-3.1-1.6-4.9-2.1c-1.8-0.5-3.7-0.8-5.6-1
		l-2.3,16.2c1.5,0.5,3.2,0.9,5,1.2c1.9,0.3,3.7,0.3,5.4,0c1.7-0.3,3.2-0.9,4.4-2C182.2,269.7,182.9,268.2,183.2,266.2z M184.9,244.7
		c0.1-0.9-0.1-1.9-0.7-2.9c-0.6-1-1.5-1.9-2.7-2.7c-1.2-0.8-2.7-1.4-4.5-1.8c-1.8-0.4-3.8-0.6-6-0.4l-1.9,13
		c1.3,0.3,2.8,0.5,4.5,0.7c1.7,0.2,3.4,0.1,5-0.2c1.6-0.3,3-0.9,4.2-1.7C184,247.8,184.7,246.4,184.9,244.7z"/>
	<path class="st0" d="M195.8,269.8c-0.9-1.5-1.5-3.1-1.8-4.9c-0.3-1.7-0.2-3.4,0.1-5c0.3-1.6,1-3.2,1.9-4.6c1-1.4,2.2-2.6,3.7-3.5
		c1.5-0.9,3.1-1.5,4.8-1.8c1.7-0.2,3.3-0.2,5,0.3c1.6,0.4,3.1,1.1,4.6,2.1c1.4,1,2.6,2.3,3.5,3.8c0.9,1.5,1.5,3.1,1.8,4.9
		c0.3,1.7,0.3,3.4-0.1,5.1c-0.3,1.7-1,3.2-1.9,4.6c-1,1.4-2.2,2.6-3.7,3.5c-1.5,0.9-3.1,1.5-4.8,1.7c-1.7,0.2-3.4,0.1-5-0.3
		c-1.6-0.4-3.2-1.1-4.6-2.1C197.9,272.6,196.7,271.4,195.8,269.8z M200.4,267c0.5,0.9,1.2,1.6,2,2.2c0.8,0.6,1.7,1,2.6,1.3
		c1,0.2,1.9,0.3,2.9,0.2c1-0.1,1.9-0.5,2.8-1c0.8-0.5,1.5-1.2,2.1-2.1c0.5-0.8,0.9-1.7,1.1-2.7c0.2-1,0.2-1.9,0.1-2.9
		c-0.2-1-0.5-1.9-1.1-2.8c-0.5-0.9-1.2-1.6-2-2.2c-0.8-0.6-1.7-1-2.6-1.2c-1-0.2-1.9-0.3-2.9-0.1c-1,0.1-1.9,0.5-2.7,1
		c-0.9,0.5-1.6,1.2-2.1,2c-0.5,0.8-0.9,1.7-1.1,2.6s-0.2,1.9-0.1,2.9C199.5,265.2,199.9,266.2,200.4,267z"/>
	<path class="st0" d="M237,263.3l4.9,10.4c0.3,0.8,0.3,1.5,0,2.1c-0.4,0.5-0.9,0.9-1.5,1.1c-0.6,0.2-1.3,0.3-1.9,0.1
		c-0.7-0.1-1.1-0.5-1.3-1l-4.4-8.8l-7.2,6.7c-0.4,0.4-0.9,0.6-1.6,0.5c-0.7-0.1-1.3-0.4-1.8-0.8c-0.5-0.4-0.9-0.9-1-1.6
		c-0.2-0.6,0.1-1.3,0.7-2l8.3-8l-5.2-10.5c-0.1-0.9,0-1.6,0.6-2.1c0.5-0.5,1.1-0.8,1.9-0.9c0.7-0.1,1.4,0,2.1,0.3
		c0.7,0.3,1.1,0.7,1.2,1.3l3.7,7.8l6.3-5.9c0.3-0.5,0.9-0.8,1.6-0.8c0.7,0,1.4,0.1,2.1,0.5c0.7,0.3,1.2,0.8,1.5,1.5
		c0.3,0.6,0.2,1.3-0.3,2.1L237,263.3z"/>
</g>
<ellipse transform="matrix(0.9984 -5.684313e-02 5.684313e-02 0.9984 -13.6324 5.7999)" class="st1" cx="95.1" cy="242.5" rx="6.2" ry="5.9"/>
<g>
	<g>
		<path class="st2" d="M42.5,307.2c-0.1,0-0.2,0-0.3,0s-0.2,0-0.3,0c-0.9-0.1-1.7-0.4-2.4-1c-0.7-0.5-1.4-1.3-1.9-2.2
			c-0.3-0.5-0.5-1-0.7-1.5c-0.2-0.6-0.4-1.1-0.5-1.8c-0.2-0.7-0.3-1.4-0.3-2.1s-0.1-1.5-0.1-2.3c0-1.7,0.1-3.3,0.4-4.8
			c0.3-1.5,0.7-2.9,1.2-4c0.6-1.2,1.2-2.2,2-2.9c0.7-0.7,1.5-1.1,2.4-1.2c0.7-0.1,1.3,0.1,1.9,0.5c0.3,0.2,0.6,0.4,0.8,0.6
			c0.2,0.3,0.5,0.5,0.7,0.9c0.8,1.2,1.4,3.1,1.8,5.5c0,0.3,0,0.6-0.2,0.9c-0.2,0.3-0.4,0.4-0.8,0.5c-0.3,0-0.6,0-0.9-0.2
			c-0.3-0.2-0.4-0.4-0.5-0.8c-0.3-1.9-0.7-3.3-1.3-4.2c-0.5-0.9-1-1.3-1.4-1.2c-0.3,0-0.6,0.2-1,0.6c-0.4,0.4-0.8,1.1-1.3,2
			c-0.5,1-0.8,2.2-1,3.6c-0.2,1.3-0.4,2.8-0.4,4.3c0,1.7,0.2,3.1,0.5,4.2c0.3,1,0.6,1.8,0.9,2.3c0.7,1.2,1.5,1.9,2.5,2
			c0.7,0.1,1.4-0.2,2-0.7s1-1.4,1.3-2.4c0.1-0.3,0.3-0.6,0.6-0.7s0.6-0.2,0.9-0.2c0.3,0.1,0.6,0.3,0.7,0.5c0.2,0.3,0.2,0.6,0.2,0.9
			c-0.2,0.8-0.5,1.5-0.9,2.2c-0.4,0.7-0.8,1.2-1.3,1.7C44.7,306.8,43.7,307.2,42.5,307.2z"/>
		<path class="st2" d="M52.5,307.3L52.5,307.3c-0.4,0-0.6-0.2-0.8-0.4c-0.2-0.2-0.3-0.5-0.3-0.8c0-0.8,0-1.6,0.1-2.4
			c0-0.8,0-1.6,0.1-2.4c0.1-2.9,0.2-5.8,0.3-8.8s0-6.1-0.2-9.3c0-0.3,0.1-0.6,0.3-0.8c0.2-0.2,0.5-0.4,0.8-0.4
			c0.3,0,0.6,0.1,0.9,0.3c0.2,0.2,0.4,0.5,0.4,0.8c0.1,2.2,0.2,4.2,0.2,6.3s0,4-0.1,6c0.4-0.6,0.7-1.1,1.2-1.5
			c0.5-0.5,1-0.8,1.4-0.9c0.4-0.1,0.8-0.2,1.1-0.2c0.3,0,0.6,0.1,1.1,0.2c0.4,0.1,0.8,0.4,1.2,0.9c0.6,0.6,1.1,1.5,1.5,2.6
			c0.8,2.3,1.3,5.4,1.3,9.5c0,0.3-0.1,0.6-0.3,0.9c-0.2,0.2-0.5,0.4-0.8,0.4h0c-0.3,0-0.6-0.1-0.8-0.4c-0.2-0.2-0.3-0.5-0.3-0.8
			c0-2.3-0.2-4.2-0.4-5.6c-0.3-1.4-0.5-2.4-0.7-3.1c-0.3-0.8-0.6-1.4-0.9-1.7c-0.3-0.3-0.5-0.5-0.7-0.5c-0.2,0-0.5,0.2-0.8,0.5
			c-0.4,0.3-0.8,1-1.3,2c-0.5,1.1-0.9,2.3-1.2,3.8c-0.3,1.5-0.5,3.1-0.7,4.9c0,0.3-0.1,0.6-0.4,0.8
			C53.1,307.2,52.8,307.3,52.5,307.3z"/>
		<path class="st2" d="M67.1,289.2c0.3,0,0.6,0.1,0.9,0.4c0.2,0.2,0.3,0.5,0.3,0.8c0,1.7-0.1,3.2-0.1,4.6c0,1.4,0,2.8-0.1,4.1
			c0,1.1,0,2.2-0.1,3.3c0,1.1,0,2.3-0.1,3.6c0,0.3-0.1,0.6-0.4,0.8c-0.2,0.2-0.5,0.3-0.8,0.3c-0.3,0-0.6-0.1-0.9-0.4
			s-0.3-0.5-0.3-0.8c0-1.3,0-2.5,0.1-3.7c0-1.1,0-2.3,0.1-3.3c0-1.3,0-2.7,0.1-4.1c0-1.4,0-2.9,0.1-4.6c0-0.3,0.1-0.6,0.4-0.8
			C66.5,289.3,66.8,289.2,67.1,289.2z M67.2,285.9c-0.3,0-0.6-0.1-0.8-0.3c-0.2-0.2-0.3-0.5-0.3-0.8c0-0.3,0.1-0.6,0.3-0.8
			c0.2-0.2,0.5-0.3,0.8-0.3s0.6,0.1,0.8,0.3c0.2,0.2,0.3,0.5,0.3,0.8c0,0.3-0.1,0.6-0.3,0.8C67.8,285.8,67.5,285.9,67.2,285.9z"/>
		<path class="st2" d="M75.5,307.2c-0.5,0-1,0-1.4,0c-0.5,0-0.9-0.1-1.4-0.1c-0.3,0-0.6-0.2-0.8-0.4s-0.3-0.5-0.3-0.8
			c0.1-2.1,0.1-4.1,0.2-6c0.1-1.9,0.1-3.8,0.2-5.7c0-1.9,0.1-3.7,0.1-5.6c0-1.9,0-3.8,0-5.8c0-0.3,0.1-0.6,0.4-0.8
			c0.2-0.2,0.5-0.4,0.8-0.4s0.6,0.1,0.8,0.4c0.2,0.2,0.4,0.5,0.4,0.8c0,1.9,0,3.8,0,5.6s0,3.6-0.1,5.4c0,1.8-0.1,3.6-0.1,5.4
			c0,1.8-0.1,3.7-0.2,5.7c1.3,0.1,2.7,0,4-0.1c0.3,0,0.6,0,0.8,0.3c0.2,0.2,0.4,0.5,0.4,0.8c0,0.3,0,0.6-0.3,0.9
			c-0.2,0.2-0.5,0.4-0.8,0.4c-0.5,0-1,0.1-1.4,0.1C76.4,307.2,76,307.2,75.5,307.2z"/>
		<path class="st2" d="M90,281.7L90,281.7c0.4,0,0.7,0.2,0.9,0.4c0.2,0.2,0.3,0.5,0.3,0.8c0,1.5-0.1,3.2-0.1,5
			c0,1.8-0.1,3.7-0.1,5.7c0,2,0,4,0,6.1c0,2.1,0.1,4.1,0.2,6.2c0,0.3-0.1,0.6-0.3,0.9c-0.2,0.2-0.5,0.4-0.8,0.4
			c-1.1,0-2.2-0.1-3.1-0.5c-0.9-0.4-1.8-0.9-2.5-1.7c-0.7-0.7-1.2-1.5-1.6-2.4c-0.4-0.9-0.7-1.9-0.8-2.9c-0.2-1.1-0.1-2.1,0.1-3.2
			c0.2-1,0.6-2,1.1-2.8c0.6-1,1.4-1.8,2.3-2.5c1-0.6,2-1.1,3.3-1.4c0-0.5,0-1,0-1.6c0-0.6,0-1.3,0-1.9c0-0.6,0-1.3,0-1.9
			s0-1.1,0.1-1.5c0-0.3,0.1-0.6,0.3-0.8S89.7,281.7,90,281.7z M88.8,304.7c-0.1-4.5-0.2-8.6-0.1-12.5c-0.9,0.3-1.7,0.7-2.3,1.2
			c-0.6,0.5-1.1,1.1-1.4,1.8c-0.3,0.6-0.6,1.3-0.6,2s-0.1,1.4,0,2.1c0.1,0.6,0.2,1.2,0.5,1.8c0.2,0.6,0.5,1.1,0.9,1.6
			c0.4,0.5,0.8,0.9,1.3,1.3C87.6,304.4,88.1,304.6,88.8,304.7z"/>
		<path class="st2" d="M96.3,307.3L96.3,307.3c-0.4,0-0.7-0.1-0.9-0.4c-0.2-0.2-0.3-0.5-0.3-0.8c0-1,0-2,0-3s0-2,0.1-3
			c0.1-2.5,0.1-5,0.2-7.5c0-2.5-0.1-5.1-0.4-7.7c0-0.3,0-0.6,0.3-0.9c0.2-0.2,0.5-0.4,0.8-0.4c0.3,0,0.6,0,0.9,0.3
			c0.3,0.2,0.4,0.5,0.5,0.8c0,0.4,0.1,0.8,0.1,1.1s0.1,0.8,0.1,1.1c0.2-0.3,0.4-0.6,0.6-0.9c0.2-0.3,0.4-0.5,0.7-0.7
			c1.2-1,2.6-1.5,4.3-1.5c0.3,0,0.6,0.1,0.8,0.4s0.3,0.5,0.3,0.8c0,0.3-0.1,0.6-0.4,0.8s-0.5,0.4-0.8,0.4c-1.1,0-2,0.2-2.7,0.8
			c-0.7,0.6-1.2,1.5-1.6,2.8c-0.4,1.3-0.7,2.9-0.8,4.7c-0.1,1.8-0.2,3.8-0.3,6c0,0.9-0.1,1.9-0.1,2.8c0,0.9-0.1,1.9-0.2,2.9
			c0,0.3-0.1,0.6-0.4,0.8C96.9,307.2,96.6,307.3,96.3,307.3z"/>
		<path class="st2" d="M112.4,307.2c-0.3,0-0.4,0-0.5,0c-0.9-0.1-1.7-0.4-2.4-0.9c-0.7-0.5-1.4-1.3-1.9-2.2c-0.6-1-1-2.1-1.3-3.3
			c-0.2-0.7-0.3-1.4-0.4-2.2c-0.1-0.8-0.1-1.5-0.1-2.4c0-1.7,0.1-3.2,0.4-4.7c0.3-1.5,0.7-2.8,1.2-4c0.5-1.2,1.2-2.2,1.9-2.9
			s1.5-1.1,2.3-1.1c0.7-0.1,1.3,0.1,2,0.5c0.6,0.4,1.1,1,1.5,1.7c0.9,1.4,1.5,3.4,1.9,6.2c0,0.4,0,0.7-0.3,1
			c-0.2,0.3-0.5,0.4-0.9,0.4l-7.6,0.3c0,0.5-0.1,0.9-0.1,1.3c0,0.4,0,0.9,0,1.4c0,1.4,0.2,2.6,0.4,3.8c0.2,1.1,0.6,2.1,1.1,2.9
			c0.7,1.2,1.6,1.9,2.6,2c0.7,0.1,1.4-0.2,2.1-0.8c0.6-0.6,1.1-1.4,1.3-2.5c0.1-0.3,0.2-0.6,0.5-0.7c0.3-0.2,0.6-0.2,0.9-0.1
			c0.3,0.1,0.6,0.2,0.7,0.5s0.2,0.6,0.1,0.9c-0.2,0.8-0.5,1.6-0.9,2.2c-0.4,0.7-0.8,1.2-1.4,1.7
			C114.7,306.8,113.6,307.2,112.4,307.2z M111.8,285.8L111.8,285.8c-0.3,0-0.6,0.3-1.1,0.6s-0.8,1-1.2,2c-0.2,0.4-0.3,0.8-0.5,1.3
			c-0.1,0.5-0.3,0.9-0.4,1.4l5.8-0.2c-0.2-1.1-0.4-1.9-0.7-2.5c-0.3-0.6-0.5-1.1-0.7-1.4c-0.1-0.2-0.3-0.4-0.6-0.7
			S112,285.8,111.8,285.8z"/>
		<path class="st2" d="M131.1,307.3L131.1,307.3c-0.4,0-0.7-0.2-0.9-0.4c-0.2-0.2-0.3-0.5-0.3-0.9c0-1.2,0.1-2.3,0.1-3.2
			c0-1,0-2.1,0-3.3c0-1.2-0.1-2.5-0.1-3.7c-0.1-1.5-0.2-2.8-0.4-4c-0.1-1.2-0.3-2.2-0.6-3c-0.3-1-0.5-1.7-0.8-2
			c-0.3-0.4-0.5-0.5-0.6-0.6c0,0-0.1,0-0.1,0c0,0-0.1,0.1-0.2,0.1c-0.1,0.1-0.3,0.3-0.5,0.7s-0.4,0.9-0.7,1.7
			c-0.2,0.8-0.5,1.8-0.7,3.1c-0.2,1.3-0.4,3-0.6,4.9c-0.1,1.2-0.2,2.3-0.3,3.3c-0.1,1.1-0.1,2-0.1,2.8c0,0.8-0.1,1.7-0.1,2.7
			c0,0.3-0.1,0.6-0.3,0.8s-0.5,0.4-0.8,0.4h0c-0.3,0-0.6-0.1-0.8-0.3c-0.2-0.2-0.4-0.5-0.4-0.8l-0.5-21c0-0.3,0.1-0.6,0.3-0.8
			c0.2-0.2,0.5-0.4,0.8-0.4c0.3,0,0.6,0.1,0.8,0.3c0.2,0.2,0.4,0.5,0.4,0.8l0.1,3.4c0.5-1.7,1.1-2.8,1.9-3.5
			c0.4-0.3,0.8-0.6,1.1-0.6c0.4-0.1,0.7-0.1,1-0.1c0.3,0,0.7,0.1,1.1,0.3c0.4,0.2,0.8,0.6,1.2,1.2c0.4,0.7,0.8,1.6,1.2,2.8
			c0.2,0.9,0.5,2,0.6,3.3c0.2,1.2,0.3,2.7,0.4,4.2c0.1,1.3,0.1,2.6,0.2,3.8c0,1.2,0,2.3,0,3.3s0,1.8-0.1,2.4s0,0.9,0,1
			c0,0.3-0.1,0.6-0.4,0.8C131.7,307.2,131.5,307.3,131.1,307.3z"/>
		<path class="st2" d="M137.3,285.9c0.3,0,0.6,0.1,0.8,0.4c0.2,0.2,0.3,0.5,0.3,0.8c0,1,0,1.7-0.1,2.1c0,0.4,0,0.7,0,0.8
			s0,0.2,0,0.2s0,0.1,0,0.3c0,0.2,0,0.5,0,0.9c0,0.5,0,1.2,0,2.2c0,0.3-0.1,0.6-0.4,0.8s-0.5,0.3-0.8,0.3c-0.3,0-0.6-0.1-0.9-0.4
			s-0.3-0.5-0.3-0.8c0-1,0-1.8,0-2.2c0-0.5,0-0.8,0-1c0-0.2,0-0.3,0-0.3c0,0,0-0.1,0-0.2c0-0.1,0-0.4,0-0.8c0-0.4,0-1.1,0-2.1
			c0-0.3,0.1-0.6,0.4-0.8C136.7,286,136.9,285.9,137.3,285.9z"/>
		<path class="st2" d="M147,307.3c-0.6,0-1.2-0.1-1.9-0.4c-0.8-0.3-1.5-0.9-2.1-1.6c-0.6-0.8-1-1.8-1.1-2.9c0-0.3,0-0.6,0.2-0.9
			c0.2-0.3,0.5-0.4,0.8-0.5c0.3,0,0.6,0,0.8,0.3c0.3,0.2,0.4,0.5,0.4,0.8c0.1,0.9,0.4,1.5,0.8,1.9s0.7,0.6,1,0.7
			c0.4,0.2,0.8,0.2,1.2,0.2s0.7-0.2,1-0.4c0.5-0.3,0.6-0.9,0.5-1.7c-0.2-1-0.6-2.2-1.3-3.5c-0.7-1.3-1.4-2.7-2.1-4
			c-0.8-1.4-1.6-2.8-2.2-4.1c-0.7-1.3-1.1-2.5-1.2-3.6c-0.1-0.7,0-1.3,0.2-1.9c0.2-0.6,0.6-1.1,1.1-1.5c0.6-0.4,1.2-0.6,1.9-0.7
			c0.7-0.1,1.4,0.1,2.1,0.4c1,0.5,1.9,1.2,2.5,2.2c0.3,0.5,0.6,1.2,0.8,1.9c0.2,0.7,0.4,1.4,0.5,2.3c0,0.3,0,0.6-0.3,0.9
			c-0.2,0.3-0.5,0.4-0.8,0.5c-0.3,0-0.6,0-0.9-0.3c-0.3-0.2-0.4-0.5-0.5-0.8c-0.1-0.8-0.2-1.5-0.4-2s-0.4-1-0.7-1.3
			s-0.5-0.6-0.7-0.8s-0.4-0.3-0.6-0.4c-0.7-0.3-1.2-0.3-1.7,0.1c-0.4,0.3-0.5,0.7-0.4,1.2c0.1,0.8,0.5,1.9,1.1,3.1
			c0.6,1.2,1.3,2.5,2,3.7c0.8,1.5,1.6,2.9,2.3,4.3s1.2,2.8,1.4,4c0.1,0.8,0.1,1.6-0.2,2.3c-0.3,0.7-0.6,1.2-1.2,1.7
			c-0.6,0.5-1.4,0.8-2.2,0.9C147.4,307.3,147.2,307.3,147,307.3z"/>
		<path class="st2" d="M170.1,307.2c-0.5,0-1,0-1.4,0c-0.5,0-0.9-0.1-1.4-0.1c-0.3,0-0.6-0.2-0.8-0.4c-0.2-0.2-0.3-0.5-0.3-0.8
			c0.1-2.1,0.1-4,0.2-5.7s0.1-3.4,0.2-5s0.1-3.3,0.1-5s0-3.5,0-5.5c0-0.3,0.1-0.6,0.4-0.8c0.2-0.2,0.5-0.4,0.8-0.4
			c0.3,0,0.6,0.1,0.8,0.4c0.2,0.2,0.4,0.5,0.4,0.8c0,1.9,0,3.7,0,5.3c0,1.6,0,3.2-0.1,4.7s-0.1,3.1-0.1,4.8c0,1.6-0.1,3.4-0.2,5.4
			c0.3,0,0.8,0,1.4,0s1.2,0,1.8,0c0.6,0,1.2,0,1.8,0c0.6,0,1.1,0,1.4-0.1c0.3,0,0.6,0,0.9,0.3c0.2,0.2,0.4,0.5,0.4,0.8
			c0,0.3,0,0.6-0.3,0.9s-0.5,0.4-0.8,0.4c-0.3,0-0.6,0-1.1,0.1s-1,0-1.5,0.1c-0.5,0-1,0-1.5,0C170.7,307.2,170.3,307.2,170.1,307.2z
			"/>
		<path class="st2" d="M180.4,289.2c0.3,0,0.6,0.1,0.8,0.4c0.2,0.2,0.3,0.5,0.3,0.8c0,1.7-0.1,3.2-0.1,4.6s0,2.8-0.1,4.1
			c0,1.1,0,2.2-0.1,3.3c0,1.1,0,2.3-0.1,3.6c0,0.3-0.1,0.6-0.4,0.8c-0.2,0.2-0.5,0.3-0.8,0.3c-0.3,0-0.6-0.1-0.8-0.4
			s-0.3-0.5-0.3-0.8c0-1.3,0-2.5,0.1-3.7c0-1.1,0-2.3,0.1-3.3c0-1.3,0-2.7,0.1-4.1c0-1.4,0-2.9,0.1-4.6c0-0.3,0.1-0.6,0.4-0.8
			C179.8,289.3,180.1,289.2,180.4,289.2z M180.5,285.9c-0.3,0-0.6-0.1-0.8-0.3c-0.2-0.2-0.3-0.5-0.3-0.8c0-0.3,0.1-0.6,0.3-0.8
			s0.5-0.3,0.8-0.3s0.6,0.1,0.8,0.3c0.2,0.2,0.3,0.5,0.3,0.8c0,0.3-0.1,0.6-0.3,0.8C181.1,285.8,180.8,285.9,180.5,285.9z"/>
		<path class="st2" d="M186.2,281.7c0.3,0,0.6,0.1,0.8,0.3s0.3,0.5,0.3,0.8c0,0.4,0,0.9,0.1,1.5c0,0.6,0,1.2,0,1.9
			c0,0.6,0,1.3,0,1.9c0,0.6,0,1.2,0,1.6c1.2,0.3,2.3,0.7,3.3,1.4c1,0.6,1.7,1.5,2.3,2.5c0.5,0.9,0.9,1.8,1.1,2.8
			c0.2,1,0.2,2.1,0.1,3.2c-0.1,1-0.4,2-0.8,2.9c-0.4,0.9-1,1.7-1.6,2.4c-0.7,0.7-1.6,1.3-2.5,1.7c-1,0.4-2,0.6-3.1,0.5
			c-0.3,0-0.6-0.2-0.8-0.4c-0.2-0.2-0.3-0.5-0.3-0.9c0.1-2,0.1-4.1,0.2-6.2c0-2.1,0-4.1,0-6.1c0-2,0-3.9-0.1-5.7
			c0-1.8-0.1-3.5-0.1-5c0-0.3,0.1-0.6,0.3-0.8C185.5,281.9,185.8,281.8,186.2,281.7L186.2,281.7z M187.4,304.7
			c0.7-0.1,1.2-0.3,1.8-0.7c0.5-0.4,1-0.8,1.3-1.3c0.4-0.5,0.7-1,0.9-1.6c0.2-0.6,0.4-1.2,0.5-1.8c0.1-0.7,0.1-1.3,0-2.1
			s-0.3-1.4-0.6-2c-0.3-0.6-0.8-1.2-1.4-1.8s-1.4-0.9-2.3-1.2C187.6,296.1,187.5,300.3,187.4,304.7z"/>
		<path class="st2" d="M198.9,307.3L198.9,307.3c-0.4,0-0.7-0.1-0.9-0.4c-0.2-0.2-0.3-0.5-0.3-0.8c0-1,0-2,0-3s0-2,0.1-3
			c0.1-2.5,0.1-5,0.2-7.5c0-2.5-0.1-5.1-0.4-7.7c0-0.3,0-0.6,0.3-0.9c0.2-0.2,0.5-0.4,0.8-0.4c0.3,0,0.6,0,0.9,0.3
			c0.3,0.2,0.4,0.5,0.5,0.8c0,0.4,0.1,0.8,0.1,1.1s0.1,0.8,0.1,1.1c0.2-0.3,0.4-0.6,0.6-0.9c0.2-0.3,0.4-0.5,0.7-0.7
			c1.2-1,2.6-1.5,4.3-1.5c0.3,0,0.6,0.1,0.8,0.4s0.3,0.5,0.3,0.8c0,0.3-0.1,0.6-0.4,0.8s-0.5,0.4-0.8,0.4c-1.1,0-2,0.2-2.7,0.8
			c-0.7,0.6-1.2,1.5-1.6,2.8c-0.4,1.3-0.7,2.9-0.8,4.7c-0.1,1.8-0.2,3.8-0.3,6c0,0.9-0.1,1.9-0.1,2.8c0,0.9-0.1,1.9-0.2,2.9
			c0,0.3-0.1,0.6-0.4,0.8C199.5,307.2,199.2,307.3,198.9,307.3z"/>
		<path class="st2" d="M219.4,286.2c0.6,1.3,0.9,2.9,0.9,4.9c0,2-0.1,4.3-0.3,6.8c-0.1,1.2-0.2,2.6-0.2,3.9
			c-0.1,1.4-0.1,2.8-0.1,4.3c0,0.3-0.1,0.6-0.4,0.8c-0.2,0.2-0.5,0.4-0.8,0.4c-0.3,0-0.5-0.1-0.8-0.3c-0.6,0.2-1.3,0.2-1.9,0.2
			c-0.3,0-0.5,0-0.8-0.1c-0.3,0-0.5-0.1-0.8-0.1c-1.3-0.3-2.3-1-3-2c-0.4-0.5-0.7-1-0.9-1.6c-0.2-0.6-0.3-1.2-0.4-1.9
			c0-0.7,0-1.3,0.2-1.9c0.2-0.6,0.4-1.2,0.7-1.7c0.7-1.1,1.7-1.9,3.1-2.3c0.6-0.2,1.2-0.3,1.9-0.4c0.6,0,1.3,0,2.1,0.1
			c0.1-1.8,0.1-3.4,0.1-4.8c0-1.4-0.3-2.5-0.6-3.3c-0.4-0.7-0.9-1.1-1.7-1.3c-0.6-0.1-1.2,0-1.9,0.2c-0.7,0.3-1.3,0.7-2,1.3
			c-0.3,0.2-0.5,0.3-0.9,0.3s-0.6-0.1-0.8-0.4c-0.2-0.2-0.3-0.5-0.3-0.8c0-0.3,0.2-0.6,0.4-0.8c0.9-0.9,1.9-1.5,3-1.8
			c1-0.3,2-0.4,3-0.3c0.7,0.2,1.4,0.5,2,0.9C218.6,284.9,219,285.5,219.4,286.2z M213,303.6c0.9,1.2,2.4,1.5,4.3,1
			c0-1.2,0.1-2.4,0.2-3.6s0.1-2.3,0.2-3.3v0c-1.1-0.2-2.1-0.1-2.9,0.1c-0.8,0.2-1.5,0.7-1.9,1.4c-0.4,0.7-0.6,1.4-0.6,2.2
			C212.3,302.3,212.5,303,213,303.6z"/>
		<path class="st2" d="M225.4,307.3L225.4,307.3c-0.4,0-0.7-0.1-0.9-0.4c-0.2-0.2-0.3-0.5-0.3-0.8c0-1,0-2,0-3c0-1,0-2,0.1-3
			c0.1-2.5,0.1-5,0.2-7.5c0-2.5-0.1-5.1-0.4-7.7c0-0.3,0-0.6,0.3-0.9c0.2-0.2,0.5-0.4,0.8-0.4c0.3,0,0.6,0,0.9,0.3
			c0.3,0.2,0.4,0.5,0.5,0.8c0,0.4,0.1,0.8,0.1,1.1s0.1,0.8,0.1,1.1c0.2-0.3,0.4-0.6,0.6-0.9c0.2-0.3,0.4-0.5,0.7-0.7
			c1.2-1,2.6-1.5,4.3-1.5c0.3,0,0.6,0.1,0.8,0.4c0.2,0.2,0.3,0.5,0.3,0.8c0,0.3-0.1,0.6-0.4,0.8c-0.2,0.2-0.5,0.4-0.8,0.4
			c-1.1,0-2,0.2-2.7,0.8c-0.7,0.6-1.2,1.5-1.6,2.8c-0.4,1.3-0.7,2.9-0.8,4.7s-0.2,3.8-0.3,6c0,0.9-0.1,1.9-0.1,2.8s-0.1,1.9-0.2,2.9
			c0,0.3-0.1,0.6-0.4,0.8C226,307.2,225.8,307.3,225.4,307.3z"/>
		<path class="st2" d="M245.5,283.5c0.3,0.1,0.6,0.2,0.7,0.5s0.2,0.6,0.1,0.9c-0.3,1-0.5,2-0.7,3.1c-0.2,1-0.5,2-0.7,3.1
			c-0.7,3.3-1.5,6.5-2.2,9.6c-0.8,3.1-1.6,6.2-2.6,9.2c-0.2,0.6-0.6,0.8-1.1,0.8c-0.1,0-0.1,0-0.2,0c-0.1,0-0.1,0-0.2-0.1
			c-0.3-0.1-0.5-0.3-0.7-0.6s-0.2-0.6-0.1-0.9c0.5-1.4,0.9-2.8,1.2-4.1c0.4-1.4,0.8-2.8,1.1-4.2h0c-0.2-0.9-0.4-1.8-0.7-2.8
			c-0.3-1-0.5-2-0.8-3c-0.4-1.6-0.9-3.2-1.3-4.9c-0.4-1.6-0.8-3.3-1.2-5c-0.1-0.3,0-0.6,0.2-0.9c0.2-0.3,0.4-0.5,0.7-0.5
			s0.6,0,0.9,0.2c0.3,0.2,0.5,0.4,0.5,0.7c0.4,1.7,0.8,3.3,1.2,4.9c0.4,1.6,0.8,3.2,1.2,4.8l0.4,1.5c0.2-0.9,0.4-1.8,0.6-2.7
			c0.2-0.9,0.4-1.8,0.6-2.7c0.2-1,0.5-2,0.7-3.1c0.2-1,0.5-2.1,0.7-3.1c0.1-0.3,0.3-0.6,0.6-0.7
			C244.9,283.4,245.2,283.4,245.5,283.5z"/>
	</g>
</g>
<g>
	<path class="st3" d="M228.2,139.3c-1.1,0-2.1,1-2.1,2.1s1,2.1,2.1,2.1s2.1-1,2.1-2.1S229.3,139.3,228.2,139.3z"/>
	<path class="st3" d="M233.4,135.6c-2.3,0-2.3,3.6,0,3.6S235.7,135.6,233.4,135.6z"/>
	<path class="st1" d="M28,109c-2.6,0-2.6,4.1,0,4.1S30.6,109,28,109z"/>
	<path class="st0" d="M263.2,137.1c-0.8-3.5-2.4-7-4.8-10c-0.6-0.8-1.3-1.5-2-2.1c-0.4-0.3-0.7-0.7-1.1-1l-0.6-0.5
		c-0.1-0.1-0.2-0.2-0.3-0.2l-0.3-0.2l-0.6-0.4c-0.2-0.1-0.4-0.3-0.7-0.4l-0.3-0.2c-0.1-0.1-0.2-0.1-0.3-0.2l-0.6-0.3l-0.4-0.2
		l-0.3-0.1l-0.7-0.3l-0.7-0.3l-0.7-0.2c-1.8-0.7-3.7-1.2-5.7-1.5c-2-0.3-4-0.4-6-0.3c-2,0.1-4,0.4-5.9,0.8c-0.5,0.1-1,0.2-1.5,0.3
		c-0.5,0.1-1,0.2-1.5,0.4c-0.5,0.1-1,0.3-1.4,0.4c-0.5,0.1-0.9,0.3-1.4,0.4c-3.6,1.1-7.3,2-11.1,2.5c-3.8,0.5-7.7,0.5-11.6,0.2
		l-0.4,0c-0.1,0-0.1,0-0.2,0l-0.2,0c-0.2,0-0.5-0.1-0.7-0.1c-0.2,0-0.5-0.1-0.7-0.1c-0.2,0-0.5-0.1-0.7-0.1
		c-0.9-0.2-1.7-0.5-2.5-0.8c-0.8-0.3-1.5-0.8-2.2-1.3l-0.5-0.4c-0.1-0.1-0.3-0.3-0.4-0.4l-0.2-0.2l-0.1-0.1c0,0-0.1-0.1-0.1-0.1
		l-0.2-0.3l-0.1-0.2c-0.1-0.1,0,0,0-0.1c-0.9-1.3-1.3-2.9-1.3-4.6c0.1-1.7,0.6-3.6,1.3-5.4c0.7-1.8,1.7-3.7,2.7-5.5
		c1-1.8,2.2-3.6,3.3-5.6c2.2-4,3.9-8.2,5.1-12.7c1.1-4.4,1.8-9,1.9-13.7c0.2-9.3-1.5-18.6-5.1-27.3c-0.9-2.2-1.9-4.3-3-6.4l-0.9-1.6
		l-0.4-0.8l-0.5-0.8l-0.9-1.5l-1-1.5l-0.5-0.7l-0.5-0.7l-1.1-1.4c-0.4-0.5-0.7-0.9-1.1-1.4l-0.6-0.7c-0.2-0.2-0.4-0.5-0.6-0.7
		l-1.2-1.4c-0.4-0.4-0.8-0.9-1.2-1.3l-0.6-0.6c-0.2-0.2-0.4-0.4-0.7-0.6l-1.3-1.3c-0.4-0.4-0.9-0.8-1.3-1.2l-0.7-0.6
		c0,0-0.2-0.1-0.2-0.2l-0.2-0.1l-0.4-0.3c-0.5-0.4-0.9-0.8-1.4-1.1l-1.5-1.1c-0.2-0.2-0.5-0.4-0.7-0.5l-0.8-0.5l-0.8-0.5
		c-0.3-0.2-0.5-0.3-0.8-0.5c-0.5-0.3-1-0.6-1.5-0.9l-1.6-0.9c-2.1-1.1-4.3-2.2-6.5-3c-0.6-0.2-1.1-0.4-1.7-0.6l-0.8-0.3
		c-0.3-0.1-0.6-0.2-0.9-0.3c-0.6-0.2-1.1-0.4-1.7-0.6l-1.7-0.5c-9.2-2.5-18.9-3.1-28.4-1.9l-0.9,0.1l-0.9,0.1
		c-0.6,0.1-1.2,0.2-1.8,0.3l-1.8,0.3c-0.6,0.1-1.2,0.3-1.7,0.4l-0.9,0.2c-0.3,0.1-0.6,0.2-0.9,0.2c-0.6,0.2-1.2,0.3-1.7,0.5L120,8.5
		c-0.6,0.2-1.1,0.4-1.7,0.6l-0.8,0.3c-0.3,0.1-0.6,0.2-0.8,0.3c-0.6,0.2-1.1,0.4-1.7,0.6l-1.7,0.7l-0.4,0.2l-0.4,0.2l-0.8,0.4
		l-0.8,0.4c0,0-0.2,0.1-0.2,0.1l-0.2,0.1l-0.4,0.2l-1.6,0.8c-0.3,0.1-0.5,0.3-0.8,0.4l-0.8,0.5l-1.5,0.9c-8,5-14.8,11.8-19.9,19.5
		l-1,1.4c-0.3,0.5-0.6,1-0.9,1.5L82.9,39c-0.3,0.5-0.5,1-0.8,1.5c-0.3,0.5-0.5,1-0.8,1.5c-0.2,0.5-0.5,1-0.7,1.6
		c-0.2,0.5-0.5,1-0.7,1.6c-0.2,0.5-0.4,1.1-0.7,1.6c-0.2,0.5-0.4,1.1-0.6,1.6c-0.2,0.5-0.4,1-0.5,1.6c-0.2,0.5-0.4,1-0.5,1.6
		c-0.2,0.6-0.3,1.1-0.5,1.7c-0.6,2.2-1.1,4.4-1.5,6.7c-0.7,4.5-0.8,9-0.5,13.4c0.4,4.4,1.2,8.7,2.5,12.9c1.2,4.1,2.9,8.1,4.8,11.8
		c1,1.9,2,3.7,3.1,5.5c0.3,0.4,0.6,0.9,0.8,1.3c0.3,0.4,0.5,0.8,0.8,1.3l0.1,0.2c0,0.1,0.1,0.1,0.1,0.2l0.2,0.3
		c0.1,0.2,0.2,0.4,0.3,0.6l0.3,0.6c0,0.1,0.1,0.2,0.1,0.3l0.1,0.3c0.7,1.5,1,3.2,0.9,4.8l0,0.6l-0.1,0.6c0,0.2-0.1,0.4-0.1,0.6
		c0,0.2-0.1,0.4-0.1,0.6c-0.2,0.8-0.5,1.5-0.9,2.2c-0.2,0.4-0.4,0.7-0.6,1c-0.2,0.3-0.5,0.7-0.7,1c-0.3,0.3-0.5,0.6-0.8,0.9
		c-0.3,0.3-0.6,0.6-0.9,0.8c-1.3,1-2.7,1.8-4.3,2.4c-0.4,0.1-0.8,0.3-1.2,0.4c-0.4,0.1-0.8,0.2-1.2,0.3c-0.2,0-0.4,0.1-0.6,0.1
		c-0.2,0-0.4,0.1-0.6,0.1l-0.6,0l-0.1,0l-0.2,0l-0.3,0c-1.6,0-3.3-0.2-4.9-0.6c-0.4-0.1-0.8-0.2-1.2-0.3c-0.4-0.1-0.8-0.3-1.2-0.4
		c-0.4-0.2-0.8-0.3-1.1-0.5c-0.4-0.2-0.8-0.3-1.1-0.5c-1.5-0.7-2.9-1.5-4.3-2.5c-1.4-0.9-2.7-1.9-3.9-3l-0.5-0.4l-0.4-0.4
		c-0.3-0.3-0.6-0.5-0.9-0.8c-0.3-0.3-0.6-0.6-0.9-0.9c-0.3-0.3-0.6-0.6-0.9-0.9c-2.4-2.3-4.7-4.7-7.4-6.7c-0.3-0.2-0.7-0.5-1-0.7
		l-0.5-0.4l-0.5-0.3c-0.3-0.2-0.7-0.4-1.1-0.7c-0.2-0.1-0.4-0.2-0.5-0.3l-0.5-0.3c0,0-0.2-0.1-0.2-0.1l-0.1-0.1l-0.3-0.1
		c-0.2-0.1-0.4-0.2-0.6-0.3c-0.2-0.1-0.4-0.2-0.6-0.2l-0.6-0.2c-0.8-0.3-1.6-0.5-2.5-0.7c-3.3-0.6-6.6-0.4-9.6,0.5
		c-0.8,0.2-1.5,0.5-2.2,0.8c-0.7,0.3-1.4,0.7-2.1,1.1c-0.7,0.4-1.3,0.9-1.9,1.3c-0.6,0.5-1.2,1-1.7,1.6c-1,1.1-1.9,2.4-2.5,3.7
		l-0.2,0.4l0,0.1c0,0-0.1,0.2-0.1,0.2c0,0.1-0.1,0.2-0.1,0.3c-0.1,0.4-0.2,0.7-0.3,1.1c-0.2,0.7-0.3,1.4-0.4,2.1
		c-0.2,1.4-0.2,2.8,0.1,4.3c0.2,0.7,0.4,1.5,0.9,2.3c0.5,0.8,1.3,1.5,2.2,1.9c0.1,0,0.2,0.1,0.3,0.1c0.1,0,0.3,0.1,0.4,0.1l0.2,0
		c0.1,0,0.1,0,0.2,0l0.2,0l0.1,0c0.3,0,0.2,0,0.3,0l0.3,0c0.2,0,0.4,0,0.6,0c0.9-0.1,1.6-0.4,2.2-0.7c0.6-0.3,1.1-0.6,1.6-0.9
		c0.4-0.3,0.8-0.5,1.2-0.7c0.1-0.1,0.2-0.1,0.2-0.1c0.1,0,0.2-0.1,0.2-0.1l0.1,0c0,0,0.1,0,0.1,0c0,0,0.1,0,0.1,0c0,0,0,0,0.1,0
		l0.1,0l0.2,0l0.1,0l0.1,0c0.1,0,0.2,0,0.2,0c0.1,0,0.2,0,0.2,0c0.6,0,1.3,0.2,1.9,0.5c0.3,0.2,0.6,0.3,0.9,0.5l0.2,0.1l0.2,0.1
		c0.1,0,0.2,0.1,0.2,0.2l0.1,0.1c0,0,0,0,0,0l0.1,0.1c0.5,0.4,1,1,1.4,1.5c0.4,0.5,0.8,1.1,1.1,1.7c0.3,0.6,0.6,1.1,0.9,1.7
		c0.5,1.1,1,2.2,1.4,3.2c0.2,0.5,0.4,1,0.5,1.4c0.2,0.4,0.3,0.9,0.5,1.3c0,0.1,0.1,0.2,0.1,0.4c0,0-0.1,0-0.1,0
		c-0.2,0-0.3-0.1-0.5-0.1c-0.4-0.1-0.8-0.1-1.1-0.2c-0.4,0-0.8-0.1-1.1-0.1c-0.4,0-0.8-0.1-1.2-0.1c-0.4,0-0.8,0-1.2,0
		c-1.6,0-3.2,0.1-4.9,0.3c-1.7,0.2-3.3,0.6-5,1.1c-0.4,0.1-0.8,0.3-1.3,0.4c-0.2,0.1-0.4,0.2-0.6,0.2l-0.3,0.1l-0.3,0.1
		c-0.2,0.1-0.4,0.2-0.6,0.2c-0.2,0.1-0.4,0.2-0.6,0.3c-0.4,0.2-0.8,0.4-1.2,0.6c-1.6,0.8-3.3,1.8-4.8,2.9c-1.5,1.1-2.9,2.5-4.2,4
		c-0.3,0.4-0.6,0.8-0.9,1.2l-0.2,0.3l0,0L8.6,146l0,0.1l-0.1,0.1l-0.4,0.6c-0.6,0.9-1,1.8-1.4,2.7c-0.8,1.8-1.4,3.8-1.6,5.9l0,0.4
		l0,0.4c0,0.3,0,0.5-0.1,0.8c0,0.5,0,1,0,1.5c0,0.5,0.1,1,0.1,1.5c0.1,0.5,0.2,1,0.3,1.5l0.1,0.4l0,0.2l0,0l0,0.1l0,0.1l0.2,0.6
		c0,0.1,0,0.1,0.1,0.2l0.1,0.2l0.1,0.4c0.1,0.3,0.2,0.5,0.3,0.8l0.3,0.7l0.4,0.7c0.1,0.2,0.3,0.4,0.4,0.7c0.1,0.2,0.3,0.4,0.4,0.6
		c0.6,0.8,1.3,1.6,2,2.3c0.2,0.2,0.4,0.3,0.6,0.5l0.3,0.3l0.3,0.2c0.2,0.2,0.4,0.3,0.6,0.5l0.6,0.4c0.9,0.5,1.8,1,2.7,1.4
		c0.5,0.2,1,0.3,1.5,0.5c0.2,0.1,0.5,0.1,0.7,0.2l0.4,0.1c0,0,0,0,0.1,0l0,0l0.1,0l0.2,0c2,0.3,4.1,0.1,5.9-0.6
		c0.9-0.3,1.8-0.8,2.6-1.3c0.4-0.3,0.8-0.6,1.2-0.9l0.3-0.2l0.1-0.1l0.1-0.1l0.1-0.1l0.2-0.2l0.1-0.1l0.1-0.1l0.1-0.2l0.3-0.3
		c0.1-0.1,0.2-0.2,0.2-0.3c0.1-0.2,0.3-0.4,0.4-0.6c0.1-0.2,0.3-0.4,0.4-0.6c0.1-0.2,0.2-0.4,0.3-0.6c0.4-0.8,0.7-1.7,0.9-2.6
		c0.2-0.9,0.2-1.8,0.2-2.7c-0.1-0.9-0.3-1.8-0.6-2.6l-0.1-0.2l-0.2-0.3c-0.1-0.1-0.1-0.3-0.2-0.4c1.6-0.2,3.3,0,4.9,0.5
		c2,0.6,3.8,1.8,5.2,3.4c-0.3,2.1-0.4,4.3-0.3,6.5c0.2,3.8,1.1,7.6,2.6,11.2c1.5,3.5,3.5,6.8,6,9.8c2.5,2.9,5.4,5.5,8.7,7.5
		c3.2,2,6.8,3.6,10.4,4.6c7.2,2.1,14.8,2.2,21.7,0.7c4.9-1,9.5-2.9,13.7-5.2c-0.8,4.1-0.4,8.4,1.1,12.1c2.3,5.7,7.2,10,12.8,11.3
		c0.9,0.2,1.8,0.3,2.6,0.3c1.9,0,3.6-0.6,4.9-1.6c1.7-1.4,2.5-3.7,2.4-6.5c0-1.1-0.2-2.1-0.4-3.2c-0.1-0.8-0.2-1.6-0.3-2.3
		c-0.3-4.6,1.9-9.4,7-15.2c0.7-0.8,1.5-1.7,2.3-2.5c3.1-3.4,6.2-6.8,8.2-11c2.9,4.4,6.3,8.6,10.8,11.6c7.5,5,16.8,7.7,26.6,7.7
		c1.2,0,2.5,0,3.7-0.1c2-1.9,4.8-2.1,7.2-3.4c2.9-1.5,5.6-3.4,8.4-5.2c2.6-1.7,4.9-3.6,7.1-5.9c1.7-1.8,3.5-3.8,5.8-4.9
		c3.4-7.9,3.9-16.9,1.3-24.8c0.4,0,0.7,0,1.1,0c6.3,0,11.9-2.6,16.3-5.5c-0.1,1,0,2.1,0.2,3.1c0,0.2,0.1,0.3,0.1,0.5
		c0,0.2,0.1,0.3,0.2,0.5c0.1,0.2,0.1,0.3,0.2,0.5c0.1,0.2,0.1,0.3,0.2,0.5c0.1,0.2,0.1,0.3,0.2,0.5c0.1,0.2,0.2,0.3,0.3,0.5
		c0.1,0.2,0.2,0.3,0.3,0.5l0.2,0.4c0.8,1.2,1.7,2.3,2.9,3.3c1.1,0.9,2.5,1.7,3.9,2.3c1.4,0.6,2.9,0.9,4.5,1c0.2,0,0.4,0,0.6,0l0.3,0
		l0.3,0l0.6,0c0.2,0,0.4,0,0.6,0c0.4,0,0.8-0.1,1.2-0.1l0.6-0.1c0.2,0,0.4-0.1,0.6-0.1c0.8-0.2,1.6-0.5,2.3-0.7
		c0.7-0.3,1.5-0.7,2.2-1.1c0.7-0.4,1.4-0.9,2-1.4c0.3-0.3,0.6-0.5,1-0.8c0.2-0.1,0.3-0.3,0.5-0.4l0.2-0.2l0.2-0.2l0.5-0.5l0.4-0.4
		l0.1-0.1c0,0,0.1-0.1,0.1-0.2l0.2-0.3l0.4-0.5c0.3-0.3,0.5-0.7,0.7-1.1c0.2-0.4,0.4-0.7,0.6-1.1c0.8-1.5,1.4-3.2,1.8-4.9
		C264,144.2,264,140.6,263.2,137.1z"/>
	<path class="st4" d="M149.3,202.2c-2.3,0-2.3,3.5,0,3.5S151.6,202.2,149.3,202.2z"/>
	<path class="st4" d="M155.5,207.5c-0.6,0-1.1,0.5-1.1,1.1c0,0.6,0.5,1.1,1.1,1.1c0.6,0,1.1-0.5,1.1-1.1
		C156.6,208,156.1,207.5,155.5,207.5z"/>
	<path class="st4" d="M193.7,207.4c-2.4,0-2.4,3.7,0,3.7C196,211.1,196,207.4,193.7,207.4z"/>
	<path class="st4" d="M199.8,203.2C199.8,203.2,199.7,203.1,199.8,203.2c-0.5-0.3-1-0.3-1.4-0.1c-0.4,0.2-0.6,0.7-0.6,1.1
		s0.2,0.9,0.6,1.1c0.4,0.2,0.9,0.2,1.3,0c0,0,0.1,0,0.1-0.1c0.4-0.2,0.6-0.6,0.6-1.1S200.2,203.4,199.8,203.2z"/>
	<path class="st4" d="M202.1,197.9c0,0-0.1,0-0.1,0c-0.5,0.1-0.8,0.6-0.8,1.1c0,0.5,0.3,0.9,0.8,1.1c0,0,0.1,0,0.1,0
		c0.7,0.2,1.4-0.4,1.4-1.1C203.6,198.3,202.8,197.7,202.1,197.9z"/>
	<path class="st3" d="M223.8,145.2c-2.8,0-2.8,4.4,0,4.4C226.7,149.6,226.7,145.2,223.8,145.2z"/>
	<path class="st3" d="M69.4,196.4c-2.5,0-2.5,3.8,0,3.8C71.9,200.2,71.9,196.4,69.4,196.4z"/>
	<path class="st3" d="M78.2,196.5c-2.5,0-2.5,3.9,0,3.9C80.7,200.4,80.7,196.5,78.2,196.5z"/>
	<path class="st3" d="M86.2,195.5c-2.5,0-2.5,3.9,0,3.9C88.7,199.5,88.7,195.5,86.2,195.5z"/>
	<path class="st3" d="M93.8,192.2c-1.2,0-2.3,1-2.3,2.3c0,1.2,1,2.3,2.3,2.3c1.2,0,2.3-1,2.3-2.3C96.1,193.2,95,192.2,93.8,192.2z"
		/>
	<path class="st3" d="M100.6,187.9c-2.8,0-2.8,4.3,0,4.3S103.4,187.9,100.6,187.9z"/>
	<path class="st3" d="M106.8,182.8c-2.9,0-2.9,4.4,0,4.4C109.7,187.2,109.7,182.8,106.8,182.8z"/>
	<path class="st3" d="M112.3,176.4c-1.5,0-2.8,1.3-2.8,2.8s1.3,2.8,2.8,2.8c1.5,0,2.8-1.3,2.8-2.8S113.8,176.4,112.3,176.4z"/>
	<path class="st3" d="M115.4,169c-1.4,0-2.5,1.1-2.5,2.5c0,1.4,1.1,2.5,2.5,2.5c1.4,0,2.5-1.1,2.5-2.5
		C117.9,170.1,116.8,169,115.4,169z"/>
	<linearGradient id="SVGID_1_" gradientUnits="userSpaceOnUse" x1="114.2187" y1="77.1856" x2="261.797" y2="77.1856">
		<stop  offset="0" style="stop-color:#2782C5"/>
		<stop  offset="1" style="stop-color:#2782C5"/>
	</linearGradient>
	<path class="st5" d="M259.8,132.6c-2.5-4.9-7.9-6.4-11.8-9.8c-0.9-0.3-1.8-0.4-2.7-0.6c-3.5-0.5-6.9-0.3-10.4,0.3
		c-6.9,1.2-13.7,3-20.7,4c-6.1,0.9-12.2,0.6-18.1-1.1c-2.4-0.7-4-1.6-5.3-3.9c-0.1-0.1-0.1-0.2-0.2-0.3c0.7,0.8,1.6,1.6,2.6,2.3
		c-4-3.5-4.6-9.6-3.2-14.7c1.4-5.1,4.5-9.5,7-14.3c9-17.4,8.7-39.2-0.7-56.3C186.8,21,168.6,9.1,149.1,7.3
		c-12.4-1.1-25.5,1.9-34.9,10.1c2.6-2.3,12.1-1.8,15.4-1.9c5.7-0.2,11.5,0.2,17.2,1.3c15.3,2.9,27,11.5,35.9,24.1
		c11.2,16,10.8,37.3,2.7,54.5c-6.3,13.3-9.4,31.9,8.3,37.2c7,2.1,14.1,1.7,21.4,1c7.8-0.7,15.2-2.9,22.8-4.7
		c7.3-1.7,18.2-1.5,20.7,7.4c0.7,2.5,1.3,5.4,0.6,8c-0.4,1.6,0.7,2.7,2,2.9C262.3,142.6,262,136.8,259.8,132.6z"/>
	
		<linearGradient id="SVGID_2_" gradientUnits="userSpaceOnUse" x1="95.4904" y1="40.2508" x2="158.7161" y2="40.2508" gradientTransform="matrix(0.9987 5.011815e-02 -5.011815e-02 0.9987 -15.4587 19.6146)">
		<stop  offset="0" style="stop-color:#2782C5"/>
		<stop  offset="1" style="stop-color:#2782C5"/>
	</linearGradient>
	<path class="st6" d="M80.1,88.6c-2.6-7.2-3-15.1-2.1-22.7c1.9-16,9.4-31.4,21.5-42.1C111.5,13.1,128,7.4,144,9.2
		c-15.4,3.6-30,11.4-40.3,23.3c-7,8.1-11.5,18.5-13.6,29c-1.2,5.9-1.2,12-0.3,18c1.6,10.3,8.7,21.7,5.8,32.1
		c-1.6,5.8-6.1,11.1-12,12.1c5.3-3.7,6-11.4,4.2-17.6C86,100,82.3,94.6,80.1,88.6z"/>
	<linearGradient id="SVGID_3_" gradientUnits="userSpaceOnUse" x1="59.8223" y1="160.2103" x2="116.4908" y2="160.2103">
		<stop  offset="0" style="stop-color:#2782C5"/>
		<stop  offset="1" style="stop-color:#2782C5"/>
	</linearGradient>
	<path class="st7" d="M100.5,135.8c4.6-3.3,10.9-4,16-1.8c-5.4,0.9-10.5,4.1-13.7,8.6c-7.5,10.5-4.5,25.9-12.1,36.3
		c-3.3,4.6-8.5,7.7-14.1,8.5c-5.6,0.8-11.5-0.7-16-4.1c-0.3-0.3-0.7-0.6-0.8-1c-0.1-0.6,0.3-1.1,0.9-1.3c0.5-0.2,1.1-0.2,1.7-0.2
		c4.2,0,8.3-1.7,11.3-4.7c1.3-1.3,2.3-2.8,3.5-4.2c1.8-2,4-3.7,5.7-5.7c3.9-4.4,5.8-10.3,7.9-15.8S95.6,139.2,100.5,135.8z"/>
	<path class="st8" d="M51,147.6c0,0-0.1-0.1-0.2-0.3c-0.1-0.1-0.1-0.2-0.2-0.3c0-0.1-0.1-0.1-0.2-0.2c-0.1-0.1-0.1-0.1-0.2-0.2
		c-0.1-0.1-0.2-0.3-0.4-0.5c-0.1-0.2-0.3-0.4-0.5-0.6c-0.2-0.2-0.4-0.4-0.6-0.7c-0.2-0.2-0.5-0.5-0.8-0.7c-1.1-1-2.5-2-4.4-3
		c-0.9-0.5-1.9-0.9-3-1.3c-0.3-0.1-0.5-0.2-0.8-0.3c-0.3-0.1-0.6-0.2-0.9-0.2c-0.1,0-0.3-0.1-0.4-0.1l-0.2-0.1l0,0c0,0-0.1,0,0,0
		l-0.1,0l-0.1,0c-0.2,0-0.3-0.1-0.5-0.1c-0.2,0-0.3-0.1-0.5-0.1c-0.3,0-0.6-0.1-0.9-0.1c-0.3,0-0.6-0.1-1-0.1c-0.3,0-0.7-0.1-1-0.1
		c-0.3,0-0.7,0-1,0c-1.4,0-2.8,0.1-4.3,0.3c-1.5,0.2-2.9,0.6-4.4,1c-0.4,0.1-0.7,0.2-1.1,0.4c-0.2,0.1-0.4,0.1-0.6,0.2l-0.3,0.1
		l-0.3,0.1c-0.2,0.1-0.4,0.2-0.6,0.2l-0.5,0.2c-0.3,0.1-0.7,0.3-1.1,0.5c-2.9,1.4-5.6,3.4-7.7,5.9c-0.3,0.3-0.5,0.6-0.8,1l-0.2,0.2
		l0,0c0,0,0,0,0,0l0,0.1l-0.1,0.1l-0.4,0.6c-0.4,0.6-0.8,1.4-1.1,2.1c-0.7,1.5-1.1,3.1-1.3,4.7l0,0.3l0,0.3c0,0.2,0,0.4,0,0.6
		c0,0.4,0,0.8,0,1.2c0,0.4,0.1,0.8,0.1,1.2c0.1,0.4,0.1,0.8,0.2,1.2l0.1,0.3l0,0.1l0,0c0-0.1,0,0,0,0l0,0.1l0.2,0.7
		c0,0.1,0,0.1,0,0.2l0,0.1l0.1,0.3c0.1,0.2,0.1,0.3,0.2,0.5l0.2,0.5l0.3,0.5c0.1,0.2,0.2,0.3,0.3,0.5c0.1,0.2,0.2,0.3,0.3,0.5
		c0.4,0.6,1,1.2,1.5,1.8c0.1,0.1,0.3,0.3,0.4,0.4l0.2,0.2l0.2,0.2c0.2,0.1,0.3,0.2,0.4,0.4l0.5,0.3c0.6,0.4,1.3,0.8,2,1
		c0.3,0.1,0.7,0.2,1,0.3c0.2,0,0.4,0.1,0.5,0.1l0.3,0.1c0,0,0.1,0,0,0l0,0l0.1,0l0.2,0c1.4,0.2,2.9,0.1,4.1-0.4
		c0.6-0.2,1.2-0.5,1.8-0.8c0.3-0.2,0.5-0.4,0.8-0.6l0.2-0.2l0,0c-0.1,0.1,0,0,0,0l0,0l0.1-0.1l0.2-0.2l0.1-0.1l0,0l0.1-0.1
		c0.1-0.1,0.2-0.2,0.3-0.3c0.1-0.1,0.2-0.2,0.3-0.4c0.1-0.1,0.2-0.3,0.2-0.4c0.1-0.1,0.2-0.3,0.2-0.4c0.3-0.5,0.5-1.1,0.6-1.7
		c0.2-1.1,0.2-2.3-0.2-3.2l-0.1-0.2l-0.1-0.1c0-0.1-0.1-0.2-0.1-0.3c-0.1-0.1-0.1-0.2-0.2-0.3c-0.1-0.1-0.1-0.2-0.2-0.3
		c-0.3-0.4-0.7-0.7-1-1c-0.4-0.3-0.8-0.5-1.2-0.7c-0.4-0.2-0.8-0.3-1.2-0.4c-0.1,0-0.2,0-0.3,0c-0.1,0-0.2,0-0.3,0
		c-0.1,0-0.2,0-0.3,0l-0.1,0l0,0l0,0c-0.1,0,0.1,0,0.1,0l-0.1,0c-0.1,0-0.3,0-0.4,0.1l-0.1,0l0,0l-0.1,0l-0.1,0c0,0-0.1,0-0.1,0
		c-0.1,0-0.2,0.1-0.2,0.1c-0.7,0.2-1.2,0.6-1.7,1c-0.5,0.4-0.8,0.8-1.1,1.2c-0.2,0.4-0.4,0.8-0.5,1.1c0,0,0,0.1,0,0.1
		c0,0,0,0.1,0,0.1c0,0.1,0,0.1-0.1,0.2c0,0.1-0.1,0.2-0.1,0.3c0,0.2,0,0.3,0,0.3l0,0.2c-0.1,0.5-0.6,0.8-1.1,0.7
		c-0.4-0.1-0.6-0.3-0.7-0.7c0,0,0-0.1-0.1-0.4c0-0.1-0.1-0.3-0.1-0.5c0-0.1,0-0.2,0-0.3c0-0.1,0-0.1,0-0.2c0-0.1,0-0.1,0-0.2
		c0-0.3,0-0.6,0.1-0.9c0-0.3,0.1-0.7,0.3-1c0.3-0.7,0.7-1.5,1.3-2.3c0.6-0.7,1.5-1.5,2.6-2c0.1-0.1,0.3-0.1,0.4-0.2
		c0.1-0.1,0.3-0.1,0.5-0.2c0.1,0,0.2,0,0.3-0.1l0.1,0l0.1,0c0.1,0,0.3,0,0.4-0.1l0.1,0c0,0,0.2,0,0.1,0l0,0l0.1,0l0.3,0
		c0.2,0,0.3,0,0.5,0c0.2,0,0.3,0,0.5,0c0.2,0,0.3,0,0.5,0.1c0.7,0.1,1.4,0.3,2.1,0.6c0.7,0.3,1.3,0.7,1.9,1.1c0.6,0.5,1.2,1,1.7,1.7
		c0.1,0.2,0.2,0.3,0.4,0.5c0.1,0.2,0.2,0.4,0.3,0.5c0.1,0.2,0.2,0.4,0.3,0.6l0.1,0.3l0.1,0.2c0.3,0.8,0.5,1.7,0.6,2.5
		c0.1,0.9,0,1.8-0.2,2.6c-0.2,0.9-0.5,1.7-0.9,2.6c-0.1,0.2-0.2,0.4-0.3,0.6c-0.1,0.2-0.2,0.4-0.4,0.6c-0.1,0.2-0.3,0.4-0.4,0.6
		c-0.1,0.2-0.3,0.4-0.5,0.6l-0.1,0.1l-0.1,0.1l-0.1,0.1l-0.2,0.2l-0.1,0.1l-0.1,0.1l-0.1,0.1l-0.3,0.2c-0.4,0.3-0.7,0.6-1.1,0.9
		c-0.8,0.5-1.7,0.9-2.6,1.3c-1.8,0.6-3.8,0.8-5.8,0.6l-0.2,0l-0.1,0l0,0c-0.1,0-0.1,0-0.1,0l-0.4-0.1c-0.2-0.1-0.5-0.1-0.7-0.2
		c-0.5-0.1-1-0.3-1.4-0.5c-0.9-0.3-1.8-0.8-2.7-1.4l-0.6-0.4c-0.2-0.1-0.4-0.3-0.6-0.5l-0.3-0.2l-0.3-0.3c-0.2-0.2-0.4-0.3-0.6-0.5
		c-0.7-0.7-1.4-1.5-2-2.3c-0.2-0.2-0.3-0.4-0.4-0.6c-0.1-0.2-0.3-0.4-0.4-0.7l-0.4-0.7L5.9,165c-0.1-0.2-0.2-0.5-0.3-0.7l-0.1-0.4
		l-0.1-0.2c0-0.1,0-0.1-0.1-0.2l-0.2-0.6l0-0.1l0-0.1l0,0l0-0.2l-0.1-0.4c-0.1-0.5-0.2-1-0.3-1.5c-0.1-0.5-0.1-1-0.1-1.5
		c0-0.5,0-1,0-1.5c0-0.3,0-0.5,0.1-0.8l0-0.4l0-0.4c0.2-2,0.8-4,1.6-5.8c0.4-0.9,0.9-1.8,1.4-2.7l0.4-0.6l0.1-0.1l0-0.1l0.1-0.1l0,0
		l0.2-0.3c0.3-0.4,0.6-0.8,0.9-1.2c2.5-3,5.7-5.3,8.9-6.9c0.4-0.2,0.8-0.4,1.2-0.6c0.2-0.1,0.4-0.2,0.6-0.3c0.2-0.1,0.4-0.2,0.6-0.2
		l0.3-0.1l0.3-0.1c0.2-0.1,0.4-0.2,0.6-0.2c0.4-0.1,0.8-0.3,1.2-0.4c1.7-0.5,3.3-0.9,5-1.1c1.6-0.2,3.3-0.3,4.8-0.3
		c0.4,0,0.8,0,1.2,0c0.4,0,0.8,0.1,1.1,0.1c0.4,0,0.8,0.1,1.1,0.1c0.4,0.1,0.8,0.1,1.1,0.2c0.2,0,0.3,0.1,0.5,0.1
		c0.2,0,0.3,0.1,0.5,0.1l0.1,0l0.1,0l0.1,0l0.3,0.1c0.2,0,0.3,0.1,0.5,0.1c0.3,0.1,0.7,0.2,1,0.3c0.3,0.1,0.7,0.2,1,0.3
		c1.3,0.4,2.4,1,3.5,1.5c2.1,1.1,3.8,2.4,5.1,3.6c0.3,0.3,0.6,0.6,0.9,0.9c0.3,0.3,0.5,0.5,0.7,0.8c0.2,0.3,0.4,0.5,0.6,0.7
		c0.2,0.2,0.3,0.4,0.5,0.6c0.1,0.1,0.1,0.2,0.2,0.3c0.1,0.1,0.1,0.1,0.2,0.2c0.1,0.1,0.2,0.2,0.2,0.3c0.1,0.2,0.2,0.3,0.2,0.3
		c0.5,0.8,0.4,1.8-0.4,2.4C52.6,148.5,51.5,148.3,51,147.6z"/>
	<path class="st9" d="M25.5,155.7c2.8-0.9,5.8-0.9,8.5,0c2.8,0.9,5.2,2.7,6.9,5"/>
	<path class="st4" d="M132.1,173.5c-1.4,0-2.6,1.2-2.6,2.6c0,1.4,1.2,2.6,2.6,2.6c1.4,0,2.6-1.2,2.6-2.6
		C134.7,174.7,133.5,173.5,132.1,173.5z"/>
	<path class="st4" d="M136.6,180.1c-1.4,0-2.6,1.2-2.6,2.6s1.2,2.6,2.6,2.6c1.4,0,2.6-1.2,2.6-2.6S138,180.1,136.6,180.1z"/>
	<path class="st4" d="M140.5,188.4c-2.4,0-2.4,3.8,0,3.8C143,192.2,143,188.4,140.5,188.4z"/>
	<path class="st4" d="M144.8,195.6c-1,0-1.9,0.8-1.9,1.9c0,1,0.8,1.9,1.9,1.9c1,0,1.9-0.8,1.9-1.9
		C146.6,196.4,145.8,195.6,144.8,195.6z"/>
	<path class="st4" d="M205.5,191.3c-0.2-0.1-0.5-0.2-0.7-0.2c-0.7,0-1.3,0.6-1.3,1.3c0,0.7,0.6,1.3,1.3,1.3c0.3,0,0.5-0.1,0.7-0.2
		C206.3,193,206.3,191.7,205.5,191.3z"/>
	<path class="st4" d="M207.2,184.2c-0.5-0.5-1.1-0.5-1.7-0.2c-0.1,0-0.1,0.1-0.2,0.1c-0.8,0.4-0.9,1.7-0.3,2.3
		c0.6,0.6,1.9,0.5,2.3-0.3c0-0.1,0.1-0.1,0.1-0.2C207.7,185.4,207.6,184.7,207.2,184.2z"/>
	<circle class="st10" cx="195.5" cy="172.9" r="3.2"/>
	<path class="st11" d="M40.1,136.7c0,0-0.1-0.1-0.2-0.4c-0.2-0.3-0.4-0.7-0.6-1.3c-0.2-0.5-0.5-1.2-0.8-2c-0.1-0.4-0.3-0.8-0.5-1.3
		c-0.2-0.4-0.4-0.9-0.5-1.4c-0.4-1-0.8-2.1-1.4-3.2c-0.3-0.6-0.6-1.2-0.9-1.7c-0.3-0.6-0.7-1.2-1.1-1.7c-0.4-0.6-0.9-1.1-1.4-1.5
		l-0.1-0.1c0,0,0,0,0,0l-0.1-0.1c-0.1-0.1-0.2-0.1-0.2-0.2l-0.2-0.1l-0.2-0.2c-0.3-0.2-0.6-0.4-0.9-0.5c-0.6-0.3-1.3-0.5-2-0.6
		c-0.1,0-0.2,0-0.3,0c-0.1,0-0.2,0-0.3,0l-0.1,0c0,0,0.2,0,0,0l-0.1,0l-0.2,0l-0.1,0c0,0-0.1,0-0.1,0c0,0-0.1,0-0.1,0
		c0,0-0.1,0-0.1,0l-0.1,0c-0.1,0-0.2,0.1-0.2,0.1c-0.1,0-0.2,0.1-0.3,0.1c-0.4,0.2-0.8,0.4-1.2,0.7c-0.4,0.3-0.9,0.6-1.5,0.9
		c-0.6,0.3-1.3,0.6-2.1,0.6c-0.2,0-0.4,0-0.6,0l-0.3,0c-0.1,0,0,0-0.3,0l-0.1,0l-0.2,0c0,0-0.1,0-0.1,0l-0.2,0
		c-0.1,0-0.3-0.1-0.4-0.1l-0.3-0.1c-0.9-0.4-1.6-1.1-2.1-1.8c-0.5-0.7-0.7-1.5-0.9-2.2c-0.3-1.4-0.3-2.8-0.1-4.2
		c0.1-0.7,0.2-1.4,0.4-2.1c0.1-0.3,0.2-0.7,0.3-1.1c0-0.1,0.1-0.2,0.1-0.3c0,0,0.1-0.2,0.1-0.2l0-0.1l0.2-0.4
		c0.6-1.3,1.5-2.6,2.5-3.7c0.5-0.6,1.1-1.1,1.6-1.6c0.6-0.5,1.2-0.9,1.9-1.3c0.6-0.4,1.3-0.8,2-1.1c0.7-0.3,1.4-0.6,2.2-0.8
		c3-0.9,6.3-1.1,9.5-0.5c0.8,0.2,1.6,0.4,2.4,0.6l0.6,0.2c0.2,0.1,0.4,0.2,0.6,0.2c0.2,0.1,0.4,0.2,0.6,0.3l0.3,0.1l0.1,0.1
		c0,0,0.1,0.1,0.2,0.1l0.5,0.3c0.2,0.1,0.3,0.2,0.5,0.3c0.4,0.2,0.8,0.4,1.1,0.7l0.5,0.3l0.5,0.4c0.3,0.2,0.7,0.5,1,0.7
		c2.7,2,5,4.4,7.4,6.7c1.2,1.2,2.3,2.3,3.6,3.4c1.2,1.1,2.5,2.1,3.9,3c1.4,0.9,2.8,1.8,4.3,2.5c0.4,0.2,0.8,0.4,1.1,0.5
		c0.4,0.2,0.8,0.3,1.2,0.5c0.4,0.1,0.8,0.3,1.2,0.4c0.4,0.1,0.8,0.2,1.2,0.3c1.6,0.4,3.3,0.6,4.9,0.6l0.3,0l0.2,0l0.1,0l0.6,0
		c0.2,0,0.4,0,0.6-0.1c0.2,0,0.4,0,0.6-0.1c0.4-0.1,0.8-0.1,1.2-0.3c0.4-0.1,0.8-0.2,1.2-0.4c1.6-0.6,3-1.4,4.3-2.4
		c0.3-0.3,0.6-0.6,0.9-0.8c0.3-0.3,0.6-0.6,0.8-0.9c0.3-0.3,0.5-0.7,0.8-1c0.2-0.4,0.5-0.7,0.6-1.1c0.4-0.7,0.7-1.5,0.9-2.3
		c0.1-0.2,0.1-0.4,0.2-0.6c0-0.2,0.1-0.4,0.1-0.6l0.1-0.6l0-0.6c0.1-1.6-0.3-3.3-1-4.9l-0.1-0.3c0-0.1-0.1-0.2-0.1-0.3l-0.3-0.6
		c-0.1-0.2-0.2-0.4-0.3-0.6l-0.2-0.3c0,0-0.1-0.1-0.1-0.2l-0.1-0.2c-0.3-0.4-0.5-0.8-0.8-1.3c-0.3-0.4-0.6-0.9-0.8-1.3
		c-1.1-1.8-2.1-3.6-3-5.4c-1.9-3.7-3.5-7.7-4.7-11.8c-1.2-4.1-2.1-8.4-2.5-12.8c-0.4-4.4-0.2-8.9,0.5-13.3c0.3-2.2,0.8-4.4,1.5-6.6
		c0.2-0.6,0.3-1.1,0.5-1.7c0.2-0.5,0.4-1,0.5-1.6c0.2-0.5,0.4-1,0.5-1.6c0.2-0.5,0.4-1.1,0.6-1.6c0.2-0.5,0.4-1.1,0.6-1.6
		c0.2-0.5,0.5-1,0.7-1.5c0.2-0.5,0.5-1,0.7-1.6c0.3-0.5,0.5-1,0.8-1.5c0.3-0.5,0.5-1,0.8-1.5l0.9-1.5c0.3-0.5,0.6-1,0.9-1.5l0.9-1.4
		C90.3,26,97,19.2,105,14.3l1.5-0.9l0.8-0.5c0.3-0.2,0.5-0.3,0.8-0.4l1.6-0.8l0.4-0.2l0.2-0.1c0.1,0,0.2-0.1,0.2-0.1l0.8-0.4
		l0.8-0.4l0.4-0.2l0.4-0.2l1.7-0.7c0.6-0.2,1.1-0.4,1.7-0.6c0.3-0.1,0.6-0.2,0.8-0.3l0.8-0.3c0.6-0.2,1.1-0.4,1.7-0.6l1.7-0.5
		c0.6-0.2,1.1-0.3,1.7-0.5c0.3-0.1,0.6-0.2,0.9-0.2l0.9-0.2c0.6-0.1,1.2-0.3,1.7-0.4l1.7-0.3c0.6-0.1,1.2-0.2,1.8-0.3l0.9-0.1
		l0.9-0.1c9.4-1.2,19.1-0.6,28.3,1.9l1.7,0.5c0.6,0.2,1.1,0.4,1.7,0.5c0.3,0.1,0.6,0.2,0.8,0.3l0.8,0.3c0.6,0.2,1.1,0.4,1.7,0.6
		c2.2,0.9,4.4,1.9,6.5,3l1.6,0.9c0.5,0.3,1,0.6,1.5,0.9c0.3,0.2,0.5,0.3,0.8,0.5l0.7,0.5l0.7,0.5c0.3,0.2,0.5,0.3,0.7,0.5l1.4,1.1
		c0.5,0.4,0.9,0.7,1.4,1.1l0.4,0.3l0.2,0.1c0.1,0,0.2,0.2,0.2,0.2l0.7,0.6c0.4,0.4,0.9,0.8,1.3,1.2l1.3,1.3c0.2,0.2,0.4,0.4,0.6,0.6
		l0.6,0.6c0.4,0.4,0.8,0.9,1.2,1.3l1.2,1.3c0.2,0.2,0.4,0.4,0.6,0.7l0.6,0.7c0.4,0.5,0.7,0.9,1.1,1.4l1,1.4l0.5,0.7l0.5,0.7l1,1.5
		l0.9,1.5l0.5,0.8l0.4,0.8l0.9,1.5c1.1,2.1,2.1,4.2,3,6.4c3.6,8.7,5.3,18,5.1,27.2c-0.1,4.6-0.8,9.2-1.9,13.6
		c-1.2,4.4-2.9,8.6-5.1,12.6c-1.1,1.9-2.2,3.8-3.3,5.6c-1,1.8-2,3.7-2.7,5.5c-0.7,1.8-1.3,3.7-1.3,5.5c-0.1,1.8,0.4,3.4,1.3,4.8
		c0.1,0.1,0,0,0.1,0.1l0.1,0.2l0.2,0.3c0,0.1,0.1,0.1,0.1,0.1l0.1,0.1l0.2,0.2c0.1,0.1,0.3,0.3,0.5,0.4l0.5,0.4
		c0.7,0.5,1.4,1,2.3,1.3c0.8,0.4,1.7,0.6,2.6,0.8c0.9,0.2,1.8,0.3,2.8,0.4c4,0.4,7.9,0.3,11.7-0.2c3.8-0.5,7.5-1.4,11.1-2.5
		c0.5-0.1,0.9-0.3,1.4-0.4c0.5-0.1,1-0.3,1.4-0.4c0.5-0.1,1-0.3,1.4-0.4c0.5-0.1,1-0.2,1.4-0.3c1.9-0.4,3.9-0.7,5.9-0.8
		c2-0.1,4,0,5.9,0.3c1.9,0.3,3.8,0.8,5.6,1.4l0.7,0.2l0.7,0.3l0.7,0.3l0.3,0.1l0.4,0.2l0.6,0.3c0.1,0,0.2,0.1,0.3,0.2l0.3,0.2
		c0.2,0.1,0.5,0.3,0.7,0.4l0.6,0.4l0.3,0.2c0.1,0.1,0.2,0.1,0.3,0.2l0.6,0.4c0.4,0.3,0.7,0.6,1.1,1c0.7,0.7,1.4,1.4,1.9,2.1
		c2.4,3,3.9,6.4,4.7,9.9c0.8,3.5,0.8,7.1,0.1,10.4c-0.4,1.7-1,3.3-1.8,4.8c-0.2,0.4-0.4,0.8-0.6,1.1c-0.2,0.4-0.4,0.7-0.7,1.1
		l-0.4,0.5l-0.2,0.3c0,0-0.1,0.1-0.1,0.2l-0.1,0.1l-0.4,0.4l-0.4,0.5c-0.2,0.2-0.3,0.3-0.4,0.5c-0.2,0.1-0.3,0.3-0.5,0.4
		c-0.3,0.3-0.6,0.5-0.9,0.8c-0.6,0.5-1.3,1-2,1.4c-0.7,0.4-1.4,0.8-2.2,1.1c-0.7,0.3-1.5,0.6-2.3,0.7c-0.2,0.1-0.4,0.1-0.6,0.1
		l-0.6,0.1c-0.4,0-0.8,0.1-1.2,0.1l-0.6,0l-0.6,0l-0.3,0c-0.1,0-0.2,0-0.3,0c-0.2,0-0.4,0-0.6,0c-1.6-0.1-3-0.5-4.4-1
		c-1.4-0.6-2.7-1.3-3.8-2.2c-1.1-0.9-2.1-2-2.8-3.2l-0.2-0.4c-0.1-0.2-0.2-0.3-0.3-0.5c-0.1-0.2-0.2-0.3-0.3-0.5
		c-0.1-0.2-0.1-0.3-0.2-0.5c-0.1-0.2-0.1-0.3-0.2-0.5c-0.1-0.2-0.1-0.3-0.2-0.5c0-0.2-0.1-0.3-0.1-0.5c0-0.2-0.1-0.3-0.1-0.5
		c-0.3-1.4-0.3-2.7-0.1-4c0.4-2.6,1.7-4.9,3.4-6.6c0.9-0.8,1.9-1.5,3-1.9c1.1-0.4,2.3-0.7,3.4-0.6c1.1,0,2.2,0.3,3.1,0.6
		c0.2,0.1,0.5,0.2,0.7,0.3c0.2,0.1,0.4,0.2,0.6,0.3c0.4,0.2,0.8,0.5,1.2,0.7c0.2,0.1,0.4,0.3,0.5,0.4c0.1,0.1,0.2,0.1,0.3,0.2
		l0.1,0.1l0.1,0.1c0,0,0.1,0.1,0.1,0.1c0.1,0.1,0.3,0.3,0.4,0.4c0,0,0.1,0.1,0.1,0.1l0.1,0.1c0.1,0.1,0.2,0.2,0.3,0.3
		c0.6,0.7,1.1,1.6,1.2,2.6c0.2,0.9,0.1,1.9-0.1,2.6c-0.2,0.8-0.6,1.5-1,2c-0.4,0.5-0.9,1-1.4,1.3c-0.5,0.3-1,0.6-1.6,0.7
		c-0.5,0.1-1.1,0.2-1.5,0.1c-0.1,0-0.2,0-0.4-0.1c-0.1,0-0.1,0-0.2,0c-0.1,0-0.1,0-0.2-0.1c-0.1,0-0.2-0.1-0.3-0.1
		c-0.1,0-0.2-0.1-0.3-0.1c-0.3-0.2-0.6-0.4-0.8-0.6c-0.1-0.1-0.2-0.2-0.2-0.3c-0.1-0.1-0.1-0.2-0.2-0.3c-0.2-0.3-0.2-0.5-0.2-0.5
		c-0.1-0.3,0-0.7,0.4-0.8c0.2-0.1,0.5,0,0.6,0.1l0.1,0.1c0,0,0.1,0.1,0.3,0.2c0.2,0.1,0.4,0.3,0.8,0.4c0,0,0.1,0,0.1,0
		c0,0,0.1,0,0.1,0l0.1,0l0.1,0c0.1,0,0.1,0,0.2,0c0.2,0,0.4-0.1,0.7-0.3c0.5-0.3,1-0.8,1.4-1.5c0.2-0.3,0.3-0.7,0.4-1.1
		c0.1-0.4,0.1-0.8-0.1-1.1c-0.1-0.4-0.3-0.8-0.6-1.1c0,0-0.1-0.1-0.1-0.1l-0.1-0.1c0,0,0,0-0.1-0.1c-0.1-0.1-0.3-0.3-0.4-0.4
		c0,0,0.1,0.1,0,0l0,0l-0.1-0.1l-0.2-0.2c-0.1-0.1-0.3-0.2-0.4-0.3c-0.3-0.2-0.6-0.4-0.9-0.5c-0.1-0.1-0.3-0.2-0.5-0.2
		c-0.2-0.1-0.3-0.1-0.5-0.2c-0.6-0.2-1.3-0.4-2-0.4c-1.4,0-2.8,0.5-4,1.6c-1.2,1.1-2.1,2.7-2.4,4.6c-0.3,1.8,0.1,3.8,1.2,5.5
		c0.5,0.9,1.2,1.7,2.1,2.4c0.8,0.7,1.8,1.2,2.9,1.7c1.1,0.4,2.2,0.7,3.4,0.8l0.4,0c0.1,0,0.1,0,0.2,0l0.3,0l0.5,0l0.4,0
		c0.3,0,0.6-0.1,0.9-0.1l0.4-0.1c0.2,0,0.3-0.1,0.4-0.1c2.4-0.6,4.7-2,6.6-3.9l0.3-0.3l0.4-0.4l0.1-0.1c0,0,0,0,0.1-0.1l0.2-0.2
		l0.3-0.4c0.2-0.3,0.4-0.6,0.6-0.8c0.2-0.3,0.3-0.6,0.5-0.9c0.6-1.2,1.1-2.6,1.4-4c0.6-2.8,0.6-5.9-0.1-8.9c-0.7-3-2-5.9-4-8.4
		c-0.5-0.6-1-1.2-1.6-1.7c-0.3-0.3-0.6-0.5-0.9-0.8l-0.5-0.4c-0.1-0.1-0.2-0.1-0.2-0.2l-0.2-0.2l-0.5-0.3c-0.2-0.1-0.3-0.2-0.5-0.3
		l-0.2-0.1c-0.1,0-0.2-0.1-0.3-0.1l-0.6-0.3l-0.2-0.1l-0.3-0.1l-0.6-0.2l-0.6-0.2l-0.6-0.2c-1.6-0.6-3.2-1-4.9-1.2
		c-1.7-0.2-3.4-0.3-5.2-0.2c-1.8,0.1-3.5,0.4-5.3,0.7c-0.4,0.1-0.9,0.2-1.3,0.3c-0.4,0.1-0.9,0.2-1.3,0.3c-0.4,0.1-0.9,0.2-1.3,0.4
		c-0.5,0.1-0.9,0.3-1.4,0.4c-3.8,1.2-7.7,2.2-11.8,2.7c-4.1,0.5-8.3,0.6-12.5,0.2c-2.2-0.2-4.4-0.6-6.6-1.5
		c-1.1-0.5-2.1-1.1-3.1-1.8c-0.2-0.2-0.5-0.4-0.7-0.6c-0.2-0.2-0.4-0.4-0.7-0.6l-0.3-0.4l-0.2-0.2c-0.1-0.1-0.1-0.1-0.1-0.2
		l-0.2-0.3l-0.1-0.2c0,0-0.2-0.2-0.2-0.2c-0.7-1-1.3-2.2-1.6-3.4c-0.3-1.2-0.5-2.5-0.4-3.7c0.1-2.4,0.8-4.7,1.6-6.8
		c0.8-2.1,1.9-4.1,3-6c1.1-1.9,2.2-3.8,3.3-5.6c2-3.6,3.6-7.6,4.7-11.7c1.1-4.1,1.7-8.4,1.8-12.7c0.2-8.6-1.5-17.5-4.8-25.6
		c-0.8-2.1-1.8-4-2.8-6l-0.8-1.5l-0.4-0.7l-0.4-0.7l-0.9-1.4l-0.9-1.4l-0.5-0.7l-0.5-0.7l-1-1.3l-1-1.3l-0.5-0.7
		c-0.2-0.2-0.4-0.4-0.5-0.6l-1.1-1.3c-0.4-0.4-0.8-0.8-1.1-1.2l-0.6-0.6c-0.2-0.2-0.4-0.4-0.6-0.6l-1.2-1.1
		c-0.4-0.4-0.9-0.8-1.3-1.1l-0.7-0.6c-0.1-0.1-0.1-0.1-0.1-0.1l-0.2-0.1l-0.3-0.3c-0.4-0.3-0.9-0.7-1.3-1l-1.3-1
		c-0.2-0.2-0.5-0.3-0.7-0.5l-0.7-0.5l-0.7-0.5c-0.2-0.2-0.5-0.3-0.7-0.4c-0.5-0.3-0.9-0.6-1.4-0.9l-1.5-0.8c-2-1-4-2-6.1-2.8
		c-0.5-0.2-1-0.4-1.6-0.6l-0.8-0.3c-0.3-0.1-0.5-0.2-0.8-0.3c-0.5-0.2-1.1-0.4-1.6-0.5l-1.6-0.5c-8.7-2.4-17.8-3-26.7-1.8L131.3,9
		l-0.8,0.1c-0.6,0.1-1.1,0.2-1.7,0.3l-1.6,0.3c-0.5,0.1-1.1,0.2-1.6,0.4l-0.8,0.2c-0.3,0.1-0.5,0.1-0.8,0.2
		c-0.5,0.1-1.1,0.3-1.6,0.4l-1.6,0.5c-0.5,0.2-1.1,0.4-1.6,0.5l-0.8,0.3c-0.3,0.1-0.5,0.2-0.8,0.3c-0.5,0.2-1,0.4-1.5,0.6l-1.5,0.6
		l-0.4,0.2l-0.4,0.2l-0.8,0.4l-0.8,0.4c-0.1,0-0.1,0-0.2,0.1l-0.2,0.1l-0.4,0.2L110,16c-0.2,0.1-0.5,0.2-0.7,0.4l-0.7,0.4l-1.4,0.8
		c-3.7,2.3-7.2,5.1-10.3,8.1c-3.1,3.1-5.9,6.4-8.3,10l-0.9,1.4c-0.3,0.5-0.6,0.9-0.8,1.4L85.9,40c-0.3,0.5-0.5,1-0.8,1.4l-0.8,1.4
		c-0.2,0.5-0.5,1-0.7,1.5c-0.2,0.5-0.5,1-0.7,1.5c-0.2,0.5-0.4,1-0.6,1.5c-0.2,0.5-0.4,1-0.6,1.5c-0.2,0.5-0.4,1-0.5,1.6
		c-0.2,0.5-0.4,1-0.5,1.6c-0.1,0.5-0.3,1-0.4,1.5c-0.6,2-1,4.1-1.4,6.1c-0.6,4.1-0.8,8.3-0.4,12.4c0.3,4.1,1.1,8.1,2.3,12
		c1.2,3.9,2.7,7.6,4.5,11.2c0.9,1.8,1.9,3.5,2.9,5.2c0.3,0.4,0.5,0.8,0.8,1.2c0.3,0.4,0.5,0.8,0.8,1.3l0.1,0.2l0.1,0.2l0.2,0.4
		c0.1,0.2,0.3,0.5,0.4,0.7l0.4,0.7c0.1,0.1,0.1,0.2,0.2,0.4l0.2,0.4c0.9,2.1,1.4,4.4,1.3,6.6l-0.1,0.8l-0.1,0.8
		c0,0.3-0.1,0.6-0.2,0.8c-0.1,0.3-0.1,0.5-0.2,0.8c-0.3,1.1-0.7,2.1-1.3,3.1c-0.3,0.5-0.6,0.9-0.9,1.4c-0.3,0.4-0.6,0.9-1,1.3
		c-0.3,0.4-0.7,0.8-1.1,1.2c-0.4,0.4-0.8,0.7-1.2,1.1c-1.7,1.4-3.5,2.4-5.5,3.1c-0.5,0.2-1,0.3-1.5,0.4c-0.5,0.1-1,0.2-1.5,0.3
		c-0.3,0.1-0.5,0.1-0.8,0.1c-0.3,0-0.5,0.1-0.8,0.1l-0.8,0l-0.2,0l-0.2,0l-0.3,0c-2,0-4-0.3-5.9-0.8c-0.5-0.1-0.9-0.2-1.4-0.4
		c-0.5-0.2-0.9-0.3-1.4-0.5c-0.4-0.2-0.9-0.4-1.3-0.5c-0.4-0.2-0.9-0.4-1.3-0.6c-1.7-0.8-3.3-1.8-4.8-2.8c-1.5-1-2.9-2.1-4.2-3.3
		c-1.3-1.2-2.6-2.4-3.8-3.6c-2.3-2.4-4.6-4.6-7-6.4c-0.3-0.2-0.6-0.4-0.9-0.7l-0.5-0.3l-0.5-0.3c-0.3-0.2-0.6-0.4-0.9-0.5
		c-0.1-0.1-0.3-0.2-0.5-0.3l-0.5-0.3l-0.4-0.2c-0.2-0.1-0.3-0.1-0.5-0.2c-0.2-0.1-0.3-0.1-0.5-0.2l-0.5-0.2
		c-0.6-0.2-1.3-0.4-1.9-0.5c-1.3-0.3-2.7-0.3-4-0.3c-1.3,0.1-2.6,0.3-3.8,0.7c-0.6,0.2-1.2,0.4-1.8,0.6c-0.6,0.3-1.1,0.5-1.6,0.8
		c-0.5,0.3-1,0.7-1.5,1c-0.4,0.4-0.9,0.8-1.3,1.2c-0.8,0.8-1.4,1.8-1.9,2.7l-0.2,0.4l-0.1,0.1c0,0.1,0,0,0,0c0,0.1,0,0.1-0.1,0.2
		c-0.1,0.2-0.2,0.5-0.2,0.7c-0.1,0.5-0.2,1-0.3,1.6c-0.1,1.1-0.1,2.1,0,3c0.1,0.4,0.2,0.8,0.4,1c0.1,0.1,0.1,0.2,0.2,0.3
		c0,0,0.1,0.1,0.1,0.1c0,0,0.1,0,0.1,0.1c0,0,0,0,0.1,0c0,0,0,0,0,0c0,0,0,0,0,0c0,0,0,0,0.1,0l0.2,0l0.1,0c-0.2,0,0,0,0,0l0.1,0
		c0.1,0,0.1,0,0.2,0c0.3,0,0.6-0.1,1-0.3c0.4-0.2,0.8-0.4,1.2-0.7c0.4-0.3,0.9-0.6,1.5-0.8c0.1-0.1,0.3-0.1,0.4-0.2
		c0.1-0.1,0.3-0.1,0.4-0.2l0.2-0.1c0.1,0,0.1-0.1,0.3-0.1c0.2-0.1,0.4-0.1,0.6-0.1c0.1,0,0.1,0,0.1,0l0.1,0l0.2,0l0.1,0
		c-0.1,0,0.2,0,0.2,0l0.2,0c0.2,0,0.3,0,0.5,0c0.2,0,0.3,0,0.5,0c1.2,0.1,2.3,0.4,3.3,0.9c0.5,0.2,0.9,0.5,1.4,0.8
		c0.1,0.1,0.2,0.1,0.3,0.2c0.1,0.1,0.2,0.2,0.3,0.2l0.3,0.2l0.1,0.1c0,0,0.1,0.1,0.1,0.1l0.1,0.1c0.7,0.6,1.4,1.3,1.9,2
		c0.5,0.7,1,1.4,1.4,2.1c0.4,0.7,0.7,1.3,1,2c0.6,1.3,1.1,2.4,1.5,3.5c0.2,0.5,0.4,1,0.6,1.5c0.2,0.4,0.3,0.9,0.5,1.3
		c0.3,0.7,0.5,1.4,0.7,1.8c0.2,0.5,0.4,0.8,0.5,1c0.1,0.2,0.2,0.4,0.2,0.4l0,0c0.5,0.8,0.2,1.9-0.7,2.3
		C41.6,137.8,40.6,137.5,40.1,136.7z"/>
	<path class="st0" d="M156.4,147.1c0,0,0.1,0,0.3,0c0.1,0,0.2,0,0.4,0c0.1,0,0.2,0,0.2,0c0.1,0,0.2,0,0.3,0c0.2,0,0.5,0,0.7,0
		c0.3,0,0.5,0,0.8,0c0.3,0,0.6,0.1,1,0.1c0.3,0.1,0.7,0.1,1.1,0.2c1.5,0.3,3.4,1,5.2,2.2c0.9,0.6,1.8,1.3,2.7,2.2
		c0.2,0.2,0.4,0.4,0.7,0.7l0.2,0.2l0.1,0.1l0,0l0,0l0,0c0.1,0.1,0.2,0.2,0.3,0.3c0.1,0.1,0.2,0.2,0.3,0.4c0.1,0.1,0.2,0.3,0.3,0.4
		c0.2,0.3,0.4,0.5,0.6,0.8c0.8,1.1,1.4,2.3,2,3.6c0.6,1.3,1.1,2.7,1.5,4.1c0.4,1.4,0.7,3,0.9,4.5c0.1,0.4,0.1,0.8,0.1,1.2
		c0,0.4,0.1,0.8,0.1,1.2c0.1,0.8,0.1,1.6,0.2,2.3c0.1,1.6,0.2,3.1,0.4,4.6c0.2,1.5,0.5,3,0.9,4.5l0.1,0.3l0,0.1l0,0c0,0.1,0,0,0,0
		l0.1,0.1l0.2,0.6c0.1,0.2,0.1,0.3,0.2,0.5c0.1,0.2,0.1,0.3,0.2,0.5c0.3,0.7,0.7,1.3,1.1,2c0.4,0.6,0.8,1.3,1.3,1.8
		c0.2,0.3,0.5,0.6,0.7,0.8l0.4,0.4l0.4,0.4c1.1,1,2.3,1.9,3.6,2.6c0.2,0.1,0.3,0.2,0.5,0.3l0.5,0.2l0.5,0.2c0.2,0.1,0.4,0.2,0.5,0.2
		l0.5,0.2c0.2,0.1,0.4,0.1,0.5,0.1c0.2,0,0.4,0.1,0.5,0.1l0.5,0.1c1.4,0.3,2.9,0.4,4.4,0.2c1.4-0.1,2.8-0.4,4.1-0.9
		c0.7-0.2,1.3-0.5,1.9-0.9l0.1,0l0,0c0,0-0.1,0,0,0l0.1-0.1l0.2-0.2c0.2-0.1,0.3-0.2,0.5-0.3l0.4-0.3c0.1-0.1,0.3-0.2,0.4-0.3
		c1-0.8,2-1.8,2.7-2.8c1.5-2.1,2.4-4.4,2.6-6.6c0-0.5,0.1-1.1,0.1-1.6c0-0.2,0-0.5,0-0.7c0-0.2-0.1-0.5-0.1-0.7
		c-0.1-0.5-0.2-0.9-0.3-1.3c-0.1-0.4-0.3-0.8-0.5-1.2c-0.2-0.4-0.4-0.7-0.6-1c-0.1-0.1-0.1-0.1-0.2-0.2l-0.1-0.1l0-0.1
		c-0.1,0,0.1,0,0,0l0,0l0,0c-0.1-0.1-0.2-0.2-0.3-0.2l-0.1-0.1l0,0l-0.1-0.1c-0.1-0.1-0.2-0.2-0.4-0.3c-0.1-0.1-0.3-0.2-0.4-0.2
		c-0.3-0.1-0.6-0.2-0.9-0.3c-1.1-0.3-2.1-0.1-2.6,0.2c-0.1,0-0.1,0.1-0.2,0.1c-0.1,0-0.1,0.1-0.2,0.1c-0.1,0-0.1,0.1-0.1,0.1
		c0,0-0.1,0.1-0.1,0.1c-0.1,0.1-0.2,0.1-0.2,0.1l-0.1,0.1c-0.3,0.2-0.8,0.2-1-0.1c-0.2-0.3-0.2-0.6,0-0.9c0,0,0.1-0.1,0.2-0.3
		c0,0,0.1-0.1,0.1-0.2c0.1-0.1,0.1-0.1,0.2-0.2c0.1-0.1,0.1-0.1,0.2-0.2c0.1-0.1,0.2-0.1,0.3-0.2c0.7-0.6,2.1-1.2,3.9-1
		c0.4,0,0.9,0.1,1.4,0.2c0.2,0.1,0.5,0.2,0.7,0.3c0.2,0.1,0.5,0.2,0.7,0.4l0.2,0.1l0.1,0.1l0.1,0c0.1,0.1,0.2,0.1,0.3,0.2l0,0l0,0
		c0,0,0.1,0.1,0.1,0.1l0.1,0.1l0.2,0.1c0.1,0.1,0.2,0.2,0.3,0.3c0.4,0.4,0.8,0.9,1.1,1.4c0.7,1,1.2,2.2,1.4,3.5
		c0.1,0.3,0.1,0.6,0.2,1c0,0.3,0.1,0.7,0.1,1c0,0.7,0,1.4-0.1,2c-0.3,2.8-1.3,5.7-3.2,8.2c-0.9,1.3-2.1,2.5-3.4,3.5
		c-0.2,0.1-0.3,0.3-0.5,0.4c-0.2,0.1-0.4,0.3-0.5,0.4c-0.2,0.1-0.3,0.2-0.5,0.3l-0.2,0.2l-0.1,0.1l-0.1,0l0,0l-0.1,0
		c-0.7,0.4-1.5,0.8-2.3,1.1c-1.6,0.6-3.3,1-5.1,1.2c-1.8,0.1-3.6,0.1-5.3-0.3l-0.7-0.1c-0.2,0-0.4-0.1-0.7-0.2
		c-0.2-0.1-0.4-0.1-0.7-0.2l-0.7-0.2c-0.2-0.1-0.4-0.2-0.6-0.2l-0.6-0.3l-0.6-0.3c-0.2-0.1-0.4-0.2-0.6-0.3
		c-1.6-0.9-3.1-1.9-4.4-3.2c-1.3-1.3-2.5-2.7-3.4-4.2c-0.5-0.8-0.9-1.6-1.3-2.4c-0.1-0.2-0.2-0.4-0.3-0.6c-0.1-0.2-0.2-0.4-0.2-0.6
		l-0.2-0.6l-0.1-0.1l0-0.1l0,0l0-0.1l-0.1-0.3c-0.5-1.7-0.8-3.4-1-5.1c-0.2-1.7-0.3-3.3-0.4-4.8c0-0.8-0.1-1.5-0.2-2.3
		c0-0.4-0.1-0.7-0.1-1.1c0-0.4-0.1-0.7-0.1-1.1c-0.2-1.4-0.4-2.8-0.8-4.1c-0.3-1.3-0.8-2.5-1.3-3.7c-0.5-1.1-1.1-2.2-1.7-3.2
		c-0.2-0.2-0.3-0.5-0.5-0.7c-0.1-0.1-0.2-0.2-0.2-0.3c-0.1-0.1-0.2-0.2-0.3-0.3c-0.1-0.1-0.2-0.2-0.3-0.3l0,0c0,0,0,0,0,0l0,0
		l-0.1-0.1l-0.1-0.1c-0.2-0.2-0.3-0.4-0.5-0.6c-0.7-0.7-1.5-1.4-2.2-1.9c-0.7-0.5-1.5-1-2.2-1.4c-0.4-0.2-0.7-0.4-1-0.5
		c-0.3-0.2-0.7-0.3-1-0.4c-0.3-0.1-0.6-0.2-0.9-0.3c-0.3-0.1-0.6-0.1-0.8-0.2c-0.3,0-0.5-0.1-0.7-0.1c-0.2,0-0.4-0.1-0.6-0.1
		c-0.1,0-0.2,0-0.2,0c-0.1,0-0.2,0-0.2,0c-0.1,0-0.3,0-0.4,0c-0.2,0-0.3,0-0.3,0c-0.5,0-0.8-0.5-0.8-0.9
		C155.7,147.5,156,147.2,156.4,147.1z"/>
	<circle class="st12" cx="119.6" cy="65.3" r="8.5"/>
	<circle class="st13" cx="121" cy="70.3" r="2.8"/>
	<circle class="st12" cx="165.6" cy="65.3" r="8.5"/>
	<circle class="st13" cx="163.3" cy="70.9" r="2.8"/>
	<path class="st13" d="M88.7,193.8l-0.8-65c0,0,10.3-1,16.7-0.6c14.3,0.9,22.3,10.2,21.7,9.7l2.3,55.1c0.6,0.2-5.8,1.3-14.9-0.2
		C106.3,191.6,88.7,193.8,88.7,193.8z"/>
	<g>
		<path class="st14" d="M172.4,190.9l0.8-65c0,0-10.3-1-16.7-0.6c-14.3,0.9-22.3,10.2-21.7,9.7l-2.3,55.1c-0.6,0.2,5.8,1.3,14.9-0.2
			C154.8,188.7,172.4,190.9,172.4,190.9z"/>
		<g>
			<path class="st15" d="M172.4,190.9l0.5-65l0.3,0.3l0,0c-3.4,0.1-6.8-0.1-10.3-0.2c-3.4-0.1-6.8-0.1-10.1,0.4
				c-3.3,0.5-6.6,1.5-9.6,3c-1.5,0.8-3,1.6-4.4,2.6c-0.7,0.5-1.4,1-2,1.6c-0.3,0.3-0.6,0.6-0.9,0.8l-0.5,0.4l-0.2,0.2l-0.1,0.1
				l0,0.1c0,0,0.1-0.1,0-0.2c0,0,0-0.1-0.1-0.2c-0.1-0.1-0.2-0.1-0.3-0.1c-0.1,0-0.1,0.1-0.1,0.1l0.5,0.2l-2.5,55.1l-0.1,0.1
				c0,0,0,0,0,0c0,0,0,0,0-0.1c0,0,0,0,0,0c0,0,0,0,0,0c0,0,0.1,0,0.1,0c0.1,0,0.2,0.1,0.3,0.1c0.2,0,0.4,0.1,0.6,0.1
				c0.4,0.1,0.8,0.1,1.2,0.1c0.8,0.1,1.7,0.1,2.5,0.1c1.7,0,3.3,0,5-0.1c1.7-0.1,3.3-0.3,5-0.6c1.7-0.3,3.3-0.3,5-0.4
				c3.4,0,6.7,0.1,10.1,0.4C165.7,190.2,169.1,190.5,172.4,190.9z M172.4,190.9c-3.3-0.4-6.7-0.7-10-1c-3.3-0.2-6.7-0.4-10-0.4
				c-1.7,0-3.4,0.1-5,0.4c-1.7,0.3-3.3,0.5-5,0.6c-1.7,0.1-3.4,0.2-5,0.2c-0.8,0-1.7,0-2.5-0.1c-0.4,0-0.8-0.1-1.3-0.1
				c-0.2,0-0.4-0.1-0.6-0.1c-0.1,0-0.2,0-0.3-0.1c-0.1,0-0.1,0-0.2-0.1c0,0-0.1,0-0.1-0.1c0,0-0.1-0.1,0-0.2c0,0,0.1,0,0.1-0.1
				l-0.1,0.1l2.1-55.1l0.5,0.2c0,0-0.1,0.1-0.1,0.1c-0.1,0-0.2,0-0.3-0.1c-0.1-0.2-0.1-0.2-0.1-0.2c0-0.1,0.1-0.2,0.1-0.2l0.1-0.1
				l0.1-0.1l0.2-0.2l0.5-0.5c0.3-0.3,0.6-0.6,1-0.9c0.7-0.6,1.3-1.1,2-1.6c1.4-1,2.9-1.9,4.4-2.8c3.1-1.6,6.4-2.9,9.8-3.5
				c3.4-0.7,6.9-0.7,10.4-0.6c3.4,0.1,6.9,0.4,10.3,1.1l0,0l0.3,0l0,0.3L172.4,190.9z"/>
		</g>
	</g>
	<path class="st16" d="M122.5,157.9c-8,1.9-16.1,3.9-24.1,5.8"/>
	<path class="st17" d="M85.2,190.1"/>
	<g>
		<path class="st14" d="M95.8,199.3l-5-69.5c5.3-0.2,7.3-0.6,17.1,2.7c10.3,3.5,18.1,11.4,17.7,10.9l0.7,56.3
			c0.5,0.2-4.3,1.3-11.1-0.2C109.7,198.2,95.8,199.3,95.8,199.3z"/>
		<path class="st15" d="M95.3,199.8c-1.8-23.3-3.6-46.6-5.3-69.9l-0.1-0.7l0.7,0l0,0c1.6-0.1,3.2-0.2,4.8-0.1c1.6,0,3.3,0.3,4.9,0.7
			c3.2,0.7,6.2,1.7,9.3,2.9c3,1.2,5.9,2.8,8.6,4.5c1.3,0.9,2.7,1.8,3.9,2.8c0.6,0.5,1.3,1,1.9,1.5l0.9,0.8l0.5,0.4l0.2,0.2
			c0,0,0.1,0.1,0.1,0.1l0,0.1c0,0,0,0,0,0c-0.1,0-0.1-0.1-0.2-0.1c-0.1-0.4-0.8,1.1-0.5,0.8l0,0l0,0l0.9-0.3c-0.6,1.2-0.6,2.4,0,3.5
			c0.3,0.6,0.3,1.2,0.3,1.8c0,0.6,0.1,1.2,0.1,1.8l0.1,7l0.2,14.1l0.3,28.1l0,0l-0.4-0.6c0.1,0.1,0.2,0.2,0.3,0.3
			c0,0,0.1,0.2,0.1,0.3c0,0.2,0,0.3-0.1,0.4c-0.1,0.1-0.1,0.1-0.2,0.2c-0.1,0.1-0.1,0.1-0.1,0.1c-0.1,0.1-0.2,0.1-0.2,0.1
			c-0.1,0-0.2,0.1-0.3,0.1c-0.2,0.1-0.4,0.1-0.5,0.1c-0.3,0.1-0.7,0.1-1,0.1c-0.7,0.1-1.3,0.1-2,0.1c-1.3,0-2.6,0-3.9-0.2
			c-1.3-0.1-2.6-0.4-3.8-0.7c-1.2-0.3-2.5-0.3-3.7-0.4c-2.5-0.1-5.1-0.1-7.6-0.1c-1.3,0-2.5,0.1-3.8,0.1l-1.9,0.1l-1,0.1l-0.5,0
			l-0.2,0c-0.1,0,0,0-0.2,0C95.7,199.9,95.5,199.9,95.3,199.8z M96.2,198.7c-0.1-0.1-0.2-0.2-0.3-0.2c-0.2,0,0,0,0,0l0.2,0l0.5,0
			l1-0.1l1.9-0.1c1.3-0.1,2.6-0.1,3.8-0.1c2.6-0.1,5.1-0.1,7.7,0.1c1.3,0.1,2.6,0.2,3.9,0.5c1.3,0.3,2.5,0.5,3.7,0.6
			c1.2,0.1,2.5,0.2,3.7,0.2c0.6,0,1.2-0.1,1.9-0.1c0.3,0,0.6-0.1,0.9-0.1c0.1,0,0.3-0.1,0.4-0.1l0.2-0.1c0,0,0,0,0,0l-0.1,0.1
			c0,0-0.1,0.1-0.1,0.1c-0.1,0.1-0.1,0.2-0.1,0.4c0,0.1,0.1,0.3,0.1,0.3c0.1,0.1,0.2,0.2,0.3,0.2l-0.4-0.6l0,0l-0.4-28.1l-0.2-14.1
			l-0.1-7c0-0.6,0-1.2,0-1.8c0-0.6,0-1.2,0.3-1.8c0.6-1.2,0.5-2.4-0.1-3.5l-1.3-2.4l2.2,2.1l0,0l0.1,0.1c0.4-0.3-0.4,1.2-0.5,0.8
			c-0.1,0-0.2,0-0.2-0.1c-0.1,0-0.1,0-0.1-0.1l-0.1,0c-0.1,0-0.1-0.1-0.1-0.1l-0.2-0.2l-0.4-0.4l-0.9-0.8c-0.6-0.5-1.2-1-1.9-1.5
			c-1.3-1-2.5-1.9-3.9-2.7c-2.7-1.7-5.5-3.2-8.4-4.4c-2.9-1.1-6-2.1-9.1-2.7c-1.5-0.3-3.1-0.6-4.6-0.6c-1.6-0.1-3.1,0.1-4.7,0.1l0,0
			l0.7-0.7C93.1,152.7,94.7,175.7,96.2,198.7z"/>
	</g>
	<g>
		<path class="st14" d="M161.7,194.9l5-69.5c-5.3-0.2-7.3-0.6-17.1,2.7c-10.3,3.5-18.1,11.4-17.7,10.9l-0.7,56.3
			c-0.5,0.2,4.3,1.3,11.1-0.2C147.8,193.8,161.7,194.9,161.7,194.9z"/>
		<g>
			<path class="st15" d="M161.3,194.4c1.6-23.1,3.1-46,4.8-69l0.7,0.7l0,0c-1.6-0.1-3.2-0.2-4.7-0.1c-1.6,0-3.1,0.3-4.6,0.6
				c-3.1,0.7-6.1,1.7-9.1,2.7c-2.9,1.1-5.7,2.6-8.4,4.4c-1.3,0.9-2.6,1.8-3.9,2.7c-0.6,0.5-1.2,1-1.9,1.5l-0.9,0.8l-0.4,0.4
				l-0.2,0.2c0,0-0.1,0.1-0.1,0.1l-0.1,0c0,0,0,0-0.1,0.1c-0.1,0-0.1,0.1-0.2,0.1c-0.1,0.4-0.8-1.1-0.5-0.8l0.1-0.1l0,0l2.2-2.1
				l-1.3,2.4c-0.6,1.2-0.7,2.3-0.1,3.5c0.2,0.6,0.2,1.2,0.3,1.8c0,0.6,0,1.2,0,1.8l-0.1,7l-0.2,14.1l-0.4,28.1v0l-0.4,0.6
				c0.1,0,0.2-0.1,0.3-0.2c0,0,0.1-0.2,0.1-0.3c0-0.1,0-0.3-0.1-0.4c0-0.1-0.1-0.1-0.1-0.1l-0.1-0.1c0,0,0,0,0,0l0.2,0.1
				c0.1,0,0.3,0.1,0.4,0.1c0.3,0.1,0.6,0.1,0.9,0.1c0.6,0.1,1.2,0.1,1.9,0.1c1.2,0,2.5,0,3.7-0.2c1.3-0.1,2.5-0.4,3.7-0.6
				c1.3-0.3,2.6-0.4,3.9-0.5c2.6-0.1,5.2-0.1,7.7-0.1c1.3,0,2.6,0.1,3.8,0.1l1.9,0.1l1,0.1l0.5,0l0.2,0c0,0,0.2,0,0,0
				C161.4,194.2,161.3,194.3,161.3,194.4z M162.1,195.4c-0.1,0.1-0.3,0.1-0.5,0.2c-0.2,0-0.2,0-0.2,0l-0.2,0l-0.5,0l-1-0.1l-1.9-0.1
				c-1.3-0.1-2.5-0.1-3.8-0.1c-2.5-0.1-5.1-0.1-7.6,0.1c-1.3,0.1-2.5,0.2-3.7,0.4c-1.2,0.3-2.6,0.5-3.8,0.7
				c-1.3,0.1-2.6,0.2-3.9,0.2c-0.7,0-1.3-0.1-2-0.1c-0.3,0-0.7-0.1-1-0.1c-0.2,0-0.3-0.1-0.5-0.1c-0.1,0-0.2-0.1-0.3-0.1
				c-0.1,0-0.1,0-0.2-0.1c0,0,0,0-0.1-0.1c-0.1-0.1-0.1-0.1-0.2-0.2c-0.1-0.1-0.1-0.3-0.1-0.4c0-0.2,0.1-0.3,0.1-0.3
				c0.1-0.1,0.2-0.2,0.3-0.3l-0.4,0.6l0,0l0.3-28.1l0.2-14.1l0.1-7c0-0.6,0-1.2,0.1-1.8c0.1-0.6,0.1-1.2,0.3-1.8
				c0.6-1.2,0.6-2.3,0-3.5l0.9,0.3l0,0l0,0c0.4,0.3-0.4-1.2-0.5-0.8c-0.1,0-0.1,0-0.2,0.1c-0.1,0,0,0,0,0l0-0.1c0,0,0.1-0.1,0.1-0.1
				l0.2-0.2l0.5-0.4l0.9-0.8c0.6-0.5,1.2-1,1.9-1.5c1.3-1,2.6-1.9,3.9-2.8c2.7-1.8,5.6-3.3,8.6-4.5c3.1-1.1,6.1-2.1,9.3-2.9
				c1.6-0.4,3.2-0.6,4.9-0.7c1.6-0.1,3.3,0.1,4.8,0.1l0,0l0.7,0l-0.1,0.7C165.7,148.8,164,172.1,162.1,195.4z"/>
		</g>
	</g>
	<path class="st18" d="M173,198.5l0.8-65c0,0-13.8-1.4-18.6-1.2c-8.9,0.4-22.9,7-22.9,7l-0.2,66.4c-0.6,0.2,5.6-5.5,14.7-7
		C154.3,197.4,173,198.5,173,198.5z"/>
	<path class="st15" d="M131.4,206.8h-5.6c-1.9,0-3.4-1.5-3.4-3.4v-62.1c0-1.9,1.5-3.4,3.4-3.4h5.6c1.9,0,3.4,1.5,3.4,3.4v62.1
		C134.8,205.3,133.2,206.8,131.4,206.8z"/>
	<path class="st19" d="M82.3,199.5l-0.8-65c0,0,13.8-1.4,18.6-1.2c8.9,0.4,22.9,7,22.9,7l0.2,66.4c0.4-2.6-5.5-6.2-14.4-0.6
		C99,212.2,80.1,200.6,82.3,199.5z"/>
	<g>
		<path class="st14" d="M210.3,200.2l-20.2-48.3c3.1-1.3,4.3-2,11-1.7c7.1,0.3,13.8,4.3,13.4,4l14.3,39.8c0.3,0-2.3,1.8-6.8,2.2
			C218.5,196.5,210.3,200.2,210.3,200.2z"/>
		<path class="st15" d="M210.2,200.6l-20.5-48.5l-0.2-0.4l0.4-0.2l0,0c1-0.4,2-0.8,3-1.1c1.1-0.3,2.1-0.5,3.2-0.6
			c1.1-0.1,2.2-0.1,3.2-0.1c1.1,0,2.1,0.1,3.2,0.2c2.1,0.2,4.2,0.8,6.3,1.5c1,0.3,2,0.7,3,1.2c0.5,0.2,1,0.4,1.5,0.7l0.7,0.4
			l0.4,0.2l0.2,0.1c0,0,0.1,0,0.1,0.1l0,0l0,0l0,0c0,0,0,0-0.1,0c-0.1,0-0.1,0-0.2,0c-0.4,0.5,0.1,0.7-0.1,0.6l0,0l0,0l0.5-0.4
			c-0.1,1,0.2,1.8,0.8,2.5c0.6,0.7,0.8,1.6,1.1,2.4l1.8,5l3.6,10l7.1,19.9l-0.4-0.3l0,0c0.2,0,0.4,0.1,0.4,0.5c0,0.1,0,0.1,0,0.1
			l0,0.1c0,0,0,0.1-0.1,0.1c0,0.1-0.1,0.1-0.1,0.1c-0.1,0.1-0.1,0.1-0.2,0.1c-0.1,0.1-0.2,0.1-0.3,0.2c-0.2,0.1-0.4,0.2-0.6,0.3
			c-0.4,0.2-0.8,0.4-1.2,0.5c-0.8,0.3-1.6,0.5-2.4,0.7c-0.8,0.2-1.7,0.3-2.5,0.3c-0.8,0.1-1.6,0.3-2.3,0.5c-1.6,0.4-3.1,1-4.6,1.6
			c-0.8,0.3-1.5,0.6-2.3,0.9l-1.1,0.5l-0.6,0.2l-0.3,0.1l-0.1,0.1c0,0,0,0-0.2,0.1C210.4,200.6,210.3,200.6,210.2,200.6z
			 M210.5,199.7c-0.1,0-0.1-0.1-0.2-0.1c-0.1,0,0,0,0,0l0.1-0.1l0.3-0.1l0.6-0.2l1.1-0.5c0.8-0.3,1.5-0.6,2.3-0.9
			c1.5-0.6,3.1-1.1,4.7-1.6c0.8-0.2,1.6-0.4,2.5-0.5c0.8-0.1,1.6-0.2,2.4-0.3c0.8-0.2,1.6-0.4,2.3-0.7c0.4-0.1,0.7-0.3,1.1-0.5
			c0.2-0.1,0.3-0.2,0.5-0.3c0.1,0,0.2-0.1,0.2-0.1l0.1-0.1c0,0,0,0,0,0c0,0,0,0.1,0,0.1l0,0.1c0,0,0,0,0,0.1
			c0.1,0.3,0.2,0.4,0.4,0.4l0,0l-0.4-0.3l-7.2-19.9l-3.6-9.9l-1.8-5c-0.3-0.8-0.6-1.6-0.7-2.6c0.1-1-0.2-1.8-0.9-2.5l-1.7-1.7
			l2.3,1.3l0,0l0,0c-0.1-0.1,0.3,0.1-0.1,0.6c-0.2,0.1-0.1,0-0.2,0l-0.1,0l-0.1,0c0,0-0.1,0-0.1,0l-0.2-0.1l-0.4-0.2l-0.7-0.3
			c-0.5-0.2-1-0.4-1.4-0.6c-1-0.4-1.9-0.8-2.9-1.1c-2-0.7-4-1.2-6.1-1.4c-2.1-0.2-4.2-0.2-6.3-0.1c-1,0.1-2,0.2-3,0.5
			c-1,0.3-1.9,0.7-2.9,1.1l0,0l0.3-0.6L210.5,199.7z"/>
	</g>
	<g>
		<path class="st14" d="M249.2,183.2l-14.1-50.4c-3.2,1-4.6,1.1-9.7,5.5c-5.4,4.6-8.1,11.9-8,11.4l13.4,40.1c-0.2,0.2,2.9,0,6.7-2.5
			C240.6,185.3,249.2,183.2,249.2,183.2z"/>
		<g>
			<path class="st15" d="M248.8,182.9l-14.1-50l0.6,0.3l0,0c-1,0.3-2,0.6-3,0.9c-0.9,0.4-1.8,0.9-2.7,1.5c-1.7,1.2-3.4,2.5-4.9,4
				c-1.5,1.5-2.8,3.1-3.9,4.9c-0.6,0.9-1.1,1.8-1.6,2.7c-0.3,0.5-0.5,0.9-0.7,1.4l-0.3,0.7l-0.2,0.4l-0.1,0.2c0,0,0,0.1-0.1,0.1l0,0
				l-0.1,0.1c-0.1,0.1,0,0.1-0.2,0.1c-0.6-0.1-0.4-0.6-0.4-0.4l0,0l0,0l1-2.4l-0.3,2.4c-0.1,1,0.1,1.8,0.8,2.5
				c0.6,0.7,0.8,1.6,1.1,2.4l1.7,5l3.3,10l6.7,20.1l-0.1,0.5l0,0c0.1-0.1,0.2-0.3,0-0.6c-0.1-0.1-0.1-0.1-0.1-0.1l0,0
				c0,0-0.1,0-0.1,0c0,0,0,0,0,0l0.1,0c0.1,0,0.2,0,0.3,0c0.2,0,0.4-0.1,0.6-0.1c0.4-0.1,0.8-0.2,1.1-0.3c0.8-0.2,1.5-0.5,2.2-0.9
				c0.7-0.4,1.4-0.8,2.1-1.2c0.7-0.5,1.5-0.8,2.3-1.2c1.5-0.7,3.1-1.2,4.7-1.7c0.8-0.2,1.6-0.5,2.4-0.7l1.2-0.3l0.6-0.2l0.3-0.1
				l0.2,0c0,0,0.1,0,0,0C248.9,182.8,248.8,182.9,248.8,182.9z M249.6,183.4c-0.1,0.1-0.2,0.2-0.3,0.2c-0.2,0.1-0.1,0-0.2,0l-0.1,0
				l-0.3,0.1l-0.6,0.2l-1.2,0.3c-0.8,0.2-1.6,0.5-2.4,0.7c-1.6,0.5-3.1,1-4.6,1.7c-0.7,0.3-1.5,0.7-2.1,1.1
				c-0.7,0.5-1.4,0.9-2.2,1.3c-0.8,0.4-1.5,0.7-2.4,1c-0.4,0.1-0.8,0.2-1.2,0.3c-0.2,0-0.4,0.1-0.7,0.1c-0.1,0-0.2,0-0.4,0
				c-0.1,0-0.1,0-0.2,0c0,0-0.1,0-0.2,0c0,0-0.1,0-0.1-0.1l-0.1,0c0,0,0,0-0.1-0.1c-0.2-0.3-0.1-0.5,0.1-0.6l0,0l-0.1,0.5l-6.7-20.1
				l-3.4-10l-1.7-5c-0.3-0.8-0.6-1.7-0.6-2.6c0.1-1-0.2-1.8-0.9-2.5l0.7,0l0,0l0,0c0,0.2,0.2-0.3-0.4-0.4c-0.2,0-0.1,0.1-0.2,0.1
				c-0.1,0.1-0.1,0.1,0,0.1l0,0l0,0l0,0c0,0,0-0.1,0-0.1l0.1-0.2l0.2-0.4l0.3-0.7c0.2-0.5,0.5-1,0.7-1.4c0.5-0.9,1-1.9,1.6-2.8
				c1.2-1.8,2.5-3.5,4-5c0.8-0.8,1.6-1.4,2.4-2.1c0.8-0.7,1.7-1.3,2.6-2c0.9-0.6,1.9-1.2,2.9-1.6c1-0.4,2.1-0.7,3.1-1l0,0l0.5-0.1
				l0.1,0.5L249.6,183.4z"/>
		</g>
	</g>
	<path class="st20" d="M257,183.3L241.4,137c0,0-8.7,1.9-11.6,3.1c-5.3,2.1-12.2,9.8-12.2,9.8l16.3,47.2c-0.3,0.3,2-5.1,7.2-8.1
		C245.4,186.5,257,183.3,257,183.3z"/>
	<path class="st18" d="M233.9,198l-3.7,1.3c-1.1,0.4-2.2-0.2-2.6-1.3L212,152.9c-0.4-1.1,0.2-2.2,1.3-2.6l3.7-1.3
		c1.1-0.4,2.2,0.2,2.6,1.3l15.7,45.1C235.5,196.5,235,197.6,233.9,198z"/>
	<path class="st20" d="M201.4,200.8l-15.7-43.7c0,0,8-3.8,11-4.7c5.5-1.6,15.5-0.1,15.5-0.1l15.7,44.7c-0.3-1.8-4.8-3-8.9,2.6
		C214.5,205.9,200.3,202,201.4,200.8z"/>
	<path class="st21" d="M95.3,191.1c-11.7,1.8-21-7.2-13.3-20.8c-1,3.9,2.3,11.3,6,12.8c7.8,3.3,18.2-7.1,14.5-16.1
		c-3.1-7.4-10.2-12.4-18.1-12.4c-6.8-0.1-14.3,3.6-19,8.8c-13.9,15-6.7,43.4,21.2,50.4c8.3,2.1,15.3,1.6,19.7,0.7"/>
	<path class="st22" d="M163.5,187.6c7.9,10.3,22,10.3,26.2-6.2c-2.2,3.8-10.4,7.1-14.4,5.5c-8.7-3.4-8.9-19.4,0.8-23.6
		c8-3.5,17.4-2,23.7,4c5.4,5.1,8.4,13.7,8.3,21.3c-0.5,22.3-27.7,39.2-55,23.5c-8.1-4.7-13.3-10.4-16.1-14.4"/>
	<g class="st23">
		<linearGradient id="SVGID_4_" gradientUnits="userSpaceOnUse" x1="226.1026" y1="188.7471" x2="236.4799" y2="207.7211">
			<stop  offset="0" style="stop-color:#2782C5"/>
			<stop  offset="1" style="stop-color:#2782C5"/>
		</linearGradient>
		<path class="st24" d="M250.3,185c0,2.4-0.4,4.9-1,7.3c-0.7,2.4-1.8,4.8-3.3,6.9c-1.5,2.1-3.3,4-5.3,5.6c-1,0.8-2.1,1.5-3.1,2.2
			c-1.1,0.6-2.2,1.3-3.3,1.8c-0.6,0.3-1.1,0.6-1.7,0.8c-0.7,0.2-1.3,0.5-2,0.7c-1.4,0.4-2.8,0.6-4.1,0.6c-2.8,0.1-5.4-0.5-7.8-1.5
			c-4.8-1.9-8.6-5-12.1-8.4c4.7,1.4,9.1,3.3,13.4,4.2c2.1,0.4,4.2,0.6,6.2,0.4c1-0.1,1.9-0.3,2.8-0.6c0.5-0.1,0.9-0.4,1.4-0.5
			c0.4-0.2,1-0.5,1.5-0.7c2-1,3.9-2.1,5.7-3.3c1.8-1.2,3.5-2.6,5-4.1c1.5-1.5,2.9-3.3,4.2-5.2C248,189.2,249.1,187.1,250.3,185z"/>
	</g>
	<g class="st23">
		<linearGradient id="SVGID_5_" gradientUnits="userSpaceOnUse" x1="76.9076" y1="176.7127" x2="62.8663" y2="171.0706">
			<stop  offset="0" style="stop-color:#2782C5"/>
			<stop  offset="1" style="stop-color:#2782C5"/>
		</linearGradient>
		<path class="st25" d="M63.3,194.6c-1-1.9-1.7-3.8-2.2-5.9c-0.5-2.1-0.7-4.2-0.6-6.4c0.2-4.3,1.3-8.5,2.9-12.4l0.6-1.4l0.3-0.7
			l0.4-0.8c0.3-0.5,0.5-1,0.9-1.5c0.3-0.5,0.6-1,1-1.4c1.4-1.8,3.1-3.3,5-4.5c3.8-2.4,8-3.2,12.1-3.6c-3.6,2.1-7.3,3.9-10.1,6.4
			c-1.4,1.2-2.6,2.6-3.6,4.1c-1,1.5-1.7,3.2-2.5,5c-1.5,3.6-2.8,7.3-3.5,11.1c-0.4,1.9-0.6,3.8-0.7,5.8
			C63.1,190.5,63.2,192.5,63.3,194.6z"/>
	</g>
	<path class="st1" d="M43.3,164.7c-1.9,0-1.9,2.9,0,2.9C45.2,167.6,45.2,164.7,43.3,164.7z"/>
	<path class="st1" d="M44.7,174.1c0-0.3-0.1-0.5-0.2-0.7c-0.1-0.2-0.4-0.5-0.7-0.6c-0.3-0.2-0.7-0.2-1.1-0.1
		c-0.6,0.2-1.1,0.8-1.1,1.4c0,0.7,0.5,1.3,1.1,1.4c0.3,0.1,0.5,0.1,0.8,0c0.1-0.1,0.2-0.1,0.4-0.2c0,0,0,0,0,0
		c0.1-0.1,0.3-0.2,0.4-0.3C44.5,174.8,44.7,174.5,44.7,174.1z"/>
	<path class="st1" d="M47.5,181.5c-0.2-0.7-0.8-1.1-1.5-1.1c-0.5,0-1.1,0.3-1.3,0.8c-0.2,0.4-0.3,0.9-0.1,1.3c0,0,0,0,0,0.1
		c0.1,0.3,0.2,0.5,0.4,0.7c0.3,0.3,0.7,0.4,1.1,0.4c0.4,0,0.8-0.2,1.1-0.4c0.1-0.1,0.2-0.2,0.2-0.3c0.1-0.1,0.1-0.3,0.2-0.5
		C47.6,182.1,47.6,181.8,47.5,181.5z"/>
	<path class="st1" d="M50.9,187.1c-2.1,0-2.1,3.3,0,3.3C53,190.4,53,187.1,50.9,187.1z"/>
	<path class="st1" d="M56.9,191.5c-2.3,0-2.3,3.5,0,3.5S59.2,191.5,56.9,191.5z"/>
	<path class="st1" d="M30.1,109.5c-0.2-0.2-0.4-0.3-0.7-0.4c-0.3-0.1-0.6-0.1-0.9,0c-0.1,0-0.1,0.1-0.2,0.1
		c-0.2,0.1-0.5,0.2-0.6,0.4c-0.3,0.3-0.5,0.7-0.5,1.1c0,0.8,0.7,1.7,1.6,1.6c0.3,0,0.6-0.1,0.9-0.2c0.5-0.3,0.9-0.8,0.8-1.4
		C30.5,110.2,30.4,109.8,30.1,109.5z"/>
	<path class="st1" d="M35,108.2c-2.4,0-2.4,3.8,0,3.8C37.4,112,37.4,108.2,35,108.2z"/>
	<path class="st1" d="M41.5,109.6c-0.9,0-1.6,0.7-1.6,1.6c0,0.9,0.7,1.6,1.6,1.6c0.9,0,1.6-0.7,1.6-1.6
		C43,110.3,42.3,109.6,41.5,109.6z"/>
	<path class="st1" d="M48,114.9c-1.1,0-2.1,0.9-2.1,2.1c0,1.1,0.9,2.1,2.1,2.1s2.1-0.9,2.1-2.1C50.1,115.9,49.2,114.9,48,114.9z"/>
	<path class="st1" d="M54.4,120.1c-3,0-3,4.6,0,4.6C57.4,124.7,57.4,120.1,54.4,120.1z"/>
	<path class="st1" d="M200.9,173.4c1.4,0,2.6,1.2,2.6,2.6c0,1.4-1.2,2.6-2.6,2.6c-1.4,0-2.6-1.2-2.6-2.6
		C198.3,174.5,199.5,173.4,200.9,173.4z"/>
	<path class="st1" d="M203.4,181.1c1.4,0,2.6,1.2,2.6,2.6s-1.2,2.6-2.6,2.6c-1.4,0-2.6-1.2-2.6-2.6S202,181.1,203.4,181.1z"/>
	<path class="st1" d="M204.3,188.8c2.4,0,2.4,3.8,0,3.8S201.9,188.8,204.3,188.8z"/>
	<path class="st1" d="M200.1,197c1,0,1.9,0.8,1.9,1.9c0,1-0.8,1.9-1.9,1.9c-1,0-1.9-0.8-1.9-1.9C198.2,197.9,199.1,197,200.1,197z"
		/>
	<path class="st1" d="M195.6,203.6c2.3,0,2.3,3.5,0,3.5S193.3,203.6,195.6,203.6z"/>
	<path class="st1" d="M189.4,209c0.6,0,1.1,0.5,1.1,1.1c0,0.6-0.5,1.1-1.1,1.1c-0.6,0-1.1-0.5-1.1-1.1
		C188.3,209.5,188.8,209,189.4,209z"/>
	<path class="st1" d="M158.5,207.6c1.3,0,2.3,1,2.3,2.3c0,1.3-1,2.3-2.3,2.3c-1.3,0-2.3-1-2.3-2.3
		C156.2,208.7,157.3,207.6,158.5,207.6z"/>
	<path class="st1" d="M167.2,211c1.3,0,2.3,1,2.3,2.3c0,1.3-1,2.3-2.3,2.3s-2.3-1-2.3-2.3C164.9,212,165.9,211,167.2,211z"/>
	<path class="st1" d="M174.5,212c1.3,0,2.3,1,2.3,2.3c0,1.3-1,2.3-2.3,2.3s-2.3-1-2.3-2.3C172.2,213.1,173.2,212,174.5,212z"/>
	<path class="st1" d="M181.2,211.4c1.3,0,2.3,1,2.3,2.3c0,1.3-1,2.3-2.3,2.3s-2.3-1-2.3-2.3C178.9,212.4,179.9,211.4,181.2,211.4z"
		/>
	<path class="st1" d="M152.2,204.9c2.4,0,2.4,3.7,0,3.7C149.8,208.6,149.8,204.9,152.2,204.9z"/>
	<path class="st1" d="M145.1,203.6C145.1,203.6,145.1,203.6,145.1,203.6c0.5-0.3,1-0.3,1.4-0.1c0.4,0.2,0.6,0.7,0.6,1.1
		s-0.2,0.9-0.6,1.1c-0.4,0.2-0.9,0.2-1.3,0c0,0-0.1,0-0.1-0.1c-0.4-0.2-0.6-0.6-0.6-1.1C144.4,204.3,144.7,203.9,145.1,203.6z"/>
	<path class="st1" d="M142.7,198.4c0,0,0.1,0,0.1,0c0.5,0.1,0.8,0.6,0.8,1.1c0,0.5-0.3,0.9-0.8,1.1c0,0-0.1,0-0.1,0
		c-0.7,0.2-1.4-0.4-1.4-1.1C141.3,198.8,142,198.2,142.7,198.4z"/>
	<linearGradient id="SVGID_6_" gradientUnits="userSpaceOnUse" x1="102.1814" y1="36.5799" x2="130.84" y2="36.5799">
		<stop  offset="0" style="stop-color:#2782C5"/>
		<stop  offset="1" style="stop-color:#2782C5"/>
	</linearGradient>
	<path class="st26" d="M103.3,44.6c0.1,0.2,0.3,0.4,0.5,0.5c2.2,2.2,5.9,2.7,9.2,2.5c5.2-0.3,10.3-2.1,13.8-5.3
		c4.7-4.3,7-15.6-2.7-16.7c-3.3-0.4-7.7,1.3-10.3,2.6c-4.1,2.1-7.2,4.5-9.9,8C102,38.6,101.5,42.1,103.3,44.6z"/>
	<linearGradient id="SVGID_7_" gradientUnits="userSpaceOnUse" x1="94.1153" y1="55.0075" x2="103.2127" y2="55.0075">
		<stop  offset="0" style="stop-color:#2782C5"/>
		<stop  offset="1" style="stop-color:#2782C5"/>
	</linearGradient>
	<circle class="st27" cx="98.7" cy="55" r="4.5"/>
	<linearGradient id="SVGID_8_" gradientUnits="userSpaceOnUse" x1="134.5303" y1="33.5418" x2="140.866" y2="33.5418">
		<stop  offset="0" style="stop-color:#2782C5"/>
		<stop  offset="1" style="stop-color:#2782C5"/>
	</linearGradient>
	<circle class="st28" cx="137.7" cy="33.5" r="3.2"/>
	<linearGradient id="SVGID_9_" gradientUnits="userSpaceOnUse" x1="164.2975" y1="101.3606" x2="176.9689" y2="101.3606">
		<stop  offset="0" style="stop-color:#2782C5"/>
		<stop  offset="1" style="stop-color:#2782C5"/>
	</linearGradient>
	<circle class="st29" cx="170.6" cy="101.4" r="6.3"/>
	<linearGradient id="SVGID_10_" gradientUnits="userSpaceOnUse" x1="174.297" y1="86.7224" x2="181.6073" y2="86.7224">
		<stop  offset="0" style="stop-color:#2782C5"/>
		<stop  offset="1" style="stop-color:#2782C5"/>
	</linearGradient>
	<circle class="st30" cx="178" cy="86.7" r="3.7"/>
	<linearGradient id="SVGID_11_" gradientUnits="userSpaceOnUse" x1="166.0005" y1="90.6288" x2="170.3867" y2="90.6288">
		<stop  offset="0" style="stop-color:#2782C5"/>
		<stop  offset="1" style="stop-color:#2782C5"/>
	</linearGradient>
	<circle class="st31" cx="168.2" cy="90.6" r="2.2"/>
	<linearGradient id="SVGID_12_" gradientUnits="userSpaceOnUse" x1="94.6418" y1="65.9859" x2="100.2465" y2="65.9859">
		<stop  offset="0" style="stop-color:#2782C5"/>
		<stop  offset="1" style="stop-color:#2782C5"/>
	</linearGradient>
	<circle class="st32" cx="97.4" cy="66" r="2.8"/>
	<path class="st33" d="M130.7,89.4c2,11.3,17.9,8,17.7-1"/>
	<linearGradient id="SVGID_13_" gradientUnits="userSpaceOnUse" x1="134.2879" y1="24.5121" x2="143.5479" y2="24.5121">
		<stop  offset="0" style="stop-color:#2782C5"/>
		<stop  offset="1" style="stop-color:#2782C5"/>
	</linearGradient>
	<circle class="st34" cx="138.9" cy="24.5" r="4.6"/>
	<path class="st35" d="M232.6,177.3c5.5,10.5-0.1,22.3-15.4,19.3c4-0.3,9.9-5.8,10.2-9.8c0.6-8.5-12.6-14.9-19.9-8.5
		c-6,5.3-8.4,13.7-5.9,21.2c2.1,6.4,8.1,12.3,14.5,15.2c18.7,8.3,43.3-7.7,41-36.4c-0.7-8.5-3.4-15-5.7-18.9"/>
	<path class="st36" d="M112.5,201.2c-0.7,11.8-11.4,19.1-22.9,8.7c3.6,1.8,11.4,0.1,13.7-3.2c4.8-7-3.2-19.3-12.6-17.5
		c-7.8,1.5-14.2,7.4-15.9,15.2c-1.5,6.6,0.6,14.7,4.6,20.4c11.7,16.6,40.8,15.5,53.5-10.3c3.8-7.7,4.8-14.7,4.8-19.2"/>
	<g>
		<path class="st1" d="M260.2,144.6c-0.3-2-3.5-1.5-3.2,0.5C257.4,147.2,260.6,146.7,260.2,144.6z"/>
		<path class="st1" d="M259.6,137.1c-0.2-1.2-1.4-2.1-2.6-1.8c-1.2,0.2-2.1,1.4-1.8,2.6s1.4,2.1,2.6,1.8
			C259,139.5,259.8,138.3,259.6,137.1z"/>
		<path class="st1" d="M257.1,150.1c-0.1-0.7-0.8-1.1-1.4-1s-1.1,0.8-1,1.4c0.1,0.7,0.8,1.1,1.4,1
			C256.8,151.4,257.3,150.7,257.1,150.1z"/>
		<path class="st1" d="M252.1,151.9c-0.2-1.3-2.2-0.9-2,0.3C250.3,153.5,252.3,153.2,252.1,151.9z"/>
	</g>
	<path class="st1" d="M81.6,221c-3,0-3,4.6,0,4.6C84.6,225.6,84.6,221,81.6,221z"/>
	<path class="st1" d="M98.7,228.3c-2,0-2,3.3,0,3.3C100.7,231.6,100.7,228.3,98.7,228.3z"/>
	<path class="st1" d="M104.9,229.1c-1.7,0-1.7,2.8,0,2.8C106.6,231.8,106.6,229.1,104.9,229.1z"/>
	<path class="st1" d="M110.3,226.8c-1.7,0-1.7,2.8,0,2.8C112,229.6,112,226.8,110.3,226.8z"/>
	<path class="st1" d="M115.4,223.6c-1.7,0-1.7,2.8,0,2.8C117.1,226.3,117.1,223.6,115.4,223.6z"/>
	<path class="st1" d="M92.8,228.6c-1.7,0-1.7,2.8,0,2.8C94.5,231.3,94.5,228.6,92.8,228.6z"/>
	<path class="st1" d="M118.8,220.1c-1.3,0-1.3,2.2,0,2.2C120.1,222.3,120.1,220.1,118.8,220.1z"/>
	<path class="st1" d="M78.4,214.3c-3,0-3,4.6,0,4.6C81.4,218.8,81.4,214.3,78.4,214.3z"/>
	<path class="st1" d="M87.8,226.4c2.4,0,2.4,3.7,0,3.7C85.5,230.1,85.5,226.4,87.8,226.4z"/>
</g>
</svg>
