<svg id="Layer_1" data-name="Layer 1" xmlns="http://www.w3.org/2000/svg" xmlns:xlink="http://www.w3.org/1999/xlink" viewBox="0 0 259.27 317.5"><defs><style>.cls-1,.cls-22,.cls-36,.cls-37{fill:#9cd7f2;}.cls-2{fill:#fbb800;}.cls-3{fill:#f3a700;stroke:#fbb700;stroke-width:0.5px;}.cls-10,.cls-17,.cls-18,.cls-22,.cls-23,.cls-3,.cls-34,.cls-36,.cls-37{stroke-miterlimit:10;}.cls-18,.cls-4{fill:#e5579a;}.cls-5{fill:#e94a2d;}.cls-24,.cls-27,.cls-28,.cls-29,.cls-30,.cls-31,.cls-32,.cls-33,.cls-35,.cls-6,.cls-7,.cls-8{opacity:0.24;}.cls-6{fill:url(#linear-gradient);}.cls-7{fill:url(#linear-gradient-2);}.cls-8{fill:url(#linear-gradient-3);}.cls-9{fill:#feffff;}.cls-10,.cls-17,.cls-34{fill:none;}.cls-10,.cls-23,.cls-34{stroke:#fff;}.cls-10{stroke-linecap:round;}.cls-10,.cls-34{stroke-width:3.41px;}.cls-11{fill:#db0e15;}.cls-12{fill:#f5f5f6;}.cls-13{fill:#2c1d1c;}.cls-14{fill:#fff;}.cls-15{fill:#f3f2f2;}.cls-16{fill:#78bd71;}.cls-17,.cls-18{stroke:#317bbf;stroke-width:0.24px;}.cls-19{fill:#b8ce29;}.cls-20{fill:#aec212;}.cls-21{fill:#78bd70;}.cls-22,.cls-36,.cls-37{stroke:#f7f7f8;}.cls-22{stroke-width:2.19px;}.cls-23{fill:#a2d9ed;stroke-width:1.95px;}.cls-25{fill:url(#linear-gradient-4);}.cls-26{fill:url(#linear-gradient-5);}.cls-27{fill:url(#linear-gradient-6);}.cls-28{fill:url(#linear-gradient-7);}.cls-29{fill:url(#linear-gradient-8);}.cls-30{fill:url(#linear-gradient-9);}.cls-31{fill:url(#linear-gradient-10);}.cls-32{fill:url(#linear-gradient-11);}.cls-33{fill:url(#linear-gradient-12);}.cls-35{fill:url(#linear-gradient-13);}.cls-36{stroke-width:2.2px;}.cls-37{stroke-width:2.19px;}</style><linearGradient id="linear-gradient" x1="134.89" y1="97.85" x2="282.46" y2="97.85" gradientUnits="userSpaceOnUse"><stop offset="0" stop-color="#2782c5"/><stop offset="1" stop-color="#2782c5"/></linearGradient><linearGradient id="linear-gradient-2" x1="116.16" y1="60.92" x2="179.38" y2="60.92" gradientTransform="matrix(1, 0.05, -0.05, 1, -14.4, 18.6)" xlink:href="#linear-gradient"/><linearGradient id="linear-gradient-3" x1="80.49" y1="180.88" x2="137.16" y2="180.88" xlink:href="#linear-gradient"/><linearGradient id="linear-gradient-4" x1="246.77" y1="209.41" x2="257.15" y2="228.39" xlink:href="#linear-gradient"/><linearGradient id="linear-gradient-5" x1="97.57" y1="197.38" x2="83.53" y2="191.74" xlink:href="#linear-gradient"/><linearGradient id="linear-gradient-6" x1="122.85" y1="57.25" x2="151.51" y2="57.25" xlink:href="#linear-gradient"/><linearGradient id="linear-gradient-7" x1="89.6" y1="50.62" x2="98.7" y2="50.62" xlink:href="#linear-gradient"/><linearGradient id="linear-gradient-8" x1="130.02" y1="29.15" x2="136.35" y2="29.15" xlink:href="#linear-gradient"/><linearGradient id="linear-gradient-9" x1="159.78" y1="96.97" x2="172.46" y2="96.97" xlink:href="#linear-gradient"/><linearGradient id="linear-gradient-10" x1="169.78" y1="82.33" x2="177.09" y2="82.33" xlink:href="#linear-gradient"/><linearGradient id="linear-gradient-11" x1="161.49" y1="86.24" x2="165.87" y2="86.24" xlink:href="#linear-gradient"/><linearGradient id="linear-gradient-12" x1="90.13" y1="61.6" x2="95.73" y2="61.6" xlink:href="#linear-gradient"/><linearGradient id="linear-gradient-13" x1="129.77" y1="20.12" x2="139.03" y2="20.12" xlink:href="#linear-gradient"/></defs><title>logo_f</title><path class="cls-1" d="M72.16,250.77a2.15,2.15,0,0,1,1.95.74,2.71,2.71,0,0,1,.59,1.8,3.58,3.58,0,0,1-.63,1.88,1.85,1.85,0,0,1-1.62.88l-11.18,2.58,8.39,37.23a2.15,2.15,0,0,1-.4,2.06,3.05,3.05,0,0,1-1.69.92,3.54,3.54,0,0,1-1.95-.18,1.77,1.77,0,0,1-1.18-1.25L55.61,259.9,45,262.32a2.14,2.14,0,0,1-2.06-.4,2.84,2.84,0,0,1-.88-1.69,3.78,3.78,0,0,1,.22-1.95,1.76,1.76,0,0,1,1.18-1.18Z" transform="translate(-25.18 -25.06)"/><path class="cls-1" d="M97.63,298.08a78,78,0,0,0,.55-10,22.91,22.91,0,0,0-.74-5.78,5.13,5.13,0,0,0-1.55-2.69,3.62,3.62,0,0,0-1.8-.74,6.72,6.72,0,0,0-2.87.33,7.18,7.18,0,0,0-2.5,1.47A8.71,8.71,0,0,0,86.89,283a7.54,7.54,0,0,0-.88,2.91l-.74,10.37a2.73,2.73,0,0,1-1,1.88,3.22,3.22,0,0,1-1.91.74,2.8,2.8,0,0,1-1.88-.63,3,3,0,0,1-1-2.21l3.38-40.61a2,2,0,0,1,1-1.88,3.08,3.08,0,0,1,1.91-.33,3.84,3.84,0,0,1,1.8.77,1.67,1.67,0,0,1,.74,1.51l-1.55,19.72a14.64,14.64,0,0,1,3.64-1.58,11.88,11.88,0,0,1,4.08-.4,8.9,8.9,0,0,1,5.81,2.28,10.75,10.75,0,0,1,2.76,5.3,31.09,31.09,0,0,1,.66,7.76q-.11,4.45-.55,9.68a2.13,2.13,0,0,1-1.07,1.8,3.08,3.08,0,0,1-1.91.33,3.66,3.66,0,0,1-1.8-.81A1.75,1.75,0,0,1,97.63,298.08Z" transform="translate(-25.18 -25.06)"/><path class="cls-1" d="M111.1,272.7a2.25,2.25,0,0,1,1.44-1.62,3.74,3.74,0,0,1,2.13-.11,3.91,3.91,0,0,1,1.8,1,1.43,1.43,0,0,1,.44,1.58l-2.28,20.9a2.1,2.1,0,0,1-1.07,1.84,3.12,3.12,0,0,1-1.95.26,3.71,3.71,0,0,1-1.8-.85,1.77,1.77,0,0,1-.7-1.54Zm.66-7.58a3.28,3.28,0,0,1,1.14-2.24,2.84,2.84,0,0,1,2.39-.63,3.42,3.42,0,0,1,2.28,1.14,3,3,0,0,1,.74,2.39,3.41,3.41,0,0,1-1.25,2.28,3.23,3.23,0,0,1-2.43.66,3.09,3.09,0,0,1-2.21-1.18A3.22,3.22,0,0,1,111.76,265.12Z" transform="translate(-25.18 -25.06)"/><path class="cls-1" d="M140.83,295.36a69.85,69.85,0,0,0,1-10,25.53,25.53,0,0,0-.52-5.85,5.06,5.06,0,0,0-1.4-2.76,3.9,3.9,0,0,0-1.77-.85,6.24,6.24,0,0,0-2.94.26,8.78,8.78,0,0,0-2.58,1.4,7.5,7.5,0,0,0-1.91,2.21,7.91,7.91,0,0,0-1,2.83L128.47,293a2.78,2.78,0,0,1-1.14,1.77,3.23,3.23,0,0,1-1.91.66,2.69,2.69,0,0,1-1.8-.7,3,3,0,0,1-.88-2.24l2.87-22a2,2,0,0,1,1.07-1.77,3,3,0,0,1,1.91-.26,3.71,3.71,0,0,1,1.77.85,1.78,1.78,0,0,1,.7,1.54L131,272a12.06,12.06,0,0,1,3.68-1.47,11.21,11.21,0,0,1,4-.15,9.24,9.24,0,0,1,5.74,2.57,10.58,10.58,0,0,1,2.54,5.37,29.05,29.05,0,0,1,.26,7.73q-.37,4.41-1,9.64a2.09,2.09,0,0,1-1.07,1.84,2.87,2.87,0,0,1-1.91.22,4,4,0,0,1-1.77-.88A1.52,1.52,0,0,1,140.83,295.36Z" transform="translate(-25.18 -25.06)"/><path class="cls-1" d="M151.07,254.75a2.41,2.41,0,0,1,1.1-1.91,3.63,3.63,0,0,1,2.06-.55,3.54,3.54,0,0,1,1.91.59,1.51,1.51,0,0,1,.74,1.44L159.46,279l10.45-10.82a2.4,2.4,0,0,1,2.21-.22,3.75,3.75,0,0,1,1.66,1.36,3.93,3.93,0,0,1,.7,1.95,1.42,1.42,0,0,1-.74,1.47l-6.25,6.18,9.64,12.73a1.75,1.75,0,0,1,.22,1.66,3.87,3.87,0,0,1-1.07,1.73,3.45,3.45,0,0,1-1.84.92,2.2,2.2,0,0,1-2-.85l-9.2-12L160.12,286l1,8.39a2.1,2.1,0,0,1-.66,2,3.08,3.08,0,0,1-1.8.66,3.79,3.79,0,0,1-1.91-.44,1.61,1.61,0,0,1-1-1.29Z" transform="translate(-25.18 -25.06)"/><path class="cls-1" d="M186.76,255.78a5.48,5.48,0,0,1,.4-1,4.84,4.84,0,0,1,1-1.32,6.92,6.92,0,0,1,1.77-1.18,5.8,5.8,0,0,1,2.54-.51q1.18,0,3.09.15a25.88,25.88,0,0,1,8.35,2.13,13.2,13.2,0,0,1,3.83,2.54,10.46,10.46,0,0,1,2.54,3.9,11.56,11.56,0,0,1,.52,5.48,9.57,9.57,0,0,1-1,3.2,10,10,0,0,1-1.84,2.54,13.7,13.7,0,0,1-2.46,1.95,15.1,15.1,0,0,1-2.76,1.36,17.51,17.51,0,0,1,3,2.58,15.33,15.33,0,0,1,2.28,3.2,12.91,12.91,0,0,1,1.29,3.68,10.65,10.65,0,0,1,0,3.94q-1.47,7.14-7.28,9.23t-16.33-.11l-2-.4a3.74,3.74,0,0,1-1.62-.7,2.76,2.76,0,0,1-.92-1.62,9.08,9.08,0,0,1,0-3.16Zm17.07,31a6.85,6.85,0,0,0-.92-4.52,10.2,10.2,0,0,0-3.35-3.27,18.88,18.88,0,0,0-4.89-2.1,29.12,29.12,0,0,0-5.63-1l-2.28,16.19a24.81,24.81,0,0,0,5,1.21,17.11,17.11,0,0,0,5.37,0,9.51,9.51,0,0,0,4.41-2A6.53,6.53,0,0,0,203.83,286.82Zm1.77-21.48a4.35,4.35,0,0,0-.66-2.91,8.16,8.16,0,0,0-2.72-2.69,15.1,15.1,0,0,0-4.49-1.84,19.29,19.29,0,0,0-6-.44l-1.91,13a36,36,0,0,0,4.49.7,17.56,17.56,0,0,0,5-.18,10,10,0,0,0,4.16-1.73A5.56,5.56,0,0,0,205.6,265.34Z" transform="translate(-25.18 -25.06)"/><path class="cls-1" d="M216.42,290.5a13.08,13.08,0,0,1-1.8-4.86,13.87,13.87,0,0,1,.11-5,12.89,12.89,0,0,1,1.95-4.6,11.92,11.92,0,0,1,3.72-3.53,12.62,12.62,0,0,1,9.79-1.51,13.86,13.86,0,0,1,4.56,2.13,12.75,12.75,0,0,1,3.53,3.79,13.72,13.72,0,0,1,1.77,9.93,12.89,12.89,0,0,1-1.95,4.64,11.9,11.9,0,0,1-3.72,3.53,12.14,12.14,0,0,1-4.82,1.73,13.21,13.21,0,0,1-5-.29,13.76,13.76,0,0,1-4.6-2.13A12.71,12.71,0,0,1,216.42,290.5Zm4.64-2.8a7.58,7.58,0,0,0,2,2.21,7.77,7.77,0,0,0,5.56,1.43,6.68,6.68,0,0,0,4.86-3.05,8.38,8.38,0,0,0,1.14-2.69,7.24,7.24,0,0,0,.07-2.91,8,8,0,0,0-1.07-2.8,7.59,7.59,0,0,0-2-2.21,7.22,7.22,0,0,0-2.65-1.21,8.29,8.29,0,0,0-2.91-.15,6.42,6.42,0,0,0-2.72,1,6.76,6.76,0,0,0-2.13,2,8,8,0,0,0-1.14,2.65,7.22,7.22,0,0,0-.07,2.91A7.92,7.92,0,0,0,221.06,287.71Z" transform="translate(-25.18 -25.06)"/><path class="cls-1" d="M257.63,284l4.93,10.45a2.09,2.09,0,0,1,0,2.06A2.94,2.94,0,0,1,261,297.6a3.77,3.77,0,0,1-1.95.15,1.55,1.55,0,0,1-1.29-1l-4.41-8.83-7.21,6.7a1.59,1.59,0,0,1-1.58.48,3.87,3.87,0,0,1-1.77-.81,3,3,0,0,1-1-1.58,2.1,2.1,0,0,1,.7-2l8.31-8-5.15-10.52a2.18,2.18,0,0,1,.55-2.06,3.29,3.29,0,0,1,1.88-.88,4.06,4.06,0,0,1,2.1.26,1.87,1.87,0,0,1,1.21,1.29l3.68,7.8,6.25-5.89a1.83,1.83,0,0,1,1.58-.85,4.11,4.11,0,0,1,2.06.48,3.3,3.3,0,0,1,1.47,1.47,2.1,2.1,0,0,1-.26,2.13Z" transform="translate(-25.18 -25.06)"/><ellipse class="cls-2" cx="115.8" cy="263.2" rx="6.23" ry="5.88" transform="translate(-39.95 -18.05) rotate(-3.26)"/><path class="cls-3" d="M63.2,338.91l-.25,0-.25,0a5.19,5.19,0,0,1-2.4-1,6.77,6.77,0,0,1-1.89-2.16,7.51,7.51,0,0,1-.75-1.51,17.24,17.24,0,0,1-.54-1.78,14.75,14.75,0,0,1-.34-2.11q-.1-1.12-.14-2.31a27,27,0,0,1,.41-4.81,17.71,17.71,0,0,1,1.19-4,9.34,9.34,0,0,1,2-2.92,3.86,3.86,0,0,1,2.36-1.16,2.81,2.81,0,0,1,1.87.48,3.2,3.2,0,0,1,.8.61,7.9,7.9,0,0,1,.7.85,14.66,14.66,0,0,1,1.84,5.47,1.19,1.19,0,0,1-.22.88,1.22,1.22,0,0,1-.76.51,1.19,1.19,0,0,1-.88-.22,1.1,1.1,0,0,1-.48-.76,12.63,12.63,0,0,0-1.26-4.2q-.78-1.31-1.43-1.24a2,2,0,0,0-1,.63,6.54,6.54,0,0,0-1.28,2,16,16,0,0,0-1,3.59A24.61,24.61,0,0,0,59,328a16.05,16.05,0,0,0,.49,4.18,10.23,10.23,0,0,0,.93,2.35,3.41,3.41,0,0,0,2.52,2,2.33,2.33,0,0,0,2-.75,5,5,0,0,0,1.28-2.45,1.25,1.25,0,0,1,1.46-.88,1.23,1.23,0,0,1,.73.54,1.15,1.15,0,0,1,.15.88A8.81,8.81,0,0,1,67.7,336a6.31,6.31,0,0,1-1.34,1.67A4.74,4.74,0,0,1,63.2,338.91Z" transform="translate(-25.18 -25.06)"/><path class="cls-3" d="M73.2,338.94l0,0a1.08,1.08,0,0,1-.82-.36,1.05,1.05,0,0,1-.31-.83q0-1.22.07-2.45t.07-2.41q.17-4.35.27-8.84t-.17-9.35a1.05,1.05,0,0,1,.31-.83,1.22,1.22,0,0,1,.82-.39,1.13,1.13,0,0,1,.87.29,1.19,1.19,0,0,1,.39.83q.17,3.23.17,6.27t-.07,6a8.14,8.14,0,0,1,1.16-1.5,3.72,3.72,0,0,1,1.41-.92,4,4,0,0,1,1.14-.2,4.49,4.49,0,0,1,1.05.24,3,3,0,0,1,1.22.88,7.72,7.72,0,0,1,1.5,2.62,29.16,29.16,0,0,1,1.33,9.45,1.07,1.07,0,0,1-.32.87,1.14,1.14,0,0,1-.83.36h0a1.09,1.09,0,0,1-.82-.36,1.17,1.17,0,0,1-.34-.83,36.62,36.62,0,0,0-.44-5.56,21.51,21.51,0,0,0-.75-3.11,6,6,0,0,0-.92-1.68q-.44-.49-.71-.49a1.69,1.69,0,0,0-.85.49,6,6,0,0,0-1.26,2,17.91,17.91,0,0,0-1.22,3.82,37,37,0,0,0-.68,4.88,1.19,1.19,0,0,1-.37.8A1.15,1.15,0,0,1,73.2,338.94Z" transform="translate(-25.18 -25.06)"/><path class="cls-3" d="M87.78,320.89a1.13,1.13,0,0,1,.85.36,1.17,1.17,0,0,1,.34.83q-.07,2.48-.08,4.59t-.05,4.11q0,1.63-.07,3.33t-.07,3.64a1.09,1.09,0,0,1-.36.82,1.17,1.17,0,0,1-.83.34,1.13,1.13,0,0,1-.85-.36,1.17,1.17,0,0,1-.34-.83q0-1.94.07-3.66t.07-3.35q0-2,.07-4.1t.07-4.57a1.14,1.14,0,0,1,.36-.83A1,1,0,0,1,87.78,320.89Zm.07-3.33a1.1,1.1,0,0,1-1.12-1.12,1.14,1.14,0,0,1,.32-.82,1.11,1.11,0,0,1,1.6,0,1.14,1.14,0,0,1,.32.82,1.1,1.1,0,0,1-1.12,1.12Z" transform="translate(-25.18 -25.06)"/><path class="cls-3" d="M96.18,338.91q-.71,0-1.43,0t-1.39-.1a1.25,1.25,0,0,1-.78-.41,1.18,1.18,0,0,1-.31-.82q.1-3.09.2-6t.15-5.68q.05-2.8.07-5.63t0-5.85a1.19,1.19,0,0,1,2.38,0q0,2.89,0,5.61T95,325.42q-.05,2.67-.12,5.41t-.17,5.66a27,27,0,0,0,4-.1,1,1,0,0,1,.85.25,1.29,1.29,0,0,1,.44.83,1,1,0,0,1-.25.85,1.26,1.26,0,0,1-.8.44q-.71.07-1.43.1T96.18,338.91Z" transform="translate(-25.18 -25.06)"/><path class="cls-3" d="M110.7,313.41h.07a1.21,1.21,0,0,1,.82.39,1.06,1.06,0,0,1,.31.83q-.07,2.24-.12,5t-.07,5.71q0,3,0,6.1t.15,6.15a1.1,1.1,0,0,1-.31.87,1.22,1.22,0,0,1-.82.39,7.12,7.12,0,0,1-3.13-.54,6.94,6.94,0,0,1-2.48-1.67,9.41,9.41,0,0,1-1.63-2.41,9.67,9.67,0,0,1-.85-2.92,9.34,9.34,0,0,1,.07-3.18,8.69,8.69,0,0,1,1.09-2.84,7.63,7.63,0,0,1,2.31-2.46,9.39,9.39,0,0,1,3.26-1.38q0-.68,0-1.62t0-1.89q0-1,0-1.85t.05-1.51a1.16,1.16,0,0,1,1.16-1.16Zm-1.22,23q-.2-6.7-.1-12.48a5.89,5.89,0,0,0-2.29,1.21,6.24,6.24,0,0,0-1.41,1.77,6,6,0,0,0-.65,2,7.79,7.79,0,0,0,0,2.06,8.43,8.43,0,0,0,.48,1.8,6.68,6.68,0,0,0,.9,1.63,5.65,5.65,0,0,0,1.33,1.27A4.33,4.33,0,0,0,109.47,336.39Z" transform="translate(-25.18 -25.06)"/><path class="cls-3" d="M117,338.94h-.07a1.17,1.17,0,0,1-.8-.37,1.14,1.14,0,0,1-.32-.82q0-1.53,0-3t.07-3q.13-3.74.15-7.55a66.12,66.12,0,0,0-.43-7.72,1.08,1.08,0,0,1,.25-.88,1.27,1.27,0,0,1,.8-.44,1.08,1.08,0,0,1,.87.25,1.24,1.24,0,0,1,.46.8q.07.58.1,1.14t.1,1.14a6.13,6.13,0,0,1,.6-.87,5.1,5.1,0,0,1,.7-.7,6.25,6.25,0,0,1,4.32-1.46,1.14,1.14,0,0,1,.83.36,1,1,0,0,1,.32.83,1.22,1.22,0,0,1-1.19,1.19,4,4,0,0,0-2.69.8,5.52,5.52,0,0,0-1.6,2.77,20.74,20.74,0,0,0-.78,4.73q-.17,2.72-.31,6-.07,1.39-.12,2.81t-.15,2.91a1.22,1.22,0,0,1-.36.8A1.09,1.09,0,0,1,117,338.94Z" transform="translate(-25.18 -25.06)"/><path class="cls-3" d="M133.1,338.87a3.09,3.09,0,0,1-.54,0,5,5,0,0,1-2.41-.94,6.83,6.83,0,0,1-1.94-2.23,10.88,10.88,0,0,1-1.29-3.33,12.79,12.79,0,0,1-.37-2.16q-.1-1.14-.14-2.36a27.71,27.71,0,0,1,.39-4.74,16.49,16.49,0,0,1,1.17-4,8.91,8.91,0,0,1,1.9-2.87,3.66,3.66,0,0,1,2.35-1.11,3.15,3.15,0,0,1,2,.51,5.45,5.45,0,0,1,1.53,1.67,16.11,16.11,0,0,1,1.94,6.15,1.15,1.15,0,0,1-.27,1,1.06,1.06,0,0,1-.85.41l-7.65.31q-.07.68-.1,1.34t0,1.38a20,20,0,0,0,.39,3.77,9.29,9.29,0,0,0,1.07,2.89,3.66,3.66,0,0,0,2.58,2,2.45,2.45,0,0,0,2.06-.77,4.93,4.93,0,0,0,1.31-2.5,1.15,1.15,0,0,1,.53-.75,1.07,1.07,0,0,1,.9-.14,1.15,1.15,0,0,1,.75.53,1.06,1.06,0,0,1,.14.9,7.59,7.59,0,0,1-.85,2.21,6.62,6.62,0,0,1-1.36,1.67A4.79,4.79,0,0,1,133.1,338.87Zm-.68-21.42h0a2.26,2.26,0,0,0-1,.63,5.93,5.93,0,0,0-1.22,2,9.16,9.16,0,0,0-.48,1.26q-.2.68-.37,1.43l5.81-.24a14.35,14.35,0,0,0-.68-2.53,8.79,8.79,0,0,0-.68-1.41,6,6,0,0,0-.56-.7A1,1,0,0,0,132.42,317.45Z" transform="translate(-25.18 -25.06)"/><path class="cls-3" d="M151.8,338.94h0a1.24,1.24,0,0,1-.85-.39,1.1,1.1,0,0,1-.31-.87q.07-1.8.07-3.25t0-3.28q0-1.84-.14-3.74-.17-2.24-.39-4a20.21,20.21,0,0,0-.59-3,6.35,6.35,0,0,0-.82-2c-.27-.35-.46-.54-.58-.56l-.08,0a.5.5,0,0,0-.15.12,3.07,3.07,0,0,0-.53.7,7.85,7.85,0,0,0-.68,1.7,29.2,29.2,0,0,0-.71,3.13q-.36,2-.63,4.95-.17,1.73-.25,3.33T145,334.6q0,1.24-.08,2.74a1.17,1.17,0,0,1-.34.83,1.09,1.09,0,0,1-.82.36h0a1.11,1.11,0,0,1-.82-.34,1.24,1.24,0,0,1-.37-.82l-.54-21a1,1,0,0,1,.32-.83,1.28,1.28,0,0,1,.83-.39,1.17,1.17,0,0,1,.83.34,1.21,1.21,0,0,1,.39.82l.1,3.4a7.72,7.72,0,0,1,1.87-3.5,2.74,2.74,0,0,1,1.12-.65,2.36,2.36,0,0,1,1-.07,3.13,3.13,0,0,1,1.11.34,3.23,3.23,0,0,1,1.21,1.19,10.35,10.35,0,0,1,1.16,2.79,26.68,26.68,0,0,1,.63,3.26q.25,1.87.42,4.22.13,2,.17,3.83t0,3.32q0,1.46-.05,2.38c0,.61,0,.94,0,1a1.24,1.24,0,0,1-.37.82A1.11,1.11,0,0,1,151.8,338.94Z" transform="translate(-25.18 -25.06)"/><path class="cls-3" d="M157.92,317.59a1.12,1.12,0,0,1,.85.36,1.17,1.17,0,0,1,.34.83q0,1.46-.05,2.09c0,.42,0,.7,0,.85s0,.23,0,.24,0,.1,0,.27,0,.48,0,.94,0,1.2,0,2.24a1.08,1.08,0,0,1-.36.82,1.17,1.17,0,0,1-.83.34,1.13,1.13,0,0,1-.85-.36,1.17,1.17,0,0,1-.34-.83q0-1.53,0-2.23c0-.46,0-.78,0-1a1,1,0,0,1,0-.27.82.82,0,0,0,0-.24q0-.22,0-.85t0-2.09a1.14,1.14,0,0,1,.36-.83A1,1,0,0,1,157.92,317.59Z" transform="translate(-25.18 -25.06)"/><path class="cls-3" d="M167.68,338.94a5.08,5.08,0,0,1-1.87-.37,4.93,4.93,0,0,1-2.11-1.63,5.91,5.91,0,0,1-1.12-2.89,1.1,1.1,0,0,1,.24-.87,1.2,1.2,0,0,1,.82-.46,1,1,0,0,1,.85.25,1.27,1.27,0,0,1,.44.8,3,3,0,0,0,.76,1.85,3.43,3.43,0,0,0,1,.73,2.48,2.48,0,0,0,1.17.19,1.73,1.73,0,0,0,1-.36,1.63,1.63,0,0,0,.51-1.67,12.61,12.61,0,0,0-1.29-3.54q-1-2-2.14-4t-2.23-4.11a10.46,10.46,0,0,1-1.17-3.6,3.8,3.8,0,0,1,.22-1.94,3.35,3.35,0,0,1,1.14-1.46,3.88,3.88,0,0,1,1.94-.71,4,4,0,0,1,2.11.37,5.7,5.7,0,0,1,2.52,2.24,8.46,8.46,0,0,1,.85,1.85,11.26,11.26,0,0,1,.48,2.26,1.08,1.08,0,0,1-.25.87,1.24,1.24,0,0,1-.8.46,1.07,1.07,0,0,1-.87-.26,1.23,1.23,0,0,1-.46-.8,8.54,8.54,0,0,0-.44-2,6,6,0,0,0-.66-1.33,3.14,3.14,0,0,0-.71-.76,3.45,3.45,0,0,0-.59-.36,1.56,1.56,0,0,0-1.67.07,1.26,1.26,0,0,0-.44,1.22,10.21,10.21,0,0,0,1.09,3.08q.92,1.82,2,3.72,1.22,2.18,2.33,4.32a13.67,13.67,0,0,1,1.41,4,4.5,4.5,0,0,1-.17,2.28,4,4,0,0,1-1.19,1.67,4,4,0,0,1-2.21.85A2.36,2.36,0,0,1,167.68,338.94Z" transform="translate(-25.18 -25.06)"/><path class="cls-3" d="M190.77,338.91q-.71,0-1.43,0t-1.39-.1a1.25,1.25,0,0,1-.78-.41,1.18,1.18,0,0,1-.31-.82q.1-3.09.2-5.68t.15-5q.05-2.45.07-5t0-5.54a1.19,1.19,0,0,1,2.38,0q0,2.89,0,5.3t-.07,4.74q-.05,2.33-.12,4.76t-.17,5.36q.51,0,1.38,0l1.8,0,1.82,0a12.71,12.71,0,0,0,1.39-.08,1,1,0,0,1,.85.25,1.29,1.29,0,0,1,.44.83,1,1,0,0,1-.25.85,1.26,1.26,0,0,1-.8.44l-1.09.07-1.51.05-1.51,0Z" transform="translate(-25.18 -25.06)"/><path class="cls-3" d="M201.07,320.89a1.12,1.12,0,0,1,.85.36,1.17,1.17,0,0,1,.34.83q-.07,2.48-.08,4.59t-.05,4.11q0,1.63-.07,3.33t-.07,3.64a1.08,1.08,0,0,1-.36.82,1.17,1.17,0,0,1-.83.34,1.12,1.12,0,0,1-.85-.36,1.17,1.17,0,0,1-.34-.83q0-1.94.07-3.66t.07-3.35q0-2,.07-4.1t.07-4.57a1.14,1.14,0,0,1,.36-.83A1,1,0,0,1,201.07,320.89Zm.07-3.33a1.1,1.1,0,0,1-1.12-1.12,1.14,1.14,0,0,1,.32-.82,1.11,1.11,0,0,1,1.6,0,1.14,1.14,0,0,1,.32.82,1.1,1.1,0,0,1-1.12,1.12Z" transform="translate(-25.18 -25.06)"/><path class="cls-3" d="M206.85,313.41a1.16,1.16,0,0,1,1.16,1.16q0,.61.05,1.51t0,1.85q0,1,0,1.89t0,1.62a9.39,9.39,0,0,1,3.26,1.38,7.65,7.65,0,0,1,2.31,2.46,8.73,8.73,0,0,1,1.09,2.84,9.32,9.32,0,0,1,.07,3.18,9.67,9.67,0,0,1-.85,2.92,9.41,9.41,0,0,1-1.63,2.41,7.37,7.37,0,0,1-2.48,1.67,7.12,7.12,0,0,1-3.13.54,1.21,1.21,0,0,1-.82-.39,1.1,1.1,0,0,1-.31-.87q.1-3,.15-6.15t0-6.1q0-3-.07-5.71t-.12-5a1.05,1.05,0,0,1,.31-.83,1.21,1.21,0,0,1,.82-.39Zm1.22,23a4.33,4.33,0,0,0,1.75-.7,5.63,5.63,0,0,0,1.33-1.27,6.74,6.74,0,0,0,.9-1.63,8.54,8.54,0,0,0,.48-1.8,7.79,7.79,0,0,0,0-2.06,6,6,0,0,0-.65-2,6.26,6.26,0,0,0-1.41-1.77,5.9,5.9,0,0,0-2.29-1.21Q208.27,329.69,208.07,336.39Z" transform="translate(-25.18 -25.06)"/><path class="cls-3" d="M219.56,338.94h-.07a1.17,1.17,0,0,1-.8-.37,1.14,1.14,0,0,1-.32-.82q0-1.53,0-3t.07-3q.13-3.74.15-7.55a66.12,66.12,0,0,0-.43-7.72,1.08,1.08,0,0,1,.25-.88,1.27,1.27,0,0,1,.8-.44,1.08,1.08,0,0,1,.87.25,1.24,1.24,0,0,1,.46.8q.07.58.1,1.14t.1,1.14a6.13,6.13,0,0,1,.6-.87,5.1,5.1,0,0,1,.7-.7,6.25,6.25,0,0,1,4.32-1.46,1.14,1.14,0,0,1,.83.36,1,1,0,0,1,.32.83,1.22,1.22,0,0,1-1.19,1.19,4,4,0,0,0-2.69.8,5.52,5.52,0,0,0-1.6,2.77,20.74,20.74,0,0,0-.78,4.73q-.17,2.72-.31,6-.07,1.39-.12,2.81t-.15,2.91a1.22,1.22,0,0,1-.36.8A1.09,1.09,0,0,1,219.56,338.94Z" transform="translate(-25.18 -25.06)"/><path class="cls-3" d="M240,317.83a11.29,11.29,0,0,1,.9,4.9q0,3-.25,6.83-.14,1.87-.24,3.93t-.14,4.3a1.22,1.22,0,0,1-1.19,1.19,1.22,1.22,0,0,1-.78-.31,8,8,0,0,1-1.94.24,6.12,6.12,0,0,1-.8-.05l-.77-.12a5.24,5.24,0,0,1-3-2,5.48,5.48,0,0,1-.9-1.62,6.94,6.94,0,0,1-.39-1.89,6.75,6.75,0,0,1,.2-1.92,5.68,5.68,0,0,1,.75-1.72,5.8,5.8,0,0,1,3.06-2.35,7.19,7.19,0,0,1,1.85-.37,9.14,9.14,0,0,1,2.06.1q.17-2.75.1-4.83a8.78,8.78,0,0,0-.65-3.33,2.25,2.25,0,0,0-1.67-1.26,3.39,3.39,0,0,0-1.89.22,6.62,6.62,0,0,0-2,1.28,1.16,1.16,0,0,1-.85.32,1.24,1.24,0,0,1-.85-.39,1.1,1.1,0,0,1-.31-.85,1.18,1.18,0,0,1,.41-.82,8,8,0,0,1,3-1.84,6.25,6.25,0,0,1,3-.27,4.92,4.92,0,0,1,2,.92A4.6,4.6,0,0,1,240,317.83Zm-6.36,17.48q1.39,1.8,4.28,1,.07-1.87.15-3.6t.19-3.3v0a6.51,6.51,0,0,0-2.92.1,3.36,3.36,0,0,0-1.9,1.43,3.59,3.59,0,0,0-.58,2.23A3.76,3.76,0,0,0,233.67,335.3Z" transform="translate(-25.18 -25.06)"/><path class="cls-3" d="M246.12,338.94H246a1.17,1.17,0,0,1-.8-.37,1.14,1.14,0,0,1-.32-.82q0-1.53,0-3t.07-3q.14-3.74.15-7.55a66.33,66.33,0,0,0-.42-7.72,1.07,1.07,0,0,1,.25-.88,1.26,1.26,0,0,1,.8-.44,1.08,1.08,0,0,1,.87.25,1.25,1.25,0,0,1,.46.8q.07.58.1,1.14t.1,1.14a6,6,0,0,1,.59-.87,5.05,5.05,0,0,1,.7-.7,6.24,6.24,0,0,1,4.32-1.46,1.14,1.14,0,0,1,.83.36,1,1,0,0,1,.32.83,1.22,1.22,0,0,1-1.19,1.19,4,4,0,0,0-2.69.8,5.52,5.52,0,0,0-1.6,2.77,20.73,20.73,0,0,0-.78,4.73q-.17,2.72-.31,6-.07,1.39-.12,2.81t-.15,2.91a1.22,1.22,0,0,1-.36.8A1.09,1.09,0,0,1,246.12,338.94Z" transform="translate(-25.18 -25.06)"/><path class="cls-3" d="M266.14,315.14a1.14,1.14,0,0,1,.85,1.43q-.37,1.53-.71,3.06t-.71,3.06q-1.09,4.93-2.23,9.55t-2.63,9.21a1.09,1.09,0,0,1-1.12.85l-.19,0-.19-.05a1.22,1.22,0,0,1-.7-.6,1.08,1.08,0,0,1-.05-.9q.68-2.07,1.24-4.13l1.14-4.2h0q-.31-1.33-.68-2.79t-.78-3q-.65-2.41-1.28-4.86t-1.21-5a1.16,1.16,0,0,1,.17-.9,1.18,1.18,0,0,1,1.63-.37,1.23,1.23,0,0,1,.54.73q.58,2.52,1.19,4.95t1.22,4.81l.41,1.53.61-2.65q.31-1.33.61-2.69.37-1.53.71-3.08t.71-3.08a1.28,1.28,0,0,1,.56-.75A1.07,1.07,0,0,1,266.14,315.14Z" transform="translate(-25.18 -25.06)"/><path class="cls-4" d="M248.82,159.94a2.09,2.09,0,1,0,2.09,2.09A2.11,2.11,0,0,0,248.82,159.94Z" transform="translate(-25.18 -25.06)"/><path class="cls-4" d="M254.1,156.27a1.78,1.78,0,0,0,0,3.56A1.78,1.78,0,0,0,254.1,156.27Z" transform="translate(-25.18 -25.06)"/><path class="cls-2" d="M48.68,129.71c-2.62,0-2.62,4.06,0,4.06S51.29,129.71,48.68,129.71Z" transform="translate(-25.18 -25.06)"/><path class="cls-1" d="M283.82,157.75a24.53,24.53,0,0,0-4.76-10,22.3,22.3,0,0,0-2-2.13c-.36-.33-.72-.66-1.11-1l-.58-.45-.29-.23-.31-.21-.62-.42c-.21-.14-.45-.27-.68-.4l-.34-.2-.33-.18-.6-.3-.37-.18-.33-.14-.66-.28-.67-.28-.68-.25a29,29,0,0,0-5.7-1.46,30.13,30.13,0,0,0-6-.26,38.46,38.46,0,0,0-5.93.81c-.49.1-1,.21-1.46.33s-1,.23-1.45.38-1,.27-1.44.41l-1.4.43a60.65,60.65,0,0,1-11.07,2.5,53.78,53.78,0,0,1-11.61.16l-.38,0H223l-.17,0-.69-.09-.68-.11-.67-.13a14.26,14.26,0,0,1-2.55-.81A10.14,10.14,0,0,1,216,142l-.48-.4-.44-.42-.18-.2-.09-.1-.11-.13-.24-.31-.12-.15c-.06-.07,0,0,0-.07a7.28,7.28,0,0,1-1.28-4.62,16.55,16.55,0,0,1,1.31-5.42,45.59,45.59,0,0,1,2.73-5.47c1-1.82,2.18-3.65,3.28-5.6a56.16,56.16,0,0,0,5.09-12.67,61.49,61.49,0,0,0,1.92-13.66,68.07,68.07,0,0,0-5.09-27.34c-.86-2.19-1.91-4.31-3-6.41l-.86-1.55-.43-.77-.46-.76-.93-1.52-1-1.48-.5-.74-.52-.72L213.53,50c-.36-.47-.74-.93-1.11-1.4l-.56-.7c-.19-.23-.39-.45-.58-.68l-1.18-1.35c-.4-.44-.82-.87-1.23-1.3l-.62-.65c-.21-.22-.44-.42-.65-.64L206.28,42c-.44-.4-.87-.77-1.3-1.15l-.65-.57-.21-.18-.18-.14-.35-.28c-.47-.37-.94-.76-1.41-1.12l-1.46-1.07c-.24-.18-.49-.35-.74-.52l-.75-.5-.75-.5-.77-.47c-.52-.31-1-.63-1.54-.93l-1.58-.87a63.67,63.67,0,0,0-6.53-3c-.55-.23-1.12-.42-1.68-.63l-.84-.31-.85-.28c-.57-.18-1.14-.38-1.71-.55l-1.73-.5a72.84,72.84,0,0,0-28.39-1.95l-.89.11-.88.14c-.59.1-1.18.18-1.76.29l-1.75.34c-.58.11-1.16.26-1.74.38l-.87.2-.86.22c-.57.15-1.15.3-1.72.46l-1.71.52c-.57.16-1.13.38-1.69.56l-.84.29-.83.31c-.56.22-1.11.42-1.66.65l-1.67.71-.42.18-.39.18-.78.37-.78.37-.23.12-.2.1-.39.21-1.57.83c-.26.14-.53.27-.78.42l-.76.45-1.52.91a65.64,65.64,0,0,0-19.92,19.46l-1,1.45c-.31.49-.59,1-.89,1.48l-.88,1.49c-.27.51-.54,1-.8,1.52l-.8,1.52-.72,1.56-.72,1.56-.65,1.61-.65,1.61-.54,1.56-.54,1.55-.51,1.69a55.54,55.54,0,0,0-1.46,6.65,56.8,56.8,0,0,0-.47,13.4,62.64,62.64,0,0,0,2.47,12.87,71.28,71.28,0,0,0,4.77,11.85c1,1.88,2,3.69,3.06,5.47l.83,1.33.82,1.26.1.16.11.17.17.28c.11.18.23.37.34.55l.3.57c0,.09.1.19.15.28l.12.29a10.57,10.57,0,0,1,.95,4.77l0,.6-.09.6a5.88,5.88,0,0,1-.12.59,4.82,4.82,0,0,1-.15.58,10.39,10.39,0,0,1-.92,2.24c-.18.36-.41.7-.63,1s-.47.67-.75,1-.55.61-.83.9-.59.57-.92.82a14.22,14.22,0,0,1-4.25,2.39c-.39.12-.77.26-1.16.35s-.79.18-1.18.26c-.2,0-.4.06-.6.09s-.41.06-.59.07l-.55,0h-.66a20.65,20.65,0,0,1-4.87-.64c-.4-.11-.8-.2-1.19-.33l-1.17-.39-1.15-.46c-.38-.16-.75-.34-1.13-.51a34,34,0,0,1-4.27-2.46,41,41,0,0,1-3.89-3l-.46-.4-.44-.4c-.3-.27-.58-.52-.89-.82L76.1,135l-.88-.88a72.12,72.12,0,0,0-7.42-6.73c-.34-.25-.67-.5-1-.74l-.52-.36-.53-.34c-.34-.23-.73-.45-1.11-.67l-.53-.29-.51-.27-.18-.09-.15-.07-.3-.14-.6-.26-.6-.24-.61-.22a18.7,18.7,0,0,0-2.46-.65,20.08,20.08,0,0,0-9.64.48,19.17,19.17,0,0,0-2.21.82,18.14,18.14,0,0,0-2.06,1.09,17.13,17.13,0,0,0-1.89,1.34,16.16,16.16,0,0,0-1.66,1.58,15.11,15.11,0,0,0-2.52,3.72l-.2.43,0,.11-.08.19c0,.1-.08.2-.11.29-.14.38-.24.73-.34,1.08a15.82,15.82,0,0,0-.4,2.08,13,13,0,0,0,.1,4.25,7,7,0,0,0,.9,2.29,4.85,4.85,0,0,0,2.18,1.88l.34.13.4.11.21,0,.16,0,.21,0h.1l.27,0h.33a3.91,3.91,0,0,0,.64,0,6.76,6.76,0,0,0,2.2-.67,17,17,0,0,0,1.55-.9c.44-.28.84-.53,1.18-.7l.25-.12.23-.1.11,0,.09,0,.1,0h.16l.18,0h.65A5.26,5.26,0,0,1,52,143a7.57,7.57,0,0,1,.9.52l.21.15.18.14.24.19.06.05,0,0,.1.09a9.78,9.78,0,0,1,1.39,1.5,14.7,14.7,0,0,1,1.11,1.67c.33.57.63,1.14.9,1.71.54,1.13,1,2.22,1.37,3.21l.55,1.4.47,1.26.14.37-.14,0-.52-.1-1.14-.18-1.13-.13-1.16-.09c-.39,0-.78,0-1.18,0a31.05,31.05,0,0,0-4.89.31,33.35,33.35,0,0,0-5,1.14l-1.26.42-.63.23-.34.13L42,157l-.59.24-.64.28c-.44.19-.83.39-1.25.58a30.24,30.24,0,0,0-4.77,2.94,25.4,25.4,0,0,0-4.22,4c-.31.38-.62.77-.91,1.18l-.22.3,0,0-.06.08,0,.07-.09.14-.37.56a22.76,22.76,0,0,0-1.45,2.71A20.6,20.6,0,0,0,25.68,176l0,.38,0,.38c0,.26,0,.51-.05.77,0,.52,0,1,0,1.55s.08,1,.13,1.55.15,1,.28,1.53l.09.38,0,.19v0l0,.11,0,.08.2.65.05.17.07.2.15.39c.1.26.2.53.31.75l.33.71.37.68c.12.23.26.45.4.66s.27.44.43.65a17.44,17.44,0,0,0,2,2.35l.57.52.29.26.3.24.61.47.64.43a14.08,14.08,0,0,0,2.74,1.38,14.37,14.37,0,0,0,1.46.47l.75.16.37.07.1,0h.12l.16,0a13,13,0,0,0,5.92-.58,12,12,0,0,0,2.65-1.29,10.73,10.73,0,0,0,1.18-.88l.28-.24.07-.06.11-.1.1-.1.21-.21.05-.05.07-.07.13-.15.26-.3c.09-.1.15-.19.23-.29s.29-.38.42-.59.26-.4.37-.61.23-.41.33-.62a10.8,10.8,0,0,0,.89-2.62,10,10,0,0,0,.18-2.71,9.22,9.22,0,0,0-.58-2.6l-.09-.24-.15-.33-.19-.4a11.84,11.84,0,0,1,10.13,3.91,31.24,31.24,0,0,0-.33,6.48,33.81,33.81,0,0,0,2.6,11.16,37.14,37.14,0,0,0,6,9.76A38.17,38.17,0,0,0,78.14,218a40.62,40.62,0,0,0,10.37,4.58,45.45,45.45,0,0,0,21.74.69,48.31,48.31,0,0,0,13.67-5.2A22,22,0,0,0,125,230.16a18.63,18.63,0,0,0,12.82,11.33,11.82,11.82,0,0,0,2.63.31,7.26,7.26,0,0,0,4.85-1.64,8,8,0,0,0,2.43-6.49,25.17,25.17,0,0,0-.36-3.15c-.13-.81-.25-1.57-.29-2.31-.3-4.58,1.94-9.42,7-15.23.73-.83,1.5-1.68,2.25-2.5,3.06-3.35,6.2-6.81,8.25-11a39.31,39.31,0,0,0,10.84,11.63A47.64,47.64,0,0,0,202,218.85c1.23,0,2.46,0,3.7-.13,2-1.88,4.77-2.14,7.18-3.41,2.89-1.52,5.64-3.42,8.37-5.2a38.31,38.31,0,0,0,7.08-5.89,20.91,20.91,0,0,1,5.84-4.88,35.49,35.49,0,0,0,1.28-24.81l1.1,0c6.26,0,11.93-2.6,16.35-5.54a11.66,11.66,0,0,0,.22,3.11l.11.52c0,.17.1.34.15.51l.16.51.2.5.2.5.26.52.27.52.24.39a13.29,13.29,0,0,0,2.89,3.27,15.18,15.18,0,0,0,3.86,2.26,15.68,15.68,0,0,0,4.5,1l.63,0h1.15l.6,0c.4,0,.79-.1,1.19-.14l.59-.11.59-.13a17,17,0,0,0,2.31-.74,18.13,18.13,0,0,0,2.2-1.08,17.31,17.31,0,0,0,2-1.39c.33-.25.64-.53,1-.8l.46-.43.23-.22.23-.24.46-.49.37-.43.09-.11.13-.16.19-.26.39-.51c.26-.34.47-.71.71-1.07s.43-.75.64-1.12a19.73,19.73,0,0,0,1.78-4.89A24.12,24.12,0,0,0,283.82,157.75Z" transform="translate(-25.18 -25.06)"/><path class="cls-5" d="M170,222.84a1.75,1.75,0,0,0,0,3.49A1.75,1.75,0,0,0,170,222.84Z" transform="translate(-25.18 -25.06)"/><path class="cls-5" d="M176.15,228.19a1.1,1.1,0,1,0,1.1,1.1A1.11,1.11,0,0,0,176.15,228.19Z" transform="translate(-25.18 -25.06)"/><path class="cls-5" d="M214.32,228.11a1.83,1.83,0,0,0,0,3.66A1.83,1.83,0,0,0,214.32,228.11Z" transform="translate(-25.18 -25.06)"/><path class="cls-5" d="M220.47,223.84l-.09-.06a1.3,1.3,0,1,0,0,2.25l.09-.06a1.24,1.24,0,0,0,0-2.14Z" transform="translate(-25.18 -25.06)"/><path class="cls-5" d="M222.79,218.61l-.11,0a1.1,1.1,0,0,0,0,2.13l.11,0a1.14,1.14,0,1,0,0-2.2Z" transform="translate(-25.18 -25.06)"/><path class="cls-4" d="M244.51,165.85c-2.82,0-2.82,4.38,0,4.38S247.34,165.85,244.51,165.85Z" transform="translate(-25.18 -25.06)"/><path class="cls-4" d="M90.1,217.07a1.91,1.91,0,0,0,0,3.81A1.91,1.91,0,0,0,90.1,217.07Z" transform="translate(-25.18 -25.06)"/><path class="cls-4" d="M98.87,217.17c-2.54,0-2.54,3.94,0,3.94S101.41,217.17,98.87,217.17Z" transform="translate(-25.18 -25.06)"/><path class="cls-4" d="M106.83,216.19c-2.54,0-2.54,3.94,0,3.94S109.37,216.19,106.83,216.19Z" transform="translate(-25.18 -25.06)"/><path class="cls-4" d="M114.47,212.82a2.25,2.25,0,1,0,2.25,2.25A2.27,2.27,0,0,0,114.47,212.82Z" transform="translate(-25.18 -25.06)"/><path class="cls-4" d="M121.29,208.54c-2.78,0-2.78,4.31,0,4.31S124.07,208.54,121.29,208.54Z" transform="translate(-25.18 -25.06)"/><path class="cls-4" d="M127.46,203.44c-2.86,0-2.86,4.43,0,4.43S130.32,203.44,127.46,203.44Z" transform="translate(-25.18 -25.06)"/><path class="cls-4" d="M133,197a2.77,2.77,0,1,0,2.77,2.77A2.8,2.8,0,0,0,133,197Z" transform="translate(-25.18 -25.06)"/><path class="cls-4" d="M136.07,189.68a2.49,2.49,0,1,0,2.49,2.49A2.51,2.51,0,0,0,136.07,189.68Z" transform="translate(-25.18 -25.06)"/><path class="cls-6" d="M280.48,153.25c-2.49-4.92-7.87-6.39-11.84-9.77a18.09,18.09,0,0,0-2.69-.57,34.86,34.86,0,0,0-10.39.27c-6.93,1.16-13.73,3-20.68,4a43,43,0,0,1-18.13-1.09,7.91,7.91,0,0,1-5.33-3.86l-.19-.33a14,14,0,0,0,2.55,2.26c-4-3.47-4.61-9.62-3.16-14.72s4.53-9.55,7-14.26a61,61,0,0,0-.67-56.34,61,61,0,0,0-47.12-30.9c-12.4-1.13-25.52,1.92-34.9,10.11,2.62-2.29,12.05-1.8,15.43-1.91a77.48,77.48,0,0,1,17.17,1.29c15.31,2.94,27,11.52,35.92,24.14,11.24,16,10.84,37.28,2.69,54.49-6.29,13.27-9.44,31.88,8.3,37.24,7,2.13,14.14,1.67,21.35,1,7.79-.7,15.2-2.86,22.78-4.65,7.34-1.74,18.21-1.48,20.65,7.42.68,2.48,1.28,5.42.63,8a2.35,2.35,0,0,0,2,2.94A22.12,22.12,0,0,0,280.48,153.25Z" transform="translate(-25.18 -25.06)"/><path class="cls-7" d="M100.74,109.22c-2.64-7.2-3-15.08-2.09-22.69,1.89-16,9.43-31.37,21.46-42.06s28.54-16.4,44.54-14.63c-15.36,3.6-30,11.37-40.28,23.34a63.39,63.39,0,0,0-13.58,29,52.52,52.52,0,0,0-.27,18c1.58,10.29,8.75,21.65,5.81,32.13-1.62,5.78-6.12,11.05-12,12.13,5.25-3.71,6-11.38,4.22-17.55S103,115.25,100.74,109.22Z" transform="translate(-25.18 -25.06)"/><path class="cls-8" d="M121.12,156.47a17,17,0,0,1,16-1.8,21.55,21.55,0,0,0-13.71,8.57c-7.52,10.46-4.55,25.91-12.12,36.33a21.28,21.28,0,0,1-30,4.44,1.79,1.79,0,0,1-.78-1,1.3,1.3,0,0,1,.88-1.35,4.51,4.51,0,0,1,1.73-.18,15.67,15.67,0,0,0,11.25-4.69c1.27-1.3,2.29-2.82,3.5-4.18,1.79-2,4-3.68,5.75-5.7,3.94-4.43,5.82-10.26,7.93-15.81S116.28,159.91,121.12,156.47Z" transform="translate(-25.18 -25.06)"/><path class="cls-9" d="M71.64,168.23l-.2-.27-.24-.33-.16-.21-.17-.21-.39-.48c-.15-.18-.33-.37-.52-.58s-.41-.42-.64-.66-.49-.46-.76-.71a21.51,21.51,0,0,0-4.37-3,22.1,22.1,0,0,0-3-1.28c-.27-.09-.55-.19-.83-.27s-.57-.17-.86-.24L59,159.9l-.22-.05h-.08l-.12,0-.5-.1-.49-.09-.92-.13-1-.1-1-.07-1,0a27.06,27.06,0,0,0-4.25.32,30,30,0,0,0-4.41,1l-1.11.37-.55.21-.25.09-.29.12-.58.24-.53.23c-.35.15-.72.34-1.07.51A24,24,0,0,0,33,168.32c-.26.32-.52.63-.75,1l-.18.25,0,0s0,0,0,0l0,.07-.09.14-.37.56a19.33,19.33,0,0,0-1.13,2.12,16.54,16.54,0,0,0-1.32,4.7l0,.3,0,.3c0,.2,0,.4,0,.6,0,.4,0,.81,0,1.21s.06.8.09,1.19.11.79.21,1.17l.07.29,0,.14v0l0,.08.2.65c0,.05,0,.11,0,.16l0,.13.1.25a5.22,5.22,0,0,0,.21.51l.24.53.28.52a5.42,5.42,0,0,0,.3.5c.11.16.2.33.32.49A13.45,13.45,0,0,0,32.66,188l.42.39.21.19.22.18.45.35.47.32a10.1,10.1,0,0,0,2,1,10.4,10.4,0,0,0,1,.34l.53.11.26.06s.07,0,0,0h.12l.16,0a9.23,9.23,0,0,0,4.14-.36,8.09,8.09,0,0,0,1.8-.85,6.87,6.87,0,0,0,.77-.57l.18-.15,0,0,0,0,0,0,.11-.1.21-.21.05-.05,0,0,.06-.08a4.11,4.11,0,0,0,.27-.32,4.36,4.36,0,0,0,.27-.37,4.49,4.49,0,0,0,.25-.39c.08-.13.16-.26.22-.4a7,7,0,0,0,.59-1.68,5.76,5.76,0,0,0-.19-3.23l-.09-.24-.07-.14a2.71,2.71,0,0,0-.15-.3c-.07-.11-.12-.22-.19-.32l-.21-.31a6.06,6.06,0,0,0-1-1,5.25,5.25,0,0,0-1.18-.72,4.53,4.53,0,0,0-1.21-.36l-.3,0H42.6a2,2,0,0,0-.28,0H42.1l-.38.06h-.09l0,0-.1,0-.1,0-.11,0-.25.08a5.26,5.26,0,0,0-1.67,1,5.94,5.94,0,0,0-1.07,1.24,5.25,5.25,0,0,0-.52,1.11l0,.12,0,.11-.05.2a2.3,2.3,0,0,0-.07.32c0,.18,0,.27,0,.27l0,.19a.94.94,0,0,1-1.83,0s0-.13-.09-.39a2.82,2.82,0,0,1-.08-.5l0-.32V182a5.6,5.6,0,0,1,.09-.88,6.38,6.38,0,0,1,.26-1,7.38,7.38,0,0,1,4-4.23l.43-.18a4.64,4.64,0,0,1,.51-.16l.27-.07.13,0,.1,0,.38-.07.1,0h.22l.25,0a4.86,4.86,0,0,1,.52,0l.52,0c.18,0,.35,0,.52.06a8,8,0,0,1,2.08.59A8.7,8.7,0,0,1,47.71,177a9.52,9.52,0,0,1,1.67,1.67l.35.5c.12.17.22.35.32.53a6.07,6.07,0,0,1,.31.6l.15.32.09.24a9,9,0,0,1,.56,2.53,9.76,9.76,0,0,1-.17,2.64,10.55,10.55,0,0,1-.87,2.56c-.09.21-.21.41-.32.61s-.24.4-.37.59-.27.38-.41.57-.3.38-.48.58l-.13.15-.06.07-.05.05-.21.21-.1.1-.1.1-.07.06-.27.24a10.47,10.47,0,0,1-1.15.86,11.73,11.73,0,0,1-2.59,1.26,12.72,12.72,0,0,1-5.8.56l-.16,0h-.12l-.09,0-.37-.07-.73-.16a14.13,14.13,0,0,1-1.43-.46,13.81,13.81,0,0,1-2.69-1.36l-.63-.42-.6-.46-.3-.23-.28-.25-.56-.51a17.17,17.17,0,0,1-2-2.31c-.15-.2-.28-.42-.42-.64s-.28-.43-.39-.65l-.37-.67-.33-.7c-.11-.22-.21-.48-.31-.74l-.15-.38-.07-.19-.05-.17-.2-.65,0-.08,0-.11v0l0-.19-.09-.37c-.13-.5-.19-1-.28-1.51s-.12-1-.13-1.53,0-1,0-1.53c0-.25,0-.51.05-.76l0-.38,0-.38a20.33,20.33,0,0,1,1.62-5.78,22.55,22.55,0,0,1,1.43-2.67l.37-.56.09-.14,0-.07.05-.08,0,0,.22-.3c.28-.4.59-.78.9-1.16A27.31,27.31,0,0,1,39,159c.41-.19.81-.4,1.24-.58l.63-.28.59-.24.29-.12.34-.13.62-.23,1.25-.41a33.13,33.13,0,0,1,5-1.13,30.79,30.79,0,0,1,4.84-.31c.39,0,.78,0,1.17,0l1.15.09,1.12.13,1.13.18.52.1.49.1.12,0h.06l.1,0,.26.07.51.13c.34.08.67.19,1,.29s.65.21,1,.32a25.71,25.71,0,0,1,3.48,1.52,24.05,24.05,0,0,1,5.06,3.55c.31.3.62.57.88.85s.52.53.74.79.43.48.61.71l.5.64.2.26.15.22.24.34.19.27a1.71,1.71,0,0,1-2.78,2Z" transform="translate(-25.18 -25.06)"/><path class="cls-10" d="M46.15,176.42a13.83,13.83,0,0,1,15.45,5" transform="translate(-25.18 -25.06)"/><path class="cls-5" d="M152.75,194.22a2.59,2.59,0,1,0,2.59,2.59A2.61,2.61,0,0,0,152.75,194.22Z" transform="translate(-25.18 -25.06)"/><path class="cls-5" d="M157.3,200.74a2.56,2.56,0,1,0,2.56,2.56A2.59,2.59,0,0,0,157.3,200.74Z" transform="translate(-25.18 -25.06)"/><path class="cls-5" d="M161.2,209a1.89,1.89,0,0,0,0,3.79A1.89,1.89,0,0,0,161.2,209Z" transform="translate(-25.18 -25.06)"/><path class="cls-5" d="M165.42,216.23a1.86,1.86,0,1,0,1.86,1.86A1.87,1.87,0,0,0,165.42,216.23Z" transform="translate(-25.18 -25.06)"/><path class="cls-5" d="M226.16,212a1.44,1.44,0,0,0-.75-.21,1.28,1.28,0,1,0,0,2.55,1.44,1.44,0,0,0,.75-.21A1.25,1.25,0,0,0,226.16,212Z" transform="translate(-25.18 -25.06)"/><path class="cls-5" d="M227.83,204.9a1.43,1.43,0,0,0-1.71-.22l-.16.08a1.46,1.46,0,1,0,2,2l.08-.16A1.43,1.43,0,0,0,227.83,204.9Z" transform="translate(-25.18 -25.06)"/><circle class="cls-11" cx="191.01" cy="168.5" r="3.17"/><path class="cls-12" d="M60.76,157.35l-.21-.38c-.16-.3-.37-.71-.62-1.26s-.53-1.23-.83-2l-.47-1.26-.55-1.4c-.39-1-.84-2.09-1.38-3.23-.27-.57-.57-1.15-.91-1.73a14.94,14.94,0,0,0-1.13-1.7,10,10,0,0,0-1.43-1.54l-.1-.09,0,0-.06-.05-.24-.19-.19-.14-.22-.15a7.82,7.82,0,0,0-.94-.54,5.52,5.52,0,0,0-2-.57h-.71l-.18,0h-.16l-.13,0-.1,0-.12,0-.25.11-.26.13c-.36.18-.75.44-1.2.71a16.85,16.85,0,0,1-1.53.88,6.51,6.51,0,0,1-2.12.65,3.68,3.68,0,0,1-.61,0h-.31l-.25,0h-.1l-.21,0-.15,0-.19,0-.37-.11-.32-.13a4.59,4.59,0,0,1-2.07-1.78,6.72,6.72,0,0,1-.86-2.2,12.71,12.71,0,0,1-.1-4.17,15.58,15.58,0,0,1,.4-2.05c.09-.35.2-.69.33-1.06,0-.09.07-.19.11-.28l.08-.18,0-.11.2-.43a14.85,14.85,0,0,1,2.47-3.66,15.9,15.9,0,0,1,1.63-1.55,16.85,16.85,0,0,1,1.86-1.32,17.83,17.83,0,0,1,2-1.07,18.9,18.9,0,0,1,2.18-.81,19.82,19.82,0,0,1,9.51-.48,18.43,18.43,0,0,1,2.42.64l.6.21.59.24.59.26.29.14.15.07.17.09.51.27.53.29c.37.22.76.44,1.1.66l.53.34.51.35c.35.23.68.49,1,.73a71.88,71.88,0,0,1,7.39,6.71c1.18,1.19,2.34,2.31,3.57,3.36a41.28,41.28,0,0,0,3.91,3,34.25,34.25,0,0,0,4.31,2.49c.38.17.75.36,1.14.52l1.16.46,1.18.4c.4.13.8.22,1.2.34a20.92,20.92,0,0,0,4.94.65h.66l.57,0c.18,0,.4,0,.6-.07s.41,0,.61-.09c.4-.08.81-.15,1.2-.26s.79-.23,1.19-.36A14.5,14.5,0,0,0,105,141.2c.33-.25.63-.55.94-.83s.59-.6.85-.92.51-.66.76-1,.46-.7.65-1.07a10.67,10.67,0,0,0,.94-2.29,5,5,0,0,0,.15-.6,6.13,6.13,0,0,0,.12-.61l.09-.61,0-.62a10.85,10.85,0,0,0-1-4.89l-.13-.3c0-.1-.1-.19-.15-.29l-.3-.58c-.11-.19-.23-.37-.35-.56l-.17-.28-.11-.17-.1-.16-.82-1.26-.83-1.33q-1.62-2.65-3-5.45a71,71,0,0,1-4.75-11.8,62.35,62.35,0,0,1-2.46-12.81,56.52,56.52,0,0,1,.47-13.33,55.24,55.24,0,0,1,1.45-6.62l.51-1.68.54-1.55L98.82,68l.64-1.6.65-1.6.72-1.55.72-1.55.8-1.52c.27-.51.53-1,.8-1.52l.87-1.48c.29-.49.58-1,.88-1.48l.95-1.44a65.38,65.38,0,0,1,19.83-19.37l1.52-.91.76-.45c.25-.15.52-.28.78-.42l1.56-.83.39-.21.2-.1.23-.11.78-.37.78-.37L133,31l.41-.18,1.66-.71c.55-.22,1.1-.43,1.66-.64l.83-.31.84-.29c.56-.19,1.12-.4,1.68-.56l1.7-.51c.57-.16,1.14-.31,1.71-.46l.86-.22.87-.2c.58-.13,1.15-.28,1.73-.38l1.74-.34c.58-.11,1.17-.19,1.75-.29l.88-.14.88-.11a72.56,72.56,0,0,1,28.27,1.94l1.72.49c.57.17,1.14.37,1.7.55l.85.28.84.31c.56.21,1.13.4,1.68.63a63.37,63.37,0,0,1,6.5,3l1.57.87c.52.3,1,.62,1.54.93l.76.47.75.5.75.5c.25.16.5.33.74.51l1.45,1.06c.48.36.94.75,1.41,1.12l.35.28.18.14.2.17.65.57c.43.38.87.75,1.3,1.15l1.31,1.26c.22.21.44.42.65.63l.62.65c.41.43.82.86,1.23,1.3l1.17,1.34c.19.23.39.45.58.68l.55.7c.37.46.74.93,1.11,1.39l1,1.43.52.72.49.74,1,1.47.92,1.51.46.76.43.77.86,1.54c1.08,2.09,2.12,4.2,3,6.39a67.79,67.79,0,0,1,5.07,27.23,61.21,61.21,0,0,1-1.91,13.6,55.89,55.89,0,0,1-5.07,12.6c-1.1,1.95-2.24,3.77-3.28,5.6a45.86,45.86,0,0,0-2.75,5.51,16.81,16.81,0,0,0-1.33,5.51,7.56,7.56,0,0,0,1.33,4.78c.07.09,0,0,.05.08l.12.15.24.31.11.13.1.1.19.21.45.44.49.41a10.41,10.41,0,0,0,2.26,1.31,14.54,14.54,0,0,0,2.6.82,20.59,20.59,0,0,0,2.79.41,54,54,0,0,0,11.67-.17A60.92,60.92,0,0,0,245.61,141l1.4-.43c.46-.14,1-.27,1.44-.41s1-.25,1.44-.37,1-.23,1.45-.33a38.19,38.19,0,0,1,5.89-.81,29.87,29.87,0,0,1,5.92.25,28.73,28.73,0,0,1,5.65,1.45l.68.24.66.28.66.28.33.14.36.18.6.3.32.18.34.2c.22.13.45.26.66.4l.61.41.3.21.29.22.58.45c.38.31.73.63,1.09,1a22.05,22.05,0,0,1,1.94,2.11,24.27,24.27,0,0,1,4.71,9.85,23.86,23.86,0,0,1,.1,10.45,19.47,19.47,0,0,1-1.76,4.83c-.21.37-.4.75-.63,1.11s-.45.72-.7,1.06l-.38.51-.19.25-.12.15-.09.11-.37.43-.45.48c-.15.16-.3.31-.45.45l-.45.43c-.31.27-.62.55-.95.79a17.06,17.06,0,0,1-2,1.37,17.88,17.88,0,0,1-2.16,1.07,16.74,16.74,0,0,1-2.27.73l-.58.13-.58.11c-.39,0-.78.12-1.17.14l-.59,0H266l-.62,0a15.43,15.43,0,0,1-4.43-1,14.93,14.93,0,0,1-3.79-2.23,13,13,0,0,1-2.84-3.21l-.24-.39-.26-.5-.26-.5-.2-.49-.19-.49L253,172c0-.17-.1-.33-.15-.5l-.11-.51a11.42,11.42,0,0,1-.11-4,11.25,11.25,0,0,1,3.44-6.57,9.76,9.76,0,0,1,3-1.91,8.79,8.79,0,0,1,3.38-.63,9.68,9.68,0,0,1,3.13.59l.7.28c.23.1.44.22.65.33a12,12,0,0,1,1.2.73c.19.12.36.27.54.4l.26.2.13.1.06.05.12.1.41.38.13.13.13.15.26.29a5.94,5.94,0,0,1,1.24,2.56,5.49,5.49,0,0,1-.12,2.64,5.94,5.94,0,0,1-1,2,6.22,6.22,0,0,1-1.44,1.32,5.23,5.23,0,0,1-1.57.72,4.31,4.31,0,0,1-1.54.14l-.35-.06-.17,0-.16-.05-.31-.11-.27-.14a2.94,2.94,0,0,1-.79-.63,1.73,1.73,0,0,1-.24-.3l-.17-.25c-.16-.32-.22-.48-.22-.48a.64.64,0,0,1,1-.74l.11.09.26.24a1.87,1.87,0,0,0,.79.36l.13,0h.28l.15,0a2.52,2.52,0,0,0,.69-.26,3.84,3.84,0,0,0,1.43-1.46,3.4,3.4,0,0,0,.4-1.09,2.58,2.58,0,0,0-.06-1.14,3,3,0,0,0-.63-1.13l-.11-.11-.05-.06a.43.43,0,0,0-.06-.07l-.41-.38s.08.07,0,0l0,0-.1-.07-.2-.15c-.13-.1-.26-.21-.4-.3a8.56,8.56,0,0,0-.86-.52c-.15-.07-.3-.16-.45-.23l-.47-.19a6.26,6.26,0,0,0-2-.38,5.82,5.82,0,0,0-4,1.64,7.8,7.8,0,0,0-2.35,4.56,8.09,8.09,0,0,0,1.2,5.53,9.53,9.53,0,0,0,2.09,2.36,11.44,11.44,0,0,0,2.88,1.68,11.94,11.94,0,0,0,3.38.77l.41,0h.93l.45,0c.3,0,.6-.08.9-.11l.45-.09.45-.1a13.73,13.73,0,0,0,6.56-3.85l.32-.34.37-.43.09-.11.05-.07.15-.2.3-.4c.2-.27.37-.57.56-.85s.33-.6.51-.89a15.89,15.89,0,0,0,1.42-4,20.28,20.28,0,0,0-.12-8.86,20.65,20.65,0,0,0-4-8.37,18.38,18.38,0,0,0-1.61-1.74c-.3-.26-.59-.53-.9-.78l-.47-.36-.24-.18-.25-.17-.49-.33c-.16-.11-.32-.19-.48-.29l-.24-.14-.26-.15-.6-.3-.24-.12-.29-.12-.58-.25-.58-.24-.6-.21a25,25,0,0,0-4.93-1.25,26.17,26.17,0,0,0-5.18-.2,34.47,34.47,0,0,0-5.31.75c-.45.1-.89.19-1.34.31s-.9.22-1.33.35-.87.24-1.33.38l-1.36.42a64.67,64.67,0,0,1-11.8,2.69,57.43,57.43,0,0,1-12.46.21,21,21,0,0,1-6.57-1.51,14.22,14.22,0,0,1-3.1-1.8l-.7-.59c-.22-.22-.44-.41-.67-.65l-.34-.37-.17-.19-.14-.17-.24-.31-.12-.15-.17-.24a10.93,10.93,0,0,1-1.62-3.41,12.3,12.3,0,0,1-.41-3.7,20.54,20.54,0,0,1,1.59-6.81,49.54,49.54,0,0,1,3-6c1.08-1.91,2.24-3.75,3.27-5.59a52.05,52.05,0,0,0,4.67-11.69,57.32,57.32,0,0,0,1.76-12.71,63.87,63.87,0,0,0-4.82-25.64c-.81-2.06-1.8-4-2.82-6l-.81-1.45-.41-.73-.44-.71-.87-1.42-.93-1.38-.46-.69-.49-.67-1-1.35-1-1.3-.52-.65c-.18-.22-.36-.42-.54-.63l-1.1-1.26c-.38-.41-.76-.81-1.15-1.21l-.57-.6c-.19-.2-.39-.38-.59-.57l-1.18-1.14c-.41-.38-.86-.76-1.29-1.14l-.65-.57-.13-.11-.16-.13-.32-.26c-.44-.34-.86-.7-1.3-1l-1.35-1c-.22-.17-.45-.32-.68-.48l-.69-.46-.69-.46-.71-.44c-.48-.29-.95-.59-1.43-.86l-1.46-.81a59.39,59.39,0,0,0-6.08-2.82c-.52-.22-1-.39-1.57-.59l-.79-.29-.8-.26c-.53-.17-1.06-.35-1.6-.52l-1.62-.46a68.58,68.58,0,0,0-26.71-1.82l-.83.1-.83.13c-.55.09-1.11.17-1.66.27l-1.65.32c-.55.1-1.09.24-1.64.36l-.82.19-.81.21c-.54.15-1.08.28-1.61.43l-1.6.48c-.54.15-1.05.35-1.58.53l-.79.27-.78.29-1.55.6-1.5.64-.38.16-.39.18-.78.37-.77.37-.15.08-.18.1-.37.19-1.46.78c-.24.13-.49.25-.73.4l-.71.42-1.42.85a59.72,59.72,0,0,0-10.33,8.14,62.75,62.75,0,0,0-8.3,10l-.89,1.35c-.29.46-.55.93-.83,1.39l-.82,1.39c-.26.47-.5,1-.75,1.43l-.75,1.43L104.43,65l-.68,1.46-.59,1.46-.59,1.46L102,70.9l-.54,1.55L101,73.93a51.31,51.31,0,0,0-1.35,6.14,52.56,52.56,0,0,0-.45,12.4,58.42,58.42,0,0,0,2.29,12A67.09,67.09,0,0,0,106,115.63c.9,1.77,1.86,3.5,2.88,5.18l.77,1.24.82,1.26.1.16.1.15.22.36c.15.24.3.47.44.72l.39.75c.06.13.13.25.19.38l.17.39a14.74,14.74,0,0,1,1.28,6.63l-.06.85-.12.84c0,.28-.11.55-.17.83a7.92,7.92,0,0,1-.21.82,14.52,14.52,0,0,1-1.27,3.07c-.26.49-.56.94-.86,1.4s-.64.89-1,1.29-.72.8-1.1,1.19-.78.74-1.2,1.06a18.32,18.32,0,0,1-5.49,3.06c-.5.16-1,.33-1.5.45s-1,.23-1.52.33c-.25.05-.51.07-.77.11s-.5.07-.78.08l-.81,0h-.72a24.66,24.66,0,0,1-5.88-.78c-.47-.13-.94-.25-1.4-.4l-1.36-.46-1.32-.53c-.44-.18-.86-.39-1.29-.59a38,38,0,0,1-4.79-2.78,45,45,0,0,1-4.24-3.28c-1.35-1.16-2.6-2.38-3.76-3.55a68.63,68.63,0,0,0-7-6.39c-.3-.22-.6-.45-.9-.65l-.45-.31-.46-.3c-.31-.21-.6-.37-.9-.55l-.49-.27-.51-.27-.43-.2-.46-.21-.47-.19-.48-.17a14.74,14.74,0,0,0-1.95-.52,16.13,16.13,0,0,0-7.75.37,15.24,15.24,0,0,0-1.75.64,14.22,14.22,0,0,0-1.61.85,13.23,13.23,0,0,0-1.45,1,12.29,12.29,0,0,0-1.26,1.19,11.27,11.27,0,0,0-1.87,2.74l-.2.43-.05.11c0,.05,0,0,0,0l-.06.16c-.09.22-.16.48-.23.73a12,12,0,0,0-.31,1.58,9.35,9.35,0,0,0,0,3,3.22,3.22,0,0,0,.37,1,1.24,1.24,0,0,0,.22.27s.08.05.11.09.07,0,.12.06l.07,0h.09l.21,0,.1,0c-.18,0,0,0,0,0h.1a.76.76,0,0,0,.2,0,3,3,0,0,0,1-.3,13.79,13.79,0,0,0,1.21-.7c.44-.27.91-.57,1.45-.85l.42-.2a4.73,4.73,0,0,1,.45-.19l.23-.09.25-.08.58-.14.11,0H48l.18,0h.09l.21,0h.71l.46,0a9,9,0,0,1,3.31.93,11.31,11.31,0,0,1,1.37.8l.31.22.32.25.26.21.06.05.09.08.14.12a13.49,13.49,0,0,1,1.89,2,18.39,18.39,0,0,1,1.37,2.08c.39.68.73,1.35,1,2,.6,1.27,1.06,2.43,1.45,3.45l.56,1.46.46,1.26c.28.75.53,1.36.74,1.83s.39.82.49,1l.2.37h0a1.71,1.71,0,0,1-3,1.65Z" transform="translate(-25.18 -25.06)"/><path class="cls-1" d="M177.06,167.77l.3,0,.37,0,.24,0h.31l.73,0,.85,0,1,.1c.34.06.72.12,1.1.21a16,16,0,0,1,5.21,2.22,17.37,17.37,0,0,1,2.73,2.19c.23.21.44.44.65.68l.16.18.08.09,0,0,0,0,0,0,.28.34.29.36.31.41c.21.27.4.55.59.82a24.06,24.06,0,0,1,2,3.63,29,29,0,0,1,1.49,4.15,33.38,33.38,0,0,1,.92,4.52c.05.36.1.76.14,1.16s.08.78.12,1.17c.07.78.13,1.56.19,2.33.12,1.55.22,3.11.41,4.63a25.45,25.45,0,0,0,.9,4.46l.08.27,0,.07v0h0l.05.14.21.58c.07.21.14.35.21.52l.21.49a18.12,18.12,0,0,0,2.37,3.82c.25.28.48.58.75.85l.39.41.41.39a16.18,16.18,0,0,0,3.63,2.62c.16.09.33.17.5.25l.5.24.52.21c.19.08.39.16.54.21l.49.16c.16.06.35.1.52.15s.35.1.53.14l.54.11a15.59,15.59,0,0,0,4.35.25,14.67,14.67,0,0,0,4.13-.93,13.87,13.87,0,0,0,1.86-.87l.06,0h0l.12-.08.24-.15.48-.3.38-.28c.13-.09.25-.17.38-.29a14.37,14.37,0,0,0,2.71-2.81,13.12,13.12,0,0,0,2.65-8.18c0-.23,0-.5,0-.74s-.06-.49-.09-.73a10.37,10.37,0,0,0-.31-1.35,6.21,6.21,0,0,0-.47-1.17,5.23,5.23,0,0,0-.62-1,2.22,2.22,0,0,0-.18-.21l-.09-.1,0-.05,0,0h0l0,0-.25-.23-.06-.05,0,0-.08-.06a3.16,3.16,0,0,0-.37-.26l-.42-.23a4.65,4.65,0,0,0-.86-.3,4.06,4.06,0,0,0-2.63.16l-.2.09-.16.1-.14.08-.11.08-.2.15-.1.08a.72.72,0,0,1-1-1l.23-.29.13-.16.18-.17.21-.2.26-.2a5.68,5.68,0,0,1,3.87-1,7.1,7.1,0,0,1,1.37.25c.23.07.47.15.71.25a6,6,0,0,1,.74.37l.2.12.1.06.07,0,.28.19,0,0h0l.07.06.08.07.16.14c.11.09.22.18.32.29a8.18,8.18,0,0,1,1.15,1.36,10,10,0,0,1,1.44,3.5c.06.32.12.65.16,1s.07.65.08,1a15.51,15.51,0,0,1-.07,2,17,17,0,0,1-3.2,8.24,17.8,17.8,0,0,1-3.36,3.5c-.15.13-.34.26-.52.39l-.54.38-.49.31-.24.15-.12.08-.08,0,0,0-.07,0a17.35,17.35,0,0,1-2.32,1.1,18.15,18.15,0,0,1-5.09,1.16,19.09,19.09,0,0,1-5.32-.29l-.66-.14c-.22,0-.44-.11-.66-.17s-.43-.11-.66-.19l-.68-.23c-.24-.08-.42-.15-.61-.23l-.62-.25-.62-.29c-.21-.09-.41-.19-.61-.31a19.71,19.71,0,0,1-4.42-3.17,20.53,20.53,0,0,1-3.41-4.21,21.32,21.32,0,0,1-1.27-2.38c-.09-.21-.18-.43-.27-.65s-.19-.44-.25-.63l-.21-.58-.05-.14,0-.08v0l0-.08-.1-.32a28.89,28.89,0,0,1-1-5.06c-.2-1.66-.3-3.26-.39-4.81,0-.78-.1-1.54-.15-2.28,0-.37-.06-.75-.1-1.1s-.07-.71-.12-1.09a30,30,0,0,0-.77-4.09,25.76,25.76,0,0,0-1.26-3.69,20.86,20.86,0,0,0-1.71-3.17c-.16-.24-.32-.48-.48-.69l-.24-.32c-.08-.11-.18-.23-.27-.34l-.28-.35,0,0h0l0,0-.07-.07-.13-.15c-.17-.2-.35-.4-.53-.58a18.47,18.47,0,0,0-2.2-1.95,19.35,19.35,0,0,0-2.19-1.38c-.36-.18-.7-.36-1-.49s-.66-.27-1-.39-.62-.2-.9-.29l-.81-.21-.71-.14-.57-.09-.24,0-.24,0-.37,0-.31,0a.87.87,0,0,1,0-1.74Z" transform="translate(-25.18 -25.06)"/><circle class="cls-13" cx="115.04" cy="60.91" r="8.53"/><circle class="cls-14" cx="116.49" cy="65.86" r="2.82"/><circle class="cls-13" cx="161.08" cy="60.91" r="8.53"/><circle class="cls-14" cx="158.8" cy="66.47" r="2.82"/><path class="cls-14" d="M109.41,214.48l-.78-65a139.72,139.72,0,0,1,16.69-.58,32.89,32.89,0,0,1,21.73,9.7l2.33,55.11c.62.2-5.79,1.33-14.94-.19C127,212.26,109.41,214.48,109.41,214.48Z" transform="translate(-25.18 -25.06)"/><path class="cls-15" d="M193.08,211.55l.78-65a139.7,139.7,0,0,0-16.69-.58,32.89,32.89,0,0,0-21.73,9.7l-2.33,55.11c-.62.2,5.79,1.33,14.94-.19C175.51,209.34,193.08,211.55,193.08,211.55Z" transform="translate(-25.18 -25.06)"/><path class="cls-16" d="M193.08,211.55l.48-65,.27.3h0c-3.43.05-6.85-.08-10.25-.17a55.23,55.23,0,0,0-10.12.35,33.11,33.11,0,0,0-9.63,3,33.66,33.66,0,0,0-4.37,2.59q-1,.74-2,1.56c-.32.27-.64.56-.95.84l-.45.44-.22.22-.1.11,0,.05a.24.24,0,0,0,0-.16s0-.06-.09-.22a.31.31,0,0,0-.3-.09.27.27,0,0,0-.12.07l.53.24-2.54,55.1-.07.09h0a.07.07,0,0,0,0-.06s0,0,0,0l0,0,.14,0,.3.07.61.11c.41.06.83.11,1.24.14.83.07,1.67.12,2.51.14q2.51.05,5-.14t5-.59a38.81,38.81,0,0,1,5-.37c3.36,0,6.71.14,10.05.38S189.75,211.15,193.08,211.55Zm0,0q-5-.59-10-1c-3.34-.23-6.7-.4-10-.35a38.75,38.75,0,0,0-5,.38c-1.65.28-3.32.49-5,.63s-3.35.2-5,.18c-.84,0-1.68,0-2.52-.12-.42,0-.84-.08-1.26-.13l-.63-.1-.31-.07-.16-.05a.3.3,0,0,1-.1-.06s-.06-.15,0-.16l.08-.05-.07.09,2.11-55.12.53.24a.35.35,0,0,1-.13.08.33.33,0,0,1-.32-.07c-.13-.16-.09-.18-.1-.22a.44.44,0,0,1,.09-.23l.06-.07.11-.13.23-.24.46-.46c.32-.3.64-.59,1-.87.66-.57,1.34-1.1,2-1.61a34.4,34.4,0,0,1,4.4-2.76,35.57,35.57,0,0,1,9.78-3.51,47,47,0,0,1,10.38-.63,66.08,66.08,0,0,1,10.26,1.08h0l.27,0v.27Z" transform="translate(-25.18 -25.06)"/><path class="cls-17" d="M143.15,178.6,119,184.45" transform="translate(-25.18 -25.06)"/><path class="cls-18" d="M105.87,210.77" transform="translate(-25.18 -25.06)"/><path class="cls-15" d="M116.46,219.93l-5-69.45c5.26-.22,7.31-.61,17.08,2.7,10.28,3.49,18.06,11.39,17.66,10.88l.75,56.26c.46.2-4.29,1.33-11.06-.19C130.32,218.88,116.46,219.93,116.46,219.93Z" transform="translate(-25.18 -25.06)"/><path class="cls-16" d="M116,220.44c-1.81-23.25-3.59-46.61-5.27-69.92l-.05-.7.7,0h0c1.59-.06,3.2-.18,4.84-.13a25.36,25.36,0,0,1,4.87.65,75.36,75.36,0,0,1,9.26,2.86,47.77,47.77,0,0,1,8.58,4.54q2,1.33,3.93,2.83,1,.75,1.88,1.53l.92.79.45.4.22.2a.57.57,0,0,1,.09.11l0,.06s0,0,0,0a.48.48,0,0,0-.21-.07c-.13-.44-.84,1.06-.49.76l0,0h0l.88-.31a3.63,3.63,0,0,0,0,3.52,5.4,5.4,0,0,1,.34,1.75q.06.88.06,1.76l.07,7,.17,14.06.33,28.13h0l-.41-.62a.79.79,0,0,1,.32.27.68.68,0,0,1,.11.32.74.74,0,0,1-.09.42.83.83,0,0,1-.15.19.63.63,0,0,1-.12.09,1.28,1.28,0,0,1-.22.11l-.3.1-.52.12c-.34.06-.67.11-1,.15-.66.07-1.32.12-2,.13a29.8,29.8,0,0,1-3.92-.18,38.22,38.22,0,0,1-3.85-.65,27.46,27.46,0,0,0-3.71-.43c-2.52-.14-5.07-.13-7.61-.07-1.27,0-2.55.08-3.82.14l-1.91.1-1,.06-.48,0-.24,0a1.63,1.63,0,0,1-.24,0A1.13,1.13,0,0,1,116,220.44Zm.89-1a.39.39,0,0,0-.25-.17c-.15,0,0,0,0,0l.24,0,.48,0,1-.06,1.92-.1c1.28-.06,2.57-.11,3.85-.14,2.57-.06,5.14-.07,7.73.08a28.68,28.68,0,0,1,3.91.46,36.81,36.81,0,0,0,3.72.63,28.44,28.44,0,0,0,3.74.18c.62,0,1.24-.05,1.85-.12.3,0,.61-.08.9-.13l.41-.09.16-.05s0,0,0,0l-.07.06a.52.52,0,0,0-.11.14.64.64,0,0,0-.08.39.72.72,0,0,0,.11.3.59.59,0,0,0,.28.23l-.41-.62h0l-.41-28.13-.21-14.06-.11-7q0-.88,0-1.76a5.4,5.4,0,0,1,.29-1.76,3.63,3.63,0,0,0-.12-3.52l-1.33-2.43,2.21,2.12h0l.05.06c.36-.3-.36,1.22-.49.78a.56.56,0,0,1-.23-.07l-.1-.05-.08,0a.66.66,0,0,1-.13-.09l-.22-.2-.45-.39L144,163q-.91-.76-1.85-1.49-1.88-1.45-3.87-2.74a46.53,46.53,0,0,0-8.38-4.36,75.13,75.13,0,0,0-9.08-2.75,24.55,24.55,0,0,0-4.63-.6c-1.55-.05-3.14.06-4.74.13h0l.65-.73C113.78,173.41,115.35,196.36,116.9,219.41Z" transform="translate(-25.18 -25.06)"/><path class="cls-15" d="M182.37,215.54l5-69.45c-5.26-.22-7.31-.61-17.08,2.7-10.28,3.49-18.06,11.39-17.66,10.88l-.75,56.26c-.46.2,4.29,1.33,11.06-.19C168.51,214.49,182.37,215.54,182.37,215.54Z" transform="translate(-25.18 -25.06)"/><path class="cls-16" d="M181.92,215c1.55-23.05,3.13-46,4.8-69l.65.73h0c-1.61-.06-3.19-.18-4.74-.13a24.55,24.55,0,0,0-4.63.6,75.13,75.13,0,0,0-9.08,2.75,46.53,46.53,0,0,0-8.38,4.36q-2,1.29-3.87,2.74-.94.72-1.85,1.49l-.9.77-.45.39-.22.2a.66.66,0,0,1-.13.09l-.08,0-.1.05a.56.56,0,0,1-.23.07c-.13.44-.84-1.07-.49-.78l.05-.06h0l2.21-2.11-1.33,2.43a3.63,3.63,0,0,0-.12,3.52,5.4,5.4,0,0,1,.29,1.76q0,.88,0,1.76l-.11,7L153,187.81l-.41,28.13h0l-.41.62a.59.59,0,0,0,.28-.23.72.72,0,0,0,.11-.3.64.64,0,0,0-.08-.39.52.52,0,0,0-.11-.14l-.07-.06s0,0,0,0l.16.05.41.09c.29.06.59.1.9.13.61.07,1.23.11,1.85.12a28.44,28.44,0,0,0,3.74-.18,36.81,36.81,0,0,0,3.72-.63,28.68,28.68,0,0,1,3.91-.46c2.59-.15,5.16-.14,7.73-.08,1.28,0,2.57.08,3.85.14l1.92.1,1,.06.48,0,.24,0s.15,0,0,0A.39.39,0,0,0,181.92,215Zm.89,1a1.13,1.13,0,0,1-.49.15,1.63,1.63,0,0,1-.24,0l-.24,0-.48,0-1-.06-1.91-.1c-1.27-.06-2.55-.11-3.82-.14-2.54-.06-5.09-.07-7.61.07a27.46,27.46,0,0,0-3.71.43,38.22,38.22,0,0,1-3.85.65,29.79,29.79,0,0,1-3.92.18c-.66,0-1.31-.06-2-.13-.33,0-.66-.09-1-.15l-.52-.12-.3-.1a1.28,1.28,0,0,1-.22-.11.63.63,0,0,1-.12-.09.83.83,0,0,1-.15-.19.74.74,0,0,1-.09-.42.68.68,0,0,1,.11-.32.79.79,0,0,1,.32-.27l-.41.62h0l.33-28.13.17-14.07.07-7q0-.88.06-1.76a5.4,5.4,0,0,1,.34-1.75,3.63,3.63,0,0,0,0-3.52l.88.31h0l0,0c.35.3-.36-1.2-.49-.76a.48.48,0,0,0-.21.07c-.05,0,0,0,0,0l0-.06a.57.57,0,0,1,.09-.11l.22-.2.45-.4.92-.79q.92-.78,1.88-1.53,1.91-1.49,3.93-2.83a47.77,47.77,0,0,1,8.58-4.54,75.36,75.36,0,0,1,9.26-2.86,25.36,25.36,0,0,1,4.87-.65c1.65-.05,3.25.06,4.84.13h0l.7,0-.05.7C186.4,169.45,184.62,192.81,182.81,216.06Z" transform="translate(-25.18 -25.06)"/><path class="cls-19" d="M193.69,219.14l.78-65s-13.78-1.36-18.63-1.16c-8.93.36-22.9,7-22.9,7l-.19,66.36c-.62.2,5.6-5.46,14.75-7C175,218.08,193.69,219.14,193.69,219.14Z" transform="translate(-25.18 -25.06)"/><rect class="cls-16" x="117.82" y="133.54" width="12.42" height="68.88" rx="3.39" ry="3.39"/><path class="cls-20" d="M103,220.17l-.78-65S116,153.8,120.84,154c8.93.36,22.9,7,22.9,7l.19,66.36c.42-2.57-5.53-6.2-14.44-.6C119.7,232.9,100.75,221.23,103,220.17Z" transform="translate(-25.18 -25.06)"/><path class="cls-15" d="M231,220.84l-20.2-48.28c3.14-1.27,4.28-2,11-1.68,7.1.31,13.76,4.28,13.39,4l14.34,39.81c.33,0-2.27,1.85-6.75,2.19C239.14,217.17,231,220.84,231,220.84Z" transform="translate(-25.18 -25.06)"/><path class="cls-16" d="M230.82,221.28l-20.46-48.54-.19-.44.45-.18h0c1-.39,2-.83,3-1.14a14.81,14.81,0,0,1,3.22-.56c1.08-.08,2.15-.07,3.22-.05s2.13.05,3.21.18a30,30,0,0,1,6.27,1.46q1.52.52,3,1.16.74.32,1.46.67l.72.36.36.18.18.09.08.06,0,0h0l-.08,0a.34.34,0,0,0-.22,0c-.39.46.08.67-.07.56h0l.53-.39a2.93,2.93,0,0,0,.85,2.51,8.7,8.7,0,0,1,1.12,2.41l1.78,5,3.57,10L250,214.54l-.38-.31h0a.49.49,0,0,1,.44.46.4.4,0,0,1,0,.14l0,.07a.58.58,0,0,1-.06.11.83.83,0,0,1-.12.14l-.16.14-.29.2c-.19.12-.38.22-.58.32a12.09,12.09,0,0,1-1.18.51,16.46,16.46,0,0,1-2.44.7,21.13,21.13,0,0,1-2.5.35,15,15,0,0,0-2.34.47c-1.56.43-3.11,1-4.64,1.55-.76.29-1.53.59-2.28.91l-1.13.47-.56.24-.28.12-.14.06-.15.06A.75.75,0,0,1,230.82,221.28Zm.35-.88a.29.29,0,0,0-.22-.05c-.11,0,0,0,0,0l.14-.06.28-.12.57-.25,1.14-.48c.76-.32,1.53-.62,2.31-.92,1.55-.59,3.11-1.14,4.73-1.58a15.89,15.89,0,0,1,2.5-.5,20.15,20.15,0,0,0,2.39-.33,15.52,15.52,0,0,0,2.3-.66,11.15,11.15,0,0,0,1.08-.47l.5-.28.22-.15.07-.06v0a.41.41,0,0,0,0,.08v.05a.59.59,0,0,0,0,.12.44.44,0,0,0,.38.42h0l-.38-.31-7.2-19.9-3.6-9.95-1.81-5a8.7,8.7,0,0,1-.67-2.57,2.93,2.93,0,0,0-.94-2.47l-1.72-1.67,2.25,1.28h0l0,0c-.15-.11.33.11-.06.57a.34.34,0,0,1-.23,0l-.13,0H235l-.1,0-.18-.09-.35-.18-.71-.34q-.71-.34-1.43-.65-1.45-.62-2.94-1.12a29.11,29.11,0,0,0-6.09-1.37,43.14,43.14,0,0,0-6.26-.09,14.12,14.12,0,0,0-3,.53c-1,.29-1.94.72-2.93,1.11h0l.26-.62Z" transform="translate(-25.18 -25.06)"/><path class="cls-15" d="M269.89,203.84,255.8,153.43c-3.25,1-4.59,1.11-9.69,5.52-5.38,4.65-8.14,11.89-8,11.45l13.43,40.13c-.23.24,2.93,0,6.66-2.47C261.23,206,269.89,203.84,269.89,203.84Z" transform="translate(-25.18 -25.06)"/><path class="cls-16" d="M269.48,203.6l-14.13-50,.59.33h0c-1,.3-2,.57-3,.94a14.12,14.12,0,0,0-2.7,1.45,43.14,43.14,0,0,0-4.86,4,29.12,29.12,0,0,0-3.93,4.86q-.86,1.31-1.61,2.7-.38.69-.72,1.4l-.34.71-.17.36-.08.18a.42.42,0,0,1-.06.09l0,0-.09.1a.34.34,0,0,1-.21.11c-.59-.12-.36-.59-.4-.41l0,0h0l1-2.4-.32,2.38a2.93,2.93,0,0,0,.79,2.52,8.7,8.7,0,0,1,1.07,2.43l1.67,5,3.34,10L252,210.37l-.11.48h0a.44.44,0,0,0,0-.57.59.59,0,0,0-.08-.09l0,0-.08,0h.07l.26,0,.57-.09a11.15,11.15,0,0,0,1.14-.3,15.52,15.52,0,0,0,2.21-.91,20.15,20.15,0,0,0,2.08-1.22,15.89,15.89,0,0,1,2.27-1.16c1.54-.65,3.11-1.19,4.69-1.69.79-.25,1.58-.49,2.38-.71l1.19-.33.6-.16.3-.08.15,0s.1,0,0,0A.29.29,0,0,0,269.48,203.6Zm.82.48a.75.75,0,0,1-.29.21l-.15,0-.15,0-.3.08-.59.16-1.18.33c-.79.22-1.57.46-2.35.7-1.56.49-3.11,1-4.6,1.66a15,15,0,0,0-2.13,1.08,21.13,21.13,0,0,1-2.18,1.27,16.46,16.46,0,0,1-2.35,1,12.09,12.09,0,0,1-1.24.33c-.21,0-.43.08-.65.1l-.35,0h-.22l-.18,0-.11-.05-.06,0a.4.4,0,0,1-.09-.1.49.49,0,0,1,.05-.63h0l-.11.48-6.74-20.05-3.37-10-1.69-5a8.7,8.7,0,0,1-.61-2.58,2.93,2.93,0,0,0-.89-2.49l.66,0h0v0c0,.18.19-.28-.4-.4a.34.34,0,0,0-.2.1l0,.06h0v0a.35.35,0,0,1,0-.09l.08-.18.17-.36.34-.73q.35-.72.73-1.43.76-1.41,1.63-2.77a30,30,0,0,1,4-5c.77-.77,1.59-1.45,2.41-2.13s1.66-1.35,2.56-2a14.81,14.81,0,0,1,2.87-1.56c1-.41,2.06-.67,3.07-1h0l.46-.13.13.46Z" transform="translate(-25.18 -25.06)"/><path class="cls-21" d="M277.64,204l-15.57-46.35s-8.69,1.94-11.59,3.1c-5.33,2.13-12.16,9.79-12.16,9.79l16.26,47.19c-.33.27,2-5.06,7.22-8.07C266,207.2,277.64,204,277.64,204Z" transform="translate(-25.18 -25.06)"/><rect class="cls-19" x="240.24" y="168.93" width="7.97" height="51.81" rx="2.05" ry="2.05" transform="translate(-75.59 65.87) rotate(-19.16)"/><path class="cls-21" d="M222.07,221.49l-15.71-43.7s8-3.82,11-4.71c5.5-1.64,15.53-.11,15.53-.11l15.67,44.74c-.35-1.82-4.81-3-8.9,2.63C235.19,226.56,221,222.68,222.07,221.49Z" transform="translate(-25.18 -25.06)"/><path class="cls-22" d="M115.93,211.77c-11.71,1.77-21-7.23-13.28-20.75-1,3.9,2.32,11.28,6,12.82,7.83,3.3,18.19-7.14,14.49-16.08A20,20,0,0,0,105,175.33c-6.79-.06-14.26,3.65-19,8.77-13.86,15-6.69,43.38,21.2,50.45a45.3,45.3,0,0,0,19.74.73" transform="translate(-25.18 -25.06)"/><path class="cls-23" d="M184.17,208.32c7.86,10.28,22,10.31,26.2-6.22-2.19,3.82-10.39,7.1-14.45,5.53-8.66-3.36-8.87-19.43.83-23.64a21.84,21.84,0,0,1,23.7,4c5.38,5.11,8.43,13.69,8.27,21.33-.46,22.28-27.69,39.17-55,23.54a49.51,49.51,0,0,1-16.07-14.42" transform="translate(-25.18 -25.06)"/><g class="cls-24"><path class="cls-25" d="M271,205.65a27.78,27.78,0,0,1-1,7.29,23.71,23.71,0,0,1-3.26,6.88,26.81,26.81,0,0,1-5.28,5.61,35.14,35.14,0,0,1-3.1,2.24c-1.09.64-2.18,1.3-3.3,1.84-.58.27-1.08.56-1.74.81a20,20,0,0,1-2,.71,17.23,17.23,0,0,1-4.14.63,19.8,19.8,0,0,1-7.83-1.49,36.69,36.69,0,0,1-12.06-8.45c4.67,1.43,9.06,3.32,13.36,4.18a20,20,0,0,0,6.19.38,13.38,13.38,0,0,0,2.84-.62c.47-.12.9-.36,1.35-.52s1-.49,1.47-.72a44.76,44.76,0,0,0,5.73-3.3,33.62,33.62,0,0,0,5-4.12,31.83,31.83,0,0,0,4.17-5.21C268.66,209.88,269.76,207.78,271,205.65Z" transform="translate(-25.18 -25.06)"/></g><g class="cls-24"><path class="cls-26" d="M83.93,215.31a25.7,25.7,0,0,1-2.2-5.91,25,25,0,0,1-.61-6.41A36.29,36.29,0,0,1,84,190.55l.64-1.45.32-.72.39-.75a14.63,14.63,0,0,1,.85-1.47,13.07,13.07,0,0,1,1-1.4,18.66,18.66,0,0,1,5-4.49,27.09,27.09,0,0,1,12.15-3.58c-3.6,2.13-7.26,3.92-10.08,6.43a19.94,19.94,0,0,0-3.62,4.12,29.54,29.54,0,0,0-2.49,5,60.3,60.3,0,0,0-3.55,11.1,38.72,38.72,0,0,0-.7,5.82C83.79,211.17,83.91,213.2,83.93,215.31Z" transform="translate(-25.18 -25.06)"/></g><path class="cls-2" d="M63.95,185.35a1.46,1.46,0,0,0,0,2.92A1.46,1.46,0,0,0,63.95,185.35Z" transform="translate(-25.18 -25.06)"/><path class="cls-2" d="M65.37,194.77a1.41,1.41,0,0,0-.19-.72,1.47,1.47,0,0,0-.69-.61,1.5,1.5,0,1,0-.3,2.77l.36-.15,0,0a1.41,1.41,0,0,0,.79-1.27Z" transform="translate(-25.18 -25.06)"/><path class="cls-2" d="M68.19,202.16a1.54,1.54,0,1,0-2.93.9v.07a1.5,1.5,0,0,0,2.5.66l.23-.3a1.49,1.49,0,0,0,.17-.46A1.55,1.55,0,0,0,68.19,202.16Z" transform="translate(-25.18 -25.06)"/><path class="cls-2" d="M71.58,207.76a1.63,1.63,0,0,0,0,3.27A1.63,1.63,0,0,0,71.58,207.76Z" transform="translate(-25.18 -25.06)"/><path class="cls-2" d="M77.59,212.19a1.75,1.75,0,0,0,0,3.49A1.75,1.75,0,0,0,77.59,212.19Z" transform="translate(-25.18 -25.06)"/><path class="cls-2" d="M50.73,130.18a1.61,1.61,0,0,0-1.56-.41l-.2.08a1.55,1.55,0,0,0-.64.39A1.62,1.62,0,0,0,49.47,133a1.8,1.8,0,0,0,.91-.25,1.63,1.63,0,0,0,.82-1.43A1.69,1.69,0,0,0,50.73,130.18Z" transform="translate(-25.18 -25.06)"/><path class="cls-2" d="M55.66,128.88a1.88,1.88,0,0,0,0,3.76A1.88,1.88,0,0,0,55.66,128.88Z" transform="translate(-25.18 -25.06)"/><path class="cls-2" d="M62.12,130.23a1.58,1.58,0,1,0,1.58,1.58A1.6,1.6,0,0,0,62.12,130.23Z" transform="translate(-25.18 -25.06)"/><path class="cls-2" d="M68.71,135.59a2.07,2.07,0,1,0,2.07,2.07A2.09,2.09,0,0,0,68.71,135.59Z" transform="translate(-25.18 -25.06)"/><path class="cls-2" d="M75.11,140.8c-3,0-3,4.58,0,4.58S78.06,140.8,75.11,140.8Z" transform="translate(-25.18 -25.06)"/><path class="cls-2" d="M221.58,194a2.59,2.59,0,1,1-2.59,2.59A2.61,2.61,0,0,1,221.58,194Z" transform="translate(-25.18 -25.06)"/><path class="cls-2" d="M224,201.78a2.56,2.56,0,1,1-2.56,2.56A2.59,2.59,0,0,1,224,201.78Z" transform="translate(-25.18 -25.06)"/><path class="cls-2" d="M225,209.51a1.89,1.89,0,0,1,0,3.79A1.89,1.89,0,0,1,225,209.51Z" transform="translate(-25.18 -25.06)"/><path class="cls-2" d="M220.77,217.7a1.86,1.86,0,1,1-1.86,1.86A1.87,1.87,0,0,1,220.77,217.7Z" transform="translate(-25.18 -25.06)"/><path class="cls-2" d="M216.22,224.31a1.75,1.75,0,0,1,0,3.49A1.75,1.75,0,0,1,216.22,224.31Z" transform="translate(-25.18 -25.06)"/><path class="cls-2" d="M210,229.66a1.1,1.1,0,1,1-1.1,1.1A1.11,1.11,0,0,1,210,229.66Z" transform="translate(-25.18 -25.06)"/><path class="cls-2" d="M179.18,228.29a2.3,2.3,0,1,1-2.3,2.3A2.32,2.32,0,0,1,179.18,228.29Z" transform="translate(-25.18 -25.06)"/><path class="cls-2" d="M187.84,231.63a2.3,2.3,0,1,1-2.3,2.3A2.32,2.32,0,0,1,187.84,231.63Z" transform="translate(-25.18 -25.06)"/><path class="cls-2" d="M195.17,232.7a2.3,2.3,0,1,1-2.3,2.3A2.32,2.32,0,0,1,195.17,232.7Z" transform="translate(-25.18 -25.06)"/><path class="cls-2" d="M201.84,232a2.3,2.3,0,1,1-2.3,2.3A2.32,2.32,0,0,1,201.84,232Z" transform="translate(-25.18 -25.06)"/><path class="cls-2" d="M172.87,225.58a1.83,1.83,0,0,1,0,3.66A1.83,1.83,0,0,1,172.87,225.58Z" transform="translate(-25.18 -25.06)"/><path class="cls-2" d="M165.72,224.31l.09-.06a1.3,1.3,0,1,1,0,2.25l-.09-.06a1.24,1.24,0,0,1,0-2.14Z" transform="translate(-25.18 -25.06)"/><path class="cls-2" d="M163.4,219.08l.11,0a1.1,1.1,0,0,1,0,2.13l-.11,0a1.14,1.14,0,1,1,0-2.2Z" transform="translate(-25.18 -25.06)"/><path class="cls-27" d="M124,65.23a5.76,5.76,0,0,0,.46.53c2.15,2.2,5.86,2.69,9.16,2.49,5.19-.31,10.34-2.05,13.83-5.3,4.66-4.33,7-15.58-2.75-16.69-3.27-.37-7.65,1.25-10.28,2.62a28.45,28.45,0,0,0-9.86,8C122.68,59.3,122.13,62.77,124,65.23Z" transform="translate(-25.18 -25.06)"/><circle class="cls-28" cx="94.15" cy="50.62" r="4.55"/><circle class="cls-29" cx="133.18" cy="29.15" r="3.17"/><circle class="cls-30" cx="166.12" cy="96.97" r="6.34"/><circle class="cls-31" cx="173.44" cy="82.33" r="3.66"/><circle class="cls-32" cx="163.68" cy="86.24" r="2.19"/><circle class="cls-33" cx="92.93" cy="61.6" r="2.8"/><path class="cls-34" d="M151.41,110.11c2,11.31,17.93,8,17.68-1" transform="translate(-25.18 -25.06)"/><circle class="cls-35" cx="134.4" cy="20.12" r="4.63"/><path class="cls-36" d="M253.25,198c5.46,10.51-.05,22.26-15.38,19.29,4-.33,9.94-5.84,10.22-9.82.59-8.48-12.65-14.9-19.92-8.51a20,20,0,0,0-5.93,21.2c2.14,6.44,8.06,12.31,14.46,15.15,18.65,8.28,43.29-7.71,41-36.39A45.22,45.22,0,0,0,272,180" transform="translate(-25.18 -25.06)"/><path class="cls-37" d="M133.12,221.85c-.71,11.82-11.41,19.09-22.94,8.71,3.59,1.77,11.45.06,13.72-3.21,4.83-7-3.17-19.27-12.63-17.49A20,20,0,0,0,95.4,225c-1.47,6.63.58,14.7,4.58,20.41,11.66,16.65,40.8,15.51,53.47-10.32A45.55,45.55,0,0,0,158.27,216" transform="translate(-25.18 -25.06)"/><path class="cls-2" d="M280.89,165.27a1.61,1.61,0,0,0-3.17.53A1.61,1.61,0,0,0,280.89,165.27Z" transform="translate(-25.18 -25.06)"/><path class="cls-2" d="M280.28,157.8a2.25,2.25,0,1,0-1.85,2.59A2.27,2.27,0,0,0,280.28,157.8Z" transform="translate(-25.18 -25.06)"/><path class="cls-2" d="M277.81,170.73a1.25,1.25,0,1,0-1,1.44A1.26,1.26,0,0,0,277.81,170.73Z" transform="translate(-25.18 -25.06)"/><path class="cls-2" d="M272.76,172.56a1,1,0,0,0-2,.33A1,1,0,0,0,272.76,172.56Z" transform="translate(-25.18 -25.06)"/><path class="cls-2" d="M102.29,241.71c-3,0-3,4.58,0,4.58S105.25,241.71,102.29,241.71Z" transform="translate(-25.18 -25.06)"/><path class="cls-2" d="M119.37,249c-2,0-2,3.31,0,3.31S121.37,249,119.37,249Z" transform="translate(-25.18 -25.06)"/><path class="cls-2" d="M125.62,249.74c-1.67,0-1.67,2.76,0,2.76S127.28,249.74,125.62,249.74Z" transform="translate(-25.18 -25.06)"/><path class="cls-2" d="M131,247.5c-1.67,0-1.67,2.76,0,2.76S132.64,247.5,131,247.5Z" transform="translate(-25.18 -25.06)"/><path class="cls-2" d="M136.12,244.24c-1.67,0-1.67,2.76,0,2.76S137.78,244.24,136.12,244.24Z" transform="translate(-25.18 -25.06)"/><path class="cls-2" d="M113.47,249.24c-1.67,0-1.67,2.76,0,2.76S115.14,249.24,113.47,249.24Z" transform="translate(-25.18 -25.06)"/><path class="cls-2" d="M139.47,240.8a1.11,1.11,0,0,0,0,2.2A1.11,1.11,0,0,0,139.47,240.8Z" transform="translate(-25.18 -25.06)"/><path class="cls-2" d="M99.12,234.92c-3,0-3,4.58,0,4.58S102.07,234.92,99.12,234.92Z" transform="translate(-25.18 -25.06)"/><path class="cls-2" d="M108.51,247.08a1.83,1.83,0,0,1,0,3.66A1.83,1.83,0,0,1,108.51,247.08Z" transform="translate(-25.18 -25.06)"/></svg>