<?xml version="1.0" encoding="utf-8"?>
<!-- Generator: Adobe Illustrator 21.0.2, SVG Export Plug-In . SVG Version: 6.00 Build 0)  -->
<svg version="1.1" id="Layer_1" xmlns="http://www.w3.org/2000/svg" xmlns:xlink="http://www.w3.org/1999/xlink" x="0px" y="0px"
	 viewBox="0 0 151.9 61.8" style="enable-background:new 0 0 151.9 61.8;" xml:space="preserve">
<style type="text/css">
	.st0{fill:#E45699;}
	.st1{fill:#FAB700;}
	.st2{fill:#9AD6F1;}
	.st3{fill:#E84B2D;}
	.st4{opacity:0.24;fill:url(#SVGID_1_);}
	.st5{opacity:0.24;fill:url(#SVGID_2_);}
	.st6{opacity:0.24;fill:url(#SVGID_3_);}
	.st7{fill:#FFFFFF;}
	.st8{fill:none;stroke:#FFFFFF;stroke-width:0.9074;stroke-linecap:round;stroke-miterlimit:10;}
	.st9{fill:#DB0D15;}
	.st10{fill:#F4F4F6;}
	.st11{fill:#2C1D1C;}
	.st12{fill:#F2F1F1;}
	.st13{fill:#78BC71;}
	.st14{fill:none;stroke:#307BBE;stroke-width:6.481188e-02;stroke-miterlimit:10;}
	.st15{fill:#E45699;stroke:#307BBE;stroke-width:6.481188e-02;stroke-miterlimit:10;}
	.st16{fill:#B8CE28;}
	.st17{fill:#ADC112;}
	.st18{fill:#79BC6F;}
	.st19{fill:#9AD6F1;stroke:#F6F6F7;stroke-width:0.5833;stroke-miterlimit:10;}
	.st20{fill:#A0D7EC;stroke:#FFFFFF;stroke-width:0.5185;stroke-miterlimit:10;}
	.st21{opacity:0.24;}
	.st22{fill:url(#SVGID_4_);}
	.st23{fill:url(#SVGID_5_);}
	.st24{opacity:0.24;fill:url(#SVGID_6_);}
	.st25{opacity:0.24;fill:url(#SVGID_7_);}
	.st26{opacity:0.24;fill:url(#SVGID_8_);}
	.st27{opacity:0.24;fill:url(#SVGID_9_);}
	.st28{opacity:0.24;fill:url(#SVGID_10_);}
	.st29{opacity:0.24;fill:url(#SVGID_11_);}
	.st30{opacity:0.24;fill:url(#SVGID_12_);}
	.st31{fill:none;stroke:#FFFFFF;stroke-width:0.9074;stroke-miterlimit:10;}
	.st32{opacity:0.24;fill:url(#SVGID_13_);}
	.st33{fill:#9AD6F1;stroke:#F6F6F7;stroke-width:0.5838;stroke-miterlimit:10;}
	.st34{fill:#9AD6F1;stroke:#F6F6F7;stroke-width:0.5817;stroke-miterlimit:10;}
	.st35{fill:#88D4EE;}
	.st36{fill:#FCB614;}
	.st37{fill:#F3A51D;stroke:#FCB514;stroke-width:0.193;stroke-miterlimit:10;}
</style>
<g>
	<g>
		<circle class="st0" cx="59.5" cy="36.4" r="0.6"/>
		<path class="st0" d="M60.9,34.9c-0.6,0-0.6,0.9,0,0.9S61.5,34.9,60.9,34.9z"/>
		<path class="st1" d="M6.2,27.8c-0.7,0-0.7,1.1,0,1.1S6.9,27.8,6.2,27.8z"/>
		<path class="st2" d="M68.8,35.3c-0.2-0.9-0.6-1.9-1.3-2.6c-0.2-0.2-0.3-0.4-0.5-0.6c-0.1-0.1-0.2-0.2-0.3-0.3l-0.2-0.1
			c0,0-0.1,0-0.1-0.1l-0.1-0.1l-0.2-0.1c-0.1,0-0.1-0.1-0.2-0.1L66,31.3c0,0-0.1,0-0.1,0l-0.2-0.1l-0.1,0l-0.1,0L65.3,31l-0.2-0.1
			L65,30.9c-0.5-0.2-1-0.3-1.5-0.4c-0.5-0.1-1.1-0.1-1.6-0.1c-0.5,0-1.1,0.1-1.6,0.2c-0.1,0-0.3,0.1-0.4,0.1c-0.1,0-0.3,0.1-0.4,0.1
			c-0.1,0-0.3,0.1-0.4,0.1c-0.1,0-0.2,0.1-0.4,0.1c-1,0.3-1.9,0.5-2.9,0.7c-1,0.1-2,0.1-3.1,0l-0.1,0c0,0,0,0,0,0l0,0
			c-0.1,0-0.1,0-0.2,0c-0.1,0-0.1,0-0.2,0c-0.1,0-0.1,0-0.2,0c-0.2-0.1-0.5-0.1-0.7-0.2c-0.2-0.1-0.4-0.2-0.6-0.3L50.6,31
			c0,0-0.1-0.1-0.1-0.1l0-0.1l0,0c0,0,0,0,0,0l-0.1-0.1l0,0c0,0,0,0,0,0c-0.2-0.3-0.4-0.8-0.3-1.2c0-0.5,0.2-1,0.3-1.4
			c0.2-0.5,0.5-1,0.7-1.5c0.3-0.5,0.6-1,0.9-1.5c0.6-1.1,1-2.2,1.4-3.4c0.3-1.2,0.5-2.4,0.5-3.6c0.1-2.5-0.4-5-1.4-7.3
			c-0.2-0.6-0.5-1.1-0.8-1.7l-0.2-0.4l-0.1-0.2l-0.1-0.2l-0.2-0.4l-0.3-0.4l-0.1-0.2L50.4,7l-0.3-0.4c-0.1-0.1-0.2-0.2-0.3-0.4
			l-0.1-0.2C49.6,6,49.5,6,49.5,5.9l-0.3-0.4c-0.1-0.1-0.2-0.2-0.3-0.3L48.7,5c-0.1-0.1-0.1-0.1-0.2-0.2l-0.4-0.3
			c-0.1-0.1-0.2-0.2-0.3-0.3l-0.2-0.2c0,0,0,0-0.1,0l0,0l-0.1-0.1c-0.1-0.1-0.2-0.2-0.4-0.3l-0.4-0.3c-0.1,0-0.1-0.1-0.2-0.1L46.3,3
			l-0.2-0.1c-0.1,0-0.1-0.1-0.2-0.1c-0.1-0.1-0.3-0.2-0.4-0.2l-0.4-0.2c-0.6-0.3-1.1-0.6-1.7-0.8c-0.1-0.1-0.3-0.1-0.4-0.2l-0.2-0.1
			c-0.1,0-0.2-0.1-0.2-0.1c-0.2,0-0.3-0.1-0.5-0.1l-0.5-0.1c-2.5-0.7-5-0.8-7.5-0.5l-0.2,0l-0.2,0c-0.2,0-0.3,0-0.5,0.1l-0.5,0.1
			c-0.2,0-0.3,0.1-0.5,0.1l-0.2,0.1c-0.1,0-0.2,0-0.2,0.1c-0.2,0-0.3,0.1-0.5,0.1l-0.5,0.1c-0.2,0-0.3,0.1-0.4,0.1L30,1.3
			c-0.1,0-0.1,0.1-0.2,0.1c-0.1,0.1-0.3,0.1-0.4,0.2l-0.4,0.2l-0.1,0l-0.1,0L28.5,2L28.3,2c0,0,0,0-0.1,0l-0.1,0l-0.1,0.1l-0.4,0.2
			c-0.1,0-0.1,0.1-0.2,0.1l-0.2,0.1l-0.4,0.2C24.7,4.2,22.9,6,21.6,8l-0.3,0.4c-0.1,0.1-0.2,0.3-0.2,0.4l-0.2,0.4
			c-0.1,0.1-0.1,0.3-0.2,0.4c-0.1,0.1-0.1,0.3-0.2,0.4c-0.1,0.1-0.1,0.3-0.2,0.4c-0.1,0.1-0.1,0.3-0.2,0.4c-0.1,0.1-0.1,0.3-0.2,0.4
			c-0.1,0.1-0.1,0.3-0.2,0.4c0,0.1-0.1,0.3-0.1,0.4c0,0.1-0.1,0.3-0.1,0.4c0,0.2-0.1,0.3-0.1,0.5c-0.2,0.6-0.3,1.2-0.4,1.8
			c-0.2,1.2-0.2,2.4-0.1,3.6c0.1,1.2,0.3,2.3,0.7,3.4c0.3,1.1,0.8,2.2,1.3,3.2c0.3,0.5,0.5,1,0.8,1.5c0.1,0.1,0.1,0.2,0.2,0.4
			c0.1,0.1,0.1,0.2,0.2,0.3l0,0c0,0,0,0,0,0l0,0.1c0,0,0.1,0.1,0.1,0.1l0.1,0.2c0,0,0,0,0,0.1l0,0.1c0.2,0.4,0.3,0.8,0.3,1.3l0,0.2
			l0,0.2c0,0.1,0,0.1,0,0.2c0,0.1,0,0.1,0,0.2c-0.1,0.2-0.1,0.4-0.2,0.6c0,0.1-0.1,0.2-0.2,0.3c-0.1,0.1-0.1,0.2-0.2,0.3
			c-0.1,0.1-0.1,0.2-0.2,0.2c-0.1,0.1-0.2,0.2-0.2,0.2c-0.3,0.3-0.7,0.5-1.1,0.6c-0.1,0-0.2,0.1-0.3,0.1c-0.1,0-0.2,0-0.3,0.1
			c-0.1,0-0.1,0-0.2,0c-0.1,0-0.1,0-0.2,0l-0.1,0l0,0l0,0L19,32c-0.4,0-0.9-0.1-1.3-0.2c-0.1,0-0.2-0.1-0.3-0.1
			c-0.1,0-0.2-0.1-0.3-0.1c-0.1,0-0.2-0.1-0.3-0.1c-0.1,0-0.2-0.1-0.3-0.1c-0.4-0.2-0.8-0.4-1.1-0.7c-0.4-0.2-0.7-0.5-1-0.8
			l-0.1-0.1L14,29.7c-0.1-0.1-0.2-0.1-0.2-0.2c-0.1-0.1-0.2-0.2-0.2-0.2c-0.1-0.1-0.2-0.2-0.2-0.2c-0.6-0.6-1.3-1.3-2-1.8
			c-0.1-0.1-0.2-0.1-0.3-0.2l-0.1-0.1l-0.1-0.1c-0.1-0.1-0.2-0.1-0.3-0.2c-0.1,0-0.1-0.1-0.1-0.1l-0.1-0.1c0,0,0,0,0,0l0,0l-0.1,0
			c-0.1,0-0.1,0-0.2-0.1c-0.1,0-0.1,0-0.2-0.1l-0.2-0.1c-0.2-0.1-0.4-0.1-0.7-0.2C8,25.9,7.2,26,6.3,26.2c-0.2,0.1-0.4,0.1-0.6,0.2
			c-0.2,0.1-0.4,0.2-0.5,0.3c-0.2,0.1-0.3,0.2-0.5,0.4c-0.2,0.1-0.3,0.3-0.4,0.4c-0.3,0.3-0.5,0.6-0.7,1l-0.1,0.1l0,0
			c0,0,0,0.1,0,0.1c0,0,0,0.1,0,0.1c0,0.1-0.1,0.2-0.1,0.3c0,0.2-0.1,0.4-0.1,0.6c0,0.4-0.1,0.7,0,1.1c0,0.2,0.1,0.4,0.2,0.6
			c0.1,0.2,0.3,0.4,0.6,0.5c0,0,0.1,0,0.1,0c0,0,0.1,0,0.1,0l0.1,0c0,0,0,0,0,0l0.1,0l0,0c0.1,0,0,0,0.1,0l0.1,0c0.1,0,0.1,0,0.2,0
			c0.2,0,0.4-0.1,0.6-0.2c0.2-0.1,0.3-0.2,0.4-0.2c0.1-0.1,0.2-0.1,0.3-0.2c0,0,0,0,0.1,0c0,0,0,0,0.1,0l0,0c0,0,0,0,0,0
			c0,0,0,0,0,0c0,0,0,0,0,0l0,0l0,0l0,0l0,0c0,0,0,0,0.1,0c0,0,0,0,0.1,0c0.2,0,0.3,0.1,0.5,0.1c0.1,0,0.2,0.1,0.2,0.1l0.1,0l0,0
			c0,0,0,0,0.1,0.1l0,0c0,0,0,0,0,0l0,0c0.1,0.1,0.3,0.3,0.4,0.4c0.1,0.1,0.2,0.3,0.3,0.4c0.1,0.2,0.2,0.3,0.2,0.5
			c0.1,0.3,0.3,0.6,0.4,0.9C8.9,34,9,34.1,9,34.2c0,0.1,0.1,0.2,0.1,0.3c0,0,0,0.1,0,0.1c0,0,0,0,0,0c0,0-0.1,0-0.1,0
			c-0.1,0-0.2,0-0.3,0c-0.1,0-0.2,0-0.3,0c-0.1,0-0.2,0-0.3,0c-0.1,0-0.2,0-0.3,0c-0.4,0-0.9,0-1.3,0.1c-0.4,0.1-0.9,0.2-1.3,0.3
			c-0.1,0-0.2,0.1-0.3,0.1c-0.1,0-0.1,0-0.2,0.1l-0.1,0l-0.1,0c-0.1,0-0.1,0-0.2,0.1c-0.1,0-0.1,0-0.2,0.1c-0.1,0-0.2,0.1-0.3,0.2
			c-0.4,0.2-0.9,0.5-1.3,0.8c-0.4,0.3-0.8,0.7-1.1,1.1c-0.1,0.1-0.2,0.2-0.2,0.3l-0.1,0.1l0,0l0,0l0,0l0,0L1,37.9
			c-0.2,0.2-0.3,0.5-0.4,0.7c-0.2,0.5-0.4,1-0.4,1.6l0,0.1l0,0.1c0,0.1,0,0.1,0,0.2c0,0.1,0,0.3,0,0.4c0,0.1,0,0.3,0,0.4
			c0,0.1,0,0.3,0.1,0.4l0,0.1l0,0.1l0,0l0,0l0,0l0.1,0.2c0,0,0,0,0,0l0,0.1l0,0.1c0,0.1,0.1,0.1,0.1,0.2l0.1,0.2l0.1,0.2
			c0,0.1,0.1,0.1,0.1,0.2c0,0.1,0.1,0.1,0.1,0.2c0.2,0.2,0.3,0.4,0.5,0.6c0,0,0.1,0.1,0.2,0.1l0.1,0.1l0.1,0.1
			c0.1,0,0.1,0.1,0.2,0.1l0.2,0.1c0.2,0.1,0.5,0.3,0.7,0.4c0.1,0.1,0.3,0.1,0.4,0.1c0.1,0,0.1,0,0.2,0l0.1,0c0,0,0,0,0,0l0,0l0,0
			l0,0c0.5,0.1,1.1,0,1.6-0.2c0.2-0.1,0.5-0.2,0.7-0.3c0.1-0.1,0.2-0.1,0.3-0.2l0.1-0.1l0,0l0,0l0,0l0.1-0.1l0,0l0,0l0,0l0.1-0.1
			c0,0,0-0.1,0.1-0.1c0-0.1,0.1-0.1,0.1-0.2c0-0.1,0.1-0.1,0.1-0.2c0-0.1,0.1-0.1,0.1-0.2C7,43.1,7,42.9,7.1,42.7
			c0-0.2,0.1-0.5,0-0.7c0-0.2-0.1-0.5-0.2-0.7l0-0.1l0-0.1c0,0,0-0.1-0.1-0.1c0.4,0,0.9,0,1.3,0.1c0.5,0.2,1,0.5,1.4,0.9
			c-0.1,0.6-0.1,1.1-0.1,1.7c0.1,1,0.3,2,0.7,3c0.4,0.9,0.9,1.8,1.6,2.6c0.7,0.8,1.4,1.5,2.3,2c0.9,0.5,1.8,0.9,2.8,1.2
			c1.9,0.5,3.9,0.6,5.8,0.2c1.3-0.3,2.5-0.8,3.6-1.4c-0.2,1.1-0.1,2.2,0.3,3.2c0.6,1.5,1.9,2.7,3.4,3c0.2,0.1,0.5,0.1,0.7,0.1
			c0.5,0,1-0.1,1.3-0.4c0.4-0.4,0.7-1,0.6-1.7c0-0.3-0.1-0.6-0.1-0.8c0-0.2-0.1-0.4-0.1-0.6c-0.1-1.2,0.5-2.5,1.9-4.1
			c0.2-0.2,0.4-0.4,0.6-0.7c0.8-0.9,1.6-1.8,2.2-2.9c0.8,1.2,1.7,2.3,2.9,3.1c2,1.3,4.5,2.1,7.1,2.1c0.3,0,0.7,0,1,0
			c0.5-0.5,1.3-0.6,1.9-0.9c0.8-0.4,1.5-0.9,2.2-1.4c0.7-0.5,1.3-1,1.9-1.6c0.5-0.5,0.9-1,1.6-1.3c0.9-2.1,1-4.5,0.3-6.6
			c0.1,0,0.2,0,0.3,0c1.7,0,3.2-0.7,4.3-1.5c0,0.3,0,0.6,0.1,0.8c0,0,0,0.1,0,0.1c0,0,0,0.1,0,0.1c0,0,0,0.1,0,0.1
			c0,0,0,0.1,0.1,0.1c0,0,0,0.1,0.1,0.1c0,0,0,0.1,0.1,0.1c0,0,0,0.1,0.1,0.1l0.1,0.1c0.2,0.3,0.5,0.6,0.8,0.9
			c0.3,0.2,0.7,0.5,1,0.6c0.4,0.1,0.8,0.2,1.2,0.3c0.1,0,0.1,0,0.2,0l0.1,0l0.1,0l0.2,0c0.1,0,0.1,0,0.2,0c0.1,0,0.2,0,0.3,0l0.2,0
			c0.1,0,0.1,0,0.2,0c0.2,0,0.4-0.1,0.6-0.2c0.2-0.1,0.4-0.2,0.6-0.3c0.2-0.1,0.4-0.2,0.5-0.4c0.1-0.1,0.2-0.1,0.3-0.2
			c0,0,0.1-0.1,0.1-0.1l0.1-0.1l0.1-0.1l0.1-0.1l0.1-0.1l0,0c0,0,0,0,0,0l0.1-0.1L68,40c0.1-0.1,0.1-0.2,0.2-0.3
			c0.1-0.1,0.1-0.2,0.2-0.3c0.2-0.4,0.4-0.8,0.5-1.3C69,37.2,69,36.2,68.8,35.3z"/>
		<path class="st3" d="M38.5,52.6c-0.6,0-0.6,0.9,0,0.9C39.1,53.5,39.1,52.6,38.5,52.6z"/>
		<circle class="st3" cx="40.2" cy="54.3" r="0.3"/>
		<path class="st3" d="M50.3,54c-0.6,0-0.6,1,0,1C50.9,55,50.9,54,50.3,54z"/>
		<path class="st3" d="M51.9,52.9C51.9,52.9,51.9,52.9,51.9,52.9c-0.1-0.1-0.3-0.1-0.4,0c-0.1,0.1-0.2,0.2-0.2,0.3
			c0,0.1,0.1,0.2,0.2,0.3c0.1,0.1,0.2,0.1,0.3,0c0,0,0,0,0,0c0.1-0.1,0.2-0.2,0.2-0.3C52.1,53,52,52.9,51.9,52.9z"/>
		<path class="st3" d="M52.6,51.5C52.5,51.5,52.5,51.5,52.6,51.5c-0.2,0-0.2,0.2-0.2,0.3c0,0.1,0.1,0.2,0.2,0.3c0,0,0,0,0,0
			c0.2,0.1,0.4-0.1,0.4-0.3C52.9,51.6,52.7,51.4,52.6,51.5z"/>
		<path class="st0" d="M58.3,37.4c-0.8,0-0.8,1.2,0,1.2S59.1,37.4,58.3,37.4z"/>
		<path class="st0" d="M17.3,51.1c-0.7,0-0.7,1,0,1C17.9,52.1,17.9,51.1,17.3,51.1z"/>
		<path class="st0" d="M19.6,51.1c-0.7,0-0.7,1,0,1C20.3,52.1,20.3,51.1,19.6,51.1z"/>
		<path class="st0" d="M21.7,50.8c-0.7,0-0.7,1,0,1C22.4,51.9,22.4,50.8,21.7,50.8z"/>
		<circle class="st0" cx="23.7" cy="50.5" r="0.6"/>
		<path class="st0" d="M25.6,48.8c-0.7,0-0.7,1.1,0,1.1C26.3,49.9,26.3,48.8,25.6,48.8z"/>
		<path class="st0" d="M27.2,47.4c-0.8,0-0.8,1.2,0,1.2C28,48.6,28,47.4,27.2,47.4z"/>
		<circle class="st0" cx="28.7" cy="46.5" r="0.7"/>
		<circle class="st0" cx="29.5" cy="44.4" r="0.7"/>
		<linearGradient id="SVGID_1_" gradientUnits="userSpaceOnUse" x1="29.1782" y1="19.3613" x2="68.4296" y2="19.3613">
			<stop  offset="0" style="stop-color:#2580C3"/>
			<stop  offset="1" style="stop-color:#2580C3"/>
		</linearGradient>
		<path class="st4" d="M67.9,34.1c-0.7-1.3-2.1-1.7-3.1-2.6c-0.2-0.1-0.5-0.1-0.7-0.2c-0.9-0.1-1.8-0.1-2.8,0.1
			c-1.8,0.3-3.7,0.8-5.5,1.1c-1.6,0.2-3.2,0.2-4.8-0.3c-0.6-0.2-1.1-0.4-1.4-1c0,0,0-0.1-0.1-0.1c0.2,0.2,0.4,0.4,0.7,0.6
			c-1.1-0.9-1.2-2.6-0.8-3.9c0.4-1.4,1.2-2.5,1.9-3.8c2.4-4.6,2.3-10.4-0.2-15c-2.5-4.6-7.4-7.7-12.5-8.2c-3.3-0.3-6.8,0.5-9.3,2.7
			c0.7-0.6,3.2-0.5,4.1-0.5c1.5-0.1,3.1,0.1,4.6,0.3c4.1,0.8,7.2,3.1,9.6,6.4c3,4.3,2.9,9.9,0.7,14.5c-1.7,3.5-2.5,8.5,2.2,9.9
			c1.9,0.6,3.8,0.4,5.7,0.3c2.1-0.2,4-0.8,6.1-1.2c2-0.5,4.8-0.4,5.5,2c0.2,0.7,0.3,1.4,0.2,2.1c-0.1,0.4,0.2,0.7,0.5,0.8
			C68.6,36.8,68.5,35.2,67.9,34.1z"/>
		
			<linearGradient id="SVGID_2_" gradientUnits="userSpaceOnUse" x1="44.8042" y1="-5.0998" x2="61.6203" y2="-5.0998" gradientTransform="matrix(0.9987 5.011815e-02 -5.011815e-02 0.9987 -25.4864 18.8619)">
			<stop  offset="0" style="stop-color:#2580C3"/>
			<stop  offset="1" style="stop-color:#2580C3"/>
		</linearGradient>
		<path class="st5" d="M20.1,22.4c-0.7-1.9-0.8-4-0.6-6C20,12.1,22,8,25.2,5.2c3.2-2.8,7.6-4.4,11.8-3.9c-4.1,1-8,3-10.7,6.2
			c-1.9,2.2-3.1,4.9-3.6,7.7c-0.3,1.6-0.3,3.2-0.1,4.8c0.4,2.7,2.3,5.8,1.5,8.5c-0.4,1.5-1.6,2.9-3.2,3.2c1.4-1,1.6-3,1.1-4.7
			C21.7,25.4,20.7,24,20.1,22.4z"/>
		<linearGradient id="SVGID_3_" gradientUnits="userSpaceOnUse" x1="14.7104" y1="41.4434" x2="29.7825" y2="41.4434">
			<stop  offset="0" style="stop-color:#2580C3"/>
			<stop  offset="1" style="stop-color:#2580C3"/>
		</linearGradient>
		<path class="st6" d="M25.5,35c1.2-0.9,2.9-1.1,4.3-0.5c-1.4,0.2-2.8,1.1-3.6,2.3c-2,2.8-1.2,6.9-3.2,9.7c-0.9,1.2-2.3,2-3.7,2.3
			c-1.5,0.2-3-0.2-4.2-1.1c-0.1-0.1-0.2-0.1-0.2-0.3c0-0.2,0.1-0.3,0.2-0.4c0.1-0.1,0.3,0,0.5,0c1.1,0,2.2-0.5,3-1.2
			c0.3-0.3,0.6-0.7,0.9-1.1c0.5-0.5,1.1-1,1.5-1.5c1-1.2,1.5-2.7,2.1-4.2S24.2,35.9,25.5,35z"/>
		<path class="st7" d="M12.4,38.1C12.4,38.1,12.3,38.1,12.4,38.1c-0.1-0.1-0.1-0.1-0.1-0.2c0,0,0,0,0-0.1c0,0,0,0,0-0.1
			c0,0-0.1-0.1-0.1-0.1c0,0-0.1-0.1-0.1-0.2c0-0.1-0.1-0.1-0.2-0.2c-0.1-0.1-0.1-0.1-0.2-0.2c-0.3-0.3-0.7-0.5-1.2-0.8
			c-0.2-0.1-0.5-0.2-0.8-0.3C9.5,36,9.4,36,9.4,36c-0.1,0-0.2,0-0.2-0.1c0,0-0.1,0-0.1,0l-0.1,0l0,0c0,0,0,0,0,0l0,0l0,0
			c0,0-0.1,0-0.1,0c0,0-0.1,0-0.1,0c-0.1,0-0.2,0-0.2,0c-0.1,0-0.2,0-0.3,0c-0.1,0-0.2,0-0.3,0c-0.1,0-0.2,0-0.3,0
			c-0.4,0-0.7,0-1.1,0.1c-0.4,0.1-0.8,0.1-1.2,0.3c-0.1,0-0.2,0.1-0.3,0.1c0,0-0.1,0-0.1,0.1l-0.1,0l-0.1,0c-0.1,0-0.1,0-0.2,0.1
			l-0.1,0.1c-0.1,0-0.2,0.1-0.3,0.1c-0.8,0.4-1.5,0.9-2,1.6c-0.1,0.1-0.1,0.2-0.2,0.3l0,0.1l0,0c0,0,0,0,0,0l0,0l0,0l-0.1,0.2
			c-0.1,0.2-0.2,0.4-0.3,0.6C1.2,39.6,1.1,40,1,40.5l0,0.1l0,0.1c0,0.1,0,0.1,0,0.2c0,0.1,0,0.2,0,0.3c0,0.1,0,0.2,0,0.3
			c0,0.1,0,0.2,0.1,0.3l0,0.1l0,0l0,0c0,0,0,0,0,0l0,0L1.2,42c0,0,0,0,0,0l0,0l0,0.1c0,0,0,0.1,0.1,0.1l0.1,0.1l0.1,0.1
			c0,0,0.1,0.1,0.1,0.1c0,0,0.1,0.1,0.1,0.1C1.7,43,1.8,43.2,2,43.3c0,0,0.1,0.1,0.1,0.1l0.1,0.1l0.1,0c0,0,0.1,0.1,0.1,0.1l0.1,0.1
			C2.6,43.8,2.8,43.9,3,44c0.1,0,0.2,0.1,0.3,0.1c0,0,0.1,0,0.1,0l0.1,0c0,0,0,0,0,0l0,0l0,0l0,0c0.4,0.1,0.8,0,1.1-0.1
			C4.8,44,5,43.9,5.1,43.8c0.1,0,0.1-0.1,0.2-0.2l0,0l0,0c0,0,0,0,0,0l0,0l0,0l0.1-0.1l0,0l0,0l0,0c0,0,0-0.1,0.1-0.1
			c0,0,0.1-0.1,0.1-0.1c0,0,0-0.1,0.1-0.1c0,0,0-0.1,0.1-0.1c0.1-0.1,0.1-0.3,0.2-0.4C6,42.3,6,42,5.9,41.8l0-0.1l0,0c0,0,0,0,0-0.1
			c0,0,0-0.1-0.1-0.1c0,0,0-0.1-0.1-0.1c-0.1-0.1-0.2-0.2-0.3-0.3C5.3,41.1,5.2,41,5.1,41c-0.1,0-0.2-0.1-0.3-0.1c0,0-0.1,0-0.1,0
			c0,0-0.1,0-0.1,0c0,0-0.1,0-0.1,0l0,0l0,0l0,0c0,0,0,0,0,0l0,0c0,0-0.1,0-0.1,0l0,0l0,0l0,0l0,0c0,0,0,0,0,0c0,0,0,0-0.1,0
			C4,41,3.9,41.1,3.8,41.2c-0.1,0.1-0.2,0.2-0.3,0.3c-0.1,0.1-0.1,0.2-0.1,0.3c0,0,0,0,0,0c0,0,0,0,0,0c0,0,0,0,0,0.1
			c0,0,0,0.1,0,0.1c0,0,0,0.1,0,0.1l0,0c0,0.1-0.2,0.2-0.3,0.2c-0.1,0-0.2-0.1-0.2-0.2c0,0,0,0,0-0.1c0,0,0-0.1,0-0.1
			c0,0,0-0.1,0-0.1c0,0,0,0,0,0c0,0,0,0,0-0.1c0-0.1,0-0.1,0-0.2c0-0.1,0-0.2,0.1-0.3C2.9,41,3,40.8,3.2,40.6
			c0.2-0.2,0.4-0.4,0.7-0.5c0,0,0.1,0,0.1,0c0,0,0.1,0,0.1,0c0,0,0,0,0.1,0l0,0l0,0c0,0,0.1,0,0.1,0l0,0c0,0,0.1,0,0,0l0,0l0,0
			l0.1,0c0,0,0.1,0,0.1,0c0,0,0.1,0,0.1,0c0,0,0.1,0,0.1,0c0.2,0,0.4,0.1,0.6,0.2c0.2,0.1,0.4,0.2,0.5,0.3c0.2,0.1,0.3,0.3,0.4,0.4
			c0,0,0.1,0.1,0.1,0.1c0,0,0.1,0.1,0.1,0.1c0,0,0.1,0.1,0.1,0.2l0,0.1l0,0.1c0.1,0.2,0.1,0.4,0.1,0.7c0,0.2,0,0.5,0,0.7
			c0,0.2-0.1,0.5-0.2,0.7c0,0.1-0.1,0.1-0.1,0.2c0,0.1-0.1,0.1-0.1,0.2c0,0.1-0.1,0.1-0.1,0.2c0,0-0.1,0.1-0.1,0.2l0,0l0,0l0,0
			l-0.1,0.1l0,0l0,0l0,0l-0.1,0.1c-0.1,0.1-0.2,0.2-0.3,0.2C5.4,44.8,5.2,44.9,5,45c-0.5,0.2-1,0.2-1.5,0.1l0,0l0,0l0,0c0,0,0,0,0,0
			l-0.1,0c-0.1,0-0.1,0-0.2,0c-0.1,0-0.3-0.1-0.4-0.1c-0.3-0.1-0.5-0.2-0.7-0.4l-0.2-0.1c-0.1,0-0.1-0.1-0.2-0.1l-0.1-0.1l-0.1-0.1
			c0,0-0.1-0.1-0.1-0.1c-0.2-0.2-0.4-0.4-0.5-0.6c0-0.1-0.1-0.1-0.1-0.2c0-0.1-0.1-0.1-0.1-0.2l-0.1-0.2l-0.1-0.2
			c0-0.1-0.1-0.1-0.1-0.2l0-0.1l0-0.1c0,0,0,0,0,0l-0.1-0.2l0,0l0,0l0,0l0,0l0-0.1c0-0.1-0.1-0.3-0.1-0.4c0-0.1,0-0.3,0-0.4
			c0-0.1,0-0.3,0-0.4c0-0.1,0-0.1,0-0.2l0-0.1l0-0.1c0.1-0.5,0.2-1.1,0.4-1.5c0.1-0.2,0.2-0.5,0.4-0.7l0.1-0.2l0,0l0,0l0,0l0,0
			l0.1-0.1c0.1-0.1,0.2-0.2,0.2-0.3c0.7-0.8,1.5-1.4,2.4-1.8c0.1-0.1,0.2-0.1,0.3-0.2c0.1,0,0.1,0,0.2-0.1c0.1,0,0.1,0,0.2-0.1
			l0.1,0l0.1,0c0.1,0,0.1,0,0.2-0.1c0.1,0,0.2-0.1,0.3-0.1c0.4-0.1,0.9-0.2,1.3-0.3c0.4-0.1,0.9-0.1,1.3-0.1c0.1,0,0.2,0,0.3,0
			c0.1,0,0.2,0,0.3,0c0.1,0,0.2,0,0.3,0c0.1,0,0.2,0,0.3,0c0.1,0,0.1,0,0.1,0c0,0,0.1,0,0.1,0l0,0l0,0l0,0l0.1,0c0,0,0.1,0,0.1,0
			C9.5,35,9.5,35,9.6,35c0.1,0,0.2,0.1,0.3,0.1c0.3,0.1,0.6,0.3,0.9,0.4c0.6,0.3,1,0.6,1.3,0.9c0.1,0.1,0.2,0.2,0.2,0.2
			c0.1,0.1,0.1,0.1,0.2,0.2c0.1,0.1,0.1,0.1,0.2,0.2c0,0.1,0.1,0.1,0.1,0.2c0,0,0,0.1,0.1,0.1c0,0,0,0,0,0.1c0,0,0,0.1,0.1,0.1
			c0,0,0.1,0.1,0.1,0.1c0.1,0.2,0.1,0.5-0.1,0.6C12.8,38.3,12.5,38.3,12.4,38.1z"/>
		<path class="st8" d="M5.6,40.3c0.7-0.2,1.5-0.2,2.3,0c0.7,0.2,1.4,0.7,1.8,1.3"/>
		<circle class="st3" cx="33.9" cy="45.7" r="0.7"/>
		<circle class="st3" cx="35.1" cy="47.4" r="0.7"/>
		<path class="st3" d="M36.2,48.9c-0.6,0-0.6,1,0,1C36.8,49.9,36.8,48.9,36.2,48.9z"/>
		<circle class="st3" cx="37.3" cy="51.3" r="0.5"/>
		<path class="st3" d="M53.5,49.7c-0.1,0-0.1-0.1-0.2-0.1c-0.2,0-0.3,0.2-0.3,0.3c0,0.2,0.2,0.3,0.3,0.3c0.1,0,0.1,0,0.2-0.1
			C53.7,50.2,53.7,49.8,53.5,49.7z"/>
		<path class="st3" d="M53.9,47.8c-0.1-0.1-0.3-0.1-0.5-0.1c0,0,0,0,0,0c-0.2,0.1-0.3,0.4-0.1,0.6c0.2,0.2,0.5,0.1,0.6-0.1
			c0,0,0,0,0,0C54,48.1,54,48,53.9,47.8z"/>
		<circle class="st9" cx="50.8" cy="44.8" r="0.8"/>
		<path class="st10" d="M9.5,35.2c0,0,0,0-0.1-0.1c0-0.1-0.1-0.2-0.2-0.3c-0.1-0.1-0.1-0.3-0.2-0.5c0-0.1-0.1-0.2-0.1-0.3
			c0-0.1-0.1-0.2-0.1-0.4c-0.1-0.3-0.2-0.6-0.4-0.9c-0.1-0.2-0.2-0.3-0.2-0.5C8.1,32,8,31.9,7.8,31.7c-0.1-0.1-0.2-0.3-0.4-0.4l0,0
			c0,0,0,0,0,0l0,0c0,0,0,0-0.1-0.1l-0.1,0l-0.1,0C7.2,31.1,7.1,31,7,31c-0.2-0.1-0.4-0.1-0.5-0.2c0,0,0,0-0.1,0c0,0,0,0-0.1,0l0,0
			c0,0,0,0,0,0l0,0l0,0l0,0c0,0,0,0,0,0c0,0,0,0,0,0c0,0,0,0,0,0l0,0c0,0,0,0-0.1,0c0,0,0,0-0.1,0c-0.1,0-0.2,0.1-0.3,0.2
			c-0.1,0.1-0.2,0.2-0.4,0.2c-0.2,0.1-0.3,0.1-0.6,0.2c-0.1,0-0.1,0-0.2,0l-0.1,0c0,0,0,0-0.1,0l0,0l-0.1,0c0,0,0,0,0,0l-0.1,0
			c0,0-0.1,0-0.1,0l-0.1,0c-0.2-0.1-0.4-0.3-0.5-0.5c-0.1-0.2-0.2-0.4-0.2-0.6c-0.1-0.4-0.1-0.7,0-1.1c0-0.2,0.1-0.4,0.1-0.5
			c0-0.1,0.1-0.2,0.1-0.3c0,0,0,0,0-0.1c0,0,0,0,0,0l0,0l0.1-0.1c0.2-0.4,0.4-0.7,0.7-1c0.1-0.1,0.3-0.3,0.4-0.4
			c0.2-0.1,0.3-0.2,0.5-0.4c0.2-0.1,0.4-0.2,0.5-0.3C5.8,26.1,6,26,6.2,26c0.8-0.2,1.7-0.3,2.5-0.1c0.2,0,0.4,0.1,0.6,0.2l0.2,0.1
			c0.1,0,0.1,0,0.2,0.1c0.1,0,0.1,0,0.2,0.1l0.1,0l0,0c0,0,0,0,0,0l0.1,0.1c0,0,0.1,0,0.1,0.1c0.1,0.1,0.2,0.1,0.3,0.2l0.1,0.1
			l0.1,0.1c0.1,0.1,0.2,0.1,0.3,0.2c0.7,0.5,1.3,1.2,2,1.8c0.3,0.3,0.6,0.6,0.9,0.9c0.3,0.3,0.7,0.6,1,0.8c0.4,0.2,0.7,0.5,1.1,0.7
			c0.1,0,0.2,0.1,0.3,0.1c0.1,0,0.2,0.1,0.3,0.1c0.1,0,0.2,0.1,0.3,0.1c0.1,0,0.2,0.1,0.3,0.1c0.4,0.1,0.9,0.2,1.3,0.2l0.1,0l0,0
			l0,0l0.2,0c0,0,0.1,0,0.2,0c0.1,0,0.1,0,0.2,0c0.1,0,0.2,0,0.3-0.1c0.1,0,0.2-0.1,0.3-0.1c0.4-0.1,0.8-0.4,1.2-0.6
			c0.1-0.1,0.2-0.1,0.2-0.2c0.1-0.1,0.2-0.2,0.2-0.2c0.1-0.1,0.1-0.2,0.2-0.3c0.1-0.1,0.1-0.2,0.2-0.3c0.1-0.2,0.2-0.4,0.3-0.6
			c0-0.1,0-0.1,0-0.2c0-0.1,0-0.1,0-0.2l0-0.2l0-0.2c0-0.4-0.1-0.9-0.3-1.3l0-0.1c0,0,0-0.1,0-0.1L22,27c0-0.1-0.1-0.1-0.1-0.1
			l0-0.1c0,0,0,0,0,0l0,0c-0.1-0.1-0.1-0.2-0.2-0.3c-0.1-0.1-0.1-0.2-0.2-0.4c-0.3-0.5-0.6-1-0.8-1.4c-0.5-1-0.9-2-1.3-3.1
			c-0.3-1.1-0.6-2.2-0.7-3.4c-0.1-1.2-0.1-2.4,0.1-3.5c0.1-0.6,0.2-1.2,0.4-1.8c0-0.1,0.1-0.3,0.1-0.4c0-0.1,0.1-0.3,0.1-0.4
			c0-0.1,0.1-0.3,0.1-0.4c0.1-0.1,0.1-0.3,0.2-0.4c0.1-0.1,0.1-0.3,0.2-0.4c0.1-0.1,0.1-0.3,0.2-0.4c0.1-0.1,0.1-0.3,0.2-0.4
			c0.1-0.1,0.1-0.3,0.2-0.4c0.1-0.1,0.1-0.3,0.2-0.4L21,8.6c0.1-0.1,0.2-0.3,0.2-0.4l0.3-0.4c1.4-2,3.1-3.8,5.3-5.2l0.4-0.2l0.2-0.1
			c0.1,0,0.1-0.1,0.2-0.1L28,1.9l0.1-0.1l0.1,0c0,0,0.1,0,0.1,0l0.2-0.1l0.2-0.1l0.1,0l0.1,0l0.4-0.2c0.1-0.1,0.3-0.1,0.4-0.2
			c0.1,0,0.1-0.1,0.2-0.1L30.1,1c0.1,0,0.3-0.1,0.4-0.1L31,0.7c0.2,0,0.3-0.1,0.5-0.1c0.1,0,0.2,0,0.2-0.1l0.2-0.1
			c0.2,0,0.3-0.1,0.5-0.1l0.5-0.1c0.2,0,0.3-0.1,0.5-0.1l0.2,0l0.2,0c2.5-0.3,5.1-0.2,7.5,0.5l0.5,0.1c0.2,0,0.3,0.1,0.5,0.1
			c0.1,0,0.2,0,0.2,0.1l0.2,0.1c0.1,0.1,0.3,0.1,0.4,0.2c0.6,0.2,1.2,0.5,1.7,0.8l0.4,0.2c0.1,0.1,0.3,0.2,0.4,0.2
			c0.1,0,0.1,0.1,0.2,0.1l0.2,0.1l0.2,0.1c0.1,0,0.1,0.1,0.2,0.1l0.4,0.3c0.1,0.1,0.2,0.2,0.4,0.3l0.1,0.1l0,0c0,0,0,0,0.1,0L47.6,4
			c0.1,0.1,0.2,0.2,0.3,0.3l0.3,0.3c0.1,0.1,0.1,0.1,0.2,0.2L48.6,5c0.1,0.1,0.2,0.2,0.3,0.3l0.3,0.4c0.1,0.1,0.1,0.1,0.2,0.2
			L49.6,6c0.1,0.1,0.2,0.2,0.3,0.4l0.3,0.4L50.3,7l0.1,0.2l0.3,0.4L50.9,8L51,8.2l0.1,0.2l0.2,0.4c0.3,0.6,0.6,1.1,0.8,1.7
			c0.9,2.3,1.4,4.8,1.3,7.2c0,1.2-0.2,2.4-0.5,3.6c-0.3,1.2-0.8,2.3-1.3,3.4c-0.3,0.5-0.6,1-0.9,1.5c-0.3,0.5-0.5,1-0.7,1.5
			c-0.2,0.5-0.3,1-0.4,1.5c0,0.5,0.1,0.9,0.4,1.3c0,0,0,0,0,0l0,0l0.1,0.1c0,0,0,0,0,0l0,0l0.1,0.1c0,0,0.1,0.1,0.1,0.1l0.1,0.1
			c0.2,0.1,0.4,0.3,0.6,0.3c0.2,0.1,0.5,0.2,0.7,0.2c0.2,0.1,0.5,0.1,0.7,0.1c1.1,0.1,2.1,0.1,3.1,0c1-0.1,2-0.4,3-0.7
			c0.1,0,0.2-0.1,0.4-0.1c0.1,0,0.3-0.1,0.4-0.1c0.1,0,0.3-0.1,0.4-0.1c0.1,0,0.3-0.1,0.4-0.1c0.5-0.1,1-0.2,1.6-0.2
			c0.5,0,1.1,0,1.6,0.1c0.5,0.1,1,0.2,1.5,0.4l0.2,0.1l0.2,0.1l0.2,0.1l0.1,0l0.1,0l0.2,0.1c0,0,0.1,0,0.1,0l0.1,0.1
			c0.1,0,0.1,0.1,0.2,0.1l0.2,0.1l0.1,0.1c0,0,0.1,0,0.1,0.1l0.2,0.1c0.1,0.1,0.2,0.2,0.3,0.3c0.2,0.2,0.4,0.4,0.5,0.6
			c0.6,0.8,1,1.7,1.3,2.6c0.2,0.9,0.2,1.9,0,2.8c-0.1,0.4-0.3,0.9-0.5,1.3c-0.1,0.1-0.1,0.2-0.2,0.3c-0.1,0.1-0.1,0.2-0.2,0.3
			l-0.1,0.1l-0.1,0.1c0,0,0,0,0,0l0,0L67.4,40l-0.1,0.1c0,0-0.1,0.1-0.1,0.1c0,0-0.1,0.1-0.1,0.1c-0.1,0.1-0.2,0.1-0.3,0.2
			c-0.2,0.1-0.4,0.3-0.5,0.4c-0.2,0.1-0.4,0.2-0.6,0.3c-0.2,0.1-0.4,0.1-0.6,0.2c-0.1,0-0.1,0-0.2,0l-0.2,0c-0.1,0-0.2,0-0.3,0
			l-0.2,0l-0.2,0l-0.1,0c0,0-0.1,0-0.1,0c-0.1,0-0.1,0-0.2,0c-0.4,0-0.8-0.1-1.2-0.3c-0.4-0.1-0.7-0.3-1-0.6
			c-0.3-0.2-0.6-0.5-0.8-0.9l-0.1-0.1c0,0,0-0.1-0.1-0.1c0,0,0-0.1-0.1-0.1c0,0,0-0.1-0.1-0.1c0,0,0-0.1-0.1-0.1c0,0,0-0.1,0-0.1
			c0,0,0-0.1,0-0.1c0,0,0-0.1,0-0.1c-0.1-0.4-0.1-0.7,0-1.1c0.1-0.7,0.4-1.3,0.9-1.7c0.2-0.2,0.5-0.4,0.8-0.5
			c0.3-0.1,0.6-0.2,0.9-0.2c0.3,0,0.6,0.1,0.8,0.2c0.1,0,0.1,0.1,0.2,0.1c0.1,0,0.1,0.1,0.2,0.1c0.1,0.1,0.2,0.1,0.3,0.2
			c0.1,0,0.1,0.1,0.1,0.1c0,0,0,0,0.1,0.1l0,0l0,0c0,0,0,0,0,0c0,0,0.1,0.1,0.1,0.1c0,0,0,0,0,0l0,0c0,0,0,0.1,0.1,0.1
			c0.2,0.2,0.3,0.4,0.3,0.7c0,0.2,0,0.5,0,0.7c-0.1,0.2-0.2,0.4-0.3,0.5c-0.1,0.1-0.2,0.3-0.4,0.4c-0.1,0.1-0.3,0.2-0.4,0.2
			c-0.1,0-0.3,0-0.4,0c0,0-0.1,0-0.1,0c0,0,0,0,0,0c0,0,0,0,0,0c0,0-0.1,0-0.1,0c0,0,0,0-0.1,0c-0.1-0.1-0.2-0.1-0.2-0.2
			c0,0,0-0.1-0.1-0.1c0,0,0,0,0-0.1c0-0.1-0.1-0.1-0.1-0.1c0-0.1,0-0.2,0.1-0.2c0.1,0,0.1,0,0.2,0l0,0c0,0,0,0,0.1,0.1
			c0,0,0.1,0.1,0.2,0.1c0,0,0,0,0,0c0,0,0,0,0,0l0,0l0,0c0,0,0,0,0,0c0.1,0,0.1,0,0.2-0.1c0.1-0.1,0.3-0.2,0.4-0.4
			c0.1-0.1,0.1-0.2,0.1-0.3c0-0.1,0-0.2,0-0.3c0-0.1-0.1-0.2-0.2-0.3c0,0,0,0,0,0l0,0c0,0,0,0,0,0c0,0-0.1-0.1-0.1-0.1c0,0,0,0,0,0
			l0,0l0,0l-0.1,0c0,0-0.1-0.1-0.1-0.1c-0.1,0-0.1-0.1-0.2-0.1c0,0-0.1,0-0.1-0.1c0,0-0.1,0-0.1,0c-0.2-0.1-0.3-0.1-0.5-0.1
			c-0.4,0-0.8,0.1-1.1,0.4c-0.3,0.3-0.6,0.7-0.6,1.2c-0.1,0.5,0,1,0.3,1.5c0.1,0.2,0.3,0.4,0.6,0.6c0.2,0.2,0.5,0.3,0.8,0.4
			c0.3,0.1,0.6,0.2,0.9,0.2l0.1,0c0,0,0,0,0.1,0l0.1,0l0.1,0l0.1,0c0.1,0,0.2,0,0.2,0l0.1,0c0,0,0.1,0,0.1,0c0.6-0.2,1.3-0.5,1.7-1
			l0.1-0.1l0.1-0.1l0,0c0,0,0,0,0,0l0-0.1l0.1-0.1c0.1-0.1,0.1-0.2,0.1-0.2c0-0.1,0.1-0.2,0.1-0.2c0.2-0.3,0.3-0.7,0.4-1.1
			c0.2-0.7,0.2-1.6,0-2.4c-0.2-0.8-0.5-1.6-1.1-2.2c-0.1-0.2-0.3-0.3-0.4-0.5c-0.1-0.1-0.2-0.1-0.2-0.2l-0.1-0.1c0,0,0,0-0.1,0
			l-0.1,0l-0.1-0.1c0,0-0.1-0.1-0.1-0.1l-0.1,0c0,0,0,0-0.1,0l-0.2-0.1l-0.1,0l-0.1,0l-0.2-0.1l-0.2-0.1l-0.2-0.1
			c-0.4-0.2-0.9-0.3-1.3-0.3c-0.5-0.1-0.9-0.1-1.4-0.1c-0.5,0-0.9,0.1-1.4,0.2c-0.1,0-0.2,0.1-0.4,0.1c-0.1,0-0.2,0.1-0.4,0.1
			c-0.1,0-0.2,0.1-0.4,0.1c-0.1,0-0.2,0.1-0.4,0.1c-1,0.3-2.1,0.6-3.1,0.7c-1.1,0.1-2.2,0.2-3.3,0.1c-0.6,0-1.2-0.2-1.7-0.4
			c-0.3-0.1-0.6-0.3-0.8-0.5c-0.1-0.1-0.1-0.1-0.2-0.2c-0.1-0.1-0.1-0.1-0.2-0.2l-0.1-0.1l0,0c0,0,0,0,0,0l-0.1-0.1l0,0
			c0,0,0-0.1,0-0.1c-0.2-0.3-0.3-0.6-0.4-0.9c-0.1-0.3-0.1-0.7-0.1-1c0-0.7,0.2-1.3,0.4-1.8c0.2-0.6,0.5-1.1,0.8-1.6
			c0.3-0.5,0.6-1,0.9-1.5c0.5-1,1-2,1.2-3.1c0.3-1.1,0.4-2.2,0.5-3.4c0.1-2.3-0.4-4.6-1.3-6.8c-0.2-0.5-0.5-1.1-0.7-1.6l-0.2-0.4
			l-0.1-0.2L50,8.5l-0.2-0.4l-0.2-0.4l-0.1-0.2l-0.1-0.2L49,7l-0.3-0.3l-0.1-0.2c0-0.1-0.1-0.1-0.1-0.2L48.2,6
			c-0.1-0.1-0.2-0.2-0.3-0.3l-0.2-0.2c-0.1-0.1-0.1-0.1-0.2-0.2l-0.3-0.3C47.1,5,47,4.9,46.9,4.8l-0.2-0.2c0,0,0,0,0,0l0,0l-0.1-0.1
			c-0.1-0.1-0.2-0.2-0.3-0.3l-0.4-0.3c-0.1,0-0.1-0.1-0.2-0.1l-0.2-0.1l-0.2-0.1c-0.1,0-0.1-0.1-0.2-0.1c-0.1-0.1-0.3-0.2-0.4-0.2
			L44.3,3c-0.5-0.3-1.1-0.5-1.6-0.7c-0.1-0.1-0.3-0.1-0.4-0.2L42.1,2C42,2,42,2,41.9,2c-0.1,0-0.3-0.1-0.4-0.1L41,1.7
			c-2.3-0.6-4.7-0.8-7.1-0.5l-0.2,0l-0.2,0c-0.1,0-0.3,0-0.4,0.1l-0.4,0.1c-0.1,0-0.3,0.1-0.4,0.1l-0.2,0c-0.1,0-0.1,0-0.2,0.1
			c-0.1,0-0.3,0.1-0.4,0.1l-0.4,0.1c-0.1,0-0.3,0.1-0.4,0.1l-0.2,0.1c-0.1,0-0.1,0.1-0.2,0.1c-0.1,0.1-0.3,0.1-0.4,0.2l-0.4,0.2
			l-0.1,0l-0.1,0l-0.2,0.1l-0.2,0.1c0,0,0,0,0,0l0,0l-0.1,0.1l-0.4,0.2c-0.1,0-0.1,0.1-0.2,0.1l-0.2,0.1l-0.4,0.2
			c-1,0.6-1.9,1.4-2.7,2.2c-0.8,0.8-1.6,1.7-2.2,2.7l-0.2,0.4C22,8.8,22,9,21.9,9.1l-0.2,0.4c-0.1,0.1-0.1,0.3-0.2,0.4l-0.2,0.4
			c-0.1,0.1-0.1,0.3-0.2,0.4C21,10.7,21,10.9,20.9,11c-0.1,0.1-0.1,0.3-0.2,0.4c-0.1,0.1-0.1,0.3-0.2,0.4c0,0.1-0.1,0.3-0.1,0.4
			c0,0.1-0.1,0.3-0.1,0.4c0,0.1-0.1,0.3-0.1,0.4c-0.2,0.5-0.3,1.1-0.4,1.6c-0.2,1.1-0.2,2.2-0.1,3.3c0.1,1.1,0.3,2.2,0.6,3.2
			c0.3,1,0.7,2,1.2,3c0.2,0.5,0.5,0.9,0.8,1.4c0.1,0.1,0.1,0.2,0.2,0.3c0.1,0.1,0.1,0.2,0.2,0.3l0,0l0,0l0.1,0.1
			c0,0.1,0.1,0.1,0.1,0.2l0.1,0.2c0,0,0,0.1,0.1,0.1l0,0.1c0.2,0.5,0.4,1.2,0.3,1.8l0,0.2l0,0.2c0,0.1,0,0.1,0,0.2
			c0,0.1,0,0.1-0.1,0.2c-0.1,0.3-0.2,0.6-0.3,0.8c-0.1,0.1-0.1,0.3-0.2,0.4c-0.1,0.1-0.2,0.2-0.3,0.3c-0.1,0.1-0.2,0.2-0.3,0.3
			c-0.1,0.1-0.2,0.2-0.3,0.3c-0.4,0.4-0.9,0.6-1.5,0.8c-0.1,0-0.3,0.1-0.4,0.1c-0.1,0-0.3,0.1-0.4,0.1c-0.1,0-0.1,0-0.2,0
			c-0.1,0-0.1,0-0.2,0l-0.2,0l-0.1,0l0,0l-0.1,0c-0.5,0-1.1-0.1-1.6-0.2c-0.1,0-0.3-0.1-0.4-0.1c-0.1,0-0.2-0.1-0.4-0.1
			c-0.1,0-0.2-0.1-0.4-0.1c-0.1,0-0.2-0.1-0.3-0.2c-0.4-0.2-0.9-0.5-1.3-0.7c-0.4-0.3-0.8-0.6-1.1-0.9c-0.4-0.3-0.7-0.6-1-0.9
			c-0.6-0.6-1.2-1.2-1.9-1.7c-0.1-0.1-0.2-0.1-0.2-0.2l-0.1-0.1L10,27.4c-0.1-0.1-0.2-0.1-0.2-0.1c0,0-0.1,0-0.1-0.1l-0.1-0.1
			l-0.1-0.1c0,0-0.1,0-0.1-0.1c0,0-0.1,0-0.1-0.1l-0.1,0c-0.2-0.1-0.3-0.1-0.5-0.1c-0.3-0.1-0.7-0.1-1.1-0.1c-0.3,0-0.7,0.1-1,0.2
			c-0.2,0-0.3,0.1-0.5,0.2c-0.1,0.1-0.3,0.1-0.4,0.2c-0.1,0.1-0.3,0.2-0.4,0.3c-0.1,0.1-0.2,0.2-0.3,0.3c-0.2,0.2-0.4,0.5-0.5,0.7
			l-0.1,0.1l0,0c0,0,0,0,0,0c0,0,0,0,0,0c0,0.1,0,0.1-0.1,0.2c0,0.1-0.1,0.3-0.1,0.4c0,0.3,0,0.6,0,0.8c0,0.1,0.1,0.2,0.1,0.3
			c0,0,0,0.1,0.1,0.1c0,0,0,0,0,0c0,0,0,0,0,0c0,0,0,0,0,0c0,0,0,0,0,0c0,0,0,0,0,0c0,0,0,0,0,0l0.1,0l0,0c0,0,0,0,0,0l0,0
			c0,0,0,0,0.1,0c0.1,0,0.2,0,0.3-0.1c0.1,0,0.2-0.1,0.3-0.2c0.1-0.1,0.2-0.2,0.4-0.2c0,0,0.1,0,0.1-0.1c0,0,0.1,0,0.1,0l0.1,0
			c0,0,0,0,0.1,0c0.1,0,0.1,0,0.2,0c0,0,0,0,0,0l0,0l0,0l0,0c0,0,0.1,0,0.1,0l0.1,0c0,0,0.1,0,0.1,0c0,0,0.1,0,0.1,0
			c0.3,0,0.6,0.1,0.9,0.2c0.1,0.1,0.3,0.1,0.4,0.2c0,0,0.1,0,0.1,0.1c0,0,0.1,0,0.1,0.1L8,30.6l0,0c0,0,0,0,0,0l0,0
			c0.2,0.2,0.4,0.4,0.5,0.5c0.1,0.2,0.3,0.4,0.4,0.6c0.1,0.2,0.2,0.4,0.3,0.5c0.2,0.3,0.3,0.6,0.4,0.9c0.1,0.1,0.1,0.3,0.1,0.4
			c0,0.1,0.1,0.2,0.1,0.3c0.1,0.2,0.1,0.4,0.2,0.5c0.1,0.1,0.1,0.2,0.1,0.3c0,0.1,0.1,0.1,0.1,0.1l0,0c0.1,0.2,0,0.5-0.2,0.6
			C9.9,35.5,9.6,35.4,9.5,35.2z"/>
		<path class="st2" d="M40.4,38C40.4,38,40.4,38,40.4,38c0.1,0,0.1,0,0.2,0c0,0,0,0,0.1,0c0,0,0.1,0,0.1,0c0.1,0,0.1,0,0.2,0
			c0.1,0,0.1,0,0.2,0c0.1,0,0.2,0,0.3,0c0.1,0,0.2,0,0.3,0.1c0.4,0.1,0.9,0.3,1.4,0.6c0.2,0.2,0.5,0.4,0.7,0.6
			c0.1,0.1,0.1,0.1,0.2,0.2l0,0l0,0l0,0l0,0l0,0c0,0,0.1,0.1,0.1,0.1c0,0,0.1,0.1,0.1,0.1c0,0,0.1,0.1,0.1,0.1
			c0.1,0.1,0.1,0.1,0.2,0.2c0.2,0.3,0.4,0.6,0.5,1c0.2,0.3,0.3,0.7,0.4,1.1c0.1,0.4,0.2,0.8,0.2,1.2c0,0.1,0,0.2,0,0.3
			c0,0.1,0,0.2,0,0.3c0,0.2,0,0.4,0.1,0.6c0,0.4,0.1,0.8,0.1,1.2c0,0.4,0.1,0.8,0.2,1.2l0,0.1l0,0l0,0c0,0,0,0,0,0l0,0l0.1,0.2
			c0,0.1,0,0.1,0.1,0.1c0,0,0,0.1,0.1,0.1c0.1,0.2,0.2,0.4,0.3,0.5c0.1,0.2,0.2,0.3,0.3,0.5c0.1,0.1,0.1,0.2,0.2,0.2l0.1,0.1
			l0.1,0.1c0.3,0.3,0.6,0.5,1,0.7c0,0,0.1,0,0.1,0.1l0.1,0.1l0.1,0.1c0.1,0,0.1,0,0.1,0.1l0.1,0c0,0,0.1,0,0.1,0c0,0,0.1,0,0.1,0
			l0.1,0c0.4,0.1,0.8,0.1,1.2,0.1c0.4,0,0.8-0.1,1.1-0.2c0.2-0.1,0.3-0.1,0.5-0.2l0,0l0,0c0,0,0,0,0,0l0,0l0.1,0
			c0,0,0.1-0.1,0.1-0.1l0.1-0.1c0,0,0.1,0,0.1-0.1c0.3-0.2,0.5-0.5,0.7-0.7c0.4-0.5,0.6-1.2,0.7-1.7c0-0.1,0-0.3,0-0.4
			c0-0.1,0-0.1,0-0.2c0-0.1,0-0.1,0-0.2c0-0.1,0-0.2-0.1-0.4c0-0.1-0.1-0.2-0.1-0.3c0-0.1-0.1-0.2-0.2-0.3c0,0,0,0,0-0.1l0,0l0,0
			c0,0,0,0,0,0l0,0l0,0c0,0,0,0-0.1-0.1l0,0l0,0l0,0c0,0-0.1,0-0.1-0.1c0,0-0.1,0-0.1-0.1c-0.1,0-0.2-0.1-0.2-0.1
			c-0.3-0.1-0.6,0-0.7,0c0,0,0,0-0.1,0c0,0,0,0,0,0c0,0,0,0,0,0c0,0,0,0,0,0c0,0-0.1,0-0.1,0l0,0c-0.1,0.1-0.2,0-0.3,0
			c-0.1-0.1,0-0.2,0-0.2c0,0,0,0,0.1-0.1c0,0,0,0,0,0c0,0,0,0,0,0c0,0,0,0,0.1-0.1c0,0,0,0,0.1-0.1c0.2-0.2,0.6-0.3,1-0.3
			c0.1,0,0.2,0,0.4,0.1c0.1,0,0.1,0,0.2,0.1c0.1,0,0.1,0.1,0.2,0.1l0.1,0l0,0l0,0c0,0,0,0,0.1,0.1l0,0l0,0c0,0,0,0,0,0l0,0l0,0
			c0,0,0.1,0,0.1,0.1c0.1,0.1,0.2,0.2,0.3,0.4c0.2,0.3,0.3,0.6,0.4,0.9c0,0.1,0,0.2,0,0.3c0,0.1,0,0.2,0,0.3c0,0.2,0,0.4,0,0.5
			c-0.1,0.7-0.4,1.5-0.9,2.2c-0.2,0.3-0.5,0.7-0.9,0.9c0,0-0.1,0.1-0.1,0.1c0,0-0.1,0.1-0.1,0.1c0,0-0.1,0.1-0.1,0.1l-0.1,0l0,0l0,0
			l0,0l0,0c-0.2,0.1-0.4,0.2-0.6,0.3c-0.4,0.2-0.9,0.3-1.4,0.3c-0.5,0-0.9,0-1.4-0.1l-0.2,0c-0.1,0-0.1,0-0.2,0c-0.1,0-0.1,0-0.2,0
			l-0.2-0.1c-0.1,0-0.1,0-0.2-0.1l-0.2-0.1l-0.2-0.1c-0.1,0-0.1-0.1-0.2-0.1c-0.4-0.2-0.8-0.5-1.2-0.8c-0.4-0.3-0.7-0.7-0.9-1.1
			c-0.1-0.2-0.2-0.4-0.3-0.6c0-0.1,0-0.1-0.1-0.2c0-0.1,0-0.1-0.1-0.2l-0.1-0.2l0,0l0,0l0,0l0,0l0-0.1c-0.1-0.5-0.2-0.9-0.3-1.3
			c-0.1-0.4-0.1-0.9-0.1-1.3c0-0.2,0-0.4,0-0.6c0-0.1,0-0.2,0-0.3c0-0.1,0-0.2,0-0.3c0-0.4-0.1-0.7-0.2-1.1c-0.1-0.3-0.2-0.7-0.3-1
			c-0.1-0.3-0.3-0.6-0.5-0.8c0-0.1-0.1-0.1-0.1-0.2c0,0,0-0.1-0.1-0.1c0,0,0-0.1-0.1-0.1c0,0,0-0.1-0.1-0.1l0,0c0,0,0,0,0,0l0,0l0,0
			l0,0c0-0.1-0.1-0.1-0.1-0.2c-0.2-0.2-0.4-0.4-0.6-0.5c-0.2-0.1-0.4-0.3-0.6-0.4c-0.1,0-0.2-0.1-0.3-0.1c-0.1,0-0.2-0.1-0.3-0.1
			c-0.1,0-0.2-0.1-0.2-0.1c-0.1,0-0.1,0-0.2-0.1c-0.1,0-0.1,0-0.2,0c-0.1,0-0.1,0-0.2,0c0,0,0,0-0.1,0c0,0,0,0-0.1,0
			c0,0-0.1,0-0.1,0c-0.1,0-0.1,0-0.1,0c-0.1,0-0.2-0.1-0.2-0.3C40.2,38.1,40.3,38,40.4,38z"/>
		<circle class="st11" cx="30.6" cy="16.2" r="2.3"/>
		<circle class="st7" cx="31" cy="17.5" r="0.8"/>
		<circle class="st11" cx="42.8" cy="16.2" r="2.3"/>
		<circle class="st7" cx="42.2" cy="17.7" r="0.8"/>
		<path class="st7" d="M22.4,50.4l-0.2-17.3c0,0,2.7-0.3,4.4-0.2c3.8,0.2,5.9,2.7,5.8,2.6L33,50.2c0.2,0.1-1.5,0.4-4-0.1
			C27.1,49.8,22.4,50.4,22.4,50.4z"/>
		<g>
			<path class="st12" d="M44.7,49.6l0.2-17.3c0,0-2.7-0.3-4.4-0.2c-3.8,0.2-5.9,2.7-5.8,2.6L34,49.4c-0.2,0.1,1.5,0.4,4-0.1
				C40,49,44.7,49.6,44.7,49.6z"/>
			<g>
				<path class="st13" d="M44.7,49.6l0.1-17.3l0.1,0.1l0,0c-1.8,0-3.6-0.2-5.4,0.1c-0.9,0.1-1.7,0.4-2.6,0.8
					c-0.4,0.2-0.8,0.4-1.2,0.7c-0.2,0.1-0.4,0.3-0.5,0.4l-0.3,0.2l-0.1,0.1l-0.1,0.1l0,0l0,0c0,0,0,0,0,0c0,0,0,0,0-0.1
					c-0.1-0.1-0.1,0-0.1,0l0.1,0.1l-0.7,14.7l0,0c0.8,0.1,1.8,0.1,2.6,0.1c0.9-0.1,1.8-0.3,2.7-0.3C41.1,49.2,42.9,49.4,44.7,49.6z
					 M44.7,49.6c-1.8-0.2-3.6-0.4-5.3-0.3c-0.9,0-1.8,0.2-2.7,0.3c-0.4,0-0.9,0.1-1.3,0c-0.2,0-0.4,0-0.7,0l-0.3,0l-0.2,0l-0.1,0
					l0,0c0,0,0,0,0,0c0,0,0,0,0-0.1c0,0,0,0,0,0l0,0l0.6-14.7l0.1,0.1c0,0-0.1,0.1-0.1,0c0,0,0,0,0-0.1c0,0,0-0.1,0-0.1l0,0l0,0
					l0.1-0.1l0.1-0.1l0.3-0.2c0.2-0.2,0.4-0.3,0.5-0.4c0.4-0.3,0.8-0.5,1.2-0.7c0.8-0.4,1.7-0.7,2.6-0.9c0.9-0.2,1.8-0.2,2.8-0.2
					c0.9,0,1.8,0.1,2.7,0.3l0,0l0.1,0l0,0.1L44.7,49.6z"/>
			</g>
		</g>
		<path class="st14" d="M31.4,40.8c-2.1,0.5-4.3,1-6.4,1.6"/>
		<path class="st15" d="M21.5,49.4"/>
		<g>
			<path class="st12" d="M24.3,51.8l-1.3-18.5c1.4-0.1,1.9-0.2,4.5,0.7c2.7,0.9,4.8,3,4.7,2.9l0.2,15c0.1,0.1-1.1,0.4-2.9-0.1
				C28,51.6,24.3,51.8,24.3,51.8z"/>
			<path class="st13" d="M24.2,52l-1.4-18.6l0-0.2h0.2h0c0.8-0.1,1.7-0.1,2.6,0.1c0.8,0.2,1.7,0.5,2.5,0.8c0.8,0.3,1.6,0.7,2.3,1.2
				c0.4,0.2,0.7,0.5,1,0.8l0.5,0.4l0.2,0.2l0.1,0.1l0.1,0.1l0,0l0,0c0,0,0,0,0,0c0,0,0,0,0,0c0,0-0.1,0-0.1,0.1c0,0.1,0,0.1,0,0.1
				l0,0l0.2-0.1c-0.2,0.3-0.2,0.6,0,0.9c0.1,0.3,0.1,0.6,0.1,0.9l0,1.9l0,3.7l0.1,7.5l0,0l-0.1-0.2c0,0,0.1,0.1,0.1,0.1
				c0,0.1,0,0.1,0,0.1c0,0,0,0-0.1,0.1c-0.1,0-0.1,0-0.1,0c0,0-0.1,0-0.1,0c0,0-0.1,0-0.1,0c-0.1,0-0.2,0-0.3,0c-0.2,0-0.4,0-0.5,0
				c-0.3,0-0.7,0-1,0c-0.7-0.1-1.3-0.3-2-0.3c-0.7,0-1.3,0-2,0l-1,0l-0.5,0l-0.3,0l-0.1,0C24.4,52,24.4,52,24.2,52z M24.4,51.7
				C24.2,51.6,24.4,51.7,24.4,51.7l0.1-0.1l0.3,0l0.5,0l1,0c0.7,0,1.4,0,2.1,0c0.3,0,0.7,0,1,0.1c0.3,0.1,0.7,0.1,1,0.2
				c0.3,0,0.7,0.1,1,0c0.2,0,0.3,0,0.5,0c0.1,0,0.2,0,0.2,0l0.1,0l0,0c0,0,0,0,0,0c0,0,0,0,0,0c0,0,0,0,0,0.1c0,0.1,0.1,0.1,0.1,0.1
				l-0.1-0.2l0,0l-0.1-7.5L32,40.7l0-1.9c0-0.3,0-0.6,0.1-0.9c0.2-0.3,0.1-0.6,0-0.9l0.2-0.1l0,0c0,0,0,0,0,0.1
				c0,0.1-0.1,0.1-0.1,0.1c0,0,0,0-0.1,0c0,0-0.1,0-0.1,0l0,0l0,0L32,37l-0.1-0.1l-0.2-0.2l-0.5-0.4c-0.3-0.3-0.7-0.5-1-0.7
				c-0.7-0.5-1.4-0.9-2.2-1.2c-0.8-0.3-1.6-0.5-2.4-0.7c-0.8-0.2-1.6-0.2-2.5-0.1h0l0.2-0.2L24.4,51.7z"/>
		</g>
		<g>
			<path class="st12" d="M41.8,50.7l1.3-18.5c-1.4-0.1-1.9-0.2-4.5,0.7c-2.7,0.9-4.8,3-4.7,2.9l-0.2,15c-0.1,0.1,1.1,0.4,2.9-0.1
				C38.1,50.4,41.8,50.7,41.8,50.7z"/>
			<g>
				<path class="st13" d="M41.7,50.5L43,32.2l0.2,0.2h0c-0.9-0.1-1.7-0.1-2.5,0.1c-0.8,0.2-1.6,0.4-2.4,0.7
					c-0.8,0.3-1.5,0.7-2.2,1.2c-0.4,0.2-0.7,0.5-1,0.7l-0.5,0.4l-0.2,0.2l-0.1,0.1l-0.1,0.1l0,0l0,0c0,0,0,0-0.1,0c0,0,0,0-0.1,0
					c0,0-0.1,0-0.1-0.1c0-0.1,0-0.1,0-0.1l0,0l0.2,0.1c-0.2,0.3-0.2,0.6,0,0.9c0.1,0.3,0.1,0.6,0.1,0.9l0,1.9L34,43.3l-0.1,7.5l0,0
					l-0.1,0.2c0,0,0.1,0,0.1-0.1c0-0.1,0-0.1,0-0.1c0,0,0,0,0,0c0,0,0,0,0,0l0,0l0.1,0c0.1,0,0.2,0,0.2,0c0.2,0,0.3,0,0.5,0
					c0.3,0,0.7,0,1,0c0.3,0,0.7-0.1,1-0.2c0.4-0.1,0.7-0.1,1-0.1c0.7,0,1.4,0,2.1,0l1,0l0.5,0l0.3,0L41.7,50.5
					C41.7,50.5,41.8,50.4,41.7,50.5z M41.9,50.8c-0.2,0.1-0.2,0-0.3,0l-0.1,0l-0.3,0l-0.5,0l-1,0c-0.7,0-1.4,0-2,0
					c-0.7,0-1.3,0.2-2,0.3c-0.3,0-0.7,0.1-1,0c-0.2,0-0.3,0-0.5,0c-0.1,0-0.2,0-0.3,0c0,0-0.1,0-0.1,0c0,0-0.1,0-0.1,0
					c0,0,0,0-0.1,0c0,0,0,0-0.1-0.1c0,0,0-0.1,0-0.1c0-0.1,0.1-0.1,0.1-0.1l-0.1,0.2l0,0l0.1-7.5l0-3.7l0-1.9c0-0.3,0-0.6,0.1-0.9
					c0.2-0.3,0.2-0.6,0-0.9l0.2,0.1l0,0c0,0,0,0,0-0.1c0-0.1-0.1-0.1-0.1-0.1c0,0,0,0,0,0c0,0-0.1,0,0,0l0,0l0,0l0.1-0.1l0.1-0.1
					l0.2-0.2l0.5-0.4c0.3-0.3,0.7-0.5,1-0.8c0.7-0.5,1.5-0.9,2.3-1.2c0.8-0.3,1.6-0.6,2.5-0.8c0.8-0.2,1.7-0.2,2.6-0.1h0h0.2l0,0.2
					L41.9,50.8z"/>
			</g>
		</g>
		<path class="st16" d="M44.8,51.6L45,34.3c0,0-3.7-0.4-5-0.3c-2.4,0.1-6.1,1.9-6.1,1.9l-0.1,17.7c-0.2,0.1,1.5-1.5,3.9-1.9
			C39.8,51.3,44.8,51.6,44.8,51.6z"/>
		<path class="st13" d="M33,53.8L33,53.8c-1,0-1.7-0.7-1.7-1.6V37.1c0-0.9,0.7-1.6,1.6-1.6H33c0.9,0,1.6,0.7,1.6,1.6v15.1
			C34.6,53.1,33.9,53.8,33,53.8z"/>
		<path class="st17" d="M20.7,51.9l-0.2-17.3c0,0,3.7-0.4,5-0.3c2.4,0.1,6.1,1.9,6.1,1.9l0.1,17.7c0.1-0.7-1.5-1.6-3.8-0.2
			C25.1,55.3,20.1,52.2,20.7,51.9z"/>
		<g>
			<path class="st12" d="M54.7,52.1l-5.4-12.8c0.8-0.3,1.1-0.5,2.9-0.4c1.9,0.1,3.7,1.1,3.6,1.1l3.8,10.6c0.1,0-0.6,0.5-1.8,0.6
				C56.9,51.1,54.7,52.1,54.7,52.1z"/>
			<path class="st13" d="M54.7,52.2l-5.4-12.9l0-0.1l0.1,0l0,0c0.5-0.2,1.1-0.4,1.7-0.5c0.6,0,1.1,0,1.7,0c0.6,0.1,1.1,0.2,1.7,0.4
				c0.3,0.1,0.5,0.2,0.8,0.3l0.4,0.2l0.2,0.1l0.1,0l0,0l0,0l0,0c0,0,0,0,0,0c0,0,0,0,0,0c-0.1,0,0,0.1,0,0.1l0,0l0.1-0.1
				c0,0.3,0,0.5,0.2,0.7c0.2,0.2,0.2,0.4,0.3,0.6l0.5,1.3l0.9,2.6l1.9,5.3l0,0l-0.1-0.1c0.1,0,0.1,0.1,0.1,0.1c0,0,0,0,0,0
				c0,0,0,0.1,0,0.1l0,0l-0.1,0.1c-0.1,0-0.1,0.1-0.2,0.1c-0.1,0.1-0.2,0.1-0.3,0.1C59,51,58.7,51,58.5,51.1
				c-0.5,0.1-0.9,0.1-1.3,0.2c-0.4,0.1-0.8,0.3-1.2,0.4l-0.6,0.2l-0.3,0.1l-0.1,0.1l-0.1,0C54.8,52.2,54.9,52.2,54.7,52.2z M54.8,52
				C54.7,51.9,54.8,51.9,54.8,52L54.8,52l0.2-0.1l0.3-0.1l0.6-0.2c0.4-0.2,0.8-0.3,1.3-0.4c0.4-0.1,0.9-0.1,1.3-0.2
				c0.2,0,0.4-0.1,0.6-0.2c0.1,0,0.2-0.1,0.3-0.1c0,0,0.1,0,0.1-0.1l0.1,0l0,0c0,0,0,0,0,0c0,0,0,0,0,0c0,0,0.1,0.2,0.1,0.1
				l-0.1-0.1l0,0l-1.9-5.3l-1-2.6l-0.5-1.3C56.1,41,56,40.8,56,40.5c0-0.3-0.1-0.5-0.3-0.7l0.1-0.1l0,0c0,0,0,0.1,0,0.1c0,0,0,0,0,0
				c0,0-0.1,0-0.1,0l0,0l0,0l0,0l-0.1,0l-0.2-0.1l-0.4-0.2c-0.3-0.1-0.5-0.2-0.8-0.3c-0.5-0.2-1.1-0.3-1.6-0.4c-0.5,0-1.1-0.1-1.7,0
				c-0.6,0-1.1,0.2-1.6,0.4l0,0l0.1-0.2L54.8,52z"/>
		</g>
		<g>
			<path class="st12" d="M65.1,47.5l-3.7-13.4c-0.9,0.3-1.2,0.3-2.6,1.5c-1.4,1.2-2.2,3.2-2.1,3l3.6,10.7c-0.1,0.1,0.8,0,1.8-0.7
				C62.8,48.1,65.1,47.5,65.1,47.5z"/>
			<g>
				<path class="st13" d="M65,47.5l-3.8-13.3l0.2,0.1l0,0c-0.6,0.1-1.1,0.3-1.5,0.6c-0.5,0.3-0.9,0.7-1.3,1.1
					c-0.4,0.4-0.7,0.8-1,1.3c-0.2,0.2-0.3,0.5-0.4,0.7l-0.2,0.4l-0.1,0.2l0,0.1l0,0l0,0l0,0c0,0,0,0,0,0c0,0,0,0,0,0
					c-0.1,0-0.1-0.1-0.1-0.1l0,0l0.2,0c0,0.3,0,0.5,0.2,0.7c0.1,0.2,0.2,0.4,0.3,0.6l0.4,1.3l0.9,2.7l1.8,5.3l0,0l0,0.1
					c0,0,0-0.2,0-0.2c0,0,0,0,0,0c0,0,0,0,0,0l0,0l0.1,0c0,0,0.1,0,0.2,0c0.1,0,0.2,0,0.3-0.1c0.2-0.1,0.4-0.1,0.6-0.2
					c0.4-0.2,0.7-0.5,1.2-0.6c0.4-0.2,0.8-0.3,1.2-0.4l0.6-0.2l0.3-0.1L65,47.5L65,47.5C65,47.5,65.1,47.4,65,47.5z M65.2,47.6
					c-0.1,0.1-0.1,0.1-0.2,0.1l-0.1,0l-0.2,0l-0.3,0.1L63.9,48c-0.4,0.1-0.8,0.3-1.2,0.4c-0.4,0.1-0.7,0.4-1.1,0.6
					c-0.2,0.1-0.4,0.2-0.6,0.3c-0.1,0-0.2,0.1-0.3,0.1c-0.1,0-0.1,0-0.2,0l-0.1,0l-0.1,0c0,0,0,0-0.1,0c0,0,0,0,0,0c0,0,0-0.2,0-0.2
					l0,0.1l0,0L58.3,44l-0.9-2.7L56.9,40c-0.1-0.2-0.2-0.4-0.2-0.7c0-0.3-0.1-0.5-0.2-0.7l0.2,0l0,0c0,0,0-0.1-0.1-0.1c0,0,0,0,0,0
					c0,0,0,0,0,0l0,0l0,0l0,0l0-0.1l0.1-0.2l0.2-0.4c0.1-0.3,0.3-0.5,0.4-0.7c0.3-0.5,0.7-0.9,1.1-1.3c0.4-0.4,0.8-0.8,1.3-1.1
					c0.5-0.3,1-0.5,1.6-0.7l0,0l0.1,0l0,0.1L65.2,47.6z"/>
			</g>
		</g>
		<path class="st18" d="M67.1,47.6L63,35.3c0,0-2.3,0.5-3.1,0.8c-1.4,0.6-3.2,2.6-3.2,2.6L61,51.2c-0.1,0.1,0.5-1.3,1.9-2.1
			C64.1,48.4,67.1,47.6,67.1,47.6z"/>
		<path class="st16" d="M60.5,51.7L60.5,51.7c-0.6,0.2-1.2-0.1-1.4-0.6L55.3,40c-0.2-0.5,0.1-1.1,0.6-1.3l0,0
			c0.5-0.2,1.1,0.1,1.3,0.6l3.8,11.1C61.4,50.9,61.1,51.5,60.5,51.7z"/>
		<path class="st18" d="M52.4,52.2l-4.2-11.6c0,0,2.1-1,2.9-1.3c1.5-0.4,4.1,0,4.1,0l4.2,11.9c-0.1-0.5-1.3-0.8-2.4,0.7
			C55.9,53.6,52.1,52.6,52.4,52.2z"/>
		<path class="st19" d="M24.1,49.7c-3.1,0.5-5.6-1.9-3.5-5.5c-0.3,1,0.6,3,1.6,3.4c2.1,0.9,4.8-1.9,3.9-4.3c-0.8-2-2.7-3.3-4.8-3.3
			c-1.8,0-3.8,1-5.1,2.3c-3.7,4-1.8,11.5,5.6,13.4c2.2,0.6,4.1,0.4,5.3,0.2"/>
		<path class="st20" d="M42.3,48.7c2.1,2.7,5.9,2.7,7-1.7c-0.6,1-2.8,1.9-3.8,1.5c-2.3-0.9-2.4-5.2,0.2-6.3c2.1-0.9,4.6-0.5,6.3,1.1
			c1.4,1.4,2.2,3.6,2.2,5.7c-0.1,5.9-7.4,10.4-14.6,6.3c-2.2-1.2-3.5-2.8-4.3-3.8"/>
		<g class="st21">
			<linearGradient id="SVGID_4_" gradientUnits="userSpaceOnUse" x1="58.936" y1="49.0333" x2="61.6961" y2="54.0799">
				<stop  offset="0" style="stop-color:#2580C3"/>
				<stop  offset="1" style="stop-color:#2580C3"/>
			</linearGradient>
			<path class="st22" d="M65.4,48c0,1.3-0.4,2.6-1.1,3.8c-0.8,1.1-1.9,2-3.1,2.6c-0.6,0.3-1.4,0.6-2.1,0.6c-0.7,0-1.4-0.1-2.1-0.4
				c-1.3-0.5-2.3-1.3-3.2-2.2c1.2,0.4,2.4,0.9,3.6,1.1c1.2,0.2,2.2,0.2,3.2-0.4c1.1-0.5,2-1.2,2.9-2C64.1,50.2,64.7,49.2,65.4,48z"
				/>
		</g>
		<g class="st21">
			<linearGradient id="SVGID_5_" gradientUnits="userSpaceOnUse" x1="19.2546" y1="45.8325" x2="15.52" y2="44.3319">
				<stop  offset="0" style="stop-color:#2580C3"/>
				<stop  offset="1" style="stop-color:#2580C3"/>
			</linearGradient>
			<path class="st23" d="M15.6,50.6c-0.5-1-0.8-2.1-0.7-3.3c0-1.2,0.4-2.3,0.8-3.3c0.2-0.5,0.5-1.1,0.8-1.5c0.4-0.5,0.8-0.9,1.3-1.2
				c1-0.6,2.1-0.9,3.2-1c-1,0.6-1.9,1-2.7,1.7c-0.8,0.7-1.2,1.4-1.6,2.4c-0.4,1-0.7,1.9-0.9,3C15.6,48.4,15.6,49.5,15.6,50.6z"/>
		</g>
		<path class="st1" d="M10.3,42.6c-0.5,0-0.5,0.8,0,0.8C10.8,43.4,10.8,42.6,10.3,42.6z"/>
		<path class="st1" d="M10.7,45.1c0-0.1,0-0.1-0.1-0.2c0-0.1-0.1-0.1-0.2-0.2c-0.1,0-0.2-0.1-0.3,0c-0.2,0-0.3,0.2-0.3,0.4
			c0,0.2,0.1,0.3,0.3,0.4c0.1,0,0.1,0,0.2,0c0,0,0.1,0,0.1,0c0,0,0,0,0,0c0,0,0.1,0,0.1-0.1C10.6,45.3,10.7,45.2,10.7,45.1z"/>
		<path class="st1" d="M11.4,47.1c0-0.2-0.2-0.3-0.4-0.3c-0.1,0-0.3,0.1-0.4,0.2c-0.1,0.1-0.1,0.2,0,0.3c0,0,0,0,0,0
			c0,0.1,0.1,0.1,0.1,0.2c0.1,0.1,0.2,0.1,0.3,0.1c0.1,0,0.2,0,0.3-0.1c0,0,0-0.1,0.1-0.1c0,0,0-0.1,0-0.1
			C11.5,47.3,11.5,47.2,11.4,47.1z"/>
		<path class="st1" d="M12.3,48.6c-0.6,0-0.6,0.9,0,0.9C12.9,49.5,12.9,48.6,12.3,48.6z"/>
		<path class="st1" d="M13.9,49.8c-0.6,0-0.6,0.9,0,0.9S14.5,49.8,13.9,49.8z"/>
		<path class="st1" d="M6.8,28c-0.1-0.1-0.1-0.1-0.2-0.1c-0.1,0-0.2,0-0.2,0c0,0,0,0-0.1,0c-0.1,0-0.1,0.1-0.2,0.1
			C6.1,28.1,6,28.2,6,28.3c0,0.2,0.2,0.4,0.4,0.4c0.1,0,0.2,0,0.2-0.1c0.1-0.1,0.2-0.2,0.2-0.4C6.9,28.1,6.9,28,6.8,28z"/>
		<path class="st1" d="M8.1,27.6c-0.6,0-0.6,1,0,1S8.8,27.6,8.1,27.6z"/>
		<circle class="st1" cx="9.8" cy="28.4" r="0.4"/>
		<circle class="st1" cx="11.6" cy="29.9" r="0.5"/>
		<path class="st1" d="M13.3,30.8c-0.8,0-0.8,1.2,0,1.2C14.1,32,14.1,30.8,13.3,30.8z"/>
		<circle class="st1" cx="52.2" cy="45.6" r="0.7"/>
		<circle class="st1" cx="52.9" cy="47.7" r="0.7"/>
		<path class="st1" d="M53.1,49.1c0.6,0,0.6,1,0,1C52.5,50.1,52.5,49.1,53.1,49.1z"/>
		<circle class="st1" cx="52" cy="51.7" r="0.5"/>
		<path class="st1" d="M50.8,53c0.6,0,0.6,0.9,0,0.9S50.2,53,50.8,53z"/>
		<circle class="st1" cx="49.2" cy="54.7" r="0.3"/>
		<circle class="st1" cx="41" cy="54.7" r="0.6"/>
		<circle class="st1" cx="43.3" cy="55.6" r="0.6"/>
		<circle class="st1" cx="45.2" cy="55.8" r="0.6"/>
		<circle class="st1" cx="47" cy="55.7" r="0.6"/>
		<path class="st1" d="M39.3,53.3c0.6,0,0.6,1,0,1C38.7,54.3,38.7,53.3,39.3,53.3z"/>
		<path class="st1" d="M37.4,53C37.4,53,37.4,53,37.4,53c0.1-0.1,0.3-0.1,0.4,0c0.1,0.1,0.2,0.2,0.2,0.3c0,0.1-0.1,0.2-0.2,0.3
			c-0.1,0.1-0.2,0.1-0.3,0c0,0,0,0,0,0c-0.1-0.1-0.2-0.2-0.2-0.3S37.3,53.1,37.4,53z"/>
		<path class="st1" d="M36.8,51.6C36.8,51.6,36.8,51.6,36.8,51.6c0.2,0,0.2,0.2,0.2,0.3c0,0.1-0.1,0.2-0.2,0.3c0,0,0,0,0,0
			c-0.2,0.1-0.4-0.1-0.4-0.3C36.4,51.7,36.6,51.5,36.8,51.6z"/>
		<linearGradient id="SVGID_6_" gradientUnits="userSpaceOnUse" x1="25.9766" y1="8.5614" x2="33.599" y2="8.5614">
			<stop  offset="0" style="stop-color:#2580C3"/>
			<stop  offset="1" style="stop-color:#2580C3"/>
		</linearGradient>
		<path class="st24" d="M26.3,10.7c0,0,0.1,0.1,0.1,0.1c0.6,0.6,1.6,0.7,2.4,0.7c1.4-0.1,2.7-0.5,3.7-1.4c1.2-1.2,1.9-4.1-0.7-4.4
			c-0.9-0.1-2,0.3-2.7,0.7c-1.1,0.6-1.9,1.2-2.6,2.1C25.9,9.1,25.8,10,26.3,10.7z"/>
		<linearGradient id="SVGID_7_" gradientUnits="userSpaceOnUse" x1="23.8313" y1="13.4626" x2="26.2509" y2="13.4626">
			<stop  offset="0" style="stop-color:#2580C3"/>
			<stop  offset="1" style="stop-color:#2580C3"/>
		</linearGradient>
		<circle class="st25" cx="25" cy="13.5" r="1.2"/>
		<linearGradient id="SVGID_8_" gradientUnits="userSpaceOnUse" x1="34.5805" y1="7.7534" x2="36.2656" y2="7.7534">
			<stop  offset="0" style="stop-color:#2580C3"/>
			<stop  offset="1" style="stop-color:#2580C3"/>
		</linearGradient>
		<circle class="st26" cx="35.4" cy="7.8" r="0.8"/>
		<linearGradient id="SVGID_9_" gradientUnits="userSpaceOnUse" x1="42.4977" y1="25.7911" x2="45.8679" y2="25.7911">
			<stop  offset="0" style="stop-color:#2580C3"/>
			<stop  offset="1" style="stop-color:#2580C3"/>
		</linearGradient>
		<circle class="st27" cx="44.2" cy="25.8" r="1.7"/>
		<linearGradient id="SVGID_10_" gradientUnits="userSpaceOnUse" x1="45.1572" y1="21.8978" x2="47.1016" y2="21.8978">
			<stop  offset="0" style="stop-color:#2580C3"/>
			<stop  offset="1" style="stop-color:#2580C3"/>
		</linearGradient>
		<circle class="st28" cx="46.1" cy="21.9" r="1"/>
		<linearGradient id="SVGID_11_" gradientUnits="userSpaceOnUse" x1="42.9506" y1="22.9368" x2="44.1172" y2="22.9368">
			<stop  offset="0" style="stop-color:#2580C3"/>
			<stop  offset="1" style="stop-color:#2580C3"/>
		</linearGradient>
		<circle class="st29" cx="43.5" cy="22.9" r="0.6"/>
		<linearGradient id="SVGID_12_" gradientUnits="userSpaceOnUse" x1="23.9713" y1="16.3825" x2="25.462" y2="16.3825">
			<stop  offset="0" style="stop-color:#2580C3"/>
			<stop  offset="1" style="stop-color:#2580C3"/>
		</linearGradient>
		<circle class="st30" cx="24.7" cy="16.4" r="0.7"/>
		<path class="st31" d="M33.6,22.6c0.5,3,4.8,2.1,4.7-0.3"/>
		<linearGradient id="SVGID_13_" gradientUnits="userSpaceOnUse" x1="34.516" y1="5.3517" x2="36.9789" y2="5.3517">
			<stop  offset="0" style="stop-color:#2580C3"/>
			<stop  offset="1" style="stop-color:#2580C3"/>
		</linearGradient>
		<circle class="st32" cx="35.7" cy="5.4" r="1.2"/>
		<path class="st33" d="M60.7,46c1.5,2.8,0,5.9-4.1,5.1c1.1-0.1,2.6-1.6,2.7-2.6c0.2-2.3-3.4-4-5.3-2.3c-1.6,1.4-2.2,3.6-1.6,5.6
			c0.6,1.7,2.1,3.3,3.8,4c5,2.2,11.5-2.1,10.9-9.7c-0.2-2.3-0.9-4-1.5-5"/>
		<path class="st34" d="M28.7,52.3c-0.2,3.1-3,5.1-6.1,2.3c1,0.5,3,0,3.6-0.9c1.3-1.9-0.8-5.1-3.4-4.7c-2.1,0.4-3.8,2-4.2,4
			c-0.4,1.8,0.2,3.9,1.2,5.4c3.1,4.4,10.9,4.1,14.2-2.7c1-2,1.3-3.9,1.3-5.1"/>
		<g>
			<path class="st1" d="M68,37.3c-0.1-0.5-0.9-0.4-0.8,0.1S68.1,37.8,68,37.3z"/>
			<ellipse transform="matrix(0.9862 -0.1653 0.1653 0.9862 -4.9263 11.603)" class="st1" cx="67.3" cy="35.4" rx="0.6" ry="0.6"/>
			<ellipse transform="matrix(0.9862 -0.1653 0.1653 0.9862 -5.493 11.5845)" class="st1" cx="66.9" cy="38.8" rx="0.3" ry="0.3"/>
			<path class="st1" d="M65.8,39.2c-0.1-0.3-0.6-0.3-0.5,0.1C65.4,39.7,65.9,39.6,65.8,39.2z"/>
		</g>
		<path class="st1" d="M20.5,57.6c-0.8,0-0.8,1.2,0,1.2C21.3,58.8,21.3,57.6,20.5,57.6z"/>
		<path class="st1" d="M25.1,59.6c-0.5,0-0.5,0.9,0,0.9C25.6,60.4,25.6,59.6,25.1,59.6z"/>
		<path class="st1" d="M26.7,59.8c-0.4,0-0.4,0.7,0,0.7C27.2,60.5,27.2,59.8,26.7,59.8z"/>
		<path class="st1" d="M28.1,59.2c-0.4,0-0.4,0.7,0,0.7C28.6,59.9,28.6,59.2,28.1,59.2z"/>
		<path class="st1" d="M29.5,58.3c-0.4,0-0.4,0.7,0,0.7C29.9,59,29.9,58.3,29.5,58.3z"/>
		<path class="st1" d="M23.5,59.6c-0.4,0-0.4,0.7,0,0.7C23.9,60.4,23.9,59.6,23.5,59.6z"/>
		<path class="st1" d="M30.4,57.4c-0.4,0-0.4,0.6,0,0.6C30.8,58,30.8,57.4,30.4,57.4z"/>
		<path class="st1" d="M19.7,55.8c-0.8,0-0.8,1.2,0,1.2C20.4,57,20.4,55.8,19.7,55.8z"/>
		<path class="st1" d="M22.2,59.1c0.6,0,0.6,1,0,1C21.5,60,21.5,59.1,22.2,59.1z"/>
	</g>
	<g>
		<path class="st35" d="M75.7,15.2c0.3,0,0.6,0.1,0.8,0.3c0.2,0.2,0.2,0.4,0.2,0.7c0,0.3-0.1,0.5-0.2,0.7c-0.2,0.2-0.4,0.3-0.6,0.3
			l-4.3,1l3.2,14.4c0.1,0.3,0,0.6-0.2,0.8c-0.2,0.2-0.4,0.3-0.7,0.4c-0.3,0-0.5,0-0.8-0.1c-0.2-0.1-0.4-0.3-0.5-0.5l-3.4-14.5
			l-4.1,0.9c-0.3,0.1-0.6,0-0.8-0.2c-0.2-0.2-0.3-0.4-0.3-0.7c0-0.3,0-0.5,0.1-0.8c0.1-0.2,0.2-0.4,0.5-0.5L75.7,15.2z"/>
		<path class="st35" d="M85.5,33.4c0.2-1.6,0.2-2.9,0.2-3.9c0-1-0.1-1.7-0.3-2.2c-0.2-0.5-0.4-0.9-0.6-1c-0.2-0.2-0.5-0.3-0.7-0.3
			c-0.4,0-0.7,0-1.1,0.1c-0.4,0.1-0.7,0.3-1,0.6c-0.3,0.3-0.5,0.6-0.7,0.9c-0.2,0.4-0.3,0.7-0.3,1.1l-0.3,4c0,0.3-0.2,0.5-0.4,0.7
			c-0.2,0.2-0.5,0.3-0.7,0.3c-0.3,0-0.5-0.1-0.7-0.2s-0.3-0.5-0.4-0.9L79.8,17c0-0.4,0.1-0.6,0.4-0.7c0.2-0.1,0.5-0.2,0.7-0.1
			c0.3,0,0.5,0.1,0.7,0.3c0.2,0.2,0.3,0.4,0.3,0.6l-0.6,7.6c0.4-0.3,0.9-0.5,1.4-0.6c0.5-0.1,1-0.2,1.6-0.2c1,0.1,1.7,0.4,2.2,0.9
			s0.9,1.2,1.1,2s0.3,1.9,0.3,3c0,1.1-0.1,2.4-0.2,3.7c0,0.3-0.2,0.6-0.4,0.7c-0.2,0.1-0.5,0.2-0.7,0.1c-0.3,0-0.5-0.1-0.7-0.3
			C85.6,33.9,85.5,33.7,85.5,33.4z"/>
		<path class="st35" d="M90.7,23.7c0.1-0.3,0.3-0.5,0.6-0.6c0.3-0.1,0.5-0.1,0.8,0c0.3,0.1,0.5,0.2,0.7,0.4c0.2,0.2,0.2,0.4,0.2,0.6
			L92.1,32c0,0.4-0.2,0.6-0.4,0.7c-0.2,0.1-0.5,0.1-0.8,0.1c-0.3,0-0.5-0.2-0.7-0.3S90,32.1,90,31.9L90.7,23.7z M91,20.7
			c0-0.4,0.2-0.6,0.4-0.9c0.3-0.2,0.6-0.3,0.9-0.2c0.4,0,0.7,0.2,0.9,0.4c0.2,0.3,0.3,0.6,0.3,0.9c-0.1,0.4-0.2,0.7-0.5,0.9
			s-0.6,0.3-0.9,0.3c-0.4,0-0.6-0.2-0.9-0.5C91,21.4,91,21.1,91,20.7z"/>
		<path class="st35" d="M102.2,32.4c0.2-1.6,0.4-2.9,0.4-3.9c0-1-0.1-1.7-0.2-2.3c-0.1-0.5-0.3-0.9-0.5-1.1
			c-0.2-0.2-0.5-0.3-0.7-0.3c-0.4-0.1-0.8,0-1.1,0.1c-0.4,0.1-0.7,0.3-1,0.5s-0.5,0.5-0.7,0.9c-0.2,0.3-0.3,0.7-0.4,1.1l-0.5,4
			c-0.1,0.3-0.2,0.5-0.4,0.7c-0.2,0.2-0.5,0.3-0.7,0.3c-0.3,0-0.5-0.1-0.7-0.3c-0.2-0.2-0.3-0.5-0.3-0.9l1.1-8.5
			c0-0.3,0.2-0.6,0.4-0.7s0.5-0.1,0.7-0.1c0.3,0,0.5,0.2,0.7,0.3c0.2,0.2,0.3,0.4,0.3,0.6l0,0.4c0.4-0.3,0.9-0.5,1.4-0.6
			s1-0.1,1.6-0.1c1,0.1,1.7,0.5,2.2,1c0.5,0.5,0.8,1.2,1,2.1c0.2,0.9,0.2,1.8,0.1,3c-0.1,1.1-0.2,2.4-0.4,3.7c0,0.4-0.2,0.6-0.4,0.7
			c-0.2,0.1-0.5,0.1-0.7,0.1c-0.3-0.1-0.5-0.2-0.7-0.3S102.2,32.6,102.2,32.4z"/>
		<path class="st35" d="M106.2,16.7c0-0.3,0.2-0.6,0.4-0.7c0.2-0.2,0.5-0.2,0.8-0.2c0.3,0,0.5,0.1,0.7,0.2c0.2,0.1,0.3,0.3,0.3,0.6
			l1,9.5l4-4.2c0.3-0.2,0.6-0.2,0.9-0.1c0.3,0.1,0.5,0.3,0.6,0.5c0.2,0.2,0.3,0.5,0.3,0.8c0,0.3-0.1,0.5-0.3,0.6l-2.4,2.4l3.7,4.9
			c0.1,0.2,0.2,0.4,0.1,0.6c-0.1,0.3-0.2,0.5-0.4,0.7c-0.2,0.2-0.4,0.3-0.7,0.4s-0.5-0.1-0.8-0.3l-3.6-4.6l-1.2,1.1L110,32
			c0,0.4,0,0.6-0.3,0.8c-0.2,0.2-0.4,0.2-0.7,0.3c-0.3,0-0.5,0-0.7-0.2c-0.2-0.1-0.4-0.3-0.4-0.5L106.2,16.7z"/>
		<path class="st35" d="M119.9,17.1c0-0.1,0.1-0.2,0.2-0.4s0.2-0.3,0.4-0.5c0.2-0.2,0.4-0.3,0.7-0.5c0.3-0.1,0.6-0.2,1-0.2
			c0.3,0,0.7,0,1.2,0.1c0.5,0,1,0.1,1.6,0.3c0.5,0.1,1.1,0.3,1.7,0.6c0.6,0.2,1.1,0.6,1.5,1c0.4,0.4,0.8,0.9,1,1.5
			c0.2,0.6,0.3,1.3,0.2,2.1c-0.1,0.5-0.2,0.9-0.4,1.2c-0.2,0.4-0.4,0.7-0.7,1c-0.3,0.3-0.6,0.5-1,0.8c-0.4,0.2-0.7,0.4-1.1,0.5
			c0.4,0.3,0.8,0.6,1.2,1c0.4,0.4,0.6,0.8,0.9,1.2c0.2,0.4,0.4,0.9,0.5,1.4c0.1,0.5,0.1,1,0,1.5c-0.4,1.8-1.3,3-2.8,3.6
			s-3.6,0.5-6.3,0c-0.3-0.1-0.5-0.1-0.8-0.2c-0.2,0-0.5-0.1-0.6-0.3c-0.2-0.1-0.3-0.3-0.4-0.6c-0.1-0.3-0.1-0.7,0-1.2L119.9,17.1z
			 M126.5,29.1c0.1-0.7,0-1.2-0.4-1.7c-0.3-0.5-0.7-0.9-1.3-1.3c-0.5-0.3-1.2-0.6-1.9-0.8c-0.7-0.2-1.4-0.3-2.2-0.4l-0.9,6.2
			c0.6,0.2,1.2,0.4,1.9,0.5c0.7,0.1,1.4,0.1,2.1,0c0.7-0.1,1.2-0.4,1.7-0.8S126.4,29.9,126.5,29.1z M127.2,20.8
			c0.1-0.4,0-0.7-0.3-1.1c-0.2-0.4-0.6-0.7-1.1-1c-0.5-0.3-1.1-0.5-1.7-0.7s-1.4-0.2-2.3-0.2l-0.7,5c0.5,0.1,1.1,0.2,1.7,0.3
			c0.7,0.1,1.3,0,1.9-0.1c0.6-0.1,1.2-0.3,1.6-0.7C126.9,22,127.1,21.5,127.2,20.8z"/>
		<path class="st35" d="M131.4,30.5c-0.4-0.6-0.6-1.2-0.7-1.9c-0.1-0.7-0.1-1.3,0-1.9c0.1-0.6,0.4-1.2,0.8-1.8
			c0.4-0.5,0.8-1,1.4-1.4c0.6-0.4,1.2-0.6,1.9-0.7c0.7-0.1,1.3-0.1,1.9,0.1c0.6,0.2,1.2,0.4,1.8,0.8c0.5,0.4,1,0.9,1.4,1.5
			c0.4,0.6,0.6,1.2,0.7,1.9c0.1,0.7,0.1,1.3,0,2c-0.1,0.6-0.4,1.2-0.8,1.8c-0.4,0.5-0.8,1-1.4,1.4c-0.6,0.4-1.2,0.6-1.9,0.7
			c-0.7,0.1-1.3,0-1.9-0.1c-0.6-0.2-1.2-0.4-1.8-0.8C132.2,31.6,131.8,31.1,131.4,30.5z M133.2,29.4c0.2,0.3,0.5,0.6,0.8,0.9
			c0.3,0.2,0.7,0.4,1,0.5c0.4,0.1,0.7,0.1,1.1,0.1s0.7-0.2,1.1-0.4c0.3-0.2,0.6-0.5,0.8-0.8c0.2-0.3,0.4-0.7,0.4-1
			c0.1-0.4,0.1-0.7,0-1.1c-0.1-0.4-0.2-0.7-0.4-1.1c-0.2-0.3-0.5-0.6-0.8-0.9s-0.7-0.4-1-0.5c-0.4-0.1-0.7-0.1-1.1-0.1
			c-0.4,0-0.7,0.2-1.1,0.4c-0.3,0.2-0.6,0.5-0.8,0.8s-0.4,0.7-0.4,1c-0.1,0.4-0.1,0.7,0,1.1C132.8,28.7,133,29.1,133.2,29.4z"/>
		<path class="st35" d="M147.3,28l1.9,4c0.1,0.3,0.1,0.6,0,0.8c-0.1,0.2-0.3,0.4-0.6,0.4c-0.2,0.1-0.5,0.1-0.8,0.1
			c-0.3,0-0.4-0.2-0.5-0.4l-1.7-3.4l-2.8,2.6c-0.2,0.2-0.4,0.2-0.6,0.2c-0.3,0-0.5-0.2-0.7-0.3c-0.2-0.2-0.3-0.4-0.4-0.6
			s0-0.5,0.3-0.8l3.2-3.1l-2-4.1c-0.1-0.3,0-0.6,0.2-0.8c0.2-0.2,0.4-0.3,0.7-0.3c0.3,0,0.6,0,0.8,0.1c0.3,0.1,0.4,0.3,0.5,0.5
			l1.4,3l2.4-2.3c0.1-0.2,0.3-0.3,0.6-0.3c0.3,0,0.5,0.1,0.8,0.2c0.3,0.1,0.4,0.3,0.6,0.6c0.1,0.2,0.1,0.5-0.1,0.8L147.3,28z"/>
	</g>
	
		<ellipse transform="matrix(0.9984 -5.684313e-02 5.684313e-02 0.9984 -0.9863 5.2936)" class="st36" cx="92.6" cy="20" rx="2.4" ry="2.3"/>
	<g>
		<g>
			<path class="st37" d="M72.3,49.2C72.2,49.2,72.2,49.2,72.3,49.2c-0.1,0-0.2,0-0.2,0c-0.3,0-0.6-0.2-0.9-0.4
				c-0.3-0.2-0.5-0.5-0.7-0.8c-0.1-0.2-0.2-0.4-0.3-0.6C70,47.2,70,47,69.9,46.7c-0.1-0.3-0.1-0.5-0.1-0.8c0-0.3,0-0.6-0.1-0.9
				c0-0.7,0.1-1.3,0.2-1.9c0.1-0.6,0.3-1.1,0.5-1.6c0.2-0.5,0.5-0.9,0.8-1.1c0.3-0.3,0.6-0.4,0.9-0.4c0.3,0,0.5,0,0.7,0.2
				c0.1,0.1,0.2,0.1,0.3,0.2c0.1,0.1,0.2,0.2,0.3,0.3c0.3,0.5,0.6,1.2,0.7,2.1c0,0.1,0,0.2-0.1,0.3c-0.1,0.1-0.2,0.2-0.3,0.2
				c-0.1,0-0.2,0-0.3-0.1s-0.2-0.2-0.2-0.3c-0.1-0.7-0.3-1.3-0.5-1.6s-0.4-0.5-0.6-0.5c-0.1,0-0.2,0.1-0.4,0.2
				c-0.2,0.2-0.3,0.4-0.5,0.8c-0.2,0.4-0.3,0.9-0.4,1.4s-0.1,1.1-0.1,1.6c0,0.7,0.1,1.2,0.2,1.6s0.2,0.7,0.4,0.9
				c0.3,0.5,0.6,0.7,1,0.8c0.3,0,0.5-0.1,0.8-0.3c0.2-0.2,0.4-0.5,0.5-0.9c0-0.1,0.1-0.2,0.2-0.3s0.2-0.1,0.3-0.1
				c0.1,0,0.2,0.1,0.3,0.2c0.1,0.1,0.1,0.2,0.1,0.3c-0.1,0.3-0.2,0.6-0.3,0.8c-0.1,0.3-0.3,0.5-0.5,0.6C73.1,49,72.7,49.2,72.3,49.2
				z"/>
			<path class="st37" d="M76.1,49.2L76.1,49.2c-0.1,0-0.2-0.1-0.3-0.2s-0.1-0.2-0.1-0.3c0-0.3,0-0.6,0-0.9c0-0.3,0-0.6,0-0.9
				c0-1.1,0.1-2.3,0.1-3.4c0-1.2,0-2.4-0.1-3.6c0-0.1,0-0.2,0.1-0.3s0.2-0.1,0.3-0.2c0.1,0,0.2,0,0.3,0.1c0.1,0.1,0.1,0.2,0.2,0.3
				c0,0.8,0.1,1.6,0.1,2.4c0,0.8,0,1.6,0,2.3c0.1-0.2,0.3-0.4,0.4-0.6c0.2-0.2,0.4-0.3,0.5-0.4c0.2-0.1,0.3-0.1,0.4-0.1
				c0.1,0,0.2,0,0.4,0.1c0.2,0.1,0.3,0.2,0.5,0.3c0.2,0.2,0.4,0.6,0.6,1c0.3,0.9,0.5,2.1,0.5,3.6c0,0.1,0,0.2-0.1,0.3
				c-0.1,0.1-0.2,0.1-0.3,0.1h0c-0.1,0-0.2,0-0.3-0.1c-0.1-0.1-0.1-0.2-0.1-0.3c0-0.9-0.1-1.6-0.2-2.1c-0.1-0.5-0.2-0.9-0.3-1.2
				c-0.1-0.3-0.2-0.5-0.4-0.6c-0.1-0.1-0.2-0.2-0.3-0.2c-0.1,0-0.2,0.1-0.3,0.2s-0.3,0.4-0.5,0.8c-0.2,0.4-0.4,0.9-0.5,1.5
				s-0.2,1.2-0.3,1.9c0,0.1-0.1,0.2-0.1,0.3C76.3,49.2,76.2,49.2,76.1,49.2z"/>
			<path class="st37" d="M81.7,42.3c0.1,0,0.2,0,0.3,0.1c0.1,0.1,0.1,0.2,0.1,0.3c0,0.6,0,1.2,0,1.8c0,0.5,0,1.1,0,1.6
				c0,0.4,0,0.8,0,1.3c0,0.4,0,0.9,0,1.4c0,0.1,0,0.2-0.1,0.3c-0.1,0.1-0.2,0.1-0.3,0.1c-0.1,0-0.2,0-0.3-0.1s-0.1-0.2-0.1-0.3
				c0-0.5,0-1,0-1.4s0-0.9,0-1.3c0-0.5,0-1,0-1.6c0-0.5,0-1.1,0-1.8c0-0.1,0-0.2,0.1-0.3C81.5,42.3,81.6,42.2,81.7,42.3z M81.8,41
				c-0.1,0-0.2,0-0.3-0.1s-0.1-0.2-0.1-0.3c0-0.1,0-0.2,0.1-0.3c0.1-0.1,0.2-0.1,0.3-0.1s0.2,0,0.3,0.1c0.1,0.1,0.1,0.2,0.1,0.3
				c0,0.1,0,0.2-0.1,0.3C82,40.9,81.9,41,81.8,41z"/>
			<path class="st37" d="M85,49.2c-0.2,0-0.4,0-0.6,0c-0.2,0-0.4,0-0.5,0c-0.1,0-0.2-0.1-0.3-0.2c-0.1-0.1-0.1-0.2-0.1-0.3
				c0-0.8,0.1-1.6,0.1-2.3c0-0.7,0-1.5,0.1-2.2s0-1.4,0-2.2c0-0.7,0-1.5,0-2.3c0-0.1,0-0.2,0.1-0.3s0.2-0.1,0.3-0.1
				c0.1,0,0.2,0,0.3,0.1s0.1,0.2,0.1,0.3c0,0.7,0,1.5,0,2.2c0,0.7,0,1.4,0,2.1s0,1.4,0,2.1c0,0.7,0,1.4-0.1,2.2c0.5,0,1,0,1.6,0
				c0.1,0,0.2,0,0.3,0.1c0.1,0.1,0.2,0.2,0.2,0.3c0,0.1,0,0.2-0.1,0.3c-0.1,0.1-0.2,0.2-0.3,0.2c-0.2,0-0.4,0-0.6,0
				C85.3,49.2,85.2,49.2,85,49.2z"/>
			<path class="st37" d="M90.6,39.4L90.6,39.4c0.1,0,0.3,0.1,0.3,0.2c0.1,0.1,0.1,0.2,0.1,0.3c0,0.6,0,1.2,0,1.9c0,0.7,0,1.4,0,2.2
				c0,0.8,0,1.6,0,2.4c0,0.8,0,1.6,0.1,2.4c0,0.1,0,0.2-0.1,0.3c-0.1,0.1-0.2,0.1-0.3,0.2c-0.4,0-0.8-0.1-1.2-0.2
				c-0.4-0.1-0.7-0.4-1-0.6c-0.3-0.3-0.5-0.6-0.6-0.9c-0.2-0.4-0.3-0.7-0.3-1.1c-0.1-0.4-0.1-0.8,0-1.2c0.1-0.4,0.2-0.8,0.4-1.1
				c0.2-0.4,0.5-0.7,0.9-1s0.8-0.4,1.3-0.5c0-0.2,0-0.4,0-0.6s0-0.5,0-0.7c0-0.2,0-0.5,0-0.7c0-0.2,0-0.4,0-0.6c0-0.1,0-0.2,0.1-0.3
				C90.4,39.4,90.5,39.4,90.6,39.4z M90.1,48.2c-0.1-1.7-0.1-3.3,0-4.8c-0.4,0.1-0.7,0.3-0.9,0.5s-0.4,0.4-0.5,0.7
				c-0.1,0.2-0.2,0.5-0.2,0.8c0,0.3,0,0.5,0,0.8c0,0.2,0.1,0.5,0.2,0.7s0.2,0.4,0.3,0.6c0.1,0.2,0.3,0.4,0.5,0.5
				S89.9,48.2,90.1,48.2z"/>
			<path class="st37" d="M93,49.2L93,49.2c-0.1,0-0.3-0.1-0.3-0.1c-0.1-0.1-0.1-0.2-0.1-0.3c0-0.4,0-0.8,0-1.2c0-0.4,0-0.8,0-1.1
				c0-1,0.1-1.9,0.1-2.9s-0.1-2-0.2-3c0-0.1,0-0.2,0.1-0.3c0.1-0.1,0.2-0.2,0.3-0.2s0.2,0,0.3,0.1c0.1,0.1,0.2,0.2,0.2,0.3
				c0,0.1,0,0.3,0,0.4c0,0.1,0,0.3,0,0.4c0.1-0.1,0.1-0.2,0.2-0.3s0.2-0.2,0.3-0.3c0.4-0.4,1-0.6,1.7-0.6c0.1,0,0.2,0,0.3,0.1
				s0.1,0.2,0.1,0.3c0,0.1,0,0.2-0.1,0.3c-0.1,0.1-0.2,0.1-0.3,0.1c-0.4,0-0.8,0.1-1,0.3c-0.3,0.2-0.5,0.6-0.6,1.1
				c-0.2,0.5-0.3,1.1-0.3,1.8c0,0.7-0.1,1.5-0.1,2.3c0,0.4,0,0.7,0,1.1c0,0.4,0,0.7-0.1,1.1c0,0.1-0.1,0.2-0.1,0.3
				C93.2,49.2,93.1,49.2,93,49.2z"/>
			<path class="st37" d="M99.2,49.2c-0.1,0-0.2,0-0.2,0c-0.3,0-0.6-0.2-0.9-0.4c-0.3-0.2-0.5-0.5-0.7-0.9c-0.2-0.4-0.4-0.8-0.5-1.3
				c-0.1-0.3-0.1-0.5-0.1-0.8c0-0.3,0-0.6-0.1-0.9c0-0.6,0.1-1.2,0.2-1.8c0.1-0.6,0.3-1.1,0.5-1.5c0.2-0.5,0.5-0.8,0.7-1.1
				c0.3-0.3,0.6-0.4,0.9-0.4c0.3,0,0.5,0,0.8,0.2c0.2,0.2,0.4,0.4,0.6,0.6c0.3,0.5,0.6,1.3,0.7,2.4c0,0.1,0,0.3-0.1,0.4
				c-0.1,0.1-0.2,0.2-0.3,0.2l-3,0.1c0,0.2,0,0.3,0,0.5s0,0.3,0,0.5c0,0.5,0.1,1,0.2,1.5c0.1,0.4,0.2,0.8,0.4,1.1
				c0.3,0.5,0.6,0.7,1,0.8c0.3,0,0.6-0.1,0.8-0.3s0.4-0.6,0.5-1c0-0.1,0.1-0.2,0.2-0.3c0.1-0.1,0.2-0.1,0.3-0.1
				c0.1,0,0.2,0.1,0.3,0.2c0.1,0.1,0.1,0.2,0.1,0.3c-0.1,0.3-0.2,0.6-0.3,0.9c-0.1,0.3-0.3,0.5-0.5,0.6
				C100.1,49,99.7,49.2,99.2,49.2z M99,40.9L99,40.9c-0.1,0-0.2,0.1-0.4,0.2c-0.2,0.1-0.3,0.4-0.5,0.8c-0.1,0.1-0.1,0.3-0.2,0.5
				c-0.1,0.2-0.1,0.4-0.1,0.6l2.2-0.1c-0.1-0.4-0.2-0.7-0.3-1c-0.1-0.2-0.2-0.4-0.3-0.5c-0.1-0.1-0.1-0.2-0.2-0.3S99.1,40.9,99,40.9
				z"/>
			<path class="st37" d="M106.5,49.2L106.5,49.2c-0.1,0-0.3-0.1-0.3-0.2s-0.1-0.2-0.1-0.3c0-0.5,0-0.9,0-1.3c0-0.4,0-0.8,0-1.3
				c0-0.5,0-1-0.1-1.4c0-0.6-0.1-1.1-0.2-1.5c-0.1-0.4-0.1-0.8-0.2-1.2c-0.1-0.4-0.2-0.6-0.3-0.8s-0.2-0.2-0.2-0.2c0,0,0,0,0,0
				s0,0-0.1,0c-0.1,0-0.1,0.1-0.2,0.3c-0.1,0.1-0.2,0.4-0.3,0.7s-0.2,0.7-0.3,1.2c-0.1,0.5-0.2,1.1-0.2,1.9c0,0.4-0.1,0.9-0.1,1.3
				c0,0.4,0,0.8-0.1,1.1s0,0.7,0,1.1c0,0.1,0,0.2-0.1,0.3s-0.2,0.1-0.3,0.1h0c-0.1,0-0.2,0-0.3-0.1c-0.1-0.1-0.1-0.2-0.1-0.3
				l-0.2-8.1c0-0.1,0-0.2,0.1-0.3s0.2-0.1,0.3-0.2c0.1,0,0.2,0,0.3,0.1s0.1,0.2,0.2,0.3l0,1.3c0.2-0.6,0.4-1.1,0.7-1.4
				c0.1-0.1,0.3-0.2,0.4-0.2c0.1,0,0.3,0,0.4,0c0.1,0,0.3,0.1,0.4,0.1c0.2,0.1,0.3,0.2,0.5,0.5c0.2,0.3,0.3,0.6,0.4,1.1
				c0.1,0.4,0.2,0.8,0.2,1.3c0.1,0.5,0.1,1,0.2,1.6c0,0.5,0.1,1,0.1,1.5c0,0.5,0,0.9,0,1.3c0,0.4,0,0.7,0,0.9c0,0.2,0,0.4,0,0.4
				c0,0.1-0.1,0.2-0.1,0.3S106.6,49.2,106.5,49.2z"/>
			<path class="st37" d="M108.8,41c0.1,0,0.2,0,0.3,0.1c0.1,0.1,0.1,0.2,0.1,0.3c0,0.4,0,0.6,0,0.8c0,0.2,0,0.3,0,0.3
				c0,0.1,0,0.1,0,0.1s0,0,0,0.1s0,0.2,0,0.4c0,0.2,0,0.5,0,0.9c0,0.1,0,0.2-0.1,0.3c-0.1,0.1-0.2,0.1-0.3,0.1c-0.1,0-0.2,0-0.3-0.1
				s-0.1-0.2-0.1-0.3c0-0.4,0-0.7,0-0.9s0-0.3,0-0.4c0-0.1,0-0.1,0-0.1s0,0,0-0.1c0-0.1,0-0.2,0-0.3c0-0.2,0-0.4,0-0.8
				c0-0.1,0-0.2,0.1-0.3C108.6,41,108.7,41,108.8,41z"/>
			<path class="st37" d="M112.6,49.2c-0.2,0-0.5,0-0.7-0.1c-0.3-0.1-0.6-0.3-0.8-0.6c-0.2-0.3-0.4-0.7-0.4-1.1c0-0.1,0-0.2,0.1-0.3
				c0.1-0.1,0.2-0.2,0.3-0.2c0.1,0,0.2,0,0.3,0.1c0.1,0.1,0.2,0.2,0.2,0.3c0,0.3,0.1,0.6,0.3,0.7c0.2,0.1,0.3,0.2,0.4,0.3
				c0.1,0.1,0.3,0.1,0.5,0.1c0.2,0,0.3-0.1,0.4-0.1c0.2-0.1,0.2-0.3,0.2-0.6c-0.1-0.4-0.2-0.9-0.5-1.4c-0.3-0.5-0.5-1-0.8-1.5
				c-0.3-0.6-0.6-1.1-0.9-1.6c-0.3-0.5-0.4-1-0.5-1.4c0-0.3,0-0.5,0.1-0.7s0.2-0.4,0.4-0.6c0.2-0.2,0.5-0.2,0.7-0.3
				c0.3,0,0.6,0,0.8,0.1c0.4,0.2,0.7,0.5,1,0.9c0.1,0.2,0.2,0.4,0.3,0.7c0.1,0.3,0.1,0.6,0.2,0.9c0,0.1,0,0.2-0.1,0.3
				c-0.1,0.1-0.2,0.2-0.3,0.2s-0.2,0-0.3-0.1c-0.1-0.1-0.2-0.2-0.2-0.3c0-0.3-0.1-0.6-0.2-0.8c-0.1-0.2-0.2-0.4-0.3-0.5
				s-0.2-0.2-0.3-0.3s-0.2-0.1-0.2-0.1c-0.3-0.1-0.5-0.1-0.6,0c-0.1,0.1-0.2,0.3-0.2,0.5c0,0.3,0.2,0.7,0.4,1.2
				c0.2,0.5,0.5,0.9,0.8,1.4c0.3,0.6,0.6,1.1,0.9,1.7c0.3,0.6,0.5,1.1,0.5,1.5c0.1,0.3,0,0.6-0.1,0.9c-0.1,0.3-0.2,0.5-0.5,0.6
				c-0.2,0.2-0.5,0.3-0.9,0.3C112.7,49.2,112.7,49.2,112.6,49.2z"/>
			<path class="st37" d="M121.5,49.2c-0.2,0-0.4,0-0.6,0c-0.2,0-0.4,0-0.5,0c-0.1,0-0.2-0.1-0.3-0.2s-0.1-0.2-0.1-0.3
				c0-0.8,0.1-1.5,0.1-2.2c0-0.7,0-1.3,0.1-1.9c0-0.6,0-1.3,0-1.9s0-1.4,0-2.1c0-0.1,0-0.2,0.1-0.3s0.2-0.1,0.3-0.1
				c0.1,0,0.2,0,0.3,0.1s0.1,0.2,0.1,0.3c0,0.7,0,1.4,0,2s0,1.2,0,1.8c0,0.6,0,1.2,0,1.8c0,0.6,0,1.3-0.1,2.1c0.1,0,0.3,0,0.5,0
				s0.5,0,0.7,0c0.2,0,0.5,0,0.7,0c0.2,0,0.4,0,0.5,0c0.1,0,0.2,0,0.3,0.1c0.1,0.1,0.2,0.2,0.2,0.3c0,0.1,0,0.2-0.1,0.3
				c-0.1,0.1-0.2,0.2-0.3,0.2c-0.1,0-0.2,0-0.4,0c-0.2,0-0.4,0-0.6,0c-0.2,0-0.4,0-0.6,0C121.7,49.2,121.6,49.2,121.5,49.2z"/>
			<path class="st37" d="M125.5,42.3c0.1,0,0.2,0,0.3,0.1c0.1,0.1,0.1,0.2,0.1,0.3c0,0.6,0,1.2,0,1.8c0,0.5,0,1.1,0,1.6
				c0,0.4,0,0.8,0,1.3c0,0.4,0,0.9,0,1.4c0,0.1,0,0.2-0.1,0.3c-0.1,0.1-0.2,0.1-0.3,0.1c-0.1,0-0.2,0-0.3-0.1s-0.1-0.2-0.1-0.3
				c0-0.5,0-1,0-1.4s0-0.9,0-1.3c0-0.5,0-1,0-1.6c0-0.5,0-1.1,0-1.8c0-0.1,0-0.2,0.1-0.3C125.2,42.3,125.3,42.2,125.5,42.3z
				 M125.5,41c-0.1,0-0.2,0-0.3-0.1s-0.1-0.2-0.1-0.3c0-0.1,0-0.2,0.1-0.3c0.1-0.1,0.2-0.1,0.3-0.1s0.2,0,0.3,0.1
				c0.1,0.1,0.1,0.2,0.1,0.3c0,0.1,0,0.2-0.1,0.3C125.7,40.9,125.6,41,125.5,41z"/>
			<path class="st37" d="M127.7,39.4c0.1,0,0.2,0,0.3,0.1s0.1,0.2,0.1,0.3c0,0.2,0,0.4,0,0.6c0,0.2,0,0.5,0,0.7c0,0.2,0,0.5,0,0.7
				s0,0.4,0,0.6c0.5,0.1,0.9,0.3,1.3,0.5c0.4,0.2,0.7,0.6,0.9,1c0.2,0.3,0.3,0.7,0.4,1.1c0.1,0.4,0.1,0.8,0,1.2
				c-0.1,0.4-0.2,0.8-0.3,1.1s-0.4,0.7-0.6,0.9c-0.3,0.3-0.6,0.5-1,0.6c-0.4,0.2-0.8,0.2-1.2,0.2c-0.1,0-0.2-0.1-0.3-0.2
				s-0.1-0.2-0.1-0.3c0-0.8,0-1.6,0.1-2.4c0-0.8,0-1.6,0-2.4s0-1.5,0-2.2c0-0.7,0-1.3,0-1.9c0-0.1,0-0.2,0.1-0.3
				S127.6,39.4,127.7,39.4L127.7,39.4z M128.2,48.2c0.3,0,0.5-0.1,0.7-0.3c0.2-0.1,0.4-0.3,0.5-0.5s0.3-0.4,0.3-0.6s0.1-0.5,0.2-0.7
				c0-0.3,0-0.5,0-0.8c0-0.3-0.1-0.5-0.2-0.8c-0.1-0.2-0.3-0.5-0.5-0.7s-0.5-0.4-0.9-0.5C128.2,44.9,128.2,46.5,128.2,48.2z"/>
			<path class="st37" d="M132.6,49.2L132.6,49.2c-0.1,0-0.3-0.1-0.3-0.1c-0.1-0.1-0.1-0.2-0.1-0.3c0-0.4,0-0.8,0-1.2
				c0-0.4,0-0.8,0-1.1c0-1,0.1-1.9,0.1-2.9s-0.1-2-0.2-3c0-0.1,0-0.2,0.1-0.3c0.1-0.1,0.2-0.2,0.3-0.2s0.2,0,0.3,0.1
				c0.1,0.1,0.2,0.2,0.2,0.3c0,0.1,0,0.3,0,0.4c0,0.1,0,0.3,0,0.4c0.1-0.1,0.1-0.2,0.2-0.3s0.2-0.2,0.3-0.3c0.4-0.4,1-0.6,1.7-0.6
				c0.1,0,0.2,0,0.3,0.1s0.1,0.2,0.1,0.3c0,0.1,0,0.2-0.1,0.3s-0.2,0.1-0.3,0.1c-0.4,0-0.8,0.1-1,0.3s-0.5,0.6-0.6,1.1
				c-0.2,0.5-0.3,1.1-0.3,1.8c0,0.7-0.1,1.5-0.1,2.3c0,0.4,0,0.7,0,1.1c0,0.4,0,0.7-0.1,1.1c0,0.1-0.1,0.2-0.1,0.3
				C132.8,49.2,132.7,49.2,132.6,49.2z"/>
			<path class="st37" d="M140.5,41.1c0.2,0.5,0.4,1.1,0.3,1.9c0,0.8,0,1.6-0.1,2.6c0,0.5-0.1,1-0.1,1.5s0,1.1-0.1,1.7
				c0,0.1,0,0.2-0.1,0.3c-0.1,0.1-0.2,0.1-0.3,0.1c-0.1,0-0.2,0-0.3-0.1c-0.2,0.1-0.5,0.1-0.7,0.1c-0.1,0-0.2,0-0.3,0
				c-0.1,0-0.2,0-0.3,0c-0.5-0.1-0.9-0.4-1.2-0.8c-0.1-0.2-0.3-0.4-0.3-0.6s-0.1-0.5-0.2-0.7c0-0.3,0-0.5,0.1-0.7
				c0.1-0.2,0.2-0.5,0.3-0.7c0.3-0.4,0.7-0.7,1.2-0.9c0.2-0.1,0.5-0.1,0.7-0.1c0.2,0,0.5,0,0.8,0c0-0.7,0.1-1.3,0-1.9
				s-0.1-1-0.2-1.3c-0.1-0.3-0.4-0.4-0.6-0.5c-0.2,0-0.5,0-0.7,0.1c-0.3,0.1-0.5,0.3-0.8,0.5c-0.1,0.1-0.2,0.1-0.3,0.1
				c-0.1,0-0.2-0.1-0.3-0.2c-0.1-0.1-0.1-0.2-0.1-0.3s0.1-0.2,0.2-0.3c0.3-0.3,0.7-0.6,1.1-0.7c0.4-0.1,0.8-0.2,1.2-0.1
				c0.3,0.1,0.5,0.2,0.8,0.4C140.2,40.6,140.4,40.8,140.5,41.1z M138.1,47.8c0.4,0.5,0.9,0.6,1.7,0.4c0-0.5,0-0.9,0.1-1.4
				s0-0.9,0.1-1.3v0c-0.4-0.1-0.8-0.1-1.1,0c-0.3,0.1-0.6,0.3-0.7,0.6c-0.2,0.3-0.2,0.5-0.2,0.9S137.9,47.6,138.1,47.8z"/>
			<path class="st37" d="M142.9,49.2L142.9,49.2c-0.1,0-0.3-0.1-0.3-0.1s-0.1-0.2-0.1-0.3c0-0.4,0-0.8,0-1.2c0-0.4,0-0.8,0-1.1
				c0-1,0.1-1.9,0.1-2.9c0-1-0.1-2-0.2-3c0-0.1,0-0.2,0.1-0.3c0.1-0.1,0.2-0.2,0.3-0.2c0.1,0,0.2,0,0.3,0.1c0.1,0.1,0.2,0.2,0.2,0.3
				c0,0.1,0,0.3,0,0.4c0,0.1,0,0.3,0,0.4c0.1-0.1,0.1-0.2,0.2-0.3s0.2-0.2,0.3-0.3c0.4-0.4,1-0.6,1.7-0.6c0.1,0,0.2,0,0.3,0.1
				s0.1,0.2,0.1,0.3c0,0.1,0,0.2-0.1,0.3s-0.2,0.1-0.3,0.1c-0.4,0-0.8,0.1-1,0.3s-0.5,0.6-0.6,1.1c-0.2,0.5-0.3,1.1-0.3,1.8
				c0,0.7-0.1,1.5-0.1,2.3c0,0.4,0,0.7,0,1.1c0,0.4,0,0.7-0.1,1.1c0,0.1-0.1,0.2-0.1,0.3C143.1,49.2,143,49.2,142.9,49.2z"/>
			<path class="st37" d="M150.6,40c0.1,0,0.2,0.1,0.3,0.2s0.1,0.2,0,0.3c-0.1,0.4-0.2,0.8-0.3,1.2c-0.1,0.4-0.2,0.8-0.3,1.2
				c-0.3,1.3-0.6,2.5-0.9,3.7s-0.6,2.4-1,3.6c-0.1,0.2-0.2,0.3-0.4,0.3c0,0-0.1,0-0.1,0s0,0-0.1,0c-0.1,0-0.2-0.1-0.3-0.2
				c-0.1-0.1-0.1-0.2,0-0.3c0.2-0.5,0.3-1.1,0.5-1.6s0.3-1.1,0.4-1.6h0c-0.1-0.3-0.2-0.7-0.3-1.1c-0.1-0.4-0.2-0.8-0.3-1.2
				c-0.2-0.6-0.3-1.2-0.5-1.9s-0.3-1.3-0.5-1.9c0-0.1,0-0.2,0.1-0.3s0.2-0.2,0.3-0.2c0.1,0,0.2,0,0.3,0.1c0.1,0.1,0.2,0.2,0.2,0.3
				c0.1,0.6,0.3,1.3,0.5,1.9c0.2,0.6,0.3,1.2,0.5,1.9l0.2,0.6c0.1-0.3,0.2-0.7,0.2-1c0.1-0.3,0.2-0.7,0.2-1c0.1-0.4,0.2-0.8,0.3-1.2
				c0.1-0.4,0.2-0.8,0.3-1.2c0-0.1,0.1-0.2,0.2-0.3C150.4,40,150.5,40,150.6,40z"/>
		</g>
	</g>
</g>
</svg>
